<svg xmlns="http://www.w3.org/2000/svg" xmlns:xlink="http://www.w3.org/1999/xlink" width="402" height="404" viewBox="0 0 402 404">
  <defs>
    <clipPath id="clip-path">
      <rect id="Rectángulo_401258" data-name="Rectángulo 401258" width="158.226" height="140.275" fill="#405f5a"/>
    </clipPath>
    <clipPath id="clip-path-2">
      <path id="Trazado_873467" data-name="Trazado 873467" d="M140.067,72.316A61.377,61.377,0,1,1,78.689,10.939a61.378,61.378,0,0,1,61.378,61.377" transform="translate(-17.313 -10.939)" fill="#2436b1"/>
    </clipPath>
    <clipPath id="clip-path-3">
      <rect id="Rectángulo_402356" data-name="Rectángulo 402356" width="399.971" height="321.571" fill="none"/>
    </clipPath>
    <clipPath id="clip-path-5">
      <rect id="Rectángulo_402353" data-name="Rectángulo 402353" width="46.656" height="20.455" fill="none"/>
    </clipPath>
  </defs>
  <g id="Grupo_1101460" data-name="Grupo 1101460" transform="translate(-283.333 -569)">
    <rect id="Rectángulo_401253" data-name="Rectángulo 401253" width="402" height="404" rx="10" transform="translate(283.333 569)" fill="#d2d6ef"/>
    <g id="Grupo_1099438" data-name="Grupo 1099438" transform="translate(475 808.934)">
      <g id="Grupo_1099431" data-name="Grupo 1099431" clip-path="url(#clip-path)">
        <path id="Trazado_873431" data-name="Trazado 873431" d="M0,3.158A3.158,3.158,0,1,0,3.158,0,3.158,3.158,0,0,0,0,3.158" transform="translate(151.909)" fill="#405f5a"/>
        <path id="Trazado_873432" data-name="Trazado 873432" d="M28.954,3.158A3.158,3.158,0,1,0,32.112,0a3.158,3.158,0,0,0-3.158,3.158" transform="translate(92.572)" fill="#405f5a"/>
        <path id="Trazado_873433" data-name="Trazado 873433" d="M57.907,3.158A3.158,3.158,0,1,0,61.065,0a3.158,3.158,0,0,0-3.158,3.158" transform="translate(33.238)" fill="#405f5a"/>
        <path id="Trazado_873434" data-name="Trazado 873434" d="M86.86,3.158A3.158,3.158,0,1,0,90.018,0,3.158,3.158,0,0,0,86.86,3.158" transform="translate(-26.096)" fill="#405f5a"/>
        <path id="Trazado_873435" data-name="Trazado 873435" d="M115.813,3.158A3.159,3.159,0,1,0,118.971,0a3.159,3.159,0,0,0-3.158,3.158" transform="translate(-85.432)" fill="#405f5a"/>
        <path id="Trazado_873436" data-name="Trazado 873436" d="M144.767,3.158A3.158,3.158,0,1,0,147.925,0a3.158,3.158,0,0,0-3.158,3.158" transform="translate(-144.767)" fill="#405f5a"/>
        <path id="Trazado_873437" data-name="Trazado 873437" d="M0,35.073a3.158,3.158,0,1,0,3.158-3.158A3.159,3.159,0,0,0,0,35.073" transform="translate(151.909 1.574)" fill="#405f5a"/>
        <path id="Trazado_873438" data-name="Trazado 873438" d="M28.954,35.073a3.158,3.158,0,1,0,3.158-3.158,3.159,3.159,0,0,0-3.158,3.158" transform="translate(92.572 1.574)" fill="#405f5a"/>
        <path id="Trazado_873439" data-name="Trazado 873439" d="M57.907,35.073a3.158,3.158,0,1,0,3.158-3.158,3.159,3.159,0,0,0-3.158,3.158" transform="translate(33.238 1.574)" fill="#405f5a"/>
        <path id="Trazado_873440" data-name="Trazado 873440" d="M86.86,35.073a3.158,3.158,0,1,0,3.158-3.158,3.159,3.159,0,0,0-3.158,3.158" transform="translate(-26.096 1.574)" fill="#405f5a"/>
        <path id="Trazado_873441" data-name="Trazado 873441" d="M115.813,35.073a3.159,3.159,0,1,0,3.158-3.158,3.16,3.16,0,0,0-3.158,3.158" transform="translate(-85.432 1.574)" fill="#405f5a"/>
        <path id="Trazado_873442" data-name="Trazado 873442" d="M144.767,35.073a3.158,3.158,0,1,0,3.158-3.158,3.159,3.159,0,0,0-3.158,3.158" transform="translate(-144.767 1.574)" fill="#405f5a"/>
        <path id="Trazado_873443" data-name="Trazado 873443" d="M0,66.988A3.158,3.158,0,1,0,3.158,63.83,3.159,3.159,0,0,0,0,66.988" transform="translate(151.909 3.149)" fill="#405f5a"/>
        <path id="Trazado_873444" data-name="Trazado 873444" d="M28.954,66.988a3.158,3.158,0,1,0,3.158-3.158,3.159,3.159,0,0,0-3.158,3.158" transform="translate(92.572 3.149)" fill="#405f5a"/>
        <path id="Trazado_873445" data-name="Trazado 873445" d="M57.907,66.988a3.158,3.158,0,1,0,3.158-3.158,3.159,3.159,0,0,0-3.158,3.158" transform="translate(33.238 3.149)" fill="#405f5a"/>
        <path id="Trazado_873446" data-name="Trazado 873446" d="M86.86,66.988a3.158,3.158,0,1,0,3.158-3.158,3.159,3.159,0,0,0-3.158,3.158" transform="translate(-26.096 3.149)" fill="#405f5a"/>
        <path id="Trazado_873447" data-name="Trazado 873447" d="M115.813,66.988a3.159,3.159,0,1,0,3.158-3.158,3.16,3.16,0,0,0-3.158,3.158" transform="translate(-85.432 3.149)" fill="#405f5a"/>
        <path id="Trazado_873448" data-name="Trazado 873448" d="M144.767,66.988a3.158,3.158,0,1,0,3.158-3.158,3.159,3.159,0,0,0-3.158,3.158" transform="translate(-144.767 3.149)" fill="#405f5a"/>
        <path id="Trazado_873449" data-name="Trazado 873449" d="M0,98.9a3.158,3.158,0,1,0,3.158-3.158A3.159,3.159,0,0,0,0,98.9" transform="translate(151.909 4.723)" fill="#405f5a"/>
        <path id="Trazado_873450" data-name="Trazado 873450" d="M28.954,98.9a3.158,3.158,0,1,0,3.158-3.158A3.159,3.159,0,0,0,28.954,98.9" transform="translate(92.572 4.723)" fill="#405f5a"/>
        <path id="Trazado_873451" data-name="Trazado 873451" d="M57.907,98.9a3.158,3.158,0,1,0,3.158-3.158A3.159,3.159,0,0,0,57.907,98.9" transform="translate(33.238 4.723)" fill="#405f5a"/>
        <path id="Trazado_873452" data-name="Trazado 873452" d="M86.86,98.9a3.158,3.158,0,1,0,3.158-3.158A3.159,3.159,0,0,0,86.86,98.9" transform="translate(-26.096 4.723)" fill="#405f5a"/>
        <path id="Trazado_873453" data-name="Trazado 873453" d="M115.813,98.9a3.159,3.159,0,1,0,3.158-3.158,3.16,3.16,0,0,0-3.158,3.158" transform="translate(-85.432 4.723)" fill="#405f5a"/>
        <path id="Trazado_873454" data-name="Trazado 873454" d="M144.767,98.9a3.158,3.158,0,1,0,3.158-3.158,3.159,3.159,0,0,0-3.158,3.158" transform="translate(-144.767 4.723)" fill="#405f5a"/>
        <path id="Trazado_873455" data-name="Trazado 873455" d="M0,130.818a3.158,3.158,0,1,0,3.158-3.159A3.159,3.159,0,0,0,0,130.818" transform="translate(151.909 6.298)" fill="#405f5a"/>
        <path id="Trazado_873456" data-name="Trazado 873456" d="M28.954,130.818a3.158,3.158,0,1,0,3.158-3.159,3.159,3.159,0,0,0-3.158,3.159" transform="translate(92.572 6.298)" fill="#405f5a"/>
        <path id="Trazado_873457" data-name="Trazado 873457" d="M57.907,130.818a3.158,3.158,0,1,0,3.158-3.159,3.159,3.159,0,0,0-3.158,3.159" transform="translate(33.238 6.298)" fill="#405f5a"/>
        <path id="Trazado_873458" data-name="Trazado 873458" d="M86.86,130.818a3.158,3.158,0,1,0,3.158-3.159,3.159,3.159,0,0,0-3.158,3.159" transform="translate(-26.096 6.298)" fill="#405f5a"/>
        <path id="Trazado_873459" data-name="Trazado 873459" d="M115.813,130.818a3.159,3.159,0,1,0,3.158-3.159,3.16,3.16,0,0,0-3.158,3.159" transform="translate(-85.432 6.298)" fill="#405f5a"/>
        <path id="Trazado_873460" data-name="Trazado 873460" d="M144.767,130.818a3.158,3.158,0,1,0,3.158-3.159,3.159,3.159,0,0,0-3.158,3.159" transform="translate(-144.767 6.298)" fill="#405f5a"/>
      </g>
    </g>
    <g id="Grupo_1101459" data-name="Grupo 1101459" transform="translate(322.282 590.694)">
      <g id="Grupo_1099433" data-name="Grupo 1099433" clip-path="url(#clip-path-2)">
        <path id="Trazado_873461" data-name="Trazado 873461" d="M25,29.944,48.059,6.883,69.771,28.6,91.606,6.761l22.816,22.816,22.57-22.57L157.381,27.4l3.38-3.38L136.992.246l-22.57,22.569L91.606,0,69.771,21.833,48.059.122,25,23.184,3.382,1.568,0,4.947Z" transform="translate(-13.983 -15.18)" fill="#2436b1"/>
        <path id="Trazado_873462" data-name="Trazado 873462" d="M25,46.74l23.062-23.06,21.711,21.71L91.606,23.556l22.816,22.816,22.57-22.57,20.389,20.39,3.38-3.382L136.992,17.041l-22.57,22.57L91.606,16.8,69.771,38.63,48.059,16.919,25,39.979,3.382,18.363,0,21.742Z" transform="translate(-13.983 -8.669)" fill="#2436b1"/>
        <path id="Trazado_873463" data-name="Trazado 873463" d="M25,63.535l23.062-23.06L69.771,62.186,91.606,40.353l22.816,22.815,22.57-22.57,20.389,20.39,3.38-3.382L136.992,33.836l-22.57,22.57L91.606,33.59,69.771,55.425,48.059,33.714,25,56.774,3.382,35.158,0,38.539Z" transform="translate(-13.983 -2.158)" fill="#2436b1"/>
        <path id="Trazado_873464" data-name="Trazado 873464" d="M25,80.331,48.059,57.269,69.771,78.981,91.606,57.147l22.816,22.816,22.57-22.572,20.389,20.39,3.38-3.38L136.992,50.632,114.422,73.2,91.606,50.387,69.771,72.221,48.059,50.509,25,73.57,3.382,51.953,0,55.334Z" transform="translate(-13.983 4.353)" fill="#2436b1"/>
        <path id="Trazado_873465" data-name="Trazado 873465" d="M25,97.126,48.059,74.065,69.771,95.776,91.606,73.942l22.816,22.816,22.57-22.57,20.389,20.39,3.38-3.38L136.992,67.427,114.422,90,91.606,67.182,69.771,89.017,48.059,67.305,25,90.367,3.382,68.75,0,72.13Z" transform="translate(-13.983 10.864)" fill="#2436b1"/>
        <path id="Trazado_873466" data-name="Trazado 873466" d="M25,113.921l23.062-23.06,21.711,21.711L91.606,90.739l22.816,22.815,22.57-22.57,20.389,20.39,3.38-3.382L136.992,84.223l-22.57,22.57L91.606,83.977,69.771,105.812,48.059,84.1,25,107.161,3.382,85.545,0,88.925Z" transform="translate(-13.983 17.375)" fill="#2436b1"/>
      </g>
    </g>
    <g id="Grupo_1101453" data-name="Grupo 1101453" transform="translate(285.029 619.161)">
      <g id="Grupo_1101452" data-name="Grupo 1101452" clip-path="url(#clip-path-3)">
        <g id="Grupo_1101451" data-name="Grupo 1101451">
          <g id="Grupo_1101450" data-name="Grupo 1101450" clip-path="url(#clip-path-3)">
            <path id="Trazado_876795" data-name="Trazado 876795" d="M145.215,20.134S166.5,7,166.373,21.978,148.618,40.659,143.7,35.246s1.517-15.112,1.517-15.112" transform="translate(125.705 13.122)"/>
            <path id="Trazado_876796" data-name="Trazado 876796" d="M134.191,27.613S131.268,15.68,127.969,15.5s-.519,9.659-.519,9.659l-8.992-3.233s-10.212-2.629-12.213-1.705,1.39,4.15,1.39,4.15-7.275-2.024-6.191,1.481,6.074,5.432,6.074,5.432-7.119-2.363-5.44,1.735c.907,2.216,16.214,9.978,26.1,15.74,9.056,5.276,7.128-13.509,7.128-13.509Z" transform="translate(89.804 13.737)" fill="#fc8165"/>
            <path id="Trazado_876797" data-name="Trazado 876797" d="M106.92,29.2a.472.472,0,0,1-.313-.824l8.839-7.862a.471.471,0,0,1,.626.7l-8.839,7.862a.463.463,0,0,1-.313.121" transform="translate(94.335 18.07)"/>
            <path id="Trazado_876798" data-name="Trazado 876798" d="M48.145,19.3S36.35,9.769,26,15.89s-6.673,19.441-6.673,19.441S6.556,38.549,4.4,54.644,17.524,74.1,17.524,74.1L44.3,58.956Z" transform="translate(3.716 12.264)"/>
            <path id="Trazado_876799" data-name="Trazado 876799" d="M56.25,76.634l-.59-29.287-25.641-2.7,5.2,35.033Z" transform="translate(26.603 39.571)" fill="#92b4ea"/>
            <path id="Trazado_876800" data-name="Trazado 876800" d="M68.546,42.738s6.223-12.109,9.523-12.287-.294,8.943-.294,8.943l6.5-2.339s10.212-2.629,12.213-1.705S95.1,39.5,95.1,39.5s7.275-2.024,6.191,1.481-6.074,5.432-6.074,5.432,7.119-2.363,5.44,1.735c-.907,2.216-16.638,11.315-27.1,10.77s-6.125-8.539-6.125-8.539Z" transform="translate(58.966 26.984)" fill="#fc907e"/>
            <path id="Trazado_876801" data-name="Trazado 876801" d="M84.033,44.238a.461.461,0,0,1-.313-.119l-8.839-7.862a.471.471,0,0,1,.626-.7l8.839,7.862a.468.468,0,0,1,.038.664.463.463,0,0,1-.351.158" transform="translate(66.221 31.401)"/>
            <path id="Trazado_876802" data-name="Trazado 876802" d="M61.142,139.37l-5.027,23.8-15.829,8.469-14.352-5.206L28.8,138.723Z" transform="translate(22.983 122.938)" fill="#fc907e"/>
            <path id="Trazado_876803" data-name="Trazado 876803" d="M23.841,157.371,32.4,174.538l5.413,10.874s55.457,3.216,58.312,1.164,2.975-8.016.211-10.538S60.907,154.95,60.907,154.95s.1-4.923-1.947-5.438-15.854,5.081-15.854,5.081l-15.859-5.736Z" transform="translate(21.128 131.919)" fill="#9691f2"/>
            <path id="Trazado_876804" data-name="Trazado 876804" d="M28.377,162.486l5.413,10.872s55.456,3.218,58.312,1.166,2.975-8.016.211-10.538c0,0-38.145,2.052-59.272-1.185a21.827,21.827,0,0,0-4.665-.315" transform="translate(25.148 143.971)" fill="#6a4cd6"/>
            <path id="Trazado_876805" data-name="Trazado 876805" d="M42.859,140.585l-4.1,24.753-26.665-.532-.63-24.849Z" transform="translate(10.158 124.031)" fill="#fc907e"/>
            <path id="Trazado_876806" data-name="Trazado 876806" d="M7.208,178.887c-.06,3.046,1.72,7.3,8.258,8.831s40.85.817,41.938-.332c.581-.6.988-3.08,1.245-5.31a10.486,10.486,0,0,0-1.53-6.788L43.508,153.6s-3.789-4.052-11.327-3.506-11.364,3.052-11.364,3.052-3.418-3.6-5.085-2.452c-1.379.953-6.289,17.619-7.965,25.019a20.829,20.829,0,0,0-.558,3.173" transform="translate(6.386 132.972)" fill="#ada4f7"/>
            <path id="Trazado_876807" data-name="Trazado 876807" d="M88.611,223.128c-2.416,1.735-28.5,3.49-32.028,3.735-.266.019-.4.019-.4.019s-10.146,4.169-27.482,3.4A91,91,0,0,1,5.974,226.2S11.237,86.4,21.254,64.951c7.828-16.787,54.51,4.829,54.51,4.829s1.471,6.639,3.4,16.674c2.641,13.75,6.151,33.933,7.96,52.173,3.131,31.537,4.074,82.654,1.492,84.5" transform="translate(5.294 51.9)" fill="#ffaf45"/>
            <path id="Trazado_876808" data-name="Trazado 876808" d="M72.428,90.283l-.34,7.43S53.063,101.165,37.66,99.35s-21.054-4.793-21.054-4.793l-4.842-38.02L36.37,29.251l15.563,4.8Z" transform="translate(10.425 25.923)" fill="#8758e7"/>
            <path id="Trazado_876809" data-name="Trazado 876809" d="M48.471,31.127A13.607,13.607,0,0,0,51.708,20.4c-.547-4.5-2.469-6.042-2.469-6.042S52.548,8.4,43.511,8.355A25.378,25.378,0,0,0,28.964,12.5s-4.031-2.214-6.1,2.509-.545,11.9-.545,11.9Z" transform="translate(19.302 7.404)"/>
            <path id="Trazado_876810" data-name="Trazado 876810" d="M25.36,23.888l-.228,11.023s1.924,3.21,8.362,3.867c4.795.49,6.368-1.945,6.368-1.945L38.9,27.162,27.3,24.361Z" transform="translate(22.272 21.17)" fill="#fc907e"/>
            <path id="Trazado_876811" data-name="Trazado 876811" d="M25.269,23.532a3.643,3.643,0,0,0,.3,1.069c2.354,5.559,10.985,8.028,13.756,8.335l-.549-5.459Z" transform="translate(22.394 20.854)"/>
            <path id="Trazado_876812" data-name="Trazado 876812" d="M45.375,14.315s5.5,13.939,3.061,21.573-9.42,6.164-13.569,4.521a13.925,13.925,0,0,1-6.006-4.291,5.927,5.927,0,0,1-6.468-2.556c-2.494-3.746-.726-7.879,1.55-8.76s4.883.836,4.883.836l-1.945-4.063s9.522-19.95,18.492-7.26" transform="translate(18.77 8.942)" fill="#fc907e"/>
            <path id="Trazado_876813" data-name="Trazado 876813" d="M64.833,210.025c-2.416,1.735-28.5,3.49-32.028,3.735.564-3.546,1.262-7.771,2.092-12.807,5.168-31.405,6.753-122.642,6.753-122.642L55.381,73.35c2.641,13.75,6.151,33.933,7.96,52.173,3.131,31.537,4.074,82.654,1.492,84.5" transform="translate(29.072 65.004)" fill="#fca032"/>
            <path id="Trazado_876814" data-name="Trazado 876814" d="M26.753,26.493S32.6,27.953,37,21.575s4.146-9.09,4.146-9.09l3.772,6.964s1.128-4.657-.615-7.739-3.721-2.55-3.721-2.55L27.423,11.816l-3.9,10.269Z" transform="translate(20.844 8.087)"/>
            <path id="Trazado_876815" data-name="Trazado 876815" d="M34.012,24.707a.46.46,0,0,1-.158-.028.469.469,0,0,1-.285-.6c.883-2.478-.881-5.272-.9-5.3a.47.47,0,0,1,.792-.507c.085.128,2.031,3.216.992,6.125a.47.47,0,0,1-.443.313" transform="translate(28.887 15.998)"/>
            <path id="Trazado_876816" data-name="Trazado 876816" d="M26.681,24.121a.476.476,0,0,1-.358-.162L22.767,19.85a.475.475,0,0,1,.047-.666.482.482,0,0,1,.668.047l3.556,4.108a.474.474,0,0,1-.047.666.484.484,0,0,1-.309.115" transform="translate(20.075 16.902)"/>
            <path id="Trazado_876817" data-name="Trazado 876817" d="M22.943,21.674a.472.472,0,0,1-.049-.941l2.6-.279a.47.47,0,0,1,.519.419.475.475,0,0,1-.421.521l-2.6.279-.049,0" transform="translate(19.914 18.123)"/>
            <path id="Trazado_876818" data-name="Trazado 876818" d="M35.408,20.716a.473.473,0,0,1-.456-.353L34.3,17.853a.477.477,0,0,1,.106-.434l.8-.9a.481.481,0,0,1,.668-.036.473.473,0,0,1,.038.666l-.636.707.583,2.267a.471.471,0,0,1-.34.573.5.5,0,0,1-.117.015" transform="translate(30.389 14.507)"/>
            <path id="Trazado_876819" data-name="Trazado 876819" d="M31.719,21.035a.473.473,0,0,1-.456-.353l-.647-2.512a.466.466,0,0,1,.113-.439l1.107-1.179a.472.472,0,1,1,.688.645l-.93.99.581,2.26a.471.471,0,0,1-.34.573.5.5,0,0,1-.117.015" transform="translate(27.118 14.535)"/>
            <path id="Trazado_876820" data-name="Trazado 876820" d="M33.037,212.644a.47.47,0,0,1-.458-.585c7.3-29.768,8.807-132.748,8.822-133.783a.471.471,0,0,1,.289-.428l10.491-4.421a.472.472,0,1,1,.366.87L42.338,78.6c-.1,6.289-1.722,104.628-8.843,133.687a.473.473,0,0,1-.458.358" transform="translate(28.86 65.039)" fill="#fff"/>
            <path id="Trazado_876821" data-name="Trazado 876821" d="M7.208,167.027c-.06,3.046,1.72,7.3,8.258,8.831s40.85.817,41.938-.332c.581-.6.988-3.08,1.245-5.31a10.486,10.486,0,0,0-1.53-6.789s-2.263,3.454-23.229,3.763c-13.447.194-21.84-1.848-26.124-3.337a20.83,20.83,0,0,0-.558,3.173" transform="translate(6.386 144.832)" fill="#8758e7"/>
            <path id="Trazado_876822" data-name="Trazado 876822" d="M40.374,35.649s.973-5.889-.641-6.181-3.467.779-7.243.025S26.7,27.469,25.51,27.446s-.5,7.322-.5,7.322L34.4,38.177Z" transform="translate(21.985 24.323)" fill="#8758e7"/>
            <path id="Trazado_876823" data-name="Trazado 876823" d="M16.061,78.55a.471.471,0,0,1-.123-.926,12.826,12.826,0,0,0,9.471-9.754.462.462,0,0,1,.543-.387.47.47,0,0,1,.389.539,14.013,14.013,0,0,1-10.155,10.51.493.493,0,0,1-.124.017" transform="translate(13.816 59.796)" fill="#fff"/>
            <path id="Trazado_876824" data-name="Trazado 876824" d="M106.207,61.079S86.311,77.91,62.985,75.145,34.524,58.184,34.524,58.184L32.941,30.751s21.857,9.386,40.708,9.7,24.523-1.554,24.523-1.554Z" transform="translate(29.193 27.252)" fill="#8758e7"/>
            <path id="Trazado_876825" data-name="Trazado 876825" d="M55.9,100.545,30.462,88.761a2.415,2.415,0,0,1-1.028-3.6l25.579-39.9a3.358,3.358,0,0,1,4.118-1.218L84.566,55.824a2.414,2.414,0,0,1,1.028,3.6l-25.581,39.9a3.355,3.355,0,0,1-4.114,1.217" transform="translate(25.705 38.782)" fill="#413a6d"/>
            <path id="Trazado_876826" data-name="Trazado 876826" d="M57.636,101.349,32.2,89.565a2.415,2.415,0,0,1-1.028-3.6l25.579-39.9a3.359,3.359,0,0,1,4.118-1.217L86.3,56.628a2.416,2.416,0,0,1,1.028,3.6l-25.581,39.9a3.355,3.355,0,0,1-4.114,1.217" transform="translate(27.244 39.495)" fill="#50447e"/>
            <path id="Trazado_876827" data-name="Trazado 876827" d="M60.35,57.583a2.861,2.861,0,0,1-1.211-.27L50.481,53.3A2.869,2.869,0,0,1,49.2,49.264l1.673-2.893a.472.472,0,1,1,.817.472l-1.671,2.893a1.925,1.925,0,0,0,.858,2.712l8.658,4.01A1.919,1.919,0,0,0,62,55.7l2.031-3.41a.472.472,0,0,1,.811.483l-2.031,3.41a2.861,2.861,0,0,1-2.462,1.4" transform="translate(43.263 40.885)" fill="#ffaf45"/>
            <path id="Trazado_876828" data-name="Trazado 876828" d="M28.422,54.487s18.664-4.84,21.316-4.035,12.8,9.574,12.121,11.625-3.05,1.415-3.05,1.415,2.2,1.537,1.317,2.929-3.572.781-3.572.781,1.854,1.179-.6,2.067-8.926-1.679-8.926-1.679a16,16,0,0,1-10.574,2.68c-6.551-.506-8.629-2.143-8.629-2.143Z" transform="translate(24.661 44.632)" fill="#fc907e"/>
            <path id="Trazado_876829" data-name="Trazado 876829" d="M48.077,29.282S21.284,29.044,6.86,50,2.146,90.92,23.046,95.83s32.133-.383,32.133-.383l-.662-24.128L40.542,68.589l-9.98-13.366Z" transform="translate(0 25.95)" fill="#8758e7"/>
            <path id="Trazado_876830" data-name="Trazado 876830" d="M40.891,54.308a.5.5,0,0,1-.106-.011c-.228-.053-22.91-5.2-31.279-5.579a.474.474,0,0,1-.449-.494.488.488,0,0,1,.494-.449C18,48.161,40.768,53.325,41,53.376a.472.472,0,0,1-.106.932" transform="translate(8.026 42.338)" fill="#ada4f7"/>
            <path id="Trazado_876831" data-name="Trazado 876831" d="M19.452,52.645a.452.452,0,0,1-.2-.043c-2.165-1.011-9.224-4.465-9.231-6.489a1.109,1.109,0,0,1,.726-1.015c3.108-1.5,8.484,5.951,9.088,6.8a.471.471,0,0,1-.385.743M11.672,45.84a1.2,1.2,0,0,0-.517.111c-.058.026-.189.094-.189.16,0,.839,3.337,2.959,6.922,4.778-1.958-2.435-4.6-5.049-6.217-5.049" transform="translate(8.882 39.791)" fill="#ada4f7"/>
            <path id="Trazado_876832" data-name="Trazado 876832" d="M32.265,31.587c-1.805-.251-6.943-1.158-6.994-1.168a.471.471,0,0,1,.166-.928c.051.009,5.17.915,6.894,1.158a.471.471,0,0,1-.066.937" transform="translate(22.051 26.127)" fill="#ada4f7"/>
            <path id="Trazado_876833" data-name="Trazado 876833" d="M48.081,61.41a.464.464,0,0,1-.323-.128l-7.677-7.224a.471.471,0,0,1,.645-.687L48.4,60.6a.472.472,0,0,1-.323.815" transform="translate(35.388 47.185)"/>
            <path id="Trazado_876834" data-name="Trazado 876834" d="M46.853,62.883a.471.471,0,0,1-.3-.106l-7.607-6.172a.471.471,0,0,1,.592-.734l7.607,6.174a.471.471,0,0,1-.3.837" transform="translate(34.362 49.422)"/>
            <path id="Trazado_876835" data-name="Trazado 876835" d="M50.971,44.429a2.266,2.266,0,0,1-.251-.015,1.37,1.37,0,0,1-1.117-.792c-.894-1.941,2.214-6.983,2.846-7.973a.461.461,0,0,1,.511-.2.472.472,0,0,1,.357.415c.058.656.524,6.458-1.2,8.1a1.632,1.632,0,0,1-1.145.47m1.49-6.966c-1.205,2.12-2.431,4.829-2,5.762a.434.434,0,0,0,.389.251.654.654,0,0,0,.619-.2c.913-.868,1.047-3.771.994-5.813" transform="translate(43.817 31.398)" fill="#ada4f7"/>
            <path id="Trazado_876836" data-name="Trazado 876836" d="M33.617,16.538S23.85-3.61,17.78,6.768,29.714,26.807,29.714,26.807Z" transform="translate(14.649 3.365)"/>
            <path id="Trazado_876837" data-name="Trazado 876837" d="M211.638,83.152H149.93a3.577,3.577,0,1,1,0-7.154h61.707a3.577,3.577,0,1,1,0,7.154" transform="translate(129.699 67.35)" fill="#bcb5c6"/>
            <path id="Trazado_876838" data-name="Trazado 876838" d="M244.078,91.689H145.573a5.775,5.775,0,0,1-5.774-5.774V41.756a5.774,5.774,0,0,1,5.774-5.774h98.506a5.773,5.773,0,0,1,5.774,5.774v44.16a5.774,5.774,0,0,1-5.774,5.774" transform="translate(123.891 31.888)" fill="#dcd7e0"/>
            <rect id="Rectángulo_402352" data-name="Rectángulo 402352" width="16.227" height="47.453" transform="translate(310.604 104.038)" fill="#bcb5c6"/>
            <path id="Trazado_876839" data-name="Trazado 876839" d="M188.7,61.46H164.313a3.84,3.84,0,0,1-3.84-3.838v-.547a3.84,3.84,0,0,1,3.84-3.838H188.7a3.838,3.838,0,0,1,3.838,3.838v.547A3.838,3.838,0,0,1,188.7,61.46" transform="translate(142.213 47.178)" fill="#bcb5c6"/>
            <path id="Trazado_876840" data-name="Trazado 876840" d="M180.351,38.545H147.313a.472.472,0,1,1,0-.943h33.039a.472.472,0,1,1,0,.943" transform="translate(130.132 33.323)" fill="#fff"/>
            <path id="Trazado_876841" data-name="Trazado 876841" d="M89.986,203.64c1.309.413,2.848-.7,3.506-2.531l29.517-82.245-11.413-3.6L88.568,199.554c-.515,1.879.109,3.672,1.418,4.086" transform="translate(78.33 102.146)" fill="#bcb5c6"/>
            <path id="Trazado_876842" data-name="Trazado 876842" d="M139.413,203.64c-1.309.413-2.848-.7-3.506-2.531l-29.517-82.245,11.413-3.6,23.029,84.293c.515,1.879-.109,3.672-1.418,4.086" transform="translate(94.283 102.146)" fill="#bcb5c6"/>
            <path id="Trazado_876843" data-name="Trazado 876843" d="M179.419,131.451,163.464,116c4.182-7.268,4.959-16.972-3.348-29.415-9.837-14.735-21.722-21.573-31.86-24.626A36.593,36.593,0,0,0,88.5,75.376C80.9,85.6,74.378,101.594,77.745,125.157c5.3,37.1,43.1,48.925,75.049,40.2s26.626-33.9,26.626-33.9" transform="translate(68.093 53.57)" fill="#eae6ef"/>
            <path id="Trazado_876844" data-name="Trazado 876844" d="M89.551,116.386a.446.446,0,0,1-.307-.121c-8.156-7.545-9.672-21.791-9.731-22.393a.45.45,0,0,1,.4-.5.43.43,0,0,1,.494.4c.015.145,1.547,14.511,9.448,21.822a.453.453,0,0,1-.307.785" transform="translate(70.462 82.748)" fill="#eac89f"/>
            <g id="Grupo_1101449" data-name="Grupo 1101449" transform="translate(168.055 182.368)" opacity="0.57">
              <g id="Grupo_1101448" data-name="Grupo 1101448">
                <g id="Grupo_1101447" data-name="Grupo 1101447" clip-path="url(#clip-path-5)">
                  <path id="Trazado_876845" data-name="Trazado 876845" d="M89.208,99.7c-1.247,4,8.139,10.478,20.965,14.463s24.225,3.972,25.466-.03-8.141-10.478-20.961-14.463-24.226-3.972-25.47.03" transform="translate(-89.097 -96.685)" fill="#c8bcce"/>
                </g>
              </g>
            </g>
            <path id="Trazado_876846" data-name="Trazado 876846" d="M97.479,66.189s3.425-2.3,2.973,5.246,12.413,91.43,10.355,93.241-12.839,1.809-12.839,1.809,3.329,9.71,0,10.587S73.747,169.91,69.22,162.765,81.369,87.731,97.479,66.189" transform="translate(60.676 58.365)" fill="#f74d76"/>
            <path id="Trazado_876847" data-name="Trazado 876847" d="M85,246.233a3.329,3.329,0,0,0,3.329-3.329V81.114H81.673V242.9A3.329,3.329,0,0,0,85,246.233" transform="translate(72.38 71.884)" fill="#dcd7e0"/>
            <path id="Trazado_876848" data-name="Trazado 876848" d="M194.466,246.233A3.329,3.329,0,0,0,197.8,242.9V81.114h-6.658V242.9a3.329,3.329,0,0,0,3.329,3.329" transform="translate(169.388 71.884)" fill="#dcd7e0"/>
            <rect id="Rectángulo_402354" data-name="Rectángulo 402354" width="19.634" height="25.671" transform="translate(358.159 124.098)" fill="#ffaf45"/>
            <path id="Trazado_876849" data-name="Trazado 876849" d="M209.517,66.323c0,.622-4.395,1.128-9.816,1.128s-9.818-.506-9.818-1.128S194.278,65.2,199.7,65.2s9.816.506,9.816,1.128" transform="translate(168.276 57.777)" fill="#fff"/>
            <path id="Trazado_876850" data-name="Trazado 876850" d="M203.74,87.255c-4.046,0-7.339-4.252-7.339-9.48s3.293-9.48,7.339-9.48,7.337,4.253,7.337,9.48-3.291,9.48-7.337,9.48m0-17.225c-3.09,0-5.6,3.474-5.6,7.745s2.514,7.745,5.6,7.745,5.6-3.474,5.6-7.745-2.512-7.745-5.6-7.745" transform="translate(174.053 60.524)" fill="#ffaf45"/>
            <path id="Trazado_876851" data-name="Trazado 876851" d="M68.687,88.243H338.6a4.4,4.4,0,0,0,0-8.794H68.687a4.4,4.4,0,0,0,0,8.794" transform="translate(56.975 70.409)" fill="#dcd7e0"/>
            <path id="Trazado_876852" data-name="Trazado 876852" d="M92.431,112.027l16.4,55.664,8.3-5.627,12.747-6.057L133.345,99.1Z" transform="translate(81.913 87.821)" fill="#fc7059"/>
            <path id="Trazado_876853" data-name="Trazado 876853" d="M113.6,139.727a45.475,45.475,0,0,0-13.779,16.461c-3.691,7.462-8.148,17.191-9.165,22.561-1.805,9.52.56,13.4,2.524,14.728s40.587-29.363,40.587-29.363-7.505-11.28-2.741-13.651,9.554,9.135,9.554,9.135l11.987-8.852s-7.335-11.3-11.31-14.948c-4.287-3.933-9.827-9.208-9.827-9.208Z" transform="translate(79.773 112.186)" fill="#ea366e"/>
            <path id="Trazado_876854" data-name="Trazado 876854" d="M95.932,163.26c3.735-1.222,20.969-13.447,24.666-18.906a80.091,80.091,0,0,0,6.821-13.717l-4.1-7.711-9.258,2.414S92.2,164.482,95.932,163.26" transform="translate(84.635 108.94)" fill="#fc7059"/>
            <path id="Trazado_876855" data-name="Trazado 876855" d="M125.841,151.558s-23.54,11.991-30.419,18.815-7.128,11.359-6.262,13.566,50.081-1.207,50.081-1.207.2-13.547,5.474-12.8,2.7,12.939,2.7,12.939l14.892-.505s.358-13.471-.853-18.726a131.583,131.583,0,0,0-4.78-14.46Z" transform="translate(78.7 132.203)" fill="#f74d76"/>
            <path id="Trazado_876856" data-name="Trazado 876856" d="M119.032,150.025S98.818,162.089,102.588,163.2s24.9.8,31.034-1.609,11.253-9.886,11.253-9.886l-14.311-5.376Z" transform="translate(90.499 129.678)" fill="#fc8165"/>
            <path id="Trazado_876857" data-name="Trazado 876857" d="M111.222,204.593s9.15-107.51,25.585-114.378,23.842,40.133,23.842,40.133L137.082,202l-17.008,5.259Z" transform="translate(98.566 79.342)" fill="#fc8165"/>
            <path id="Trazado_876858" data-name="Trazado 876858" d="M117.1,115.611a.373.373,0,0,1-.126-.023.377.377,0,0,1-.23-.485c2.446-6.86,10.966-27.046,11.893-29.24l-5.417-7.805a.379.379,0,0,1,.622-.434l5.538,7.979a.372.372,0,0,1,.036.362c-.092.221-9.388,22.191-11.959,29.393a.379.379,0,0,1-.356.253" transform="translate(103.443 68.65)" fill="#507849"/>
            <path id="Trazado_876859" data-name="Trazado 876859" d="M149.506,90.265a10.926,10.926,0,0,1-8.973-10.874.377.377,0,0,1,.377-.362.387.387,0,0,1,.379.4,10,10,0,0,0,8.3,10.091.379.379,0,0,1-.081.749" transform="translate(124.541 70.037)" fill="#507849"/>
            <path id="Trazado_876860" data-name="Trazado 876860" d="M179.074,159.172s-36.517.792-42.157,0a1.659,1.659,0,0,0-.321-.038c-6.715-1.169-45.627-12.864-45.627-12.864s-4.112-6.338-.641-25.068c2.15-11.619,26.577-28.67,44.8-39.912,11.129-6.866,19.937-11.581,19.937-11.581s43.5-7.715,47.815,2.056c4.319,9.789-23.8,87.407-23.8,87.407" transform="translate(78.816 59.214)" fill="#50447e"/>
            <path id="Trazado_876861" data-name="Trazado 876861" d="M146.339,71.755s-11.7,16.259-22.212,14.622c-12.77-1.992-15.5-19.856-15.652-35.282-.1-9.848,3.965-19.234,3.965-19.234l18.117.366,10.644,16Z" transform="translate(96.13 28.237)" fill="#80baff"/>
            <path id="Trazado_876862" data-name="Trazado 876862" d="M177.575,104.124c-.67,1.086-3.2,1.973-23.446,2.426-4.744.109-9.18.036-13.143-.143-.128,0-.273-.019-.4-.019-1.575-.074-3.076-.164-4.489-.253-.688-.055-1.339-.091-1.992-.145-9.016-.76-11.146-4.129-11.417-4.563-.453-.705-3.012-49.951,3.252-57.99,6.247-8.056,18.268-9.2,18.268-9.2,12.185-1.467,22.776.036,27.7,4.87,4.923,4.816,6.336,63.928,5.666,65.014" transform="translate(107.93 29.867)" fill="#80baff"/>
            <path id="Trazado_876863" data-name="Trazado 876863" d="M122.422,66.073a.473.473,0,0,1-.462-.375,49.067,49.067,0,0,1-.628-9.242c.025-6.136,5.363-14.828,5.589-15.2a.472.472,0,0,1,.8.5c-.057.087-5.425,8.835-5.449,14.7a49,49,0,0,0,.609,9.046.474.474,0,0,1-.366.558.554.554,0,0,1-.1.009" transform="translate(107.525 36.367)" fill="#50447e"/>
            <path id="Trazado_876864" data-name="Trazado 876864" d="M164.741,68.353s4.021,11.251,8.2,11.5c4.88.29,10.269.638,10.714.779.824.264,9.448,11.621,9.107,13.452s-3.027.368-3.027.368,1.394,3.233-.172,3.582-9.872-5.064-9.872-5.064-18.953,4.335-23.536-2.3c-10.523-15.22,8.584-22.321,8.584-22.321" transform="translate(135.585 60.575)" fill="#fc8165"/>
            <path id="Trazado_876865" data-name="Trazado 876865" d="M169.251,74.863s8.718,6.528,9.631,8.944S177.3,85.66,177.3,85.66l-6.479-5.677Z" transform="translate(149.992 66.345)" fill="#fc8165"/>
            <path id="Trazado_876866" data-name="Trazado 876866" d="M136.44,111.8c-1.592,8.929-1.22,28.951.157,40.533-6.715-1.169-45.627-12.864-45.627-12.864s-4.112-6.338-.641-25.068c2.15-11.619,26.577-28.67,44.8-39.912L156.44,80.9s-17.274,15.6-20,30.9" transform="translate(78.816 66.014)" fill="#413a6d"/>
            <path id="Trazado_876867" data-name="Trazado 876867" d="M176.684,84.469a.467.467,0,0,1-.362-.17l-6.372-7.635a.472.472,0,0,1,.724-.605l6.372,7.637a.472.472,0,0,1-.362.773" transform="translate(150.515 67.254)"/>
            <path id="Trazado_876868" data-name="Trazado 876868" d="M159.222,82.945s8.56,3.735,10.568,4.751,5.234,3.048,5.813.673-9.906-8.877-9.906-8.877Z" transform="translate(141.104 70.448)" fill="#fc8165"/>
            <path id="Trazado_876869" data-name="Trazado 876869" d="M174.461,90.17a9.976,9.976,0,0,1-3.967-1.469c-.241-.128-.475-.251-.7-.364-1.973-1-10.457-4.7-10.54-4.736a.472.472,0,1,1,.375-.866c.349.153,8.6,3.752,10.593,4.763.223.113.462.238.709.368,1.326.7,3.142,1.662,3.974,1.279.145-.064.347-.2.46-.664.307-1.26-4.795-5.325-9.7-8.363a.473.473,0,0,1,.5-.8c1.8,1.117,10.742,6.815,10.116,9.391a1.794,1.794,0,0,1-.99,1.3,1.973,1.973,0,0,1-.834.166" transform="translate(140.883 70.226)"/>
            <path id="Trazado_876870" data-name="Trazado 876870" d="M175.857,86.748a.465.465,0,0,1-.364-.174l-6.73-8.224a.471.471,0,1,1,.73-.6l6.728,8.224a.467.467,0,0,1-.066.662.457.457,0,0,1-.3.108" transform="translate(149.465 68.752)"/>
            <path id="Trazado_876871" data-name="Trazado 876871" d="M146.344,35.19S153.876,38.8,157.812,50.1s19.707,54.964,19.707,54.964l-19.707,10.648-11.468-23.68Z" transform="translate(129.692 31.186)" fill="#80baff"/>
            <path id="Trazado_876872" data-name="Trazado 876872" d="M155.929,87.211a.467.467,0,0,1-.426-.27l-10.64-22.523c-.409-.622-4.223-6.583-3.2-8.943a1.641,1.641,0,0,1,1.29-.977,1.827,1.827,0,0,1,1.628.472c1.884,1.773,1.318,7.986,1.192,9.171l10.584,22.4a.468.468,0,0,1-.224.626.442.442,0,0,1-.2.045m-12.607-31.8a1.127,1.127,0,0,0-.206.019.706.706,0,0,0-.59.424c-.524,1.209.994,4.482,2.411,6.9.147-2.379.111-6.043-1.005-7.092a.847.847,0,0,0-.609-.251" transform="translate(125.388 48.268)" fill="#50447e"/>
            <path id="Trazado_876873" data-name="Trazado 876873" d="M120.145,91.815a.472.472,0,0,1-.353-.785l9.816-11.023L118.6,76.693a.471.471,0,1,1,.272-.9l11.719,3.527a.471.471,0,0,1,.215.764L120.5,91.656a.469.469,0,0,1-.353.158" transform="translate(104.804 67.148)" fill="#8758e7"/>
            <path id="Trazado_876874" data-name="Trazado 876874" d="M129.578,33.391S122.6,23.03,136.947,15.014s24.679,3.2,24.751,9.192-3.354,8.735-3.354,8.735,1.232,12.981-11.223,12-17.544-11.546-17.544-11.546" transform="translate(113.329 10.835)"/>
            <path id="Trazado_876875" data-name="Trazado 876875" d="M145.282,28.468l.183,10.482S143.628,42,137.5,42.6c-4.563.451-6.185-.553-6.185-.553l.545-5.321.536-5.187,11.031-2.629Z" transform="translate(116.377 25.229)" fill="#fc8165"/>
            <path id="Trazado_876876" data-name="Trazado 876876" d="M145,28.2a3.431,3.431,0,0,1-.287,1.017c-2.254,5.278-10.468,7.46-13.1,7.743l.538-5.189Z" transform="translate(116.632 24.995)"/>
            <path id="Trazado_876877" data-name="Trazado 876877" d="M132.1,19.329s-5.27,13.239-2.975,20.5,8.937,5.891,12.887,4.34a13.237,13.237,0,0,0,5.725-4.061A5.639,5.639,0,0,0,153.9,37.7c2.382-3.554.713-7.49-1.449-8.333s-4.646.779-4.646.779l1.862-3.857s-9-19-17.563-6.96" transform="translate(113.922 13.589)" fill="#fc8165"/>
            <path id="Trazado_876878" data-name="Trazado 876878" d="M131.22,29.4a.472.472,0,0,1-.466-.4c-.7-4.448,1.056-6.792,1.134-6.888a.463.463,0,0,1,.658-.087.473.473,0,0,1,.091.658c-.017.023-1.583,2.15-.951,6.17a.471.471,0,0,1-.392.539.5.5,0,0,1-.074.006" transform="translate(115.73 19.436)"/>
            <path id="Trazado_876879" data-name="Trazado 876879" d="M139.111,27.728a.472.472,0,0,1-.219-.89l5.123-2.677a.473.473,0,0,1,.439.837l-5.125,2.677a.479.479,0,0,1-.219.053" transform="translate(122.863 21.364)"/>
            <path id="Trazado_876880" data-name="Trazado 876880" d="M142.776,27.994a.482.482,0,0,1-.313-.117l-2.443-2.163a.472.472,0,0,1,.626-.707l2.443,2.163a.472.472,0,0,1,.04.666.467.467,0,0,1-.353.158" transform="translate(123.948 22.056)"/>
            <path id="Trazado_876881" data-name="Trazado 876881" d="M128.843,31.848a21.531,21.531,0,0,1,4.744-8.588l3.9-4.563s-.013,8.233,3.852,11.57,6.321,1.09,6.321,1.09l6.7-6.549L141.215,13.967S127.2,14.2,128.843,31.848" transform="translate(114.063 12.378)"/>
            <path id="Trazado_876882" data-name="Trazado 876882" d="M133.838,25.466a.482.482,0,0,1-.468-.528l.264-2.175-.739-.8a.472.472,0,1,1,.7-.638l.885.964a.475.475,0,0,1,.119.377l-.289,2.388a.472.472,0,0,1-.468.415" transform="translate(117.664 18.76)"/>
            <path id="Trazado_876883" data-name="Trazado 876883" d="M130.419,25.367a.481.481,0,0,1-.468-.528l.264-2.173-.994-.983a.472.472,0,0,1,.664-.671l1.156,1.147a.468.468,0,0,1,.136.392l-.29,2.4a.472.472,0,0,1-.468.415" transform="translate(114.394 18.501)"/>
            <path id="Trazado_876884" data-name="Trazado 876884" d="M134.07,61.514c-.543,5.847-.145,34.852-.036,42.855-1.575-.074-3.078-.164-4.491-.255-.181-8.563-.741-38.345.055-43.722.96-6.283,6.9-23.753,6.9-23.753,1.339-1.484,3.1,0,3.1,0s-4.906,18.1-5.521,24.875" transform="translate(114.483 31.885)" fill="#50447e"/>
            <path id="Trazado_876885" data-name="Trazado 876885" d="M136.152,26.2a.472.472,0,0,1,.443.636c-.081.219-.83,2.16-2,2.743-1.277.649-3.092-.917-3.3-1.1a.473.473,0,0,1,.17-.8l4.536-1.454a.474.474,0,0,1,.143-.023m-2.25,2.592a.609.609,0,0,0,.275-.057,3.244,3.244,0,0,0,1.094-1.285l-2.639.845a2.743,2.743,0,0,0,1.269.5" transform="translate(116.222 23.219)"/>
            <path id="Trazado_876886" data-name="Trazado 876886" d="M132.686,34.868s-3.548,4.542-2.607,5.9,7.815-2.111,7.815-2.111,3.084,3.393,5.5,3.7,3.855-8.641,3.855-8.641-4.817,3.814-9.354,3.588-5.208-2.429-5.208-2.429" transform="translate(115.137 29.874)" fill="#50447e"/>
            <path id="Trazado_876887" data-name="Trazado 876887" d="M149.342,139.52c-.485-.058-10.433-1.424-11.827-6.647a9.545,9.545,0,0,1,1.884-8.341,23.442,23.442,0,0,1-9.1-3.452,14.46,14.46,0,0,1-5.917-9.054,14.869,14.869,0,0,1,1.831-11.347c4.216-6.613,14.78-6.172,16.978-6,.605-1.788,3.561-9.331,10.28-9.331.121,0,.241,0,.364.008,7.884.313,9.5,12.3,9.565,12.813a.472.472,0,0,1-.936.119c-.015-.117-1.579-11.708-8.667-11.989-.108-.006-.215-.008-.321-.008-6.871,0-9.473,8.927-9.5,9.016a.456.456,0,0,1-.5.343c-.126-.013-12.168-1.209-16.467,5.536a13.932,13.932,0,0,0-1.709,10.631,13.5,13.5,0,0,0,5.5,8.462,21.466,21.466,0,0,0,9.573,3.4.471.471,0,0,1,.313.807c-.034.036-3.5,3.5-2.26,8.143,1.232,4.616,10.88,5.938,10.976,5.951a.472.472,0,0,1-.06.939" transform="translate(109.874 75.638)" fill="#8758e7"/>
            <path id="Trazado_876888" data-name="Trazado 876888" d="M105.058,106.678c-6.011,0-10.435-6.9-10.487-6.985a.472.472,0,0,1,.8-.5c.055.085,5.449,8.518,12.106,6.111,6.775-2.454,10.118-13.792,10.152-13.907a.471.471,0,0,1,.453-.34c.851,0,6.675-.081,8.922-2.531a3.184,3.184,0,0,0,.834-2.618c-.573-5.491-6.453-7.8-6.511-7.818a.471.471,0,0,1,.336-.881c.262.1,6.479,2.528,7.115,8.6a4.13,4.13,0,0,1-1.079,3.354c-2.358,2.571-7.8,2.818-9.265,2.837-.628,2-4.012,11.793-10.634,14.19a7.971,7.971,0,0,1-2.739.489" transform="translate(83.746 68.394)" fill="#8758e7"/>
            <path id="Trazado_876889" data-name="Trazado 876889" d="M150.562,131.656a.443.443,0,0,1-.175-.036.469.469,0,0,1-.262-.611,13,13,0,0,0-1.007-10.8c-3.124-5.017-10.785-1.809-10.863-1.779a.464.464,0,0,1-.43-.028.474.474,0,0,1-.226-.364c-.015-.17-1.552-16.942-11.164-18.177-13.151-1.7-16.982,10.893-17.138,11.427a.472.472,0,0,1-.753.232c-.117-.094-2.863-2.271-7.456.057-4.893,2.484-4.431,9.616-4.425,9.688a.47.47,0,0,1-.436.506.434.434,0,0,1-.5-.436c-.025-.319-.521-7.828,4.936-10.6,4-2.03,6.805-.953,7.937-.307.983-2.643,5.647-13.094,17.959-11.5,9.382,1.207,11.549,15.237,11.919,18.417,1.988-.687,8.443-2.452,11.444,2.369A13.718,13.718,0,0,1,151,131.362a.472.472,0,0,1-.436.294" transform="translate(84.811 87.523)" fill="#8758e7"/>
            <path id="Trazado_876890" data-name="Trazado 876890" d="M149.576,81.6c-3.646-.126-6.206-1.12-7.624-2.952a5.813,5.813,0,0,1-1.092-4.521.485.485,0,0,1,.56-.358.47.47,0,0,1,.36.558,4.968,4.968,0,0,0,.924,3.757c1.243,1.59,3.559,2.456,6.888,2.573a.472.472,0,0,1-.017.943" transform="translate(124.753 65.364)" fill="#8758e7"/>
            <path id="Trazado_876891" data-name="Trazado 876891" d="M109.291,41s-.028-10.489,1.952-10.814,9.242,3.539,9.242,3.539,10.121-4.906,11.044-3.508-1.594,6.047-1.594,6.047Z" transform="translate(96.855 26.554)" fill="#80baff"/>
            <path id="Trazado_876892" data-name="Trazado 876892" d="M151.447,80.646s1.586,7.058,2.918,7.462,8.573-7.462,8.573-7.462,12.673-1.458,14.282-4.742-9.655-5.5-9.655-5.5Z" transform="translate(134.214 62.395)" fill="#80baff"/>
            <path id="Trazado_876893" data-name="Trazado 876893" d="M117.4,33.812a.473.473,0,0,1-.174-.034,5.462,5.462,0,0,1-3.469-3.491c-1.256-4.087,2.367-9.48,2.522-9.708a.472.472,0,0,1,.781.532c-.036.051-3.525,5.247-2.4,8.9a4.568,4.568,0,0,0,2.912,2.893.471.471,0,0,1-.174.909" transform="translate(100.581 18.055)"/>
            <path id="Trazado_876894" data-name="Trazado 876894" d="M70.326,44.38a.471.471,0,0,1-.138-.922c3.433-1.051,4.169-8.02,4.176-8.092a.453.453,0,0,1,.517-.423.475.475,0,0,1,.423.517c-.032.311-.813,7.667-4.84,8.9a.5.5,0,0,1-.138.021" transform="translate(61.906 30.963)"/>
            <path id="Trazado_876895" data-name="Trazado 876895" d="M44.585,154.973a.467.467,0,0,1-.432-.281c-.928-2.082-3.884-7.539-6.417-7.775-2.482-.268-6.93,5.581-8.416,7.843a.45.45,0,0,1-.464.207.467.467,0,0,1-.381-.334c-.015-.053-1.571-5.276-4.24-5.836-2.19-.494-5.623,3.161-6.753,4.6a.471.471,0,0,1-.841-.3c.034-1.952-.34-7.626-2.437-8.064-2.22-.492-6.255,3.955-7.633,5.693a.471.471,0,1,1-.738-.587c.543-.687,5.43-6.67,8.563-6.03,2.567.538,3.076,5.342,3.171,7.739,1.432-1.582,4.448-4.461,6.862-3.978,2.465.522,4.018,3.912,4.64,5.581,1.533-2.2,5.785-7.76,8.754-7.475,2.867.268,5.644,5.2,6.721,7.351.8-1.854,2.671-5.464,5.091-5.466a6.861,6.861,0,0,1,4.948,2.284.471.471,0,0,1-.722.605,6.019,6.019,0,0,0-4.225-1.947c-2.048,0-4.02,4.229-4.608,5.857a.473.473,0,0,1-.426.311Z" transform="translate(5.077 127.67)" fill="#fff"/>
            <path id="Trazado_876896" data-name="Trazado 876896" d="M33.961,151.488a.471.471,0,0,1-.39-.737c.089-.128,2.173-3.178,4.385-4.18,1.894-.862,4.559,1.443,5.747,2.62.479-1.511,1.715-4.689,3.842-5.61,2.431-1.051,6.226,3.346,7.643,5.132.626-1.452,2.116-4.478,3.948-5.144,2.512-.909,5.2,3.606,5.5,4.125a.472.472,0,1,1-.819.472c-.656-1.134-2.888-4.276-4.359-3.708-1.639.594-3.225,4.07-3.7,5.357a.473.473,0,0,1-.822.119c-1.847-2.494-5.4-6.189-7.017-5.487-2.337,1.009-3.522,5.727-3.533,5.774a.471.471,0,0,1-.807.2c-.89-.988-3.771-3.661-5.234-3-1.973.894-3.974,3.823-3.995,3.854a.473.473,0,0,1-.39.206" transform="translate(29.678 127.102)" fill="#fff"/>
            <path id="Trazado_876897" data-name="Trazado 876897" d="M25.811,78.477a.474.474,0,0,1-.472-.483l.651-26.8a.472.472,0,0,1,.943.023l-.651,26.8a.471.471,0,0,1-.472.46" transform="translate(22.456 44.965)" fill="#ada4f7"/>
            <path id="Trazado_876898" data-name="Trazado 876898" d="M31.554,55.412c-.068-.006-5.466-.785-5.466-.785a.468.468,0,0,1-.4-.534.453.453,0,0,1,.534-.4l5.4.779a.471.471,0,0,1-.068.937" transform="translate(22.762 47.579)" fill="#ada4f7"/>
            <path id="Trazado_876899" data-name="Trazado 876899" d="M31.707,58.806H25.983a.472.472,0,1,1,0-.943h5.725a.472.472,0,1,1,0,.943" transform="translate(22.608 51.279)" fill="#ada4f7"/>
            <path id="Trazado_876900" data-name="Trazado 876900" d="M32.2,63.243H25.875a.472.472,0,1,1,0-.943H32.2a.472.472,0,0,1,0,.943" transform="translate(22.512 55.211)" fill="#ada4f7"/>
            <path id="Trazado_876901" data-name="Trazado 876901" d="M23.632,33.146a.472.472,0,0,1-.26-.866l1.909-1.26a.479.479,0,0,1,.655.134.472.472,0,0,1-.136.655l-1.907,1.26a.482.482,0,0,1-.26.077" transform="translate(20.524 27.424)" fill="#ada4f7"/>
            <path id="Trazado_876902" data-name="Trazado 876902" d="M26.685,34.277a.472.472,0,0,1-.472-.472V31.75a.472.472,0,1,1,.943,0v2.056a.472.472,0,0,1-.472.472" transform="translate(23.23 27.719)" fill="#ada4f7"/>
            <path id="Trazado_876903" data-name="Trazado 876903" d="M30.141,34.567a.471.471,0,0,1-.434-.289l-.862-2.058a.471.471,0,1,1,.87-.364l.86,2.056a.47.47,0,0,1-.251.617.448.448,0,0,1-.183.038" transform="translate(25.53 27.974)" fill="#ada4f7"/>
            <path id="Trazado_876904" data-name="Trazado 876904" d="M34.127,33.806a.463.463,0,0,1-.287-.1l-2.052-1.584a.47.47,0,0,1-.087-.66.465.465,0,0,1,.66-.087l2.052,1.584a.471.471,0,0,1-.287.845" transform="translate(28.007 27.718)" fill="#ada4f7"/>
            <path id="Trazado_876905" data-name="Trazado 876905" d="M73.1,61.451a.471.471,0,0,1-.445-.317L63.905,36.058a.472.472,0,0,1,.892-.309l8.752,25.075a.471.471,0,0,1-.29.6.493.493,0,0,1-.155.026" transform="translate(56.61 31.402)" fill="#ada4f7"/>
            <path id="Trazado_876906" data-name="Trazado 876906" d="M65.249,40.314a.472.472,0,0,1-.211-.894l5.83-2.916a.479.479,0,0,1,.632.211.473.473,0,0,1-.209.634l-5.83,2.916a.5.5,0,0,1-.211.049" transform="translate(57.406 32.309)" fill="#ada4f7"/>
            <path id="Trazado_876907" data-name="Trazado 876907" d="M66.568,44.473a.472.472,0,0,1-.26-.866l5.634-3.72a.472.472,0,0,1,.519.788L66.828,44.4a.482.482,0,0,1-.26.077" transform="translate(58.575 35.28)" fill="#ada4f7"/>
            <path id="Trazado_876908" data-name="Trazado 876908" d="M67.879,48.273a.472.472,0,0,1-.264-.864L73.3,43.592a.472.472,0,1,1,.526.785l-5.687,3.818a.485.485,0,0,1-.264.079" transform="translate(59.737 38.561)" fill="#ada4f7"/>
            <path id="Trazado_876909" data-name="Trazado 876909" d="M35.909,162.863h-17.1a.472.472,0,0,1-.2-.9l11.732-5.578-13.564.579a.472.472,0,0,1-.041-.943l15.882-.675a.481.481,0,0,1,.477.356.467.467,0,0,1-.255.539L20.9,161.92h15.01a.472.472,0,0,1,0,.943" transform="translate(14.428 137.671)" fill="#fff"/>
            <path id="Trazado_876910" data-name="Trazado 876910" d="M46.933,162.128a.471.471,0,0,1-.428-.668l2-4.395-5.928,1.756a.468.468,0,0,1-.53-.191.473.473,0,0,1,.032-.56l4.495-5.43a.47.47,0,0,1,.724.6l-3.506,4.238,5.436-1.609a.455.455,0,0,1,.49.141.47.47,0,0,1,.074.5l-2.016,4.436L55.24,159a.472.472,0,1,1,.24.913l-8.426,2.2a.528.528,0,0,1-.121.015" transform="translate(37.192 135.12)" fill="#fff"/>
            <path id="Trazado_876911" data-name="Trazado 876911" d="M127.584,25.958a1.988,1.988,0,0,1-1.977-2.854,4.315,4.315,0,0,1,3.874-2.826,1.975,1.975,0,0,1,2.09,2.771,4.655,4.655,0,0,1-3.987,2.909m-4.646-7.93L111.787,3.216q-.32-.436.266-.864L114.081.873q.586-.427.9.009l10.657,15.173c.213.292.123.581-.268.864l-1.532,1.119c-.39.285-.69.281-.9-.009" transform="translate(98.967 0.587)" fill="#dcd7e0"/>
            <path id="Trazado_876912" data-name="Trazado 876912" d="M126.089,28.475a1.991,1.991,0,0,1-.577-3.425,4.316,4.316,0,0,1,4.71-.909,1.977,1.977,0,0,1,.715,3.4,4.172,4.172,0,0,1-2.277,1.16,4.123,4.123,0,0,1-2.571-.223m-.832-9.154L121.464,1.172q-.1-.529.609-.668l2.463-.477c.473-.091.745.04.815.394l3.191,18.264q.1.532-.609.668l-1.862.36q-.713.139-.815-.392" transform="translate(107.631 -0.001)" fill="#dcd7e0"/>
            <path id="Trazado_876913" data-name="Trazado 876913" d="M31.073,22.3a.485.485,0,0,1,.126.017l4.374,1.22a.47.47,0,0,1,.324.321.464.464,0,0,1-.1.443c-.062.074-1.579,1.775-3.367,1.411-1.916-.39-1.837-2.856-1.833-2.958a.467.467,0,0,1,.192-.364.483.483,0,0,1,.279-.091m3.42,1.915-2.9-.807c.091.534.34,1.241,1.03,1.381a2.455,2.455,0,0,0,1.869-.573" transform="translate(27.118 19.764)"/>
          </g>
        </g>
      </g>
    </g>
  </g>
</svg>
