<svg xmlns="http://www.w3.org/2000/svg" xmlns:xlink="http://www.w3.org/1999/xlink" width="160" height="120" viewBox="0 0 160 120">
  <defs>
    <clipPath id="clip-path">
      <rect id="Rect치ngulo_401377" data-name="Rect치ngulo 401377" width="160" height="120" rx="10" transform="translate(-10353 -10232)" fill="#2436b1"/>
    </clipPath>
    <clipPath id="clip-path-2">
      <path id="Trazado_873930" data-name="Trazado 873930" d="M275.147,295.8a5.566,5.566,0,0,0-4.1,1.342c-8.108,7.215-18.8,8.033-19.186,8.061a27.238,27.238,0,0,0,6.115-5.638,5.668,5.668,0,0,0-2.107-8.679c-17.507-8.009-29.033-24.833-17.344-45.315,21.555-35.32,97.653-8.584,73.34,34.03C304.205,292.163,289.646,296.872,275.147,295.8Z" transform="translate(-233.793 -229.216)"/>
    </clipPath>
    <clipPath id="clip-path-3">
      <path id="Trazado_873967" data-name="Trazado 873967" d="M95.016,42.386V96.173h-7.71c-3.721,5.654-9.586,10.221-16.427,13.353a5.308,5.308,0,0,0-1.975,8.128,25.546,25.546,0,0,0,5.727,5.282c-.362-.027-10.373-.8-17.968-7.55a5.216,5.216,0,0,0-3.832-1.259c-13.581,1-27.211-3.409-34.392-15.168C6.091,77.315,21.4,60.043,41.229,54.046V42.386Z" transform="translate(-14.003 -42.386)"/>
    </clipPath>
  </defs>
  <g id="Enmascarar_grupo_1098725" data-name="Enmascarar grupo 1098725" transform="translate(10353 10232)" clip-path="url(#clip-path)">
    <g id="_201007219_10786350" data-name="201007219_10786350" transform="translate(-10353.468 -10251.581)">
      <g id="BACKGROUND" transform="translate(0.468 -0.419)">
        <g id="Grupo_1099824" data-name="Grupo 1099824">
          <g id="Grupo_1099823" data-name="Grupo 1099823">
            <g id="Grupo_1099822" data-name="Grupo 1099822">
              <g id="Grupo_1099821" data-name="Grupo 1099821">
                <rect id="Rect치ngulo_401376" data-name="Rect치ngulo 401376" width="160" height="161" fill="#fff6f3"/>
              </g>
            </g>
          </g>
        </g>
      </g>
      <g id="OBJECTS" transform="translate(4.574 13.591)">
        <g id="Grupo_1099873" data-name="Grupo 1099873" transform="translate(70.775 60.161)">
          <g id="Grupo_1099827" data-name="Grupo 1099827">
            <g id="Grupo_1099825" data-name="Grupo 1099825">
              <path id="Trazado_873890" data-name="Trazado 873890" d="M275.147,295.8a5.566,5.566,0,0,0-4.1,1.342c-8.108,7.215-18.8,8.033-19.186,8.061a27.238,27.238,0,0,0,6.115-5.638,5.668,5.668,0,0,0-2.107-8.679c-17.507-8.009-29.033-24.833-17.344-45.315,21.555-35.32,97.653-8.584,73.34,34.03C304.205,292.163,289.646,296.872,275.147,295.8Z" transform="translate(-233.793 -229.216)" fill="#7666fa"/>
            </g>
            <g id="Grupo_1099826" data-name="Grupo 1099826" transform="translate(3.985 6.466)">
              <path id="Trazado_873891" data-name="Trazado 873891" d="M246.493,269.475a.329.329,0,0,1-.084-.011.322.322,0,0,1-.227-.4,29.82,29.82,0,0,1,17.861-19.751.322.322,0,0,1,.23.6A29.163,29.163,0,0,0,246.8,269.237.323.323,0,0,1,246.493,269.475Z" transform="translate(-246.17 -249.297)" fill="#1a2948"/>
            </g>
          </g>
          <g id="Grupo_1099872" data-name="Grupo 1099872">
            <g id="Grupo_1099871" data-name="Grupo 1099871" clip-path="url(#clip-path-2)">
              <g id="Grupo_1099828" data-name="Grupo 1099828" transform="translate(42.648 28.442)">
                <path id="Trazado_873892" data-name="Trazado 873892" d="M366.464,323.166l-.228-1.337,1.1-2.588.691-1.634c2.58-.532,4.011,2.341,4.011,2.341s7.607,1.016,9.789,1.43,3.238,3.125,4.441,7.229,8.513,38.253,8.513,38.253H373.916Z" transform="translate(-366.236 -317.542)" fill="#eaac36"/>
              </g>
              <g id="Grupo_1099829" data-name="Grupo 1099829" transform="translate(32.189 34.066)">
                <path id="Trazado_873893" data-name="Trazado 873893" d="M344.442,335.009l7.452,43.694H333.755l1.065-42.276a12.431,12.431,0,0,0,4.949,1.764C341.59,338.264,343.39,336.366,344.442,335.009Z" transform="translate(-333.755 -335.009)" fill="#71c4bb"/>
              </g>
              <g id="Grupo_1099830" data-name="Grupo 1099830" transform="translate(43.668 14.491)">
                <path id="Trazado_873894" data-name="Trazado 873894" d="M370.3,274.292a1.8,1.8,0,0,1,.386-.073c.91-.077,1.857,2.231,1.333,4.116s-1.516,2.682-2.568,2.853h0a42.506,42.506,0,0,0-.045-6.2v0A1.613,1.613,0,0,1,370.3,274.292Z" transform="translate(-369.404 -274.217)" fill="#ecb78e"/>
              </g>
              <g id="Grupo_1099831" data-name="Grupo 1099831" transform="translate(26.908 2.181)">
                <path id="Trazado_873895" data-name="Trazado 873895" d="M334.116,249.064v0l0,0c-1.674-.345-1.264-2.934-1.764-5.25-.451-2.068-1.707-2.726-3.291-2.336a10.535,10.535,0,0,1-5.636,2.966c.26-.459.52-.918.78-1.381a6.143,6.143,0,0,1-4.921.581,5.047,5.047,0,0,1-.678-.256l-.926-.012a7.164,7.164,0,0,1-.2-.821v0a8.069,8.069,0,0,1,1.483-6.237,3.145,3.145,0,0,0,.947,1.926v-2.259a5.781,5.781,0,0,0,4.892,1.573c10.15-1.223,10.28,8.842,10.212,10.813A1.612,1.612,0,0,0,334.116,249.064Z" transform="translate(-317.356 -235.988)" fill="#1a2948"/>
              </g>
              <g id="Grupo_1099832" data-name="Grupo 1099832" transform="translate(31.039 25.22)">
                <path id="Trazado_873896" data-name="Trazado 873896" d="M342.891,312.458l-1.1,2.588.228,1.337c-1.052,1.357-2.852,3.255-4.673,3.182A12.43,12.43,0,0,1,332.4,317.8l.016-.646-1.792-3.137.008,0a33.92,33.92,0,0,0-.447-4.254c.268.463,2.426,4.051,5.453,4.006,3.23-.053,6.628-6.229,6.628-6.229A45.555,45.555,0,0,0,342.891,312.458Z" transform="translate(-330.185 -307.537)" fill="#ecb78e"/>
              </g>
              <g id="Grupo_1099833" data-name="Grupo 1099833" transform="translate(28.039 7.572)">
                <path id="Trazado_873897" data-name="Trazado 873897" d="M335.9,269.8c-1.081,2.824-3.564,4.876-5.583,5.12s-4.917-1.162-6.636-3.637a8.243,8.243,0,0,1-.581-.967,14.131,14.131,0,0,1-.8-1.979,42.738,42.738,0,0,1-1.422-6.034c1.544-.731.532-3.145.471-5.514a3.771,3.771,0,0,1,.321-1.784,6.142,6.142,0,0,0,4.921-.581c-.26.463-.52.923-.78,1.381a10.536,10.536,0,0,0,5.636-2.966c1.585-.39,2.84.268,3.291,2.337.5,2.316.09,4.9,1.764,5.25l0,0a42.558,42.558,0,0,1,.045,6.2,14.132,14.132,0,0,1-.313,2.113A8.267,8.267,0,0,1,335.9,269.8Z" transform="translate(-320.869 -252.73)" fill="#ecb78e"/>
              </g>
              <g id="Grupo_1099834" data-name="Grupo 1099834" transform="translate(30.847 24.639)">
                <path id="Trazado_873898" data-name="Trazado 873898" d="M341.809,305.733c.016.171.033.366.053.581,0,0-3.4,6.177-6.628,6.229-3.027.045-5.185-3.543-5.453-4.006v0c-.069-.5-.138-.955-.191-1.317,1.719,2.475,4.612,3.881,6.636,3.637S340.728,308.557,341.809,305.733Z" transform="translate(-329.59 -305.733)" fill="#1a2948"/>
              </g>
              <g id="Grupo_1099835" data-name="Grupo 1099835" transform="translate(16.288 29.473)">
                <path id="Trazado_873899" data-name="Trazado 873899" d="M301.341,326.756l-1.065,42.276h-15.9l3.539-14.982-.411-5.262v0a11.077,11.077,0,0,0,.675-2.556,27.131,27.131,0,0,0,0-5.77q-.384-5.443-.772-10.886c.443-.8,1.333-2.43,1.869-3.625v0a20.327,20.327,0,0,1,4.815-3.222s2.544-2.914,4.376-1.666l1.1,1.918,1.792,3.137Z" transform="translate(-284.376 -320.745)" fill="#eaac36"/>
              </g>
              <g id="Grupo_1099836" data-name="Grupo 1099836" transform="translate(25.726 16.673)">
                <path id="Trazado_873900" data-name="Trazado 873900" d="M314.959,281a1.647,1.647,0,0,1,1.036.459,0,0,0,0,1,0,0,42.689,42.689,0,0,0,1.422,6.034h0c-1.065.085-2.214-.455-3.17-2.162s-.585-4.177.317-4.319A1.624,1.624,0,0,1,314.959,281Z" transform="translate(-313.685 -280.994)" fill="#ecb78e"/>
              </g>
              <g id="Grupo_1099837" data-name="Grupo 1099837" transform="translate(26.411 8.755)">
                <path id="Trazado_873901" data-name="Trazado 873901" d="M317.437,264.788a1.646,1.646,0,0,0-1.036-.459c-.3-1.085-1.174-4.75.033-7.924a7.026,7.026,0,0,0,.2.821l.926.012a5,5,0,0,0,.678.256,3.77,3.77,0,0,0-.321,1.784c.061,2.369,1.073,4.783-.471,5.514A0,0,0,0,0,317.437,264.788Z" transform="translate(-315.812 -256.405)" fill="#1a2948"/>
              </g>
              <g id="Grupo_1099838" data-name="Grupo 1099838" transform="translate(20.586 17.909)">
                <path id="Trazado_873902" data-name="Trazado 873902" d="M300.814,288.124c.813,2.06.934,3.941.272,4.2s-1.853-1.2-2.661-3.263-.934-3.941-.276-4.2S300,286.064,300.814,288.124Z" transform="translate(-297.725 -284.831)" fill="#1a2948"/>
              </g>
              <g id="Grupo_1099839" data-name="Grupo 1099839" transform="translate(12.289 17.938)">
                <path id="Trazado_873903" data-name="Trazado 873903" d="M283.616,292.388l-2.048.6c0-.849-.171-1.735-.866-1.637-1.3.183-1.508,2.3-1.508,2.3l-2.332.678s-.662-1.394-1.585-1.621a1.1,1.1,0,0,0-1.28.605,1.843,1.843,0,0,0-1.134.166,6.553,6.553,0,0,1-.479-.983c-.874-2.227-.138-3.32-.138-3.32l8.432-4.254c-.658.26-.536,2.141.276,4.2S282.957,292.648,283.616,292.388Z" transform="translate(-271.957 -284.923)" fill="#f0e1cc"/>
              </g>
              <g id="Grupo_1099840" data-name="Grupo 1099840" transform="translate(12.181 24.356)">
                <path id="Trazado_873904" data-name="Trazado 873904" d="M280.63,315.174c-.536,1.195-1.426,2.82-1.869,3.625-.024.045-.053.09-.073.13a16.527,16.527,0,0,0-5.006-2.011,4.685,4.685,0,0,0-.67-.106l.008-.236s-1.467-6.319-1.394-7.741a2.058,2.058,0,0,1,1.012-1.841,1.84,1.84,0,0,1,1.134-.166,1.1,1.1,0,0,1,1.28-.605c.923.228,1.585,1.621,1.585,1.621l2.332-.678s.207-2.121,1.508-2.3c.695-.1.861.788.866,1.637a9.875,9.875,0,0,1-.114,1.459s-.081,5-.15,5.949a5.159,5.159,0,0,1-.447,1.264Z" transform="translate(-271.623 -304.854)" fill="#ecb78e"/>
              </g>
              <g id="Grupo_1099841" data-name="Grupo 1099841" transform="translate(8.05 36.306)">
                <path id="Trazado_873905" data-name="Trazado 873905" d="M259.506,363.308a.015.015,0,0,1,0-.012,12.889,12.889,0,0,1-.642-5.376,33.535,33.535,0,0,1,1.65-6.213,22.993,22.993,0,0,0,1.378-6.274,3.6,3.6,0,0,1,.166-1.252,1.046,1.046,0,0,1,.955-.707.916.916,0,0,1,.374-1.353,1.725,1.725,0,0,1,.931-.15,4.693,4.693,0,0,1,.67.106,16.531,16.531,0,0,1,5.006,2.011c.02-.041.049-.085.073-.13q.39,5.449.772,10.886a27.129,27.129,0,0,1,0,5.77,11.079,11.079,0,0,1-.675,2.556v0a7.789,7.789,0,0,1-1.682,2.6,5.524,5.524,0,0,1-5.283,1.569A5.825,5.825,0,0,1,259.506,363.308Z" transform="translate(-258.794 -341.963)" fill="#eaac36"/>
              </g>
              <g id="Grupo_1099842" data-name="Grupo 1099842" transform="translate(26.071 18.03)">
                <path id="Trazado_873906" data-name="Trazado 873906" d="M316.978,288.864a.322.322,0,0,1-.307-.223c-.8-2.49-1.676-2.8-1.685-2.8a.328.328,0,0,1-.218-.394.317.317,0,0,1,.378-.229c.122.029,1.221.365,2.139,3.226a.322.322,0,0,1-.208.405A.356.356,0,0,1,316.978,288.864Z" transform="translate(-314.757 -285.209)" fill="#1a2948"/>
              </g>
              <g id="Grupo_1099843" data-name="Grupo 1099843" transform="translate(26.762 19.033)">
                <path id="Trazado_873907" data-name="Trazado 873907" d="M317.657,290.952a.317.317,0,0,1-.186-.061,1.751,1.751,0,0,1-.2-2.41.322.322,0,1,1,.555.326c-.609,1.035-.04,1.513.027,1.564a.323.323,0,0,1-.194.58Z" transform="translate(-316.904 -288.323)" fill="#1a2948"/>
              </g>
              <g id="Grupo_1099844" data-name="Grupo 1099844" transform="translate(44.114 15.722)">
                <path id="Trazado_873908" data-name="Trazado 873908" d="M371.111,282.063h-.023a.322.322,0,0,1-.3-.344c.213-3,1.2-3.584,1.313-3.641a.322.322,0,0,1,.3.569c-.033.022-.79.554-.972,3.118A.322.322,0,0,1,371.111,282.063Z" transform="translate(-370.788 -278.042)" fill="#1a2948"/>
              </g>
              <g id="Grupo_1099845" data-name="Grupo 1099845" transform="translate(44.499 16.939)">
                <path id="Trazado_873909" data-name="Trazado 873909" d="M372.669,284.419a.322.322,0,0,1-.247-.528c.055-.068.489-.667-.345-1.525a.322.322,0,0,1,.462-.449,1.752,1.752,0,0,1,.376,2.389A.323.323,0,0,1,372.669,284.419Z" transform="translate(-371.986 -281.82)" fill="#1a2948"/>
              </g>
              <g id="Grupo_1099846" data-name="Grupo 1099846" transform="translate(29.633 19.225)">
                <ellipse id="Elipse_11518" data-name="Elipse 11518" cx="1.823" cy="1.019" rx="1.823" ry="1.019" transform="matrix(0.994, -0.107, 0.107, 0.994, 0, 0.39)" fill="#e06f43"/>
              </g>
              <g id="Grupo_1099847" data-name="Grupo 1099847" transform="translate(39.355 18.367)">
                <path id="Trazado_873910" data-name="Trazado 873910" d="M356.015,287.48c.06.559.92.925,1.921.818s1.764-.648,1.7-1.208-.92-.925-1.921-.818S355.955,286.921,356.015,287.48Z" transform="translate(-356.012 -286.254)" fill="#e06f43"/>
              </g>
              <g id="Grupo_1099848" data-name="Grupo 1099848" transform="translate(34.623 15.511)">
                <path id="Trazado_873911" data-name="Trazado 873911" d="M344.4,283.808c-.717.907-2.767.591-3.073-.56a1.942,1.942,0,0,1,.356-1.189,8.618,8.618,0,0,0,.958-4.673,5.484,5.484,0,0,1,1.223,4.954A.969.969,0,0,1,344.4,283.808Z" transform="translate(-341.314 -277.386)" fill="#e06f43"/>
              </g>
              <g id="Grupo_1099857" data-name="Grupo 1099857" transform="translate(29.473 12.763)">
                <g id="Grupo_1099849" data-name="Grupo 1099849" transform="translate(0 0.907)">
                  <path id="Trazado_873912" data-name="Trazado 873912" d="M325.322,274.32a5.151,5.151,0,0,1,3.807-1.277.635.635,0,0,0,.7-.638c-.037-.259-.241-.53-.836-.686C327.6,271.356,325.3,272.945,325.322,274.32Z" transform="translate(-325.321 -271.667)" fill="#1a2948"/>
                </g>
                <g id="Grupo_1099850" data-name="Grupo 1099850" transform="translate(1.158 3.647)">
                  <path id="Trazado_873913" data-name="Trazado 873913" d="M330.8,281.127a.955.955,0,1,1-1.089-.943A1.023,1.023,0,0,1,330.8,281.127Z" transform="translate(-328.916 -280.176)" fill="#1a2948"/>
                </g>
                <g id="Grupo_1099852" data-name="Grupo 1099852" transform="translate(0.342 3.211)">
                  <g id="Grupo_1099851" data-name="Grupo 1099851">
                    <path id="Trazado_873914" data-name="Trazado 873914" d="M326.707,280.566a.322.322,0,0,1-.238-.539,2.94,2.94,0,0,1,4.179-.591.322.322,0,0,1-.337.549,2.3,2.3,0,0,0-3.365.476A.323.323,0,0,1,326.707,280.566Z" transform="translate(-326.385 -278.823)" fill="#1a2948"/>
                  </g>
                </g>
                <g id="Grupo_1099853" data-name="Grupo 1099853" transform="translate(8.046)">
                  <path id="Trazado_873915" data-name="Trazado 873915" d="M355.1,270.886a5.151,5.151,0,0,0-3.98-.534.635.635,0,0,1-.809-.494c-.012-.261.136-.565.691-.831C352.3,268.407,354.862,269.53,355.1,270.886Z" transform="translate(-350.31 -268.852)" fill="#1a2948"/>
                </g>
                <g id="Grupo_1099854" data-name="Grupo 1099854" transform="translate(8.394 2.653)">
                  <path id="Trazado_873916" data-name="Trazado 873916" d="M351.39,278.223a.955.955,0,1,0,.891-1.132A1.024,1.024,0,0,0,351.39,278.223Z" transform="translate(-351.388 -277.09)" fill="#1a2948"/>
                </g>
                <g id="Grupo_1099856" data-name="Grupo 1099856" transform="translate(8.26 2.164)">
                  <g id="Grupo_1099855" data-name="Grupo 1099855">
                    <path id="Trazado_873917" data-name="Trazado 873917" d="M351.3,277.132a.322.322,0,0,1-.217-.56,2.94,2.94,0,0,1,4.215-.21.322.322,0,0,1-.385.516,2.3,2.3,0,0,0-3.395.169A.324.324,0,0,1,351.3,277.132Z" transform="translate(-350.973 -275.572)" fill="#1a2948"/>
                  </g>
                </g>
              </g>
              <g id="Grupo_1099862" data-name="Grupo 1099862" transform="translate(33.754 23.184)">
                <g id="Grupo_1099858" data-name="Grupo 1099858">
                  <path id="Trazado_873918" data-name="Trazado 873918" d="M338.661,302.445a2.568,2.568,0,0,0,2.311,1.639v-.009a1.9,1.9,0,0,1,1.663-1.217,2.882,2.882,0,0,1,1.386.364,2.515,2.515,0,0,0,.671-1.235.628.628,0,0,0-.66-.772l-.116.007v0c-.024.063-.312.681-2.136.821-1.922.155-2.467-.457-2.467-.457l-.111.007A.63.63,0,0,0,338.661,302.445Z" transform="translate(-338.618 -301.213)" fill="#1a2948"/>
                </g>
                <g id="Grupo_1099859" data-name="Grupo 1099859" transform="translate(2.353 1.644)">
                  <path id="Trazado_873919" data-name="Trazado 873919" d="M345.927,307.536v.009a4.515,4.515,0,0,0,.86.008,3.338,3.338,0,0,0,2.191-.87,2.878,2.878,0,0,0-1.386-.364A1.9,1.9,0,0,0,345.927,307.536Z" transform="translate(-345.926 -306.318)" fill="#dc3d3d"/>
                </g>
                <g id="Grupo_1099860" data-name="Grupo 1099860" transform="translate(0.671 0.015)">
                  <path id="Trazado_873920" data-name="Trazado 873920" d="M340.7,301.625s.57.61,2.491.455c1.824-.14,2.112-.758,2.111-.819Z" transform="translate(-340.702 -301.261)" fill="#fbf5e8"/>
                </g>
                <g id="Grupo_1099861" data-name="Grupo 1099861" transform="translate(5.404 2.009)">
                  <path id="Trazado_873921" data-name="Trazado 873921" d="M355.435,307.468a.109.109,0,0,0-.036-.015" transform="translate(-355.399 -307.453)" fill="#dc3d3d"/>
                </g>
              </g>
              <g id="Grupo_1099863" data-name="Grupo 1099863" transform="translate(55.049 50.993)">
                <path id="Trazado_873922" data-name="Trazado 873922" d="M408.615,414.241a.322.322,0,0,1-.319-.279l-3.545-26.021a.322.322,0,1,1,.639-.087l3.545,26.021a.322.322,0,0,1-.276.363Z" transform="translate(-404.748 -387.576)" fill="#1a2948"/>
              </g>
              <g id="Grupo_1099864" data-name="Grupo 1099864" transform="translate(45.846 31.62)">
                <path id="Trazado_873923" data-name="Trazado 873923" d="M376.9,341.907a.322.322,0,0,1-.317-.267,27.987,27.987,0,0,1,1.152-14.012.322.322,0,0,1,.608.213,27.339,27.339,0,0,0-1.126,13.689.322.322,0,0,1-.262.373A.333.333,0,0,1,376.9,341.907Z" transform="translate(-376.168 -327.413)" fill="#1a2948"/>
              </g>
              <g id="Grupo_1099865" data-name="Grupo 1099865" transform="translate(26.487 31.567)">
                <path id="Trazado_873924" data-name="Trazado 873924" d="M321.65,340.1a.322.322,0,0,1-.32-.287,22.528,22.528,0,0,0-5.2-12.04.322.322,0,1,1,.49-.418,23.18,23.18,0,0,1,5.354,12.388.322.322,0,0,1-.285.356Z" transform="translate(-316.05 -327.246)" fill="#1a2948"/>
              </g>
              <g id="Grupo_1099866" data-name="Grupo 1099866" transform="translate(19.061 38.401)">
                <path id="Trazado_873925" data-name="Trazado 873925" d="M293.452,367.862a.349.349,0,0,1-.07-.007.322.322,0,0,1-.245-.384,44.4,44.4,0,0,0,.394-16.947.322.322,0,0,1,.194-.352.552.552,0,0,0-.342-1.046.322.322,0,0,1-.15-.626,1.194,1.194,0,0,1,.971,2.136,45.053,45.053,0,0,1-.438,16.975A.322.322,0,0,1,293.452,367.862Z" transform="translate(-292.986 -348.469)" fill="#1a2948"/>
              </g>
              <g id="Grupo_1099867" data-name="Grupo 1099867" transform="translate(15.974 24.169)">
                <path id="Trazado_873926" data-name="Trazado 873926" d="M283.723,313.531a.322.322,0,0,1-.315-.39,6.251,6.251,0,0,1,2.515-3.779l.118-.081c.331-.227.673-.461.735-.772a1.435,1.435,0,0,0-.1-.65c-.028-.093-.056-.186-.079-.279a2.921,2.921,0,0,1,1.652-3.283.322.322,0,1,1,.249.594,2.255,2.255,0,0,0-1.276,2.535c.021.082.045.165.07.248a1.946,1.946,0,0,1,.115.962,2.034,2.034,0,0,1-1,1.176l-.114.078a5.6,5.6,0,0,0-2.253,3.387A.322.322,0,0,1,283.723,313.531Z" transform="translate(-283.401 -304.272)" fill="#1a2948"/>
              </g>
              <g id="Grupo_1099868" data-name="Grupo 1099868" transform="translate(13.037 25.915)">
                <path id="Trazado_873927" data-name="Trazado 873927" d="M276.12,314.742a1.485,1.485,0,0,1-.229-.017,2.181,2.181,0,0,1-1.581-1.281.322.322,0,0,1,.581-.277,1.565,1.565,0,0,0,1.1.922.889.889,0,0,0,1-.622,1.624,1.624,0,0,0-.235-.894,21.21,21.21,0,0,0-1.344-2.379.322.322,0,1,1,.539-.352,21.851,21.851,0,0,1,1.385,2.452,2.168,2.168,0,0,1,.291,1.277A1.507,1.507,0,0,1,276.12,314.742Z" transform="translate(-274.279 -309.694)" fill="#1a2948"/>
              </g>
              <g id="Grupo_1099869" data-name="Grupo 1099869" transform="translate(15.429 25.597)">
                <path id="Trazado_873928" data-name="Trazado 873928" d="M282.036,312.456a.322.322,0,0,1-.083-.633,1.284,1.284,0,0,0-.005-2.482.322.322,0,0,1,.164-.623,1.927,1.927,0,0,1,.009,3.726A.314.314,0,0,1,282.036,312.456Z" transform="translate(-281.707 -308.708)" fill="#1a2948"/>
              </g>
              <g id="Grupo_1099870" data-name="Grupo 1099870" transform="translate(40.013 2.421)">
                <path id="Trazado_873929" data-name="Trazado 873929" d="M359.326,240.759a.322.322,0,0,1-.319-.367,4.11,4.11,0,0,0-.879-3.125.322.322,0,1,1,.5-.409,4.775,4.775,0,0,1,1.05,2.662,3.391,3.391,0,0,0,.469-2.4.322.322,0,1,1,.633-.12,4.045,4.045,0,0,1-1.236,3.68A.321.321,0,0,1,359.326,240.759Z" transform="translate(-358.055 -236.734)" fill="#1a2948"/>
              </g>
            </g>
          </g>
        </g>
        <g id="Grupo_1099916" data-name="Grupo 1099916">
          <g id="Grupo_1099876" data-name="Grupo 1099876" transform="translate(0 9.385)">
            <g id="Grupo_1099874" data-name="Grupo 1099874">
              <path id="Trazado_873931" data-name="Trazado 873931" d="M52.831,133.889a5.212,5.212,0,0,1,3.835,1.257c7.593,6.756,17.6,7.523,17.967,7.549a25.513,25.513,0,0,1-5.727-5.28,5.307,5.307,0,0,1,1.973-8.128c16.394-7.5,27.188-23.255,16.242-42.436C66.936,53.776-4.328,78.812,18.441,118.719,25.619,130.479,39.253,134.889,52.831,133.889Z" transform="translate(-14.004 -71.532)" fill="#eaac36"/>
            </g>
            <g id="Grupo_1099875" data-name="Grupo 1099875" transform="translate(4.366 9.874)">
              <path id="Trazado_873932" data-name="Trazado 873932" d="M27.885,121.089a.322.322,0,0,1-.3-.427,36.248,36.248,0,0,1,14.5-18.414.322.322,0,1,1,.351.539,35.606,35.606,0,0,0-14.247,18.084A.32.32,0,0,1,27.885,121.089Z" transform="translate(-27.563 -102.196)" fill="#1a2948"/>
            </g>
          </g>
          <g id="Grupo_1099915" data-name="Grupo 1099915">
            <g id="Grupo_1099914" data-name="Grupo 1099914" clip-path="url(#clip-path-3)">
              <g id="Grupo_1099877" data-name="Grupo 1099877" transform="translate(32.219 23.212)">
                <path id="Trazado_873933" data-name="Trazado 873933" d="M114.53,121.553q.519-2,1.039-4.014.394-1.53.792-3.067a5.011,5.011,0,0,0,1.857,1.016c0,.24.015.548.05.894-.183,3.691,1.667,12.059,6.469,8.482a15.484,15.484,0,0,0,.11,1.88s-3.352,4.285-6.1,3.547-4.684-6.906-4.684-6.906C114.214,122.774,114.374,122.165,114.53,121.553Z" transform="translate(-114.058 -114.471)" fill="#ecb78e"/>
              </g>
              <g id="Grupo_1099878" data-name="Grupo 1099878" transform="translate(-0.815 27.536)">
                <path id="Trazado_873934" data-name="Trazado 873934" d="M24.046,180.912H11.473L24.7,144.667s2.592-7.881,6.77-9.57,6.564-2.489,6.564-2.489a1.8,1.8,0,0,1,2.7,0s.262-1.613,1.533-1.743c.792-.084,1.956-.164,2.717-.209-.156.613-.316,1.221-.472,1.83,0,0,1.933,6.165,4.684,6.906s6.1-3.547,6.1-3.547a15.549,15.549,0,0,1-.11-1.88c0-.362.015-.727.046-1.088.422-.08,3.634-.639,5.015-.046,1.48.635,1.484,1.587,1.484,1.587s4.783-1.058,6.766-.107c1.952.936,8.824,6.846,9.041,7.032-.072-.171-2.584-5.856-2.428-6.819a2.647,2.647,0,0,1,.845-1.533l-1.164-1.907s.148-.11.407-.293c1-.708,3.676-2.469,5.777-2.827a3.315,3.315,0,0,1,1.328,0l.9.951a6.5,6.5,0,0,1,2.538,1.111c1.3.928,5.609,14.547,6.191,16.4s-1.324,5.209-3.493,6.138-22.109,4.494-22.109,4.494l-.738,24.559H31.31l2.471-20.588Z" transform="translate(-11.473 -127.899)" fill="#71c4bb"/>
              </g>
              <g id="Grupo_1099879" data-name="Grupo 1099879" transform="translate(53.261 15.06)">
                <path id="Trazado_873935" data-name="Trazado 873935" d="M192.666,95.762c.422,1.138,1.785,4.9,2.161,5.936-2.1.358-4.772,2.119-5.777,2.827l-.723-1.256s-6.012-2.751-6.667-3.984-2.218-2.222-2.257-3.071a.9.9,0,0,1,.05-.346c.2-.571.989-.742,1.964-.605,1.145.16,2.184,2.538,2.184,2.538l-.03.065,2.645,1.286s1.229-.072,2.39-1.99.655-3.044.655-3.044l-1.085-.8-1.956-1.446a1.624,1.624,0,0,1-1.7-.845c-2.4.156-1.514-1.484-1.514-1.484a.186.186,0,0,1,.034-.023,1.232,1.232,0,0,1,1.868.1c1-.388,1.975.81,1.975.81a4.733,4.733,0,0,1,3.28,0C190.886,90.8,192.172,94.434,192.666,95.762Z" transform="translate(-179.404 -89.155)" fill="#ecb78e"/>
              </g>
              <g id="Grupo_1099880" data-name="Grupo 1099880" transform="translate(52.173 14.814)">
                <path id="Trazado_873936" data-name="Trazado 873936" d="M186.971,93.6s.51,1.126-.655,3.044-2.39,1.99-2.39,1.99l-2.645-1.286.03-.065s-1.039-2.378-2.184-2.538c-.974-.137-1.766.034-1.964.605l-1.138-.555c.593.243,1.876-.9,2.915-2.614s1.454-3.36.978-3.79l.829.613a.167.167,0,0,0-.034.023s-.883,1.64,1.514,1.484a1.623,1.623,0,0,0,1.7.845l1.956,1.446Z" transform="translate(-176.027 -88.392)" fill="#f0e1cc"/>
              </g>
              <g id="Grupo_1099881" data-name="Grupo 1099881" transform="translate(51.859 14.707)">
                <path id="Trazado_873937" data-name="Trazado 873937" d="M179.259,88.164c.476.43.057,2.085-.978,3.79s-2.321,2.858-2.915,2.614l-.057-.027c-.571-.342-.16-2.059.913-3.836s2.405-2.934,2.976-2.588Z" transform="translate(-175.052 -88.057)" fill="#1a2948"/>
              </g>
              <g id="Grupo_1099882" data-name="Grupo 1099882" transform="translate(30.261 2.722)">
                <path id="Trazado_873938" data-name="Trazado 873938" d="M126.347,60.75s.209,1.009-2.679.734a14.234,14.234,0,0,1-5.8-2.329s-2.469,1.423-3.018,3.638a7.764,7.764,0,0,0-.221,3.467,2.2,2.2,0,0,0-3.577-.346,3.118,3.118,0,0,0-.476,2.778,5.129,5.129,0,0,0,1.659,2.637q-.4,1.535-.791,3.067a11,11,0,0,0-1.081-4.251c-.616-1.416-1.359-2.782-1.853-4.243a7.76,7.76,0,0,1-.323-4.547A4.247,4.247,0,0,1,111.3,58.25a4.26,4.26,0,0,1,1.648-3.7,6.531,6.531,0,0,1,3.938-1.317,14.535,14.535,0,0,1,4.167.624,3.044,3.044,0,1,1,5.864,1.161,3.518,3.518,0,0,1-.137,6.944l-.053.011A8.14,8.14,0,0,0,126.347,60.75Z" transform="translate(-107.977 -50.838)" fill="#7666fa"/>
              </g>
              <g id="Grupo_1099883" data-name="Grupo 1099883" transform="translate(32.738 11.039)">
                <path id="Trazado_873939" data-name="Trazado 873939" d="M117.454,88.84a5.13,5.13,0,0,1-1.659-2.637,3.119,3.119,0,0,1,.476-2.778,2.2,2.2,0,0,1,3.577.346,7.764,7.764,0,0,1,.221-3.467c.548-2.215,3.018-3.638,3.018-3.638a14.234,14.234,0,0,0,5.8,2.329c2.888.274,2.679-.735,2.679-.735a8.034,8.034,0,0,1,.377,1.225,7.629,7.629,0,0,1,.194,1.321,39.991,39.991,0,0,1,.247,4,4.341,4.341,0,0,1-.605,1.435,2.947,2.947,0,0,1,.871,2.846c-.407,1.792-2.268,7.8-4.258,8.337a6.721,6.721,0,0,1-2.454.084c-1.986-.24-4.273-1.13-5.3-2.687a9,9,0,0,1-1.275-4.068c-.034-.346-.046-.655-.05-.894A5.008,5.008,0,0,1,117.454,88.84Z" transform="translate(-115.671 -76.667)" fill="#ecb78e"/>
              </g>
              <g id="Grupo_1099884" data-name="Grupo 1099884" transform="translate(36.415 25.122)">
                <path id="Trazado_873940" data-name="Trazado 873940" d="M133.617,127.8c-.031.362-.046.727-.046,1.088-4.8,3.577-6.652-4.791-6.469-8.482a9,9,0,0,0,1.275,4.068c1.028,1.556,3.314,2.447,5.3,2.687C133.651,127.37,133.632,127.583,133.617,127.8Z" transform="translate(-127.09 -120.403)" fill="#1a2948"/>
              </g>
              <g id="Grupo_1099885" data-name="Grupo 1099885" transform="translate(33.88 17.891)">
                <path id="Trazado_873941" data-name="Trazado 873941" d="M120.924,102.748a.318.318,0,0,1-.081-.01.322.322,0,0,1-.231-.392,3.812,3.812,0,0,0-1.275-3.824.322.322,0,0,1,.4-.5,4.474,4.474,0,0,1,1.5,4.488A.322.322,0,0,1,120.924,102.748Z" transform="translate(-119.216 -97.947)" fill="#1a2948"/>
              </g>
              <g id="Grupo_1099886" data-name="Grupo 1099886" transform="translate(33.954 19.62)">
                <path id="Trazado_873942" data-name="Trazado 873942" d="M119.769,105.685a.322.322,0,0,1-.308-.418,4.087,4.087,0,0,1,1.23-1.872.322.322,0,0,1,.421.488,3.491,3.491,0,0,0-1.037,1.577A.323.323,0,0,1,119.769,105.685Z" transform="translate(-119.447 -103.317)" fill="#1a2948"/>
              </g>
              <g id="Grupo_1099887" data-name="Grupo 1099887" transform="translate(39.775 16.73)">
                <path id="Trazado_873943" data-name="Trazado 873943" d="M137.525,96.279a4.659,4.659,0,0,1,3.581-.6.574.574,0,0,0,.716-.471c0-.236-.14-.507-.65-.73C139.982,93.953,137.7,95.047,137.525,96.279Z" transform="translate(-137.525 -94.341)" fill="#1a2948"/>
              </g>
              <g id="Grupo_1099888" data-name="Grupo 1099888" transform="translate(39.447 21.977)">
                <path id="Trazado_873944" data-name="Trazado 873944" d="M139.869,111.6c-.008.519-.768.927-1.7.913s-1.675-.448-1.666-.967.768-.927,1.7-.913S139.877,111.084,139.869,111.6Z" transform="translate(-136.506 -110.636)" fill="#e06f43"/>
              </g>
              <g id="Grupo_1099889" data-name="Grupo 1099889" transform="translate(45.908 16.747)">
                <path id="Trazado_873945" data-name="Trazado 873945" d="M160.277,96.42a3.669,3.669,0,0,0-3.1-.711.512.512,0,0,1-.609-.492c0-.236.137-.5.588-.711C158.21,94.021,160.163,95.183,160.277,96.42Z" transform="translate(-156.57 -94.393)" fill="#1a2948"/>
              </g>
              <g id="Grupo_1099890" data-name="Grupo 1099890" transform="translate(43.821 19.266)">
                <path id="Trazado_873946" data-name="Trazado 873946" d="M151.784,102.218a25.383,25.383,0,0,0,.989,3.07c.639,1.61,1.491,1.373,1.04,2.465s-3.061.944-3.535.444.01-1.822.761-1.742C151.039,106.456,150.864,103.256,151.784,102.218Z" transform="translate(-150.09 -102.218)" fill="#e06f43"/>
              </g>
              <g id="Grupo_1099895" data-name="Grupo 1099895" transform="translate(41.772 25.768)">
                <g id="Grupo_1099891" data-name="Grupo 1099891">
                  <path id="Trazado_873947" data-name="Trazado 873947" d="M148.968,124.287a2.291,2.291,0,0,1-2.271,1.107v-.008a1.7,1.7,0,0,0-1.287-1.312,2.566,2.566,0,0,0-1.272.119,2.244,2.244,0,0,1-.411-1.184.56.56,0,0,1,.693-.584l.1.023v0c.012.059.175.644,1.76,1.032,1.668.415,2.237-.044,2.237-.044l.1.023A.561.561,0,0,1,148.968,124.287Z" transform="translate(-143.726 -122.409)" fill="#1a2948"/>
                </g>
                <g id="Grupo_1099892" data-name="Grupo 1099892" transform="translate(0.413 1.628)">
                  <path id="Trazado_873948" data-name="Trazado 873948" d="M147.567,128.813v.008a4.051,4.051,0,0,1-.758-.118,2.976,2.976,0,0,1-1.8-1.084,2.566,2.566,0,0,1,1.272-.119A1.694,1.694,0,0,1,147.567,128.813Z" transform="translate(-145.008 -127.464)" fill="#dc3d3d"/>
                </g>
                <g id="Grupo_1099893" data-name="Grupo 1099893" transform="translate(0.816 0.048)">
                  <path id="Trazado_873949" data-name="Trazado 873949" d="M150.258,123.547s-.59.454-2.258.039c-1.584-.388-1.748-.973-1.739-1.027Z" transform="translate(-146.261 -122.559)" fill="#fbf5e8"/>
                </g>
                <g id="Grupo_1099894" data-name="Grupo 1099894" transform="translate(0.379 1.784)">
                  <path id="Trazado_873950" data-name="Trazado 873950" d="M144.937,127.948a.092.092,0,0,0-.034.008" transform="translate(-144.903 -127.948)" fill="#dc3d3d"/>
                </g>
              </g>
              <g id="Grupo_1099896" data-name="Grupo 1099896" transform="translate(41.781 19.042)">
                <path id="Trazado_873951" data-name="Trazado 873951" d="M145.466,102.518a.864.864,0,1,1-.84-1A.926.926,0,0,1,145.466,102.518Z" transform="translate(-143.755 -101.522)" fill="#1a2948"/>
              </g>
              <g id="Grupo_1099897" data-name="Grupo 1099897" transform="translate(47.953 19.079)">
                <path id="Trazado_873952" data-name="Trazado 873952" d="M164.631,102.632a.864.864,0,1,1-.84-1A.926.926,0,0,1,164.631,102.632Z" transform="translate(-162.92 -101.636)" fill="#1a2948"/>
              </g>
              <g id="Grupo_1099899" data-name="Grupo 1099899" transform="translate(46.348 18.787)">
                <g id="Grupo_1099898" data-name="Grupo 1099898">
                  <path id="Trazado_873953" data-name="Trazado 873953" d="M161.7,102.142a.32.32,0,0,1-.209-.077,2.056,2.056,0,0,0-3.034-.049.322.322,0,0,1-.4-.5,2.686,2.686,0,0,1,3.855.062.322.322,0,0,1-.21.567Z" transform="translate(-157.936 -100.728)" fill="#1a2948"/>
                </g>
              </g>
              <g id="Grupo_1099901" data-name="Grupo 1099901" transform="translate(39.896 18.683)">
                <g id="Grupo_1099900" data-name="Grupo 1099900">
                  <path id="Trazado_873954" data-name="Trazado 873954" d="M141.665,101.82a.322.322,0,0,1-.209-.077,2.056,2.056,0,0,0-3.034-.049.322.322,0,1,1-.4-.5,2.686,2.686,0,0,1,3.855.062.322.322,0,0,1-.209.567Z" transform="translate(-137.899 -100.405)" fill="#1a2948"/>
                </g>
              </g>
              <g id="Grupo_1099902" data-name="Grupo 1099902" transform="translate(34.987 6.886)">
                <path id="Trazado_873955" data-name="Trazado 873955" d="M122.976,67.086l-.042,0a.323.323,0,0,1-.278-.361,4.115,4.115,0,0,1,1.846-2.9.322.322,0,0,1,.346.543,3.462,3.462,0,0,0-1.554,2.443A.322.322,0,0,1,122.976,67.086Z" transform="translate(-122.654 -63.769)" fill="#1a2948"/>
              </g>
              <g id="Grupo_1099903" data-name="Grupo 1099903" transform="translate(35.739 8.41)">
                <path id="Trazado_873956" data-name="Trazado 873956" d="M125.312,70.692a.319.319,0,0,1-.175-.052.322.322,0,0,1-.094-.446,3.885,3.885,0,0,1,2.5-1.685.322.322,0,0,1,.124.632,3.282,3.282,0,0,0-2.081,1.4A.322.322,0,0,1,125.312,70.692Z" transform="translate(-124.99 -68.503)" fill="#1a2948"/>
              </g>
              <g id="Grupo_1099904" data-name="Grupo 1099904" transform="translate(31.271 10.896)">
                <path id="Trazado_873957" data-name="Trazado 873957" d="M111.437,79.244a.318.318,0,0,1-.124-.025.322.322,0,0,1-.173-.421,4.572,4.572,0,0,1,2.777-2.559.322.322,0,0,1,.2.613,3.918,3.918,0,0,0-2.382,2.194A.322.322,0,0,1,111.437,79.244Z" transform="translate(-111.115 -76.223)" fill="#1a2948"/>
              </g>
              <g id="Grupo_1099905" data-name="Grupo 1099905" transform="translate(33.238 11.717)">
                <path id="Trazado_873958" data-name="Trazado 873958" d="M117.547,82.1a.323.323,0,0,1-.322-.316,4.319,4.319,0,0,1,1.061-2.9.322.322,0,0,1,.484.425,3.667,3.667,0,0,0-.9,2.46.322.322,0,0,1-.316.328Z" transform="translate(-117.224 -78.774)" fill="#1a2948"/>
              </g>
              <g id="Grupo_1099906" data-name="Grupo 1099906" transform="translate(64.808 40.883)">
                <path id="Trazado_873959" data-name="Trazado 873959" d="M217.383,174.987a.322.322,0,0,1-.312-.241,28.659,28.659,0,0,0-1.776-4.94.322.322,0,1,1,.583-.273,29.3,29.3,0,0,1,1.816,5.051.322.322,0,0,1-.231.393A.328.328,0,0,1,217.383,174.987Z" transform="translate(-215.265 -169.348)" fill="#1a2948"/>
              </g>
              <g id="Grupo_1099907" data-name="Grupo 1099907" transform="translate(64.265 29.296)">
                <path id="Trazado_873960" data-name="Trazado 873960" d="M213.9,136.683a.322.322,0,0,1-.034-.642,10.4,10.4,0,0,0,5.8-2.592.322.322,0,1,1,.431.479,11.042,11.042,0,0,1-6.158,2.753Z" transform="translate(-213.578 -133.366)" fill="#1a2948"/>
              </g>
              <g id="Grupo_1099908" data-name="Grupo 1099908" transform="translate(59.662 16.235)">
                <path id="Trazado_873961" data-name="Trazado 873961" d="M202.668,97.413a.321.321,0,0,1-.252-.121,3.553,3.553,0,0,1-.759-2.039,3.352,3.352,0,0,0-.553-.018,2.195,2.195,0,0,1-1.17-.2,1.284,1.284,0,0,1-.093-2.177.322.322,0,0,1,.364.532.64.64,0,0,0,.046,1.085,1.677,1.677,0,0,0,.839.113,2.612,2.612,0,0,1,1,.111.322.322,0,0,1,.209.313,2.89,2.89,0,0,0,.62,1.876.322.322,0,0,1-.251.523Z" transform="translate(-199.283 -92.805)" fill="#1a2948"/>
              </g>
              <g id="Grupo_1099909" data-name="Grupo 1099909" transform="translate(57.882 15.219)">
                <path id="Trazado_873962" data-name="Trazado 873962" d="M195.236,92.41h0a1.5,1.5,0,0,1-.885-2.7.322.322,0,1,1,.387.515.854.854,0,0,0,.5,1.537.322.322,0,0,1,0,.644Z" transform="translate(-193.755 -89.65)" fill="#1a2948"/>
              </g>
              <g id="Grupo_1099910" data-name="Grupo 1099910" transform="translate(20.184 37.517)">
                <path id="Trazado_873963" data-name="Trazado 873963" d="M79.841,170.3h-.016a.322.322,0,0,1-.306-.337,18.216,18.216,0,0,0-2.786-10.573.322.322,0,0,1,.544-.345,18.865,18.865,0,0,1,2.886,10.95A.322.322,0,0,1,79.841,170.3Z" transform="translate(-76.683 -158.894)" fill="#1a2948"/>
              </g>
              <g id="Grupo_1099911" data-name="Grupo 1099911" transform="translate(53.904 46.304)">
                <path id="Trazado_873964" data-name="Trazado 873964" d="M181.763,196.771h-.029a.322.322,0,0,1-.292-.35,52.6,52.6,0,0,0-.038-9.882.322.322,0,1,1,.641-.063,53.265,53.265,0,0,1,.038,10A.322.322,0,0,1,181.763,196.771Z" transform="translate(-181.403 -186.184)" fill="#1a2948"/>
              </g>
              <g id="Grupo_1099912" data-name="Grupo 1099912" transform="translate(30.222 58.136)">
                <path id="Trazado_873965" data-name="Trazado 873965" d="M108.18,238a.322.322,0,0,1-.237-.54,100.9,100.9,0,0,1,16.518-14.472.322.322,0,1,1,.369.528,100.229,100.229,0,0,0-16.413,14.38A.325.325,0,0,1,108.18,238Z" transform="translate(-107.858 -222.928)" fill="#1a2948"/>
              </g>
              <g id="Grupo_1099913" data-name="Grupo 1099913" transform="translate(35.063 65.565)">
                <path id="Trazado_873966" data-name="Trazado 873966" d="M123.212,251.359a.322.322,0,0,1-.157-.6,69.622,69.622,0,0,1,10.489-4.738.322.322,0,1,1,.215.607,68.956,68.956,0,0,0-10.392,4.694A.316.316,0,0,1,123.212,251.359Z" transform="translate(-122.889 -245.999)" fill="#1a2948"/>
              </g>
            </g>
          </g>
        </g>
        <g id="Grupo_1099920" data-name="Grupo 1099920" transform="translate(64.381 4.598)">
          <g id="Grupo_1099917" data-name="Grupo 1099917" transform="translate(2.406 0.534)">
            <path id="Trazado_873968" data-name="Trazado 873968" d="M221.732,68.213a.322.322,0,0,1-.215-.562c3.315-2.97,6.587-6.076,9.724-9.233a.322.322,0,1,1,.457.454c-3.146,3.166-6.426,6.28-9.751,9.258A.321.321,0,0,1,221.732,68.213Z" transform="translate(-221.41 -58.323)" fill="#1a2948"/>
          </g>
          <g id="Grupo_1099918" data-name="Grupo 1099918">
            <path id="Trazado_873969" data-name="Trazado 873969" d="M214.259,65.12a.322.322,0,0,1-.288-.466l3.919-7.812a.322.322,0,1,1,.576.289l-3.919,7.812A.322.322,0,0,1,214.259,65.12Z" transform="translate(-213.937 -56.664)" fill="#1a2948"/>
          </g>
          <g id="Grupo_1099919" data-name="Grupo 1099919" transform="translate(4.954 9.159)">
            <path id="Trazado_873970" data-name="Trazado 873970" d="M229.645,88.155a.322.322,0,0,1-.1-.628l7.189-2.4a.322.322,0,1,1,.2.611l-7.189,2.4A.316.316,0,0,1,229.645,88.155Z" transform="translate(-229.323 -85.108)" fill="#1a2948"/>
          </g>
        </g>
        <g id="Grupo_1099923" data-name="Grupo 1099923" transform="translate(113.045 44.8)">
          <g id="Grupo_1099921" data-name="Grupo 1099921" transform="translate(0)">
            <path id="Trazado_873971" data-name="Trazado 873971" d="M403.261,195.351c0,7.645-8.55,13.844-19.1,13.844-.712,0-1.419-.027-2.109-.086a3.51,3.51,0,0,0-2.318.637,29.092,29.092,0,0,1-9.347,4.181,12.549,12.549,0,0,0,2.736-2.093,3.54,3.54,0,0,0-.765-5.605c-4.443-2.532-7.292-6.467-7.292-10.878,0-7.639,8.549-13.839,19.1-13.839S403.261,187.712,403.261,195.351Z" transform="translate(-365.064 -181.512)" fill="#eaac36"/>
          </g>
          <g id="Grupo_1099922" data-name="Grupo 1099922" transform="translate(26.128 2.641)">
            <path id="Trazado_873972" data-name="Trazado 873972" d="M455.3,199.408a.322.322,0,0,1-.306-.222,14.384,14.384,0,0,0-8.577-8.848.322.322,0,1,1,.219-.605,15.041,15.041,0,0,1,8.969,9.253.322.322,0,0,1-.206.406A.317.317,0,0,1,455.3,199.408Z" transform="translate(-446.205 -189.713)" fill="#1a2948"/>
          </g>
        </g>
        <g id="Grupo_1099930" data-name="Grupo 1099930" transform="translate(101.742 26.427)">
          <g id="Grupo_1099924" data-name="Grupo 1099924">
            <path id="Trazado_873973" data-name="Trazado 873973" d="M345.5,150.58a2.192,2.192,0,0,1,1.578.627,14,14,0,0,0,7.347,3.634,10.737,10.737,0,0,1-2.268-2.365,2.232,2.232,0,0,1,1.039-3.361c7.076-2.725,12.015-9.059,7.916-17.395-7.618-14.408-38.183-5.74-29.656,11.6C334.16,148.445,339.77,150.649,345.5,150.58Z" transform="translate(-329.963 -124.454)" fill="#f0e1cc"/>
          </g>
          <g id="Grupo_1099925" data-name="Grupo 1099925" transform="translate(18.403 0.728)">
            <path id="Trazado_873974" data-name="Trazado 873974" d="M398.805,133.883a.321.321,0,0,1-.276-.156,13.391,13.391,0,0,0-11.1-6.369.322.322,0,0,1,0-.644h0a14.049,14.049,0,0,1,11.643,6.682.322.322,0,0,1-.276.488Z" transform="translate(-387.113 -126.714)" fill="#1a2948"/>
          </g>
          <g id="Grupo_1099926" data-name="Grupo 1099926" transform="translate(14.664 0.796)">
            <path id="Trazado_873975" data-name="Trazado 873975" d="M375.825,127.677a.322.322,0,0,1-.014-.644l2.483-.106a.33.33,0,0,1,.335.308.322.322,0,0,1-.308.336l-2.482.106Z" transform="translate(-375.503 -126.927)" fill="#1a2948"/>
          </g>
          <g id="Grupo_1099927" data-name="Grupo 1099927" transform="translate(5.156 11.438)">
            <path id="Trazado_873976" data-name="Trazado 873976" d="M348.53,159.975c-3.4,0-3.41,5.29,0,5.29S351.94,159.975,348.53,159.975Z" transform="translate(-345.975 -159.975)" fill="#7666fa"/>
          </g>
          <g id="Grupo_1099928" data-name="Grupo 1099928" transform="translate(13.761 11.438)">
            <path id="Trazado_873977" data-name="Trazado 873977" d="M375.253,159.975c-3.4,0-3.41,5.29,0,5.29S378.663,159.975,375.253,159.975Z" transform="translate(-372.698 -159.975)" fill="#7666fa"/>
          </g>
          <g id="Grupo_1099929" data-name="Grupo 1099929" transform="translate(22.366 11.438)">
            <path id="Trazado_873978" data-name="Trazado 873978" d="M401.976,159.975c-3.4,0-3.41,5.29,0,5.29S405.386,159.975,401.976,159.975Z" transform="translate(-399.421 -159.975)" fill="#7666fa"/>
          </g>
        </g>
        <g id="Grupo_1099931" data-name="Grupo 1099931" transform="translate(61.737 22.752)">
          <path id="Trazado_873979" data-name="Trazado 873979" d="M215.118,183.838a7.907,7.907,0,0,1-4.482-1.3c-2.835-1.919-4.205-6.014-3.332-9.959.84-3.8,3.366-6.979,5.473-9.326A62.378,62.378,0,0,1,228.4,150.661l.641-.363c2.564-1.444,5.216-2.938,6.41-5.5a6.736,6.736,0,0,0-.736-6.706c-.031.077-.062.153-.1.229a4.605,4.605,0,0,1-3.78,2.872,3.409,3.409,0,0,1-2.535-1,2.756,2.756,0,0,1-.867-2.091,3.25,3.25,0,0,1,2.8-2.848,5.011,5.011,0,0,1,3.841,1.237c.12.1.235.2.347.306a10.346,10.346,0,0,0,.067-3.135,21.89,21.89,0,0,0-9.991-15.641,28.78,28.78,0,0,0-18.42-4.183.322.322,0,1,1-.061-.641,29.431,29.431,0,0,1,18.832,4.284,22.539,22.539,0,0,1,10.279,16.112,10.291,10.291,0,0,1-.177,3.767,7.4,7.4,0,0,1,1.079,7.711c-1.281,2.754-4.024,4.3-6.677,5.794l-.639.361a61.738,61.738,0,0,0-15.46,12.458c-2.054,2.289-4.515,5.385-5.323,9.035-.818,3.693.442,7.512,3.064,9.286,2.877,1.947,6.754,1.269,9.319-.267,3.057-1.83,5.149-4.923,6.629-7.414a.322.322,0,1,1,.554.329c-1.519,2.556-3.671,5.734-6.852,7.638A11.053,11.053,0,0,1,215.118,183.838Zm15.688-47.986a3.237,3.237,0,0,0-.476.035,2.59,2.59,0,0,0-2.254,2.243,2.124,2.124,0,0,0,.678,1.6,2.766,2.766,0,0,0,2.046.813,4.014,4.014,0,0,0,3.227-2.489q.116-.262.207-.541a6.066,6.066,0,0,0-.567-.53A4.614,4.614,0,0,0,230.806,135.851Z" transform="translate(-205.728 -113.043)" fill="#1a2948"/>
        </g>
        <g id="Grupo_1099932" data-name="Grupo 1099932" transform="translate(10.187 73.051)">
          <path id="Trazado_873980" data-name="Trazado 873980" d="M56.734,274.252l3.429-5L60,275.311l5.715-2.033-3.7,4.807L67.83,279.8l-5.819,1.714,3.7,4.807L60,284.287l.168,6.064-3.429-5-3.428,5,.168-6.064-5.716,2.033,3.7-4.807L45.639,279.8l5.819-1.714-3.7-4.807,5.716,2.033-.168-6.064Z" transform="translate(-45.639 -269.247)" fill="#7666fa"/>
        </g>
        <g id="Grupo_1099936" data-name="Grupo 1099936" transform="translate(50.993 96.264)">
          <g id="Grupo_1099933" data-name="Grupo 1099933" transform="translate(0.218)">
            <path id="Trazado_873981" data-name="Trazado 873981" d="M173.041,342.686a1.293,1.293,0,0,1,1.318-1.351,1.258,1.258,0,0,1,.985.431,1.4,1.4,0,0,1,.328.92,1.316,1.316,0,1,1-2.631,0Z" transform="translate(-173.041 -341.335)" fill="#1a2948"/>
          </g>
          <g id="Grupo_1099934" data-name="Grupo 1099934" transform="translate(0 7.431)">
            <path id="Trazado_873982" data-name="Trazado 873982" d="M176.319,366.394a.364.364,0,0,1-.365.365h-1.248v1.248a.365.365,0,0,1-.73,0v-1.248h-1.248a.365.365,0,1,1,0-.73h1.248v-1.252a.365.365,0,0,1,.73,0v1.252h1.248A.361.361,0,0,1,176.319,366.394Z" transform="translate(-172.363 -364.412)" fill="#1a2948"/>
          </g>
          <g id="Grupo_1099935" data-name="Grupo 1099935" transform="translate(5.317 3.274)">
            <path id="Trazado_873983" data-name="Trazado 873983" d="M192.892,353.571a2.01,2.01,0,1,1-2.011-2.07,1.918,1.918,0,0,1,1.511.657A2.167,2.167,0,0,1,192.892,353.571Z" transform="translate(-188.874 -351.501)" fill="#1a2948"/>
          </g>
        </g>
        <g id="Grupo_1099937" data-name="Grupo 1099937" transform="translate(125.225 56.813)">
          <path id="Trazado_873984" data-name="Trazado 873984" d="M415.054,224.307l3.759-5.487-.184,6.649,6.267-2.23-4.057,5.271,6.381,1.88-6.381,1.88,4.057,5.271-6.267-2.23.184,6.649-3.759-5.487-3.759,5.487.184-6.649-6.267,2.23,4.057-5.271-6.38-1.88,6.38-1.88-4.057-5.271,6.267,2.23-.184-6.649Z" transform="translate(-402.888 -218.82)" fill="#71c4bb"/>
        </g>
        <g id="Grupo_1099941" data-name="Grupo 1099941" transform="translate(88.436 9.004)">
          <g id="Grupo_1099938" data-name="Grupo 1099938" transform="translate(0.218)">
            <path id="Trazado_873985" data-name="Trazado 873985" d="M289.318,71.7a1.293,1.293,0,0,1,1.318-1.351,1.258,1.258,0,0,1,.985.431,1.4,1.4,0,0,1,.328.92,1.316,1.316,0,1,1-2.631,0Z" transform="translate(-289.318 -70.349)" fill="#1a2948"/>
          </g>
          <g id="Grupo_1099939" data-name="Grupo 1099939" transform="translate(0 7.431)">
            <path id="Trazado_873986" data-name="Trazado 873986" d="M292.6,95.408a.364.364,0,0,1-.365.365h-1.248v1.248a.365.365,0,0,1-.73,0V95.773H289a.365.365,0,0,1,0-.73h1.248V93.792a.365.365,0,0,1,.73,0v1.252h1.248A.361.361,0,0,1,292.6,95.408Z" transform="translate(-288.64 -93.427)" fill="#1a2948"/>
          </g>
          <g id="Grupo_1099940" data-name="Grupo 1099940" transform="translate(5.317 3.274)">
            <path id="Trazado_873987" data-name="Trazado 873987" d="M309.169,82.585a2.01,2.01,0,1,1-2.011-2.07,1.919,1.919,0,0,1,1.511.657A2.168,2.168,0,0,1,309.169,82.585Z" transform="translate(-305.151 -80.515)" fill="#1a2948"/>
          </g>
        </g>
      </g>
    </g>
  </g>
</svg>
