<svg xmlns="http://www.w3.org/2000/svg" width="82" height="82" viewBox="0 0 82 82">
  <g id="Grupo_1100735" data-name="Grupo 1100735" transform="translate(-948.333 -441.999)">
    <circle id="Elipse_11497" data-name="Elipse 11497" cx="41" cy="41" r="41" transform="translate(948.333 441.999)" fill="#ff9b6a"/>
    <path id="comm-17_chat" d="M11.507.529A10.965,10.965,0,0,0,.554,11.506L.529,26.678a10.919,10.919,0,0,0,10.164,10.9v9.48a.789.789,0,0,0,1.347.557l9.933-9.958h14.92A10.959,10.959,0,0,0,47.846,26.679V11.507A10.939,10.939,0,0,0,36.918.529Zm0,1.577H36.918a9.328,9.328,0,0,1,9.351,9.4V26.679a9.35,9.35,0,0,1-9.376,9.4H21.647a.789.789,0,0,0-.559.232L12.27,45.151V36.869a.789.789,0,0,0-.788-.788,9.345,9.345,0,0,1-9.376-9.4l.025-15.173a9.356,9.356,0,0,1,9.376-9.4ZM16.3,16.729a2.366,2.366,0,1,0,2.366,2.366A2.378,2.378,0,0,0,16.3,16.729Zm7.886,0a2.366,2.366,0,1,0,2.366,2.366A2.378,2.378,0,0,0,24.188,16.729Zm7.887,0a2.366,2.366,0,1,0,2.366,2.366A2.378,2.378,0,0,0,32.074,16.729ZM16.3,18.306a.788.788,0,1,1-.789.788A.777.777,0,0,1,16.3,18.306Zm7.886,0a.788.788,0,1,1-.789.788A.776.776,0,0,1,24.188,18.306Zm7.887,0a.788.788,0,1,1-.789.788A.776.776,0,0,1,32.074,18.306Z" transform="translate(965.145 458.811)" fill="#2436b1" stroke="#2436b1" stroke-width="0.5"/>
  </g>
</svg>
