<svg xmlns="http://www.w3.org/2000/svg" width="80" height="80" viewBox="0 0 80 80">
  <g id="Grupo_1099950" data-name="Grupo 1099950" transform="translate(7971 11945)">
    <circle id="Elipse_11519" data-name="Elipse 11519" cx="40" cy="40" r="40" transform="translate(-7971 -11945)" fill="#fed7c3"/>
    <g id="b" transform="translate(-7956.06 -11929.995)">
      <g id="Grupo_1100738" data-name="Grupo 1100738" transform="translate(0.11)">
        <path id="Trazado_875401" data-name="Trazado 875401" d="M44.308,30.734h-.194A2.5,2.5,0,0,1,42.339,30l-5.116-5.1a1.669,1.669,0,0,0-2.849,1.179V29.9a.837.837,0,0,1-.838.833H24.343a5.847,5.847,0,0,0-5.848,5.832v5H12.663a.833.833,0,1,0,0,1.666h5.832v3.333H1.833a.833.833,0,0,0,0,1.666H18.5a5.846,5.846,0,0,0,5.848,5.832H44.309a5.847,5.847,0,0,0,5.848-5.832V36.566a5.846,5.846,0,0,0-5.848-5.832Zm4.182,17.5A4.178,4.178,0,0,1,44.308,52.4H24.344a4.179,4.179,0,0,1-4.182-4.166V36.566A4.178,4.178,0,0,1,24.344,32.4h9.193a2.505,2.505,0,0,0,2.5-2.5l0-3.82,5.116,5.1A4.15,4.15,0,0,0,44.115,32.4h.194a4.178,4.178,0,0,1,4.182,4.166V48.231Z" transform="translate(-0.258 -4.073)" fill="#ff9b6a"/>
        <path id="Trazado_875402" data-name="Trazado 875402" d="M20.948,12.442a5,5,0,1,0-7.232,0A5.84,5.84,0,0,0,9,18.164a2.5,2.5,0,0,0,2.5,2.5H23.164a2.5,2.5,0,0,0,2.5-2.5A5.84,5.84,0,0,0,20.948,12.442ZM17.332,5.666A3.333,3.333,0,1,1,14,9,3.336,3.336,0,0,1,17.332,5.666ZM23.164,19H11.5a.835.835,0,0,1-.833-.833A4.171,4.171,0,0,1,14.832,14h5A4.171,4.171,0,0,1,24,18.164.835.835,0,0,1,23.164,19Z" transform="translate(-1.593 -0.667)" fill="#ff9b6a"/>
        <path id="Trazado_875403" data-name="Trazado 875403" d="M42.948,44.442a5,5,0,1,0-7.232,0A5.84,5.84,0,0,0,31,50.164a2.5,2.5,0,0,0,2.5,2.5H45.164a2.5,2.5,0,0,0,2.5-2.5A5.84,5.84,0,0,0,42.948,44.442Zm-3.616-6.775A3.333,3.333,0,1,1,36,41,3.336,3.336,0,0,1,39.332,37.666ZM45.164,51H33.5a.835.835,0,0,1-.833-.833A4.171,4.171,0,0,1,36.832,46h5A4.171,4.171,0,0,1,46,50.164.834.834,0,0,1,45.164,51Z" transform="translate(-5.264 -6.006)" fill="#ff9b6a"/>
        <path id="Trazado_875404" data-name="Trazado 875404" d="M49.175,6.665a.833.833,0,0,0-.833-.833H31.678A5.839,5.839,0,0,0,25.846,0H5.942A5.839,5.839,0,0,0,.11,5.832V17.5a5.839,5.839,0,0,0,5.832,5.832h.194A2.518,2.518,0,0,1,7.9,24.06l5.1,5.1a1.666,1.666,0,0,0,2.844-1.178V24.162a.835.835,0,0,1,.833-.833h9.165A5.839,5.839,0,0,0,31.678,17.5v-5h5.832a.833.833,0,1,0,0-1.666H31.678V7.5H48.342a.833.833,0,0,0,.833-.833ZM30.012,17.5a4.171,4.171,0,0,1-4.166,4.166H16.682a2.5,2.5,0,0,0-2.5,2.5v3.821l-5.1-5.1a4.139,4.139,0,0,0-2.945-1.22H5.942A4.171,4.171,0,0,1,1.776,17.5V5.832A4.171,4.171,0,0,1,5.942,1.666h19.9a4.171,4.171,0,0,1,4.166,4.166Z" transform="translate(-0.11)" fill="#ff9b6a"/>
        <path id="Trazado_875405" data-name="Trazado 875405" d="M41.833,19a.833.833,0,1,0,0,1.666H52.664a.833.833,0,1,0,0-1.666Z" transform="translate(-6.932 -3.17)" fill="#ff9b6a"/>
        <path id="Trazado_875406" data-name="Trazado 875406" d="M4.833,39a.833.833,0,0,0,0,1.666H15.664a.833.833,0,0,0,0-1.666Z" transform="translate(-0.759 -6.507)" fill="#ff9b6a"/>
      </g>
    </g>
  </g>
</svg>
