<svg xmlns="http://www.w3.org/2000/svg" width="295" height="63.288" viewBox="0 0 295 63.288">
  <g id="Grupo_1101184" data-name="Grupo 1101184" transform="translate(-1125.102 -391)">
    <rect id="Rectángulo_402207" data-name="Rectángulo 402207" width="295" height="41" transform="translate(1125.102 391)" fill="#ebeaea"/>
    <g id="Grupo_1101182" data-name="Grupo 1101182" transform="translate(1149.45 397)">
      <path id="Trazado_875798" data-name="Trazado 875798" d="M56.789,17.009H54.6V14.8a1,1,0,0,0-.995-.995H50.654a1,1,0,0,0-.995.995v2.209H43.39V14.8a1,1,0,0,0-.995-.995H39.441a1,1,0,0,0-.995.995v2.209H32.177V14.8a1,1,0,0,0-.995-.995H28.227a1,1,0,0,0-.995.995v2.209H20.963V14.8a1,1,0,0,0-.995-.995H17.014a1,1,0,0,0-.995.995v2.209H9.75V14.8a1,1,0,0,0-.995-.995H5.8a1,1,0,0,0-.995.995v2.209H2.62A2.623,2.623,0,0,0,0,19.629V67.39a2.623,2.623,0,0,0,2.62,2.62H14.43a.87.87,0,1,0,0-1.74H11.353V45.981h7.87V68.269h-.732a.87.87,0,1,0,0,1.74h38.3a2.623,2.623,0,0,0,2.62-2.62V19.629a2.623,2.623,0,0,0-2.62-2.62ZM51.4,15.545h1.463v4.667H51.4Zm-11.213,0h1.463v4.667H40.186Zm-11.213,0h1.463v4.667H28.973Zm-11.213,0h1.463v4.667H17.759Zm-11.213,0H8.009v4.667H6.546Zm-3.926,3.2H4.806v2.209a1,1,0,0,0,.995.995H8.755a1,1,0,0,0,.995-.995V18.749h6.269v2.209a1,1,0,0,0,.995.995h2.954a1,1,0,0,0,.995-.995V18.749h6.269v2.209a1,1,0,0,0,.995.995h2.954a1,1,0,0,0,.995-.995V18.749h6.269v2.209a1,1,0,0,0,.995.995h2.954a1,1,0,0,0,.995-.995V18.749h6.269v2.209a1,1,0,0,0,.995.995h2.954a1,1,0,0,0,.995-.995V18.749h2.186a.88.88,0,0,1,.88.88v5.389H16.461a.87.87,0,1,0,0,1.74h2.763V34.63H16.158V30.82a1,1,0,0,0-1-1H11.353V26.759H12.4a.87.87,0,1,0,0-1.74H1.74V19.629a.88.88,0,0,1,.88-.88ZM46.593,63.462V60.4h6.269v3.065Zm6.269-4.805H43.389V55.592h9.472ZM42.645,53.852a1,1,0,0,0-1,1V59.4a1,1,0,0,0,1,1h2.207v3.809a1,1,0,0,0,1,1h2.208v3.066h-7.87V50.787h3.809a1,1,0,0,0,1-1V45.237a1,1,0,0,0-1-1H40.186V26.759h7.87V53.852ZM11.353,44.241V41.176H24.029v3.065Zm3.065-12.676V34.63H4.945V31.565ZM8.149,36.37H19.223v3.065H8.149Zm20.686-9.611V44.241H25.769V40.431a1,1,0,0,0-1-1H20.964V26.759Zm7.6,17.482a.87.87,0,1,0,0,1.74h6.821v3.065H25.769V45.981h6.6a.87.87,0,1,0,0-1.74H30.575V26.759h7.87V44.241ZM25.769,50.787h7.87v3.065h-7.87Zm8.615,4.805a1,1,0,0,0,1-1V50.787h3.066V68.269h-7.87V55.592ZM2.62,68.269a.88.88,0,0,1-.88-.88V26.759H9.613v3.065H4.2a1,1,0,0,0-1,1v4.554a1,1,0,0,0,1,1H6.408v3.809a1,1,0,0,0,1,1H9.612c0,4.751,0,7.859,0,27.094ZM20.964,45.981h3.064V54.6a1,1,0,0,0,1,1h3.81V68.269h-7.87V45.981Zm36.7,21.409a.88.88,0,0,1-.88.88H49.8V65.2h3.809a1,1,0,0,0,1-1V54.848a1,1,0,0,0-1-1H49.8V26.759h7.871Z" transform="translate(0 -13.805)" fill="#2436b1"/>
    </g>
    <g id="Grupo_1101183" data-name="Grupo 1101183" transform="translate(1335.432 396)">
      <path id="Trazado_875799" data-name="Trazado 875799" d="M121.98,88.863a2.9,2.9,0,1,0-2.318-1.159l-4.766,6.66a2.893,2.893,0,0,0-2.878.634l-3.177-1.8a2.9,2.9,0,1,0-5.671,0L99.993,95a2.9,2.9,0,1,0,.861,1.513l3.177-1.8a2.894,2.894,0,0,0,3.949,0l3.177,1.8a2.9,2.9,0,1,0,5.153-1.132l4.766-6.66A2.892,2.892,0,0,0,121.98,88.863Zm0-4.061a1.16,1.16,0,1,1-1.16,1.16A1.162,1.162,0,0,1,121.98,84.8ZM98.018,98.281a1.16,1.16,0,1,1,1.16-1.16A1.162,1.162,0,0,1,98.018,98.281Zm7.987-4.535a1.16,1.16,0,1,1,1.16-1.16A1.162,1.162,0,0,1,106.006,93.746Zm7.987,4.535a1.16,1.16,0,1,1,1.16-1.16A1.162,1.162,0,0,1,113.993,98.281Z" transform="translate(-84.081 -74.184)" fill="#2436b1"/>
      <path id="Trazado_875800" data-name="Trazado 875800" d="M48.594,79.2H2.462a.722.722,0,0,1-.721-.721v-35.9a.722.722,0,0,1,.721-.721h4.1a.87.87,0,1,0,0-1.74h-4.1A2.464,2.464,0,0,0,0,42.578v35.9a2.464,2.464,0,0,0,2.462,2.462h6v1.915a1.981,1.981,0,0,0,1.979,1.979h8.711l-4.1,8.006a.87.87,0,1,0,1.549.793l4.507-8.8h9.622l4.507,8.8a.87.87,0,1,0,1.549-.793l-4.1-8.006H41.4a1.981,1.981,0,0,0,1.979-1.979V80.942h5.22a.87.87,0,1,0,0-1.74Zm-6.96,3.656a.238.238,0,0,1-.238.238H10.441a.238.238,0,0,1-.238-.238V80.942H41.634Z" transform="translate(0 -36.222)" fill="#2436b1"/>
      <path id="Trazado_875801" data-name="Trazado 875801" d="M79.941,12.192h39.329a.722.722,0,0,1,.721.721v8.274a.87.87,0,0,0,1.74,0V12.913a2.464,2.464,0,0,0-2.462-2.462H100.644V8.741a2.186,2.186,0,0,0-2.183-2.183H93.168a2.186,2.186,0,0,0-2.183,2.183v1.711H79.941a.87.87,0,0,0,0,1.74ZM92.725,8.741a.443.443,0,0,1,.443-.443h5.293a.443.443,0,0,1,.443.443v1.711H92.725V8.741Z" transform="translate(-69.896 -6.558)" fill="#2436b1"/>
      <path id="Trazado_875802" data-name="Trazado 875802" d="M98.272,267.576a.87.87,0,0,0-.87.87v7.69a.87.87,0,0,0,.87.87H101.8a.87.87,0,0,0,.87-.87v-7.69a.87.87,0,0,0-.87-.87Zm2.66,7.69h-1.79v-5.949h1.79Z" transform="translate(-86.1 -237.289)" fill="#2436b1"/>
      <path id="Trazado_875803" data-name="Trazado 875803" d="M167.107,229.248a.87.87,0,0,0-.87.87v12.137a.87.87,0,0,0,.87.87h3.531a.87.87,0,0,0,.87-.87V230.118a.87.87,0,0,0-.87-.87Zm2.66,12.137h-1.79v-10.4h1.79Z" transform="translate(-146.948 -203.409)" fill="#2436b1"/>
      <path id="Trazado_875804" data-name="Trazado 875804" d="M235.943,267.576a.87.87,0,0,0-.87.87v7.69a.87.87,0,0,0,.87.87h3.531a.87.87,0,0,0,.87-.87v-7.69a.87.87,0,0,0-.87-.87Zm2.66,7.69h-1.79v-5.949h1.79Z" transform="translate(-207.797 -237.289)" fill="#2436b1"/>
      <path id="Trazado_875805" data-name="Trazado 875805" d="M304.779,311.832a.87.87,0,0,0-.87.87v2.555a.87.87,0,0,0,.87.87h3.531a.87.87,0,1,0,0-1.74h-2.66V312.7A.87.87,0,0,0,304.779,311.832Z" transform="translate(-268.646 -276.41)" fill="#2436b1"/>
      <path id="Trazado_875806" data-name="Trazado 875806" d="M320.206,172.269l-4.993-8.647a11.38,11.38,0,1,0-11.253,3.211,11.436,11.436,0,0,0,2.962.392,11.233,11.233,0,0,0,2.562-.3l4.992,8.648a3.308,3.308,0,1,0,5.73-3.308Zm-15.795-7.117a9.634,9.634,0,1,1,7.31-.962A9.571,9.571,0,0,1,304.412,165.152Zm13.714,10.129a1.569,1.569,0,0,1-2.142-.573l-4.8-8.32a11.424,11.424,0,0,0,2.714-1.568l4.8,8.32a1.566,1.566,0,0,1-.573,2.141Z" transform="translate(-261.241 -128.471)" fill="#2436b1"/>
      <path id="Trazado_875807" data-name="Trazado 875807" d="M338.457,181.959a8.236,8.236,0,0,0-.412-5.966.87.87,0,1,0-1.574.742,6.518,6.518,0,1,1-1.965-2.428.87.87,0,1,0,1.05-1.388,8.264,8.264,0,1,0,2.9,9.04Z" transform="translate(-284.903 -152.133)" fill="#2436b1"/>
    </g>
    <path id="Trazado_875808" data-name="Trazado 875808" d="M30.914,42.532c0,2.61,3.351,4.653,7.63,4.653s7.63-2.043,7.63-4.653c0-1.637-1.295-3.081-3.493-3.927V32.349a3.87,3.87,0,0,0,3.038-3.786V25.381a7.07,7.07,0,0,0-4.662-6.639,4.734,4.734,0,1,0-5.029,0,7.071,7.071,0,0,0-4.662,6.639v3.182A3.871,3.871,0,0,0,34.4,32.349v6.256C32.21,39.451,30.914,40.895,30.914,42.532Zm13.868,0c0,1.767-2.857,3.261-6.238,3.261s-6.238-1.493-6.238-3.261c0-.91.784-1.792,2.1-2.413V41.35a2.415,2.415,0,0,0,4.138,1.694,2.415,2.415,0,0,0,4.138-1.694V40.118c1.316.622,2.1,1.5,2.1,2.413Zm-6.238-31.14A3.341,3.341,0,1,1,35.2,14.734a3.346,3.346,0,0,1,3.342-3.342Zm-5.783,17.17V25.381a5.674,5.674,0,0,1,5.667-5.667h.232a5.674,5.674,0,0,1,5.667,5.667v3.182a2.481,2.481,0,0,1-1.645,2.34V24.011a.7.7,0,0,0-1.392,0V41.35a1.025,1.025,0,0,1-2.049,0V30.492a.7.7,0,0,0-1.392,0V41.35a1.025,1.025,0,0,1-2.049,0V24.011a.7.7,0,0,0-1.392,0V30.9a2.481,2.481,0,0,1-1.645-2.34ZM21.768,58.508V52.252a3.87,3.87,0,0,0,3.038-3.786V45.284a7.07,7.07,0,0,0-4.662-6.639,4.734,4.734,0,1,0-5.029,0,7.071,7.071,0,0,0-4.662,6.639v3.182a3.87,3.87,0,0,0,3.038,3.786v6.256c-2.2.846-3.49,2.289-3.49,3.927,0,2.61,3.351,4.653,7.63,4.653s7.63-2.043,7.63-4.653C25.259,60.8,23.965,59.354,21.768,58.508ZM17.63,31.3a3.342,3.342,0,1,1-3.342,3.342A3.346,3.346,0,0,1,17.63,31.3Zm-5.783,17.17V45.284a5.674,5.674,0,0,1,5.667-5.667h.232a5.674,5.674,0,0,1,5.667,5.667v3.182a2.481,2.481,0,0,1-1.645,2.34V43.914a.7.7,0,0,0-1.392,0V61.253a1.025,1.025,0,0,1-2.049,0V50.4a.7.7,0,1,0-1.392,0V61.253a1.025,1.025,0,0,1-2.049,0V43.914a.7.7,0,0,0-1.392,0v6.892a2.481,2.481,0,0,1-1.645-2.34ZM17.63,65.7c-3.381,0-6.238-1.493-6.238-3.261,0-.91.784-1.792,2.1-2.413v1.231a2.415,2.415,0,0,0,4.138,1.694,2.415,2.415,0,0,0,4.138-1.694V60.021c1.316.622,2.1,1.5,2.1,2.413,0,1.767-2.857,3.261-6.238,3.261ZM63.6,58.508V52.252a3.87,3.87,0,0,0,3.038-3.786V45.284a7.07,7.07,0,0,0-4.662-6.639,4.734,4.734,0,1,0-5.029,0,7.071,7.071,0,0,0-4.662,6.639v3.182a3.87,3.87,0,0,0,3.038,3.786v6.256c-2.2.846-3.493,2.29-3.493,3.927,0,2.61,3.351,4.653,7.63,4.653s7.633-2.043,7.633-4.653c0-1.637-1.295-3.081-3.493-3.927ZM59.458,31.3a3.342,3.342,0,1,1-3.342,3.342A3.346,3.346,0,0,1,59.458,31.3Zm-5.783,17.17V45.284a5.674,5.674,0,0,1,5.667-5.667h.232a5.674,5.674,0,0,1,5.667,5.667v3.182a2.481,2.481,0,0,1-1.645,2.34V43.914a.7.7,0,0,0-1.392,0V61.253a1.025,1.025,0,0,1-2.049,0V50.4a.7.7,0,1,0-1.392,0V61.253a1.025,1.025,0,0,1-2.049,0V43.914a.7.7,0,0,0-1.392,0v6.892a2.483,2.483,0,0,1-1.645-2.34ZM59.458,65.7c-3.381,0-6.238-1.493-6.238-3.261,0-.91.784-1.792,2.1-2.413v1.231a2.415,2.415,0,0,0,4.138,1.694A2.415,2.415,0,0,0,63.6,61.253V60.021c1.316.622,2.1,1.5,2.1,2.413,0,1.767-2.857,3.261-6.238,3.261ZM24.476,13.4H12.752A2.756,2.756,0,0,0,10,16.156v5.418A2.756,2.756,0,0,0,12.367,24.3V25.84a1.457,1.457,0,0,0,.776,1.3,1.459,1.459,0,0,0,1.513-.064l4.2-2.75h5.626a2.755,2.755,0,0,0,2.752-2.752V16.156A2.76,2.76,0,0,0,24.476,13.4Zm1.36,8.171a1.362,1.362,0,0,1-1.36,1.36H18.642a.7.7,0,0,0-.382.114L13.892,25.91a.073.073,0,0,1-.088,0,.071.071,0,0,1-.045-.075v-2.21a.7.7,0,0,0-.7-.7h-.31a1.362,1.362,0,0,1-1.36-1.36V16.156a1.362,1.362,0,0,1,1.36-1.36H24.476a1.362,1.362,0,0,1,1.36,1.36ZM15.416,18.33a.65.65,0,1,1-.461-.191A.649.649,0,0,1,15.416,18.33Zm3.659,0a.65.65,0,1,1-.461-.191A.649.649,0,0,1,19.075,18.33Zm3.66,0a.65.65,0,1,1-.461-.191A.649.649,0,0,1,22.735,18.33Zm41.6-4.928H52.612a2.755,2.755,0,0,0-2.752,2.752v5.418a2.755,2.755,0,0,0,2.752,2.752h5.626l4.2,2.75a1.464,1.464,0,0,0,.808.245,1.48,1.48,0,0,0,.7-.181,1.458,1.458,0,0,0,.775-1.3V24.3a2.757,2.757,0,0,0,2.367-2.726V16.156A2.756,2.756,0,0,0,64.336,13.4Zm1.36,8.171a1.362,1.362,0,0,1-1.36,1.36h-.31a.7.7,0,0,0-.7.7v2.21a.071.071,0,0,1-.045.075.073.073,0,0,1-.088,0l-4.37-2.864a.7.7,0,0,0-.382-.114H52.611a1.362,1.362,0,0,1-1.36-1.36V16.156a1.362,1.362,0,0,1,1.36-1.36H64.335a1.362,1.362,0,0,1,1.36,1.36v5.418Zm-3.1-3.243a.65.65,0,1,1-.461-.191A.649.649,0,0,1,62.594,18.33Zm-3.66,0a.65.65,0,1,1-.461-.191A.649.649,0,0,1,58.934,18.33Zm-3.659,0a.65.65,0,1,1-.461-.191A.649.649,0,0,1,55.276,18.33ZM44.406,48.515H32.682a2.755,2.755,0,0,0-2.752,2.752v5.418a2.755,2.755,0,0,0,2.752,2.752h5.626l4.2,2.75a1.465,1.465,0,0,0,.809.245,1.48,1.48,0,0,0,.7-.181,1.456,1.456,0,0,0,.775-1.3V59.409a2.757,2.757,0,0,0,2.367-2.726V51.266A2.757,2.757,0,0,0,44.406,48.515Zm1.36,8.17a1.362,1.362,0,0,1-1.36,1.36H44.1a.7.7,0,0,0-.7.7v2.21a.086.086,0,0,1-.132.072L38.9,58.159a.7.7,0,0,0-.382-.114H32.682a1.362,1.362,0,0,1-1.36-1.36V51.268a1.362,1.362,0,0,1,1.36-1.36H44.406a1.362,1.362,0,0,1,1.36,1.36Zm-3.1-3.243a.65.65,0,1,1-.461-.191A.649.649,0,0,1,42.664,53.441Zm-3.66,0a.65.65,0,1,1-.461-.191A.649.649,0,0,1,39,53.441Zm-3.659,0a.65.65,0,1,1-.461-.191A.649.649,0,0,1,35.346,53.441Z" transform="translate(1233.602 387)" fill="#2436b1" stroke="#2436b1" stroke-width="0.4" fill-rule="evenodd"/>
  </g>
</svg>
