<svg xmlns="http://www.w3.org/2000/svg" width="80" height="80" viewBox="0 0 80 80">
  <g id="Grupo_1099950" data-name="Grupo 1099950" transform="translate(7971 11945)">
    <circle id="Elipse_11519" data-name="Elipse 11519" cx="40" cy="40" r="40" transform="translate(-7971 -11945)" fill="#fed7c3"/>
    <g id="Grupo_1099946" data-name="Grupo 1099946" transform="translate(-7958 -11939.167)">
      <path id="Trazado_873988" data-name="Trazado 873988" d="M2.833,39.822a3.412,3.412,0,0,0,6.614-1.17v-1.9a3.91,3.91,0,0,1-1.842-.3,6.349,6.349,0,0,1-.158.628,4.082,4.082,0,0,1-1.3,2.033,3.784,3.784,0,0,1-2.672.774,5.817,5.817,0,0,1-.645-.067Zm20.1-5.083H29.76V32.594H24.507a1.577,1.577,0,0,0-1.569,1.569ZM29.76,36.29H22.938v2.361a3.411,3.411,0,0,0,6.822,0V36.29Zm21.266,5.18a3.7,3.7,0,0,1,1.085.874,3.635,3.635,0,0,1,.868,2.358v5.233a.776.776,0,0,1-1.552,0V44.7a2.1,2.1,0,0,0-.5-1.358,2.131,2.131,0,0,0-1.074-.68,4.938,4.938,0,0,1-5.908-.062,1.482,1.482,0,0,0-.458.129,1.42,1.42,0,0,0-.528.431l-4.168,5.52a.779.779,0,0,1-.619.311H32.834a1.43,1.43,0,1,0,0,2.86h6.38a1.394,1.394,0,0,0,.7-.15,4.6,4.6,0,0,0,1.182-1.323l2.76-3.652a.774.774,0,1,1,1.235.933l-2.625,3.479V57.9h8.967V53.449a.776.776,0,0,1,1.552,0v5.233a.774.774,0,0,1-.774.774H.777A.776.776,0,0,1,0,58.682V53.449a.776.776,0,0,1,1.552,0V57.9h8.97V51.141L7.893,47.662a.775.775,0,0,1,1.238-.933l2.7,3.573q.37.488.739.983a1.428,1.428,0,0,0,.5.419,1.357,1.357,0,0,0,.648.15h6.427a1.43,1.43,0,1,0,0-2.86H14.8a.775.775,0,0,1-.619-.311l-4.168-5.52a1.435,1.435,0,0,0-.986-.56,4.944,4.944,0,0,1-5.907.065,2.127,2.127,0,0,0-1.062.663,2.1,2.1,0,0,0-.51,1.373v5.233a.776.776,0,0,1-1.552,0V44.7a3.646,3.646,0,0,1,.892-2.385,3.735,3.735,0,0,1,1.065-.848,4.922,4.922,0,0,1-.883-2.819V34.164a3.124,3.124,0,0,1,3.118-3.121H7.879A3.125,3.125,0,0,1,11,34.164v4.488a4.93,4.93,0,0,1-.8,2.7,3,3,0,0,1,1.059.877l3.934,5.209h3.106V44.292a3.237,3.237,0,0,1,1.238-2.382,8.156,8.156,0,0,1,2.235-1.352,4.927,4.927,0,0,1-.381-1.907V34.164a3.125,3.125,0,0,1,3.121-3.121h6.031a.779.779,0,0,1,.777.777v6.831a4.964,4.964,0,0,1-.343,1.81,8.446,8.446,0,0,1,2.4,1.379,3.288,3.288,0,0,1,1.314,2.452v3.147h3.106l3.934-5.209a2.971,2.971,0,0,1,1.062-.874,4.926,4.926,0,0,1-.807-2.7V34.164A3.125,3.125,0,0,1,45.1,31.043h3.687a3.124,3.124,0,0,1,3.121,3.121v4.488A4.945,4.945,0,0,1,51.026,41.47Zm-.88-1.648a5.748,5.748,0,0,1-.645.067,3.782,3.782,0,0,1-2.669-.774,4.067,4.067,0,0,1-1.3-2.033,6.338,6.338,0,0,1-.156-.628,3.924,3.924,0,0,1-1.845.3v1.9a3.412,3.412,0,0,0,6.614,1.17ZM43.532,35.2a2.529,2.529,0,0,0,1.927-.572.785.785,0,0,1,.5-.217.772.772,0,0,1,.809.736,6.182,6.182,0,0,0,.24,1.481,2.57,2.57,0,0,0,.786,1.282,2.327,2.327,0,0,0,1.628.434,5.587,5.587,0,0,0,.93-.135V34.163a1.583,1.583,0,0,0-1.569-1.569H45.1a1.582,1.582,0,0,0-1.569,1.569Zm-34.084,0V34.164a1.577,1.577,0,0,0-1.569-1.569H4.191a1.577,1.577,0,0,0-1.566,1.569v4.045a5.524,5.524,0,0,0,.927.135,2.327,2.327,0,0,0,1.628-.434,2.6,2.6,0,0,0,.789-1.282,6.035,6.035,0,0,0,.238-1.481.776.776,0,0,1,1.308-.525,2.531,2.531,0,0,0,1.933.578ZM22.6,41.893a6.74,6.74,0,0,0-2.036,1.17,1.771,1.771,0,0,0-.716,1.229v3.147h.3a2.982,2.982,0,0,1,2.616,4.414h7.45a2.985,2.985,0,0,1,2.619-4.414h.3V44.292a1.828,1.828,0,0,0-.769-1.276,7.216,7.216,0,0,0-2.194-1.205c-.1.12-.205.238-.314.346a4.946,4.946,0,0,1-7.013,0q-.128-.128-.246-.264ZM6.468,13.913a.776.776,0,0,1,0-1.552H20.834a.776.776,0,0,1,0,1.552Zm0,8.166a.777.777,0,0,1,0-1.555h7.183a.777.777,0,1,1,0,1.555Zm0-4.083a.776.776,0,0,1,0-1.552H20.834a.776.776,0,0,1,0,1.552ZM21.629,26.27a2.145,2.145,0,0,0,.5.792,2.169,2.169,0,0,0,1.546.642h4.561a.776.776,0,0,1,0,1.552H23.677a3.707,3.707,0,0,1-2.643-1.1,3.772,3.772,0,0,1-1.015-1.883H9.2L5.685,29.784a.778.778,0,0,1-1.329-.546V26.206a4.722,4.722,0,0,1-3.928-4.64V12.872a4.717,4.717,0,0,1,4.7-4.7H22.169a4.717,4.717,0,0,1,4.7,4.7v1.437H40.056a3.746,3.746,0,0,1,3.737,3.737V25.52a3.747,3.747,0,0,1-2.963,3.655v3.05a.774.774,0,0,1-1.323.549l-3.517-3.517H31.752a.776.776,0,1,1,0-1.552h4.561a.766.766,0,0,1,.551.232l2.414,2.414V28.482a.777.777,0,0,1,.777-.777,2.193,2.193,0,0,0,2.185-2.185V18.046a2.193,2.193,0,0,0-2.185-2.185H26.874v5.705a4.717,4.717,0,0,1-4.7,4.7h-.54ZM8.876,24.719H22.169a3.164,3.164,0,0,0,3.153-3.153V12.872a3.165,3.165,0,0,0-3.153-3.153H5.133A3.165,3.165,0,0,0,1.98,12.872v8.694a3.165,3.165,0,0,0,3.153,3.153.776.776,0,0,1,.774.777v1.868l2.42-2.417a.77.77,0,0,1,.549-.229ZM40.909,53.405H12.073v4.5H40.909v-4.5Z" transform="translate(0)" fill="#ff9b6a"/>
    </g>
  </g>
</svg>
