<svg xmlns="http://www.w3.org/2000/svg" xmlns:xlink="http://www.w3.org/1999/xlink" width="402" height="404" viewBox="0 0 402 404">
  <defs>
    <clipPath id="clip-path">
      <rect id="Rectángulo_401258" data-name="Rectángulo 401258" width="158.226" height="140.275" fill="#405f5a"/>
    </clipPath>
    <clipPath id="clip-path-2">
      <rect id="Rectángulo_402348" data-name="Rectángulo 402348" width="377.878" height="346.071" fill="none"/>
    </clipPath>
    <clipPath id="clip-path-3">
      <path id="Trazado_873467" data-name="Trazado 873467" d="M140.067,72.316A61.377,61.377,0,1,1,78.689,10.939a61.378,61.378,0,0,1,61.378,61.377" transform="translate(-17.313 -10.939)" fill="#2436b1"/>
    </clipPath>
  </defs>
  <g id="Grupo_1101455" data-name="Grupo 1101455" transform="translate(-283.333 -569)">
    <rect id="Rectángulo_401253" data-name="Rectángulo 401253" width="402" height="404" rx="10" transform="translate(283.333 569)" fill="#d2d6ef"/>
    <g id="Grupo_1099438" data-name="Grupo 1099438" transform="translate(505.057 585.934)">
      <g id="Grupo_1099431" data-name="Grupo 1099431" clip-path="url(#clip-path)">
        <path id="Trazado_873431" data-name="Trazado 873431" d="M0,3.158A3.158,3.158,0,1,0,3.158,0,3.158,3.158,0,0,0,0,3.158" transform="translate(151.909)" fill="#405f5a"/>
        <path id="Trazado_873432" data-name="Trazado 873432" d="M28.954,3.158A3.158,3.158,0,1,0,32.112,0a3.158,3.158,0,0,0-3.158,3.158" transform="translate(92.572)" fill="#405f5a"/>
        <path id="Trazado_873433" data-name="Trazado 873433" d="M57.907,3.158A3.158,3.158,0,1,0,61.065,0a3.158,3.158,0,0,0-3.158,3.158" transform="translate(33.238)" fill="#405f5a"/>
        <path id="Trazado_873434" data-name="Trazado 873434" d="M86.86,3.158A3.158,3.158,0,1,0,90.018,0,3.158,3.158,0,0,0,86.86,3.158" transform="translate(-26.096)" fill="#405f5a"/>
        <path id="Trazado_873435" data-name="Trazado 873435" d="M115.813,3.158A3.159,3.159,0,1,0,118.971,0a3.159,3.159,0,0,0-3.158,3.158" transform="translate(-85.432)" fill="#405f5a"/>
        <path id="Trazado_873436" data-name="Trazado 873436" d="M144.767,3.158A3.158,3.158,0,1,0,147.925,0a3.158,3.158,0,0,0-3.158,3.158" transform="translate(-144.767)" fill="#405f5a"/>
        <path id="Trazado_873437" data-name="Trazado 873437" d="M0,35.073a3.158,3.158,0,1,0,3.158-3.158A3.159,3.159,0,0,0,0,35.073" transform="translate(151.909 1.574)" fill="#405f5a"/>
        <path id="Trazado_873438" data-name="Trazado 873438" d="M28.954,35.073a3.158,3.158,0,1,0,3.158-3.158,3.159,3.159,0,0,0-3.158,3.158" transform="translate(92.572 1.574)" fill="#405f5a"/>
        <path id="Trazado_873439" data-name="Trazado 873439" d="M57.907,35.073a3.158,3.158,0,1,0,3.158-3.158,3.159,3.159,0,0,0-3.158,3.158" transform="translate(33.238 1.574)" fill="#405f5a"/>
        <path id="Trazado_873440" data-name="Trazado 873440" d="M86.86,35.073a3.158,3.158,0,1,0,3.158-3.158,3.159,3.159,0,0,0-3.158,3.158" transform="translate(-26.096 1.574)" fill="#405f5a"/>
        <path id="Trazado_873441" data-name="Trazado 873441" d="M115.813,35.073a3.159,3.159,0,1,0,3.158-3.158,3.16,3.16,0,0,0-3.158,3.158" transform="translate(-85.432 1.574)" fill="#405f5a"/>
        <path id="Trazado_873442" data-name="Trazado 873442" d="M144.767,35.073a3.158,3.158,0,1,0,3.158-3.158,3.159,3.159,0,0,0-3.158,3.158" transform="translate(-144.767 1.574)" fill="#405f5a"/>
        <path id="Trazado_873443" data-name="Trazado 873443" d="M0,66.988A3.158,3.158,0,1,0,3.158,63.83,3.159,3.159,0,0,0,0,66.988" transform="translate(151.909 3.149)" fill="#405f5a"/>
        <path id="Trazado_873444" data-name="Trazado 873444" d="M28.954,66.988a3.158,3.158,0,1,0,3.158-3.158,3.159,3.159,0,0,0-3.158,3.158" transform="translate(92.572 3.149)" fill="#405f5a"/>
        <path id="Trazado_873445" data-name="Trazado 873445" d="M57.907,66.988a3.158,3.158,0,1,0,3.158-3.158,3.159,3.159,0,0,0-3.158,3.158" transform="translate(33.238 3.149)" fill="#405f5a"/>
        <path id="Trazado_873446" data-name="Trazado 873446" d="M86.86,66.988a3.158,3.158,0,1,0,3.158-3.158,3.159,3.159,0,0,0-3.158,3.158" transform="translate(-26.096 3.149)" fill="#405f5a"/>
        <path id="Trazado_873447" data-name="Trazado 873447" d="M115.813,66.988a3.159,3.159,0,1,0,3.158-3.158,3.16,3.16,0,0,0-3.158,3.158" transform="translate(-85.432 3.149)" fill="#405f5a"/>
        <path id="Trazado_873448" data-name="Trazado 873448" d="M144.767,66.988a3.158,3.158,0,1,0,3.158-3.158,3.159,3.159,0,0,0-3.158,3.158" transform="translate(-144.767 3.149)" fill="#405f5a"/>
        <path id="Trazado_873449" data-name="Trazado 873449" d="M0,98.9a3.158,3.158,0,1,0,3.158-3.158A3.159,3.159,0,0,0,0,98.9" transform="translate(151.909 4.723)" fill="#405f5a"/>
        <path id="Trazado_873450" data-name="Trazado 873450" d="M28.954,98.9a3.158,3.158,0,1,0,3.158-3.158A3.159,3.159,0,0,0,28.954,98.9" transform="translate(92.572 4.723)" fill="#405f5a"/>
        <path id="Trazado_873451" data-name="Trazado 873451" d="M57.907,98.9a3.158,3.158,0,1,0,3.158-3.158A3.159,3.159,0,0,0,57.907,98.9" transform="translate(33.238 4.723)" fill="#405f5a"/>
        <path id="Trazado_873452" data-name="Trazado 873452" d="M86.86,98.9a3.158,3.158,0,1,0,3.158-3.158A3.159,3.159,0,0,0,86.86,98.9" transform="translate(-26.096 4.723)" fill="#405f5a"/>
        <path id="Trazado_873453" data-name="Trazado 873453" d="M115.813,98.9a3.159,3.159,0,1,0,3.158-3.158,3.16,3.16,0,0,0-3.158,3.158" transform="translate(-85.432 4.723)" fill="#405f5a"/>
        <path id="Trazado_873454" data-name="Trazado 873454" d="M144.767,98.9a3.158,3.158,0,1,0,3.158-3.158,3.159,3.159,0,0,0-3.158,3.158" transform="translate(-144.767 4.723)" fill="#405f5a"/>
        <path id="Trazado_873455" data-name="Trazado 873455" d="M0,130.818a3.158,3.158,0,1,0,3.158-3.159A3.159,3.159,0,0,0,0,130.818" transform="translate(151.909 6.298)" fill="#405f5a"/>
        <path id="Trazado_873456" data-name="Trazado 873456" d="M28.954,130.818a3.158,3.158,0,1,0,3.158-3.159,3.159,3.159,0,0,0-3.158,3.159" transform="translate(92.572 6.298)" fill="#405f5a"/>
        <path id="Trazado_873457" data-name="Trazado 873457" d="M57.907,130.818a3.158,3.158,0,1,0,3.158-3.159,3.159,3.159,0,0,0-3.158,3.159" transform="translate(33.238 6.298)" fill="#405f5a"/>
        <path id="Trazado_873458" data-name="Trazado 873458" d="M86.86,130.818a3.158,3.158,0,1,0,3.158-3.159,3.159,3.159,0,0,0-3.158,3.159" transform="translate(-26.096 6.298)" fill="#405f5a"/>
        <path id="Trazado_873459" data-name="Trazado 873459" d="M115.813,130.818a3.159,3.159,0,1,0,3.158-3.159,3.16,3.16,0,0,0-3.158,3.159" transform="translate(-85.432 6.298)" fill="#405f5a"/>
        <path id="Trazado_873460" data-name="Trazado 873460" d="M144.767,130.818a3.158,3.158,0,1,0,3.158-3.159,3.159,3.159,0,0,0-3.158,3.159" transform="translate(-144.767 6.298)" fill="#405f5a"/>
      </g>
    </g>
    <g id="Grupo_1101454" data-name="Grupo 1101454" transform="translate(295.333 598)">
      <g id="Grupo_1101441" data-name="Grupo 1101441" clip-path="url(#clip-path-2)">
        <path id="Trazado_876476" data-name="Trazado 876476" d="M237.208,116.85H55.757a5.793,5.793,0,0,1-5.793-5.793V9.18a5.793,5.793,0,0,1,5.793-5.793H237.208A5.793,5.793,0,0,1,243,9.18V111.058a5.793,5.793,0,0,1-5.793,5.793" transform="translate(44.279 3.002)" fill="#dcd7e0"/>
        <path id="Trazado_876477" data-name="Trazado 876477" d="M233.378,116.85H51.927a5.793,5.793,0,0,1-5.793-5.793V9.18a5.793,5.793,0,0,1,5.793-5.793H233.378a5.793,5.793,0,0,1,5.793,5.793V111.058a5.793,5.793,0,0,1-5.793,5.793" transform="translate(40.884 3.002)" fill="#eae6ef"/>
        <path id="Trazado_876478" data-name="Trazado 876478" d="M248.158,67.354H47.523a3.507,3.507,0,0,1,0-7.015H248.158a3.507,3.507,0,0,1,0,7.015" transform="translate(39.008 53.473)" fill="#bcb5c6"/>
        <path id="Trazado_876479" data-name="Trazado 876479" d="M88.037,66.38H54.864A12.858,12.858,0,0,1,67.722,53.522h7.456A12.858,12.858,0,0,1,88.037,66.38" transform="translate(48.621 47.432)" fill="#ffaf45"/>
        <path id="Trazado_876480" data-name="Trazado 876480" d="M146.217,62.05H112.565a1.752,1.752,0,1,1,0-3.5h33.652a1.752,1.752,0,1,1,0,3.5" transform="translate(98.202 51.883)" fill="#50447e"/>
        <rect id="Rectángulo_402343" data-name="Rectángulo 402343" width="9.859" height="27.06" transform="translate(133.519 63.782)" fill="#ada4f7"/>
        <rect id="Rectángulo_402344" data-name="Rectángulo 402344" width="9.859" height="27.06" transform="translate(223.697 63.782)" fill="#ada4f7"/>
        <rect id="Rectángulo_402345" data-name="Rectángulo 402345" width="9.859" height="40.891" transform="translate(156.063 49.853)" fill="#ada4f7"/>
        <rect id="Rectángulo_402346" data-name="Rectángulo 402346" width="9.859" height="52.661" transform="translate(178.607 38.083)" fill="#ada4f7"/>
        <rect id="Rectángulo_402347" data-name="Rectángulo 402347" width="9.859" height="64.288" transform="translate(201.153 26.675)" fill="#ada4f7"/>
        <path id="Trazado_876481" data-name="Trazado 876481" d="M142.683,53.248S139.906,40.85,136.5,40.6s-.736,9.976-.736,9.976l-9.231-3.529s-10.5-2.929-12.592-2.014,1.351,4.319,1.351,4.319-7.481-2.245-6.432,1.4,6.168,5.744,6.168,5.744-7.311-2.592-5.661,1.682c.892,2.311,16.97,12.045,27.8,11.7s6.511-8.7,6.511-8.7Z" transform="translate(96.381 35.975)" fill="#fc8165"/>
        <path id="Trazado_876482" data-name="Trazado 876482" d="M114.438,54.466a.472.472,0,0,1-.307-.83l9.3-7.947a.472.472,0,0,1,.613.717l-9.3,7.947a.477.477,0,0,1-.307.113" transform="translate(100.998 40.39)"/>
        <path id="Trazado_876483" data-name="Trazado 876483" d="M127.175,58.4a6.406,6.406,0,0,1-4.8-2.884c-1.218-2.15-.879-5.178,1.013-9a.472.472,0,0,1,.845.419c-1.741,3.52-2.092,6.249-1.041,8.109a5.55,5.55,0,0,0,4.023,2.416.471.471,0,0,1-.038.941" transform="translate(107.815 40.988)"/>
        <path id="Trazado_876484" data-name="Trazado 876484" d="M164.491,22.725s12.394-9.608,22.972-3.065,6.5,20.241,6.5,20.241S207.1,43.492,208.994,60.18s-13.973,19.849-13.973,19.849l-22.8-13.509Z" transform="translate(145.774 15.401)"/>
        <path id="Trazado_876485" data-name="Trazado 876485" d="M211.631,214.744s-50.905-11.942-56.837-50.42c-7.3-47.335,5.634-70.527,5.634-70.527l33.256,39.69,9.982,47.965,13.151,9.514,7.318,15.508Z" transform="translate(135.201 83.123)" fill="#fc7059"/>
        <path id="Trazado_876486" data-name="Trazado 876486" d="M214.037,144.765a3.65,3.65,0,0,0-3.789-3.3c-7.93.1-25.72-.662-25.7.785.023,1.847,5.308,20.315,5.308,20.315s-10.983.664-8.916,8.286c1.586,5.849,8.66,12.562,11.864,15.369a6.632,6.632,0,0,1,2.065,3.3c1.434,5.449,6.1,20.43,14.173,20.547,9.865.141,8.69-3.8,8.667-5.645-.021-1.584-2.863-46.857-3.669-59.648" transform="translate(160.118 125.263)" fill="#ada4f7"/>
        <path id="Trazado_876487" data-name="Trazado 876487" d="M163.507,114.74s6.3,92.392,10.2,102.146,25.273,0,25.273,0l5.048-99.913Z" transform="translate(144.902 101.684)" fill="#fc8165"/>
        <path id="Trazado_876488" data-name="Trazado 876488" d="M220.581,161.166c.357,2.075-6.074,7.9-27.484,9.186a105.757,105.757,0,0,1-18.03-.472c-12.6-1.358-21.618-4.565-22.861-5.772-1.794-1.716,0-21.182,0-38.931,0-13.241,2-29.859,3.016-37.422.358-2.565.585-4.093.585-4.093l1.415-8.016h26.164s24.349,3,30.045,16.731c5.715,13.713,4.284,65,4.284,65s2.509,1.735,2.867,3.791" transform="translate(134.18 67.038)" fill="#80baff"/>
        <path id="Trazado_876489" data-name="Trazado 876489" d="M175.067,164.191c-12.6-1.358-21.618-4.565-22.863-5.772-1.792-1.716,0-21.182,0-38.931,0-13.241,2-29.859,3.018-37.422l8.96,4.3Z" transform="translate(134.179 72.727)" fill="#6daff7"/>
        <path id="Trazado_876490" data-name="Trazado 876490" d="M173.695,161.355a.47.47,0,0,1-.466-.415l-8.984-74.077a.471.471,0,0,1,.936-.113l8.984,74.077a.472.472,0,0,1-.411.524l-.058,0" transform="translate(145.552 76.51)" fill="#8758e7"/>
        <path id="Trazado_876491" data-name="Trazado 876491" d="M178.384,163.795a.472.472,0,0,1-.468-.423l-8.331-79.809a.472.472,0,0,1,.939-.1l8.33,79.808a.472.472,0,0,1-.421.519l-.049,0" transform="translate(150.286 73.594)" fill="#8758e7"/>
        <path id="Trazado_876492" data-name="Trazado 876492" d="M181.918,162.54a.472.472,0,0,1-.472-.466c-.413-29.395-5.811-78.019-5.864-78.506a.472.472,0,0,1,.415-.522.482.482,0,0,1,.523.417c.055.489,5.455,49.157,5.87,78.6a.471.471,0,0,1-.466.477Z" transform="translate(155.6 73.595)" fill="#8758e7"/>
        <path id="Trazado_876493" data-name="Trazado 876493" d="M186.373,160.642a.475.475,0,0,1-.472-.494c.008-.141.673-14.463.145-32.882-.532-18.4-5.557-42.9-5.61-43.149a.472.472,0,0,1,.366-.556.467.467,0,0,1,.56.366c.049.245,5.091,24.832,5.627,43.311.532,18.458-.141,32.813-.149,32.956a.466.466,0,0,1-.468.449" transform="translate(159.896 74.041)" fill="#8758e7"/>
        <path id="Trazado_876494" data-name="Trazado 876494" d="M156.291,160.641a.473.473,0,0,1-.472-.483l1.8-76.148a.481.481,0,0,1,.483-.462.471.471,0,0,1,.46.483l-1.8,76.15a.473.473,0,0,1-.472.46" transform="translate(138.088 74.041)" fill="#8758e7"/>
        <path id="Trazado_876495" data-name="Trazado 876495" d="M168.444,160.372a.471.471,0,0,1-.466-.409L158.13,86.027a.472.472,0,0,1,.936-.125l9.848,73.936a.473.473,0,0,1-.406.53.367.367,0,0,1-.064,0" transform="translate(140.133 75.763)" fill="#8758e7"/>
        <path id="Trazado_876496" data-name="Trazado 876496" d="M189.958,113.153s-25.428,1.558-35.632-3.412l.6-30.56s5.542-39.137,13.492-39.973a66.426,66.426,0,0,1,14.973.221l28.037,36.551Z" transform="translate(136.765 34.462)" fill="#ffaf45"/>
        <path id="Trazado_876497" data-name="Trazado 876497" d="M211.728,198.9a3.651,3.651,0,0,0,3.5-3.608c.328-7.924,2.031-25.649.585-25.707-1.845-.075-20.567,4.218-20.567,4.218s-.077-11-7.8-9.344c-5.926,1.273-13.005,7.977-15.98,11.029a6.609,6.609,0,0,1-3.4,1.886c-5.517,1.141-20.726,5.008-21.273,13.06-.666,9.844,3.333,8.878,5.178,8.954,1.583.066,46.942-.364,59.757-.487" transform="translate(130.025 145.593)" fill="#ada4f7"/>
        <path id="Trazado_876498" data-name="Trazado 876498" d="M182.375,75.685s-19.279,3.188-23.089,6.7,5.43,16.968,7.805,19.151,19.3-8.9,19.3-8.9l2.446-9.673Z" transform="translate(140.354 67.073)" fill="#fc8165"/>
        <path id="Trazado_876499" data-name="Trazado 876499" d="M162.088,79.234s-8.056,11.517-6.726,16.272,11.04-9.942,11.04-9.942Z" transform="translate(137.552 70.218)" fill="#fc8165"/>
        <path id="Trazado_876500" data-name="Trazado 876500" d="M169.547,89.7s9.982-1.409,8.013,2.209-12.636,2.99-14.4.986,3.8-7.471,3.8-7.471Z" transform="translate(144.286 75.707)" fill="#fc8165"/>
        <path id="Trazado_876501" data-name="Trazado 876501" d="M167.289,90.06a.472.472,0,0,1-.168-.913l2.064-.785-1.594-1.177a.473.473,0,0,1,.562-.76l2.286,1.692a.479.479,0,0,1,.187.445.474.474,0,0,1-.3.375l-2.869,1.092a.471.471,0,0,1-.168.03" transform="translate(147.835 76.511)"/>
        <path id="Trazado_876502" data-name="Trazado 876502" d="M159.695,87.541a.445.445,0,0,1-.17-.032.469.469,0,0,1-.27-.609c.183-.477,1.826-4.678,2.822-5.525a.472.472,0,0,1,.611.719c-.613.521-1.892,3.433-2.554,5.146a.472.472,0,0,1-.439.3" transform="translate(141.105 72.015)"/>
        <path id="Trazado_876503" data-name="Trazado 876503" d="M161.311,90.828a.478.478,0,0,1-.213-.051.471.471,0,0,1-.207-.634l3.463-6.841a.472.472,0,0,1,.843.426l-3.465,6.841a.471.471,0,0,1-.421.258" transform="translate(142.537 73.595)"/>
        <path id="Trazado_876504" data-name="Trazado 876504" d="M160.455,40.669a13.119,13.119,0,0,1-2.5-10.5c.785-4.3,2.724-5.672,2.724-5.672s-2.841-5.926,5.855-5.449a24.459,24.459,0,0,1,13.758,4.823s4-1.9,5.723,2.765-.16,11.479-.16,11.479Z" transform="translate(139.783 16.854)"/>
        <path id="Trazado_876505" data-name="Trazado 876505" d="M176.153,34.44l-.415,10.619s-2.033,2.976-8.265,3.239c-4.642.2-6.015-2.239-6.015-2.239l1.484-9.248,11.314-2.028Z" transform="translate(143.086 30.521)" fill="#fc8165"/>
        <path id="Trazado_876506" data-name="Trazado 876506" d="M175.861,34.1a3.479,3.479,0,0,1-.349,1.013c-2.582,5.212-11.031,7.094-13.713,7.228l.841-5.219Z" transform="translate(143.388 30.216)"/>
        <path id="Trazado_876507" data-name="Trazado 876507" d="M163.631,24.557s-6.092,13.1-4.186,20.579,8.709,6.472,12.794,5.13a13.425,13.425,0,0,0,6.026-3.782,5.717,5.717,0,0,0,6.37-2.088c2.614-3.461,1.151-7.539-.988-8.516s-4.748.522-4.748.522l2.1-3.8s-8.014-19.741-17.374-8.047" transform="translate(140.975 18.481)" fill="#fc8165"/>
        <path id="Trazado_876508" data-name="Trazado 876508" d="M177.691,37.332s-5.708,1.069-9.574-5.319-3.465-8.984-3.465-8.984l-4.031,6.483s-.817-4.546,1.037-7.411,3.727-2.239,3.727-2.239l12.5,3.31,3.163,10.1Z" transform="translate(142.186 17.551)"/>
        <path id="Trazado_876509" data-name="Trazado 876509" d="M161.915,34.764a.473.473,0,0,1-.453-.34c-.836-2.867,1.222-5.732,1.309-5.853a.472.472,0,0,1,.762.556c-.017.025-1.869,2.614-1.166,5.032a.47.47,0,0,1-.321.585.465.465,0,0,1-.132.019" transform="translate(142.913 25.149)"/>
        <path id="Trazado_876510" data-name="Trazado 876510" d="M170.054,34.623a.468.468,0,0,1-.33-.134.475.475,0,0,1-.008-.668l3.659-3.748a.472.472,0,0,1,.675.658l-3.659,3.75a.471.471,0,0,1-.338.141" transform="translate(150.287 26.526)"/>
        <path id="Trazado_876511" data-name="Trazado 876511" d="M173.247,32.55c-.079-.006-2.56-.424-2.56-.424a.472.472,0,0,1-.387-.543.481.481,0,0,1,.545-.387l2.478.417a.472.472,0,0,1-.077.937" transform="translate(150.917 27.641)"/>
        <path id="Trazado_876512" data-name="Trazado 876512" d="M162.289,25.875a.471.471,0,0,1-.185.334l-1.811,1.364a.472.472,0,0,1-.568-.754l1.811-1.362a.472.472,0,0,1,.66.092.479.479,0,0,1,.092.326" transform="translate(141.385 22.476)"/>
        <path id="Trazado_876513" data-name="Trazado 876513" d="M163.214,26.416a.472.472,0,0,1,.609-.711l3.037,2.048a.466.466,0,0,1,.126.655.472.472,0,0,1-.655.126L163.3,26.486a.371.371,0,0,1-.083-.07" transform="translate(144.531 22.709)"/>
        <path id="Trazado_876514" data-name="Trazado 876514" d="M160.52,30.866a.5.5,0,0,1-.145-.023.473.473,0,0,1-.3-.594l.69-2.137L160.2,27.4a.471.471,0,0,1,.738-.587l.721.909a.474.474,0,0,1,.081.438l-.768,2.379a.472.472,0,0,1-.449.326" transform="translate(141.836 23.605)"/>
        <path id="Trazado_876515" data-name="Trazado 876515" d="M164.166,31.392a.5.5,0,0,1-.145-.023.472.472,0,0,1-.3-.594l.688-2.131-.832-1a.472.472,0,0,1,.726-.6l1,1.2a.47.47,0,0,1,.087.445l-.768,2.38a.472.472,0,0,1-.449.326" transform="translate(144.865 23.816)"/>
        <path id="Trazado_876516" data-name="Trazado 876516" d="M171.226,39.174s47.542,7.732,49.289,55.262C221.491,121.088,178,130.612,178,130.612l-9.95-24.626,19.686-15.439Z" transform="translate(148.93 34.717)" fill="#ffaf45"/>
        <path id="Trazado_876517" data-name="Trazado 876517" d="M167.91,172.853a.471.471,0,0,1-.141-.92l8.973-2.831a.472.472,0,1,1,.283.9l-8.973,2.829a.462.462,0,0,1-.141.023" transform="translate(148.386 149.842)" fill="#8758e7"/>
        <path id="Trazado_876518" data-name="Trazado 876518" d="M190.561,161.38a.47.47,0,0,1-.406-.232l-4.8-8.094a.471.471,0,0,1,.809-.481l4.8,8.1a.469.469,0,0,1-.166.645.464.464,0,0,1-.24.066" transform="translate(164.207 135.008)" fill="#8758e7"/>
        <path id="Trazado_876519" data-name="Trazado 876519" d="M170.663,77.259a.472.472,0,0,1-.285-.847c.539-.411,13.277-10.086,18.377-11.891a.472.472,0,0,1,.315.89c-4.963,1.754-17.991,11.651-18.123,11.751a.467.467,0,0,1-.285.1" transform="translate(150.825 57.156)" fill="#fff"/>
        <path id="Trazado_876520" data-name="Trazado 876520" d="M176.893,71.778a.469.469,0,0,1-.466-.543c.134-.862,1.381-8.46,4.1-9.893a2.029,2.029,0,0,1,1.9-.023,1.831,1.831,0,0,1,1.1,1.434c.4,2.9-5.627,8.3-6.315,8.909a.466.466,0,0,1-.311.117m4.595-9.74a1.085,1.085,0,0,0-.519.138c-1.626.856-2.812,5.144-3.359,7.83,2.062-1.981,5.212-5.417,4.976-7.122a.9.9,0,0,0-.57-.713,1.206,1.206,0,0,0-.528-.132" transform="translate(156.347 54.144)" fill="#fff"/>
        <path id="Trazado_876521" data-name="Trazado 876521" d="M122.223,73.631a47.964,47.964,0,0,0,31.458,17.434c20.458,2.294,33.107-8.907,33.107-8.907l8.85-42.985S175.4,49.312,158.376,55.807C148.349,59.63,131.9,51.54,131.9,51.54Z" transform="translate(108.315 34.717)" fill="#ffaf45"/>
        <path id="Trazado_876522" data-name="Trazado 876522" d="M143.151,60.053a1.905,1.905,0,0,1-1.418-.6c-2.145-2.235-.383-10.416-.175-11.342a.472.472,0,0,1,.875-.123c.434.8,4.191,7.907,2.8,10.812a2.154,2.154,0,0,1-1.63,1.211,2.455,2.455,0,0,1-.449.041m-.937-10.416c-.526,2.9-1.094,7.816.2,9.163a1.037,1.037,0,0,0,1.019.283,1.2,1.2,0,0,0,.947-.69c.851-1.771-.924-6.187-2.165-8.756" transform="translate(124.672 42.31)" fill="#fff"/>
        <path id="Trazado_876523" data-name="Trazado 876523" d="M44.641,160.347v14.175l25.76-1V160.347Z" transform="translate(39.561 142.102)" fill="#fc8165"/>
        <path id="Trazado_876524" data-name="Trazado 876524" d="M13.106,159.5v14.175l23.845-1V159.5Z" transform="translate(11.615 141.352)" fill="#fc8165"/>
        <path id="Trazado_876525" data-name="Trazado 876525" d="M112.141,239.814H68.664s-4.829-36.31-6.111-50.683c-1.1-12-4.244-27.369-5.264-32.122-.207-.943-.319-1.471-.319-1.471s-5.96,82.88-7.394,84.276c-1.415,1.4-43.024.3-42.574-1.6C7.437,236.306,20.15,98.876,21.282,89.8c3.452-27.859,49.04-10.676,49.04-10.676S76.4,89.087,83.64,106.742a322.3,322.3,0,0,1,16.276,51.7,562.6,562.6,0,0,1,12.225,81.371" transform="translate(6.202 65.479)" fill="#8758e7"/>
        <path id="Trazado_876526" data-name="Trazado 876526" d="M49.507,192.8c0,2.5-.811,5.363-2.473,6.083s-15.109,2.222-26.875,1.162c-11.264-1.02-13.6-1.882-14.433-2.943-.406-.539.387-3.042,1.3-5.462.057-.121.1-.26.155-.381.462-1.22.947-2.4,1.294-3.242a14.129,14.129,0,0,1,1.275-2.3c1.217-1.741,3.635-5.344,4.25-7.2.813-2.482,2.05-7.847,2.882-10.367a4.5,4.5,0,0,1,2.856-3s23.166-1.641,24.828-.2c1.641,1.42,2.473,13.228,2.473,15.009v1.782c0,1.66,1.1,4.942,1.816,7.664.192.681.347,1.322.464,1.9a8.1,8.1,0,0,1,.192,1.5" transform="translate(4.978 145.653)" fill="#50447e"/>
        <path id="Trazado_876527" data-name="Trazado 876527" d="M113.523,197.417c-1.545.66-67.292,2.522-68.818,0-.464-.76-.792-3.342-1.005-6.585-.541-7.645-.541-19.011-.541-19.011a46.848,46.848,0,0,1-.387-5.683c.077-1.781,31.705-1.1,31.705-1.1l20.556,16.791a38.044,38.044,0,0,1,11.806,0c3.265.539,5.37,4.683,6.415,8.586.926,3.461,1,6.683.27,7" transform="translate(37.893 146.145)" fill="#50447e"/>
        <path id="Trazado_876528" data-name="Trazado 876528" d="M113.081,185.434c-1.545.66-67.292,2.522-68.818,0-.464-.76-.792-3.342-1.005-6.585,12.5.92,43.258,2.663,69.554-.419.926,3.461,1,6.683.27,7" transform="translate(38.335 158.128)" fill="#ffaf45"/>
        <path id="Trazado_876529" data-name="Trazado 876529" d="M49.507,181.037c0,2.5-.811,5.363-2.473,6.083s-15.109,2.222-26.875,1.162c-11.264-1.02-13.6-1.882-14.433-2.943-.406-.539.387-3.042,1.3-5.462,10.451.82,29.329,1.56,41.829-2.243.192.681.347,1.322.464,1.9a8.1,8.1,0,0,1,.192,1.5" transform="translate(4.978 157.422)" fill="#ffaf45"/>
        <path id="Trazado_876530" data-name="Trazado 876530" d="M13.641,174.8a.472.472,0,0,1-.126-.926c.377-.106,9.322-2.577,14.073-1.726l2.886.513c-2.5-1.909-7.747-5.415-11-3.974a.471.471,0,1,1-.381-.862c4.9-2.175,13.073,4.965,13.419,5.268a.471.471,0,0,1-.4.817l-4.691-.834c-4.531-.807-13.564,1.681-13.654,1.707a.5.5,0,0,1-.126.017" transform="translate(11.67 148.366)" fill="#fff"/>
        <path id="Trazado_876531" data-name="Trazado 876531" d="M73.586,175.365c-.051,0-11.766-1.252-11.766-1.252a.469.469,0,0,1-.387-.289.475.475,0,0,1,.072-.479l4.087-4.982a.471.471,0,1,1,.728.6l-3.533,4.306,10.848,1.158a.471.471,0,0,1-.049.939" transform="translate(54.412 149.053)" fill="#fff"/>
        <path id="Trazado_876532" data-name="Trazado 876532" d="M15.114,99.644a.472.472,0,0,1-.277-.854,24.9,24.9,0,0,0,9.152-12.917.471.471,0,1,1,.917.219,25.39,25.39,0,0,1-9.516,13.464.469.469,0,0,1-.275.089" transform="translate(12.976 75.781)" fill="#50447e"/>
        <path id="Trazado_876533" data-name="Trazado 876533" d="M35.266,40.473s-12.824-.045-19.745,6.939-1.1,75.332-1.1,75.332,21.186,1.592,37.007,0a87.559,87.559,0,0,0,19.415-4.672s-10.461-68.13-14.06-74.854-21.514-2.744-21.514-2.744" transform="translate(10.751 34.83)" fill="#f74d76"/>
        <path id="Trazado_876534" data-name="Trazado 876534" d="M35.258,40.675s7.328,3.207,17.7,20.06C62.442,76.149,63.8,90.4,59.422,99.155s-19.071,8.516-19.071,8.516Z" transform="translate(31.246 36.047)" fill="#f74d76"/>
        <path id="Trazado_876535" data-name="Trazado 876535" d="M33.818,34.234s10.442.926,11.444-9.084c1.066-10.657-8.777-12.083-13.149-7.935s-3.776,8.573-3.776,8.573-2.818-2.756-6.142.353c-2.439,2.28-1.388,6.217-1.388,6.217s-5.389-.428-5.078,4.3a10.528,10.528,0,0,0,3.584,7.262Z" transform="translate(13.928 13.346)"/>
        <path id="Trazado_876536" data-name="Trazado 876536" d="M19.842,34.813l.636,11.163s2.194,3.093,8.754,3.252c4.887.119,6.534-1.077,6.534-1.077l-1-5.615-.983-5.474L21.845,35.137Z" transform="translate(17.584 30.852)" fill="#fc8165"/>
        <path id="Trazado_876537" data-name="Trazado 876537" d="M20.9,34.985a3.65,3.65,0,0,0,.385,1.058C24.1,41.477,31,42.292,33.825,42.383l-.983-5.474Z" transform="translate(18.525 31.004)"/>
        <path id="Trazado_876538" data-name="Trazado 876538" d="M38.721,24.218s6.655,13.662,4.787,21.569-9.041,6.97-13.364,5.636a14.107,14.107,0,0,1-6.407-3.867A6.014,6.014,0,0,1,17,45.479c-2.814-3.591-1.351-7.909.881-8.978s5,.462,5,.462l-2.286-3.955s8.064-20.916,18.126-8.79" transform="translate(13.689 18.111)" fill="#fc8165"/>
        <path id="Trazado_876539" data-name="Trazado 876539" d="M22.018,34.428a.474.474,0,0,1-.253-.074l-5.234-3.331a.471.471,0,1,1,.506-.8l5.234,3.331a.472.472,0,0,1-.253.87" transform="translate(14.456 26.723)"/>
        <path id="Trazado_876540" data-name="Trazado 876540" d="M17.127,33.457a.471.471,0,0,1-.143-.92L20.245,31.5a.472.472,0,1,1,.289.9l-3.263,1.041a.474.474,0,0,1-.143.023" transform="translate(14.761 27.892)"/>
        <path id="Trazado_876541" data-name="Trazado 876541" d="M23.875,27.612a.461.461,0,0,1-.266-.083.47.47,0,0,1-.123-.655,2.77,2.77,0,0,1,4.172-.843.471.471,0,0,1-.583.739,2.1,2.1,0,0,0-1.426-.387,2.149,2.149,0,0,0-1.386,1.022.467.467,0,0,1-.389.206" transform="translate(20.741 22.53)"/>
        <path id="Trazado_876542" data-name="Trazado 876542" d="M27.917,27.3a.488.488,0,0,1-.464-.56c.026-.14.287-1.366,1.16-1.709a1.54,1.54,0,0,1,1.518.317.472.472,0,1,1-.558.762c-.179-.134-.428-.273-.617-.2-.309.121-.526.743-.577,1.007a.472.472,0,0,1-.462.383" transform="translate(24.322 22.105)"/>
        <path id="Trazado_876543" data-name="Trazado 876543" d="M28.554,35.837a.444.444,0,0,1-.109-.013.471.471,0,0,1-.349-.568A8.455,8.455,0,0,0,26.746,28.3a.471.471,0,0,1,.722-.6,9.232,9.232,0,0,1,1.545,7.779.473.473,0,0,1-.458.362" transform="translate(23.605 24.394)"/>
        <path id="Trazado_876544" data-name="Trazado 876544" d="M29.472,29.725a.472.472,0,0,1-.449-.321l-.845-2.52a.472.472,0,0,1,.9-.3l.845,2.518a.473.473,0,0,1-.3.6.446.446,0,0,1-.147.025" transform="translate(24.951 23.275)"/>
        <path id="Trazado_876545" data-name="Trazado 876545" d="M25.73,30.012a.471.471,0,0,1-.447-.321l-.843-2.52a.471.471,0,1,1,.892-.3l.845,2.522a.471.471,0,0,1-.447.621" transform="translate(21.636 23.528)"/>
        <path id="Trazado_876546" data-name="Trazado 876546" d="M38.953,28.818a4.718,4.718,0,0,0-4.125-2.035,6.026,6.026,0,0,0-4.3,2.192s1.488,4.619-2.156,7.326-6.613,2.175-6.613,2.175l-2.8-.822-2.243-3.9,7.458-9.012,9.974-6.013,5.512,4.459Z" transform="translate(14.811 16.598)"/>
        <path id="Trazado_876547" data-name="Trazado 876547" d="M38.145,40.477a31.51,31.51,0,0,0-29.6,16.587C-.413,72.973.031,87.421.031,87.421l29.68-4.3Z" transform="translate(0.024 35.805)" fill="#f74d76"/>
        <path id="Trazado_876548" data-name="Trazado 876548" d="M46.944,48.161l6.634,11.215S46.57,90.9,30.343,101.037-1.024,96.744.055,80.545,46.944,48.161,46.944,48.161" transform="translate(0 42.681)" fill="#f74d76"/>
        <path id="Trazado_876549" data-name="Trazado 876549" d="M24.678,54.981s-7.294-1.341-10.919-.49S2.381,63.067,3.192,64.541s3.293.551,3.293.551-1.771,3,1.124,3.4S24.678,54.981,24.678,54.981" transform="translate(2.776 48.04)" fill="#fc8165"/>
        <path id="Trazado_876550" data-name="Trazado 876550" d="M55.556,80.186a65.159,65.159,0,0,1-30.985-8.16.472.472,0,0,1,.46-.824,62.565,62.565,0,0,0,33.141,7.952.472.472,0,0,1,.092.939c-.04,0-1.015.092-2.709.092" transform="translate(21.561 63.046)" fill="#fff"/>
        <path id="Trazado_876551" data-name="Trazado 876551" d="M41.4,58.861c-2.182,0-4.523-.187-5.966-.324a.472.472,0,0,1-.166-.892c.336-.168,8.252-4.046,11.053-1.245.572.57.528,1.034.394,1.32-.419.887-2.758,1.141-5.315,1.141m-4.04-1.111c4.446.311,8.154.145,8.5-.428a1.44,1.44,0,0,0-.206-.257c-1.539-1.541-5.632-.379-8.294.685" transform="translate(31.024 49.085)" fill="#fff"/>
        <path id="Trazado_876552" data-name="Trazado 876552" d="M5.114,63.674a.471.471,0,0,1-.3-.836l7.532-6.172a.471.471,0,1,1,.6.728L5.412,63.566a.457.457,0,0,1-.3.108" transform="translate(4.115 50.123)"/>
        <path id="Trazado_876553" data-name="Trazado 876553" d="M88.513,224.377H45.036s-4.829-36.31-6.111-50.683c-1.1-12-4.244-27.369-5.264-32.122.549-13.486,1.848-39.158,1.848-39.158l24.5-11.11a322.3,322.3,0,0,1,16.276,51.7,562.6,562.6,0,0,1,12.225,81.371" transform="translate(29.83 80.916)" fill="#6a4cd6"/>
        <path id="Trazado_876554" data-name="Trazado 876554" d="M170.76,50.641a2.473,2.473,0,0,1-.986-.2c-1.788-.76-2.488-3.571-2.756-5.351-.92,1.53-2.554,3.859-4.184,4.293a1.9,1.9,0,0,1-1.577-.238c-2.684-1.76.536-7.449.909-8.092a.475.475,0,0,1,.407-.234.421.421,0,0,1,.407.236c.057.1,1.173,1.907,4.3,2.039a.45.45,0,0,1,.123.006,8.762,8.762,0,0,0,1.137-.04c3.921-.36,8-3.131,8.041-3.158a.476.476,0,0,1,.455-.045.466.466,0,0,1,.277.356,10.2,10.2,0,0,1-3.367,8.892,5.127,5.127,0,0,1-3.191,1.535m-2.922-6.6c.155,1.677.756,4.87,2.3,5.528.817.349,1.894-.045,3.188-1.179a9.329,9.329,0,0,0,3.112-7.283A19.948,19.948,0,0,1,168.631,44c-.272.026-.539.04-.792.045m-5.191-1.9c-.924,1.786-2.322,5.263-.871,6.213a.954.954,0,0,0,.815.115c1.405-.373,3.116-2.963,3.978-4.487a6.27,6.27,0,0,1-3.921-1.841" transform="translate(141.97 35.289)" fill="#fff"/>
        <path id="Trazado_876555" data-name="Trazado 876555" d="M14.138,54.376S3.433,57,2.965,60.1s4.159,2.077,4.159,2.077Z" transform="translate(2.599 48.189)" fill="#fc8165"/>
        <path id="Trazado_876556" data-name="Trazado 876556" d="M3.987,62.015a.471.471,0,0,1-.3-.836l7.532-6.172a.471.471,0,1,1,.6.728L4.285,61.907a.467.467,0,0,1-.3.108" transform="translate(3.116 48.653)"/>
        <path id="Trazado_876557" data-name="Trazado 876557" d="M32,57.2s6.994-2.463,10.706-2.188,12.577,6.694,12.008,8.277-3.167,1.058-3.167,1.058,2.216,2.686-.579,3.531S32,57.2,32,57.2" transform="translate(28.359 48.736)" fill="#fc8165"/>
        <path id="Trazado_876558" data-name="Trazado 876558" d="M46.566,63.057a.474.474,0,0,1-.238-.064l-8.4-4.921a.471.471,0,1,1,.477-.813l8.4,4.919a.472.472,0,0,1-.24.879" transform="translate(33.402 50.687)"/>
        <path id="Trazado_876559" data-name="Trazado 876559" d="M37.574,55.04s10.983.922,11.928,3.914-3.784,2.7-3.784,2.7Z" transform="translate(33.299 48.777)" fill="#fc8165"/>
        <path id="Trazado_876560" data-name="Trazado 876560" d="M47.42,61.244a.486.486,0,0,1-.24-.064l-8.4-4.921a.472.472,0,0,1,.477-.815l8.4,4.921a.472.472,0,0,1-.238.879" transform="translate(34.159 49.078)"/>
        <path id="Trazado_876561" data-name="Trazado 876561" d="M34.851,84a190.475,190.475,0,0,1-21.607-1.22.471.471,0,0,1-.407-.528.462.462,0,0,1,.528-.407c.36.047,36.2,4.551,55.756-4.07a.472.472,0,0,1,.383.862C59.824,82.9,46.242,84,34.851,84" transform="translate(11.373 68.886)" fill="#fff"/>
        <path id="Trazado_876562" data-name="Trazado 876562" d="M17.025,86.352a.472.472,0,0,1-.468-.413L15.9,80.746a.47.47,0,0,1,.407-.526.479.479,0,0,1,.528.409l.653,5.193a.469.469,0,0,1-.407.526c-.021,0-.04,0-.06,0" transform="translate(14.092 71.088)" fill="#fff"/>
        <path id="Trazado_876563" data-name="Trazado 876563" d="M20.486,86.674a.472.472,0,0,1-.47-.434l-.424-5.278a.469.469,0,0,1,.432-.507.481.481,0,0,1,.507.432l.426,5.278a.471.471,0,0,1-.432.507l-.04,0" transform="translate(17.361 71.3)" fill="#fff"/>
        <path id="Trazado_876564" data-name="Trazado 876564" d="M18.607,43.114a.47.47,0,0,1-.221-.887L20.691,41a.471.471,0,1,1,.443.832l-2.307,1.226a.459.459,0,0,1-.221.053" transform="translate(16.071 36.288)" fill="#fff"/>
        <path id="Trazado_876565" data-name="Trazado 876565" d="M20.458,44.956a.479.479,0,0,1-.253-.074.473.473,0,0,1-.147-.651l1.262-1.99a.472.472,0,1,1,.8.5l-1.262,1.992a.47.47,0,0,1-.4.219" transform="translate(17.711 37.241)" fill="#fff"/>
        <path id="Trazado_876566" data-name="Trazado 876566" d="M24.16,86.581a.472.472,0,0,1-.47-.436L23.3,81.071A.472.472,0,1,1,24.243,81l.389,5.074a.471.471,0,0,1-.434.505l-.038,0" transform="translate(20.649 71.393)" fill="#fff"/>
        <path id="Trazado_876567" data-name="Trazado 876567" d="M27.893,86.575a.472.472,0,0,1-.468-.423L26.9,81.088a.471.471,0,1,1,.937-.1l.524,5.064a.473.473,0,0,1-.421.519l-.049,0" transform="translate(23.838 71.399)" fill="#fff"/>
        <path id="Trazado_876568" data-name="Trazado 876568" d="M32.046,86.041a.473.473,0,0,1-.468-.419l-.5-4.531a.472.472,0,1,1,.937-.106l.5,4.531a.474.474,0,0,1-.417.522l-.053,0" transform="translate(27.536 71.399)" fill="#fff"/>
        <path id="Trazado_876569" data-name="Trazado 876569" d="M35.884,85.767a.472.472,0,0,1-.472-.472V80.28a.472.472,0,1,1,.943,0v5.015a.472.472,0,0,1-.472.472" transform="translate(31.383 70.727)" fill="#fff"/>
        <path id="Trazado_876570" data-name="Trazado 876570" d="M39.953,84.276a.474.474,0,0,1-.47-.434l-.326-4.184a.469.469,0,0,1,.434-.506.461.461,0,0,1,.506.432l.326,4.182a.47.47,0,0,1-.432.507l-.038,0" transform="translate(34.7 70.143)" fill="#fff"/>
        <path id="Trazado_876571" data-name="Trazado 876571" d="M50.847,157.456,7.783,156.1a.472.472,0,0,1-.456-.487.492.492,0,0,1,.487-.456l43.049,1.36a.472.472,0,0,1-.015.943" transform="translate(6.492 137.499)" fill="#50447e"/>
        <path id="Trazado_876572" data-name="Trazado 876572" d="M39.628,156.776a.472.472,0,0,1-.008-.943l42.425-.681a.477.477,0,0,1,.479.464.472.472,0,0,1-.464.479l-42.425.681Z" transform="translate(34.7 137.498)" fill="#50447e"/>
        <path id="Trazado_876573" data-name="Trazado 876573" d="M124.964,68.846a5.25,5.25,0,0,1-2.375-.673.472.472,0,0,1,.481-.813c.019.011,2.014,1.16,3.158.066a.593.593,0,0,0,.2-.492c-.043-.868-1.377-2.229-2.209-2.882a.472.472,0,0,1-.153-.53.457.457,0,0,1,.453-.313c2.131.028,5.272-.373,5.5-1.413.273-1.235-2.2-2.716-3.1-3.137a.473.473,0,0,1-.255-.545.455.455,0,0,1,.489-.351c1.239.083,4.736.021,6.032-1.234a.63.63,0,0,0,.2-.543c-.089-1.183-2.322-3.193-3.71-4.184a.467.467,0,0,1-.168-.547A.491.491,0,0,1,130,50.95c1.239.111,3.418.017,3.989-.709.449-.572-.783-2.422-1.847-3.537a.472.472,0,0,1,.681-.653c.519.545,3.044,3.323,1.907,4.772-.658.839-2.19,1.062-3.357,1.1,1.188.994,2.861,2.624,2.963,3.989a1.575,1.575,0,0,1-.487,1.292c-1.151,1.115-3.384,1.428-4.966,1.5,1.115.773,2.356,1.962,2.06,3.293-.368,1.654-3.388,2.047-5.217,2.131a4.94,4.94,0,0,1,1.643,2.754,1.541,1.541,0,0,1-.483,1.22,2.685,2.685,0,0,1-1.918.739" transform="translate(108.434 40.682)" fill="#fff"/>
        <path id="Trazado_876574" data-name="Trazado 876574" d="M177.742,99.152a.472.472,0,0,1-.113-.93c.023-.006,2.256-.577,2.309-2.16a.591.591,0,0,0-.206-.489c-.713-.664-2.888-.6-3.6-.521a.471.471,0,0,1-.479-.272.476.476,0,0,1,.106-.541c1.564-1.469,3.514-3.948,2.954-4.853-.668-1.077-3.474-.4-4.406-.085a.471.471,0,0,1-.46-.8c.943-.807,3.4-3.3,3.457-5.1a.637.637,0,0,0-.236-.53c-.888-.785-3.893-.66-5.578-.4a.466.466,0,0,1-.481-.23.473.473,0,0,1,.043-.532c.962-1.192,2.452-3.444,2.348-4.408-.074-.688-2.469-1.479-4.663-1.784a.471.471,0,0,1-.4-.532.485.485,0,0,1,.532-.4c1.235.172,5.28.87,5.468,2.616.128,1.181-1.07,3.078-1.875,4.206,1.522-.14,4.127-.211,5.229.76a1.588,1.588,0,0,1,.555,1.266c-.047,1.6-1.426,3.382-2.507,4.542,1.335-.226,3.058-.243,3.772.917.894,1.441-.994,3.833-2.245,5.17a4.952,4.952,0,0,1,3.1.822,1.547,1.547,0,0,1,.507,1.211c-.077,2.3-2.907,3.016-3.025,3.046a.463.463,0,0,1-.113.013" transform="translate(149.184 66.094)" fill="#fff"/>
        <path id="Trazado_876575" data-name="Trazado 876575" d="M155.786,74.859a.47.47,0,0,1-.445-.317c-5.474-15.893,1.051-24.01,1.33-24.349a.472.472,0,0,1,.728.6c-.066.079-6.455,8.084-1.168,23.44a.47.47,0,0,1-.29.6.445.445,0,0,1-.155.026" transform="translate(135.732 44.331)" fill="#fff"/>
        <path id="Trazado_876576" data-name="Trazado 876576" d="M184.94,121.279a.472.472,0,0,1-.2-.9l3.482-1.613a.472.472,0,1,1,.4.856l-3.482,1.613a.464.464,0,0,1-.2.043" transform="translate(163.478 105.214)" fill="#8758e7"/>
        <path id="Trazado_876577" data-name="Trazado 876577" d="M33.714,138.621a.479.479,0,0,1-.472-.507c.013-.179,1.369-18.023,1.764-25.93s.407-11.681.407-11.719a.471.471,0,0,1,.275-.426L49.77,93.546a.471.471,0,1,1,.394.856L36.355,100.77c-.011,1.041-.077,4.789-.407,11.461-.394,7.92-1.75,25.775-1.764,25.954a.472.472,0,0,1-.47.436" transform="translate(29.459 82.862)" fill="#50447e"/>
        <path id="Trazado_876578" data-name="Trazado 876578" d="M181.347,34.6a2.55,2.55,0,0,1,1.226-4.276,5.536,5.536,0,0,1,5.945,1.549,2.533,2.533,0,0,1-1.053,4.321,5.976,5.976,0,0,1-6.119-1.594m4.1-11.038L191.082.5c.117-.445.475-.592,1.073-.436l3.11.811q.9.235.724.9l-6.4,22.872c-.117.447-.475.59-1.073.436l-2.35-.613c-.6-.157-.841-.456-.724-.9" transform="translate(160.064 0)" fill="#dcd7e0"/>
        <path id="Trazado_876579" data-name="Trazado 876579" d="M183.129,35.621a2.548,2.548,0,0,1,2.926-3.348,5.529,5.529,0,0,1,4.723,3.931,2.533,2.533,0,0,1-2.79,3.463,5.975,5.975,0,0,1-4.859-4.046m8.4-8.248L206.444,8.891q.441-.532,1.156.062l2.471,2.056c.475.4.566.773.272,1.126L194.821,30.113c-.294.356-.681.334-1.156-.06L191.8,28.5q-.716-.594-.272-1.126" transform="translate(162.186 7.657)" fill="#dcd7e0"/>
        <path id="Trazado_876580" data-name="Trazado 876580" d="M166.219,32.356a.473.473,0,0,1,.47.511c-.079.985-.67,2.8-2.262,2.71a2.6,2.6,0,0,1-2.38-1.439.465.465,0,0,1,.017-.375.477.477,0,0,1,.285-.245l3.733-1.141a.5.5,0,0,1,.138-.021m-1.671,2.282c.59,0,.9-.609,1.056-1.128l-2.324.709a2.108,2.108,0,0,0,1.209.417c.019,0,.04,0,.058,0" transform="translate(143.58 28.674)"/>
        <path id="Trazado_876581" data-name="Trazado 876581" d="M28.812,44.731c-6.285,0-8.673-3.327-8.8-3.51a.472.472,0,0,1,.775-.538c.036.053,3.867,5.291,14.765,1.994a.472.472,0,0,1,.272.9,24.232,24.232,0,0,1-7.013,1.151" transform="translate(17.661 35.875)" fill="#fff"/>
        <path id="Trazado_876582" data-name="Trazado 876582" d="M23.017,45.8a.472.472,0,0,1-.472-.472V43.022a.472.472,0,0,1,.943,0V45.33a.472.472,0,0,1-.472.472" transform="translate(19.98 37.708)" fill="#fff"/>
        <path id="Trazado_876583" data-name="Trazado 876583" d="M26.512,45.334a.471.471,0,0,1-.4-.23l-.787-1.311a.472.472,0,1,1,.809-.485l.785,1.313a.467.467,0,0,1-.162.645.451.451,0,0,1-.241.068" transform="translate(22.381 38.176)" fill="#fff"/>
        <path id="Trazado_876584" data-name="Trazado 876584" d="M29.644,45.145a.478.478,0,0,1-.351-.155L27.8,43.338a.471.471,0,0,1,.7-.632l1.494,1.652a.472.472,0,0,1-.036.666.465.465,0,0,1-.315.121" transform="translate(24.53 37.709)" fill="#fff"/>
        <path id="Trazado_876585" data-name="Trazado 876585" d="M31.383,42.688a.486.486,0,0,1-.191-.04l-2.284-1.007a.472.472,0,0,1,.379-.864l2.286,1.007a.472.472,0,0,1-.191.9" transform="translate(25.369 36.103)" fill="#fff"/>
        <path id="Trazado_876586" data-name="Trazado 876586" d="M25.332,32.614a.516.516,0,0,1,.151.025l3.84,1.294a.472.472,0,0,1,.177.788c-.2.192-1.988,1.854-3.216,1.039a4.336,4.336,0,0,1-1.417-2.6.474.474,0,0,1,.464-.549m2.878,1.939-2.186-.738a2.441,2.441,0,0,0,.783,1.16c.3.194.881-.064,1.4-.423" transform="translate(22.032 28.903)"/>
        <path id="Trazado_876587" data-name="Trazado 876587" d="M13.3,92.651a.471.471,0,0,1-.115-.928c.257-.064,25.758-6.756,35.359-30.351a.472.472,0,0,1,.873.356c-9.784,24.045-35.74,30.843-36,30.909a.478.478,0,0,1-.115.013" transform="translate(11.373 54.13)" fill="#fff"/>
        <path id="Trazado_876588" data-name="Trazado 876588" d="M34.369,58.855a.472.472,0,0,1-.341-.8c1.105-1.154,6.728-6.883,9.169-6.432a1.327,1.327,0,0,1,1.013.849,1.714,1.714,0,0,1-.072,1.445c-1.277,2.59-8.792,4.687-9.646,4.919a.468.468,0,0,1-.123.017m8.488-6.319c-1.354,0-4.476,2.582-6.834,4.857,2.671-.871,6.538-2.407,7.268-3.889a.764.764,0,0,0,.047-.67.392.392,0,0,0-.317-.281.756.756,0,0,0-.164-.017" transform="translate(30.041 45.728)" fill="#fff"/>
        <path id="Trazado_876589" data-name="Trazado 876589" d="M18.911,57.419c-.749-.064-6.992-.685-8.3-2.778a1.644,1.644,0,0,1-.138-1.509,1.494,1.494,0,0,1,1.085-.973c2.284-.521,7.128,3.935,7.673,4.446a.471.471,0,0,1-.323.815m-6.905-4.365a1.012,1.012,0,0,0-.234.025.552.552,0,0,0-.415.39.692.692,0,0,0,.058.671c.705,1.136,3.867,1.832,6.053,2.156-1.83-1.547-4.24-3.242-5.462-3.242" transform="translate(9.176 46.186)" fill="#fff"/>
      </g>
    </g>
    <g id="Grupo_1099439" data-name="Grupo 1099439" transform="translate(535.282 834.582)">
      <g id="Grupo_1099433" data-name="Grupo 1099433" clip-path="url(#clip-path-3)">
        <path id="Trazado_873461" data-name="Trazado 873461" d="M25,29.944,48.059,6.883,69.771,28.6,91.606,6.761l22.816,22.816,22.57-22.57L157.381,27.4l3.38-3.38L136.992.246l-22.57,22.569L91.606,0,69.771,21.833,48.059.122,25,23.184,3.382,1.568,0,4.947Z" transform="translate(-13.983 -15.18)" fill="#2436b1"/>
        <path id="Trazado_873462" data-name="Trazado 873462" d="M25,46.74l23.062-23.06,21.711,21.71L91.606,23.556l22.816,22.816,22.57-22.57,20.389,20.39,3.38-3.382L136.992,17.041l-22.57,22.57L91.606,16.8,69.771,38.63,48.059,16.919,25,39.979,3.382,18.363,0,21.742Z" transform="translate(-13.983 -8.669)" fill="#2436b1"/>
        <path id="Trazado_873463" data-name="Trazado 873463" d="M25,63.535l23.062-23.06L69.771,62.186,91.606,40.353l22.816,22.815,22.57-22.57,20.389,20.39,3.38-3.382L136.992,33.836l-22.57,22.57L91.606,33.59,69.771,55.425,48.059,33.714,25,56.774,3.382,35.158,0,38.539Z" transform="translate(-13.983 -2.158)" fill="#2436b1"/>
        <path id="Trazado_873464" data-name="Trazado 873464" d="M25,80.331,48.059,57.269,69.771,78.981,91.606,57.147l22.816,22.816,22.57-22.572,20.389,20.39,3.38-3.38L136.992,50.632,114.422,73.2,91.606,50.387,69.771,72.221,48.059,50.509,25,73.57,3.382,51.953,0,55.334Z" transform="translate(-13.983 4.353)" fill="#2436b1"/>
        <path id="Trazado_873465" data-name="Trazado 873465" d="M25,97.126,48.059,74.065,69.771,95.776,91.606,73.942l22.816,22.816,22.57-22.57,20.389,20.39,3.38-3.38L136.992,67.427,114.422,90,91.606,67.182,69.771,89.017,48.059,67.305,25,90.367,3.382,68.75,0,72.13Z" transform="translate(-13.983 10.864)" fill="#2436b1"/>
        <path id="Trazado_873466" data-name="Trazado 873466" d="M25,113.921l23.062-23.06,21.711,21.711L91.606,90.739l22.816,22.815,22.57-22.57,20.389,20.39,3.38-3.382L136.992,84.223l-22.57,22.57L91.606,83.977,69.771,105.812,48.059,84.1,25,107.161,3.382,85.545,0,88.925Z" transform="translate(-13.983 17.375)" fill="#2436b1"/>
      </g>
    </g>
  </g>
</svg>
