<svg xmlns="http://www.w3.org/2000/svg" width="82" height="82" viewBox="0 0 82 82">
  <g id="Grupo_1100731" data-name="Grupo 1100731" transform="translate(-948.333 -441.999)">
    <circle id="Elipse_11497" data-name="Elipse 11497" cx="41" cy="41" r="41" transform="translate(948.333 441.999)" fill="#ff9b6a"/>
    <g id="Grupo_1100724" data-name="Grupo 1100724" transform="translate(924.987 454.999)">
      <path id="Trazado_875334" data-name="Trazado 875334" d="M211.266,236.585H200.518a.9.9,0,0,0-.892,1.038,6.351,6.351,0,0,0,12.531,0A.9.9,0,0,0,211.266,236.585Z" transform="translate(-141.454 -210.305)" fill="#2436b1"/>
      <path id="Trazado_875335" data-name="Trazado 875335" d="M247.111,4.763a1.111,1.111,0,0,0,1.111-1.111V1.111a1.111,1.111,0,1,0-2.222,0V3.652A1.111,1.111,0,0,0,247.111,4.763Z" transform="translate(-182.687)" fill="#2436b1"/>
      <path id="Trazado_875336" data-name="Trazado 875336" d="M432.288,205.515h-2.542a1.111,1.111,0,0,0,0,2.222h2.542a1.111,1.111,0,0,0,0-2.222Z" transform="translate(-345.036 -182.686)" fill="#2436b1"/>
      <path id="Trazado_875337" data-name="Trazado 875337" d="M44.136,205.515H41.595a1.111,1.111,0,0,0,0,2.222h2.542a1.111,1.111,0,0,0,0-2.222Z" transform="translate(0 -182.686)" fill="#2436b1"/>
      <path id="Trazado_875338" data-name="Trazado 875338" d="M377.265,60.519l-1.8,1.8a1.111,1.111,0,1,0,1.571,1.571l1.8-1.8a1.111,1.111,0,1,0-1.571-1.571Z" transform="translate(-297.484 -53.507)" fill="#2436b1"/>
      <path id="Trazado_875339" data-name="Trazado 875339" d="M102.8,334.984l-1.8,1.8a1.111,1.111,0,1,0,1.571,1.571l1.8-1.8a1.111,1.111,0,1,0-1.571-1.571Z" transform="translate(-53.508 -297.485)" fill="#2436b1"/>
      <path id="Trazado_875340" data-name="Trazado 875340" d="M377.034,334.979a1.111,1.111,0,1,0-1.571,1.571l1.8,1.8a1.111,1.111,0,1,0,1.571-1.571Z" transform="translate(-297.48 -297.48)" fill="#2436b1"/>
      <path id="Trazado_875341" data-name="Trazado 875341" d="M102.812,63.9a1.111,1.111,0,0,0,1.571-1.571l-1.808-1.808A1.111,1.111,0,0,0,101,62.091Z" transform="translate(-53.508 -53.508)" fill="#2436b1"/>
      <path id="Trazado_875342" data-name="Trazado 875342" d="M132.375,67.914a16.85,16.85,0,0,0-11.852-5.032A16.954,16.954,0,0,0,109.4,92.808a6.94,6.94,0,0,1,2.443,5.334v5.716a4.435,4.435,0,0,0,3.687,4.366,4.791,4.791,0,0,0,9.57,0,4.435,4.435,0,0,0,3.687-4.366V98.143a7.134,7.134,0,0,1,2.537-5.414,16.954,16.954,0,0,0,1.046-24.815Zm-12.056,42.633a2.573,2.573,0,0,1-2.55-2.26h5.1A2.573,2.573,0,0,1,120.319,110.547Zm6.25-6.689a2.21,2.21,0,0,1-2.207,2.207h-8.086a2.21,2.21,0,0,1-2.207-2.207v-4.5h12.5Zm3.316-12.819a9.391,9.391,0,0,0-3.261,6.1H114.016a9.12,9.12,0,0,0-3.181-6.032A14.732,14.732,0,0,1,120.322,65.1h.175a14.732,14.732,0,0,1,9.388,25.936Z" transform="translate(-55.895 -55.896)" fill="#2436b1"/>
      <ellipse id="Elipse_11531" data-name="Elipse 11531" cx="2.159" cy="2.454" rx="2.159" ry="2.454" transform="translate(56.817 17.869)" fill="#2436b1"/>
      <ellipse id="Elipse_11532" data-name="Elipse 11532" cx="2.159" cy="2.454" rx="2.159" ry="2.454" transform="translate(67.741 17.869)" fill="#2436b1"/>
    </g>
  </g>
</svg>
