<svg xmlns="http://www.w3.org/2000/svg" xmlns:xlink="http://www.w3.org/1999/xlink" width="160" height="120" viewBox="0 0 160 120">
  <defs>
    <clipPath id="clip-path">
      <rect id="Rect치ngulo_401378" data-name="Rect치ngulo 401378" width="160" height="120" rx="10" transform="translate(-10615 -10269)" fill="#2436b1"/>
    </clipPath>
  </defs>
  <g id="Enmascarar_grupo_1098724" data-name="Enmascarar grupo 1098724" transform="translate(10615 10269)" clip-path="url(#clip-path)">
    <g id="Grupo_1099942" data-name="Grupo 1099942" transform="translate(-10616.002 -10269)">
      <g id="BACKGROUND" transform="translate(0.002)">
        <g id="Grupo_1099668" data-name="Grupo 1099668" transform="translate(0)">
          <g id="Grupo_1099667" data-name="Grupo 1099667">
            <g id="Grupo_1099666" data-name="Grupo 1099666">
              <rect id="Rect치ngulo_401375" data-name="Rect치ngulo 401375" width="161" height="161" fill="#fff6f3"/>
            </g>
          </g>
        </g>
      </g>
      <g id="OBJECTS" transform="translate(1.078 2.339)">
        <g id="Grupo_1099669" data-name="Grupo 1099669" transform="translate(0 7.682)">
          <circle id="Elipse_11516" data-name="Elipse 11516" cx="38.779" cy="38.779" r="38.779" fill="#f0e1cc"/>
        </g>
        <g id="Grupo_1099670" data-name="Grupo 1099670" transform="translate(74.711 25.098)">
          <circle id="Elipse_11517" data-name="Elipse 11517" cx="29.693" cy="29.693" r="29.693" transform="translate(0 41.992) rotate(-45)" fill="#f0e1cc"/>
        </g>
        <g id="Grupo_1099671" data-name="Grupo 1099671" transform="translate(5.734 144.299)">
          <path id="Trazado_873760" data-name="Trazado 873760" d="M177.48,459.473c0,4.637-31.678,8.4-70.755,8.4s-70.755-3.758-70.755-8.4S177.48,454.836,177.48,459.473Z" transform="translate(-35.969 -455.995)" fill="#f0e1cc"/>
        </g>
        <g id="Grupo_1099747" data-name="Grupo 1099747" transform="translate(11.947 14.998)">
          <g id="Grupo_1099672" data-name="Grupo 1099672" transform="translate(31.326 125.99)">
            <path id="Trazado_873761" data-name="Trazado 873761" d="M162.689,450.744c1.565,1.36,2.661,2.853,1.61,4.974H155.67l-3.011-6.407.085-2.194-.028-.047a9.406,9.406,0,0,1,4.138-1.367c1.487.041,2.386.022,2.746.009C159.839,446.279,161.263,449.5,162.689,450.744Z" transform="translate(-152.659 -445.703)" fill="#1a2948"/>
          </g>
          <g id="Grupo_1099673" data-name="Grupo 1099673" transform="translate(2.379 126.327)">
            <path id="Trazado_873762" data-name="Trazado 873762" d="M74.644,447.829l.088,2.194-3.011,6.407H63.093c-1.051-2.121.044-3.614,1.61-4.974a15.532,15.532,0,0,0,2.847-4.482A11.322,11.322,0,0,1,74.644,447.829Z" transform="translate(-62.678 -446.75)" fill="#1a2948"/>
          </g>
          <g id="Grupo_1099683" data-name="Grupo 1099683" transform="translate(31.315)">
            <g id="Grupo_1099674" data-name="Grupo 1099674" transform="translate(8.138 19.567)">
              <path id="Trazado_873763" data-name="Trazado 873763" d="M177.921,115.85a33.128,33.128,0,0,1,3.628,6.733,1.856,1.856,0,0,0,2.826.776,5.466,5.466,0,0,0,1.445-1.588c1.115-1.932-2.386-4.641-2.386-4.641l-.212-2.241Z" transform="translate(-177.921 -114.889)" fill="#7666fa"/>
            </g>
            <g id="Grupo_1099680" data-name="Grupo 1099680">
              <g id="Grupo_1099675" data-name="Grupo 1099675" transform="translate(0 11.891)">
                <path id="Trazado_873764" data-name="Trazado 873764" d="M153.345,92.307a1.151,1.151,0,0,0-.716,1.019,10.268,10.268,0,0,0,.729,3.774,10.563,10.563,0,0,0,1.847,3.353,1.155,1.155,0,0,0,1.206.359q1.574-.476,3.066-.842a17.659,17.659,0,0,1-2.153-4.267,18.231,18.231,0,0,1-1.091-4.676Q154.853,91.682,153.345,92.307Z" transform="translate(-152.624 -91.027)" fill="#7666fa"/>
              </g>
              <g id="Grupo_1099676" data-name="Grupo 1099676" transform="translate(3.609 3.303)">
                <path id="Trazado_873765" data-name="Trazado 873765" d="M179.874,76.923a12.026,12.026,0,0,0,2.856,3.2,55.033,55.033,0,0,0-14.359,1.43c-.42.094-.851.2-1.284.307a17.681,17.681,0,0,1-2.153-4.268,18.176,18.176,0,0,1-1.09-4.676c.4-.189.8-.381,1.185-.574A55.134,55.134,0,0,0,177.1,64.331a11.759,11.759,0,0,0-.212,4.032,19.5,19.5,0,0,0,1.059,4.571A19.726,19.726,0,0,0,179.874,76.923Z" transform="translate(-163.843 -64.331)" fill="#fbf5e8"/>
              </g>
              <g id="Grupo_1099677" data-name="Grupo 1099677" transform="translate(16.572)">
                <path id="Trazado_873766" data-name="Trazado 873766" d="M204.428,57.367a11.761,11.761,0,0,0-.212,4.031,19.473,19.473,0,0,0,1.059,4.571,19.718,19.718,0,0,0,1.931,3.991,12.014,12.014,0,0,0,2.857,3.2h0a4.129,4.129,0,0,0,3.831.912c2.849-1.017,3.526-6.171,1.541-11.732s-5.773-9.123-8.622-8.106A4.133,4.133,0,0,0,204.428,57.367Zm3.5-1.958c1.746-.624,4.939,2.185,6.734,7.208s1.1,9.221-.646,9.844c-1.29.46-3.374-.954-5.1-3.758a19.1,19.1,0,0,1-2.6-7.467C205.969,58.134,206.681,55.856,207.929,55.409Z" transform="translate(-204.138 -54.064)" fill="#7666fa"/>
              </g>
              <g id="Grupo_1099678" data-name="Grupo 1099678" transform="translate(18.667 1.259)">
                <path id="Trazado_873767" data-name="Trazado 873767" d="M210.743,63.891a18.224,18.224,0,0,0,.959,4.016,18.407,18.407,0,0,0,1.636,3.452c1.724,2.8,3.807,4.218,5.1,3.758,1.745-.622,2.439-4.819.646-9.844s-4.989-7.832-6.734-7.208C211.1,58.511,210.388,60.789,210.743,63.891Z" transform="translate(-210.652 -57.978)" fill="#ecb78e"/>
              </g>
              <g id="Grupo_1099679" data-name="Grupo 1099679" transform="translate(18.759 6.954)">
                <path id="Trazado_873768" data-name="Trazado 873768" d="M213.862,75.681l-2.926.218a18.224,18.224,0,0,0,.959,4.016,18.408,18.408,0,0,0,1.636,3.451l2.459-1.724a6.078,6.078,0,0,0-2.129-5.961Z" transform="translate(-210.936 -75.681)" fill="#7666fa"/>
              </g>
            </g>
            <g id="Grupo_1099681" data-name="Grupo 1099681" transform="translate(21.281 6.904)">
              <path id="Trazado_873769" data-name="Trazado 873769" d="M220.883,81.414a.321.321,0,0,1-.232-.1,6.763,6.763,0,0,1-1.82-5.508.322.322,0,1,1,.638.082,6.2,6.2,0,0,0,1.646,4.979.322.322,0,0,1-.232.545Z" transform="translate(-218.778 -75.526)" fill="#1a2948"/>
            </g>
            <g id="Grupo_1099682" data-name="Grupo 1099682" transform="translate(18.453 2.541)">
              <path id="Trazado_873770" data-name="Trazado 873770" d="M215.269,77.24a.32.32,0,0,1-.228-.095,17.713,17.713,0,0,1-4.867-14.908.322.322,0,0,1,.636.1A17.059,17.059,0,0,0,215.5,76.691a.322.322,0,0,1-.228.548Z" transform="translate(-209.984 -61.964)" fill="#1a2948"/>
            </g>
          </g>
          <g id="Grupo_1099684" data-name="Grupo 1099684" transform="translate(0 23.746)">
            <path id="Trazado_873771" data-name="Trazado 873771" d="M95.367,139.18a9.556,9.556,0,0,1-.356.99,10.346,10.346,0,0,1-1.926,3.1,24.37,24.37,0,0,1-4.387,3.336l-.057,11.812,1.637,9.682s-.2.15-.584.388a29.212,29.212,0,0,1-11.583,4.351c-5.363.633-11.558-1.415-13.776-2.241-.54-.2-.847-.332-.847-.332l1.783-8.946.322-2.141-.406-4.26-.18-1.88-.034.018c-.157.082-.391-2.487-1.3-2.187-.184.059-.379.118-.581.17-.05.014-.1.027-.154.039a6.586,6.586,0,0,1-2.684.157,8.5,8.5,0,0,1-3.57-2.457l-1.4-1.4s2.648-11.337,4.053-13.937,9.112-3.415,9.112-3.415,1.7-2.348,2.5-2.141c-.064.54-.127,1.083-.186,1.624,1.356,1.224,4.471,3.838,6.762,4.282,1.982.386,2.125-1.394,1.989-2.654a7.843,7.843,0,0,0-.216-1.167s6.68-1.269,8.64-.272S95.367,139.18,95.367,139.18Z" transform="translate(-55.282 -127.879)" fill="#eaac36"/>
          </g>
          <g id="Grupo_1099685" data-name="Grupo 1099685" transform="translate(15.479 18.385)">
            <path id="Trazado_873772" data-name="Trazado 873772" d="M105.888,112.493c.268,2.572,2.97,7.373,5.965,5.908a11.806,11.806,0,0,0,.284,1.439h.013c.136,1.259-.006,3.039-1.988,2.654-2.291-.445-5.406-3.058-6.764-4.283.06-.54.123-1.083.186-1.622.133-1.193.272-2.386.407-3.576.069-.6.136-1.2.205-1.8a3.991,3.991,0,0,0,1.553.587C105.781,111.988,105.825,112.225,105.888,112.493Z" transform="translate(-103.398 -111.215)" fill="#ecb78e"/>
          </g>
          <g id="Grupo_1099686" data-name="Grupo 1099686" transform="translate(14.696 8.355)">
            <path id="Trazado_873773" data-name="Trazado 873773" d="M113.107,82.241a29.719,29.719,0,0,1,.619,3.055,3.43,3.43,0,0,1-.312,1.184A2.318,2.318,0,0,1,114.4,88.6c-.123,1.436-.918,6.319-2.408,6.953a5.276,5.276,0,0,1-1.9.331,5.972,5.972,0,0,1-4.415-1.515,7.172,7.172,0,0,1-1.436-3.027c-.063-.268-.107-.505-.139-.691a3.991,3.991,0,0,1-1.553-.587,4.134,4.134,0,0,1-1.2-1.165l.843-.016a2.941,2.941,0,0,1,.694-1.464l.016-.009a3.141,3.141,0,0,0-1.146-1.206l-.789-.1c.022-.041.047-.082.073-.123a1.728,1.728,0,0,1,2.818-.126,6.232,6.232,0,0,1-.2-2.717,5.308,5.308,0,0,1,1.881-3.1,6.871,6.871,0,0,0,1.073,1.591,2.164,2.164,0,0,0,1.032.723.93.93,0,0,0,1.083-.451,1.281,1.281,0,0,0,.063-.549c-.009-.234-.035-.464-.066-.694a3.135,3.135,0,0,0,3.2,1.146.831.831,0,0,0,.474-.253.8.8,0,0,0,.139-.417,1.088,1.088,0,0,0-.145-.758.351.351,0,0,0,.073-.047,7.772,7.772,0,0,1,.638,1.887C113.1,82.222,113.1,82.231,113.107,82.241Z" transform="translate(-100.965 -80.034)" fill="#ecb78e"/>
          </g>
          <g id="Grupo_1099687" data-name="Grupo 1099687" transform="translate(11.8 2.992)">
            <path id="Trazado_873774" data-name="Trazado 873774" d="M106.355,69.019a.352.352,0,0,1-.073.047,1.084,1.084,0,0,1,.145.758.8.8,0,0,1-.139.417.829.829,0,0,1-.474.253,3.135,3.135,0,0,1-3.2-1.146c.032.23.057.461.066.694a1.281,1.281,0,0,1-.063.549.93.93,0,0,1-1.083.451,2.164,2.164,0,0,1-1.032-.723,6.878,6.878,0,0,1-1.073-1.591,5.308,5.308,0,0,0-1.881,3.1,6.224,6.224,0,0,0,.2,2.717,1.728,1.728,0,0,0-2.818.126c-.025.041-.051.082-.073.123a1.864,1.864,0,0,0-.2.644,2.92,2.92,0,0,0,.205,1.445,3.829,3.829,0,0,0,.379.71,4.138,4.138,0,0,0,1.2,1.165c-.069.6-.136,1.2-.205,1.8l-.019,0a1.156,1.156,0,0,0-.152-.707c-1.032-2.222-2.831-4.037-3.737-6.312a3.766,3.766,0,0,1-.309-2.159,1.82,1.82,0,0,1,1.348-1.442,3.418,3.418,0,0,1,1.168-4.258A.746.746,0,0,1,95.1,65.5a.571.571,0,0,1,.385.4,1.613,1.613,0,0,1,.035.577,4.34,4.34,0,0,1,2.607-2.55,1.434,1.434,0,0,1,1-.06.623.623,0,0,1,.357.83,4.841,4.841,0,0,1,3.166-1.325,1.747,1.747,0,0,1,1.692.6,1.831,1.831,0,0,1,.051,1.323,2.707,2.707,0,0,1,2.6-.032,1.948,1.948,0,0,1,.647,2.064A3.056,3.056,0,0,1,106.355,69.019Z" transform="translate(-91.961 -63.365)" fill="#1a2948"/>
          </g>
          <g id="Grupo_1099688" data-name="Grupo 1099688" transform="translate(14.473 14.421)">
            <path id="Trazado_873775" data-name="Trazado 873775" d="M100.292,99.536a1.862,1.862,0,0,1,.2-.644l.789.1a3.138,3.138,0,0,1,1.146,1.206l-.016.009a2.94,2.94,0,0,0-.694,1.464l-.843.016a3.838,3.838,0,0,1-.379-.71A2.918,2.918,0,0,1,100.292,99.536Z" transform="translate(-100.27 -98.892)" fill="#ecb78e"/>
          </g>
          <g id="Grupo_1099689" data-name="Grupo 1099689" transform="translate(33.415 20.614)">
            <path id="Trazado_873776" data-name="Trazado 873776" d="M173.22,121.737a1.2,1.2,0,0,1,.322,1.275,13.242,13.242,0,0,1-1.521,2.077s2.37,16.611,1.464,18.366-2.225,2.576-5.031,1.8-9.3-5.246-9.3-5.246a24.268,24.268,0,0,0,4.387-3.336,10.3,10.3,0,0,0,1.925-3.1l1.644,1.114,1.168-7.136a6.27,6.27,0,0,1-1.083-2.778,17.054,17.054,0,0,1-.041-4.081c.107-.922,2.367-1.7,2.367-1.7s1.711-1.894,2,0a1.431,1.431,0,0,1,1.171,1.979S173.441,120.724,173.22,121.737Z" transform="translate(-159.153 -118.143)" fill="#ecb78e"/>
          </g>
          <g id="Grupo_1099690" data-name="Grupo 1099690" transform="translate(5.523 64.36)">
            <path id="Trazado_873777" data-name="Trazado 873777" d="M105.194,315.768c-.36.013-1.259.032-2.746-.009a9.4,9.4,0,0,0-4.138,1.367c-.4.227-.657.388-.657.388a6.891,6.891,0,0,1-1.288-1.979,2.77,2.77,0,0,1,.35-2.339s-2.165-19.07-2.632-20.237a1.412,1.412,0,0,1,.41-1.755l-4.854-23.738-5.5,24.266-1.114,18.015c.293,2.339-.934,2.456-.934,2.456a7.65,7.65,0,0,1,.584,3.043,1.971,1.971,0,0,1-1.4,1.928,11.328,11.328,0,0,0-7.1-.855c-.177.038-.274.063-.274.063a5.973,5.973,0,0,1-1.285-1.78,2.315,2.315,0,0,1,.35-2.222l1.4-18.719s.253-20.747.4-28.848c.041-2.159.073-3.627.092-3.879a6.9,6.9,0,0,1,.672-2.336s-.527-.647-.35-1.114a9.789,9.789,0,0,1,.789-1.247c2.219.827,8.414,2.875,13.777,2.241a29.233,29.233,0,0,0,11.583-4.349c2.051,4.132,2.923,36.783,2.923,36.783s1.695,20.648,1.872,21.525-.761,3.323-.761,3.323Z" transform="translate(-72.451 -254.128)" fill="#7666fa"/>
          </g>
          <g id="Grupo_1099691" data-name="Grupo 1099691" transform="translate(26.832 10.533)">
            <path id="Trazado_873778" data-name="Trazado 873778" d="M138.694,86.833c0-.009,0-.019-.006-.028A.184.184,0,0,1,138.694,86.833Z" transform="translate(-138.688 -86.805)" fill="#ecb78e"/>
          </g>
          <g id="Grupo_1099692" data-name="Grupo 1099692" transform="translate(17.969 19.663)">
            <path id="Trazado_873779" data-name="Trazado 873779" d="M116.991,119.729a11.659,11.659,0,0,0,.114,1.367c-3,1.464-5.7-3.336-5.965-5.908a7.168,7.168,0,0,0,1.436,3.027A5.971,5.971,0,0,0,116.991,119.729Z" transform="translate(-111.139 -115.187)" fill="#1a2948"/>
          </g>
          <g id="Grupo_1099693" data-name="Grupo 1099693" transform="translate(15.165 14.205)">
            <path id="Trazado_873780" data-name="Trazado 873780" d="M104.274,101.947l-.037,0a.322.322,0,0,1-.283-.356,2.924,2.924,0,0,0-1.375-2.771.322.322,0,0,1,.328-.554,3.586,3.586,0,0,1,1.686,3.4A.322.322,0,0,1,104.274,101.947Z" transform="translate(-102.421 -98.219)" fill="#1a2948"/>
          </g>
          <g id="Grupo_1099694" data-name="Grupo 1099694" transform="translate(15.598 15.418)">
            <path id="Trazado_873781" data-name="Trazado 873781" d="M104.09,104.1a.3.3,0,0,1-.053,0,.322.322,0,0,1-.264-.37,3.279,3.279,0,0,1,.77-1.625.322.322,0,1,1,.484.424,2.674,2.674,0,0,0-.619,1.306A.322.322,0,0,1,104.09,104.1Z" transform="translate(-103.768 -101.992)" fill="#1a2948"/>
          </g>
          <g id="Grupo_1099695" data-name="Grupo 1099695" transform="translate(10.352 38.766)">
            <path id="Trazado_873782" data-name="Trazado 873782" d="M87.783,184.51a.318.318,0,0,1-.105-.018.322.322,0,0,1-.2-.409l3.221-9.3a.322.322,0,1,1,.608.21l-3.221,9.3A.322.322,0,0,1,87.783,184.51Z" transform="translate(-87.461 -174.568)" fill="#1a2948"/>
          </g>
          <g id="Grupo_1099696" data-name="Grupo 1099696" transform="translate(11.353 44.897)">
            <path id="Trazado_873783" data-name="Trazado 873783" d="M90.893,196.917a.322.322,0,0,1-.28-.48l1.493-2.648a.322.322,0,0,1,.56.316l-1.493,2.648A.322.322,0,0,1,90.893,196.917Z" transform="translate(-90.572 -193.626)" fill="#1a2948"/>
          </g>
          <g id="Grupo_1099697" data-name="Grupo 1099697" transform="translate(31.737 31.334)">
            <path id="Trazado_873784" data-name="Trazado 873784" d="M155.607,162.4a.322.322,0,0,1-.318-.28l-1.351-10.294a.322.322,0,0,1,.638-.084l1.351,10.294a.322.322,0,0,1-.277.361Z" transform="translate(-153.935 -151.466)" fill="#1a2948"/>
          </g>
          <g id="Grupo_1099698" data-name="Grupo 1099698" transform="translate(39.873 37.138)">
            <path id="Trazado_873785" data-name="Trazado 873785" d="M179.55,177.036h-.015a.322.322,0,0,1-.306-.337,23.36,23.36,0,0,1,1.414-6.979.322.322,0,1,1,.6.222,22.711,22.711,0,0,0-1.375,6.788A.321.321,0,0,1,179.55,177.036Z" transform="translate(-179.228 -169.509)" fill="#1a2948"/>
          </g>
          <g id="Grupo_1099699" data-name="Grupo 1099699" transform="translate(23.829 71.204)">
            <path id="Trazado_873786" data-name="Trazado 873786" d="M129.676,279.971a.322.322,0,0,1-.156-.6l7.1-3.925a.322.322,0,0,1,.311.563l-7.1,3.925A.317.317,0,0,1,129.676,279.971Z" transform="translate(-129.354 -275.402)" fill="#1a2948"/>
          </g>
          <g id="Grupo_1099700" data-name="Grupo 1099700" transform="translate(24.158 74.011)">
            <path id="Trazado_873787" data-name="Trazado 873787" d="M130.7,286.924a.322.322,0,0,1-.115-.622,47.786,47.786,0,0,1,7.362-2.169.322.322,0,1,1,.132.63,47.182,47.182,0,0,0-7.263,2.14A.319.319,0,0,1,130.7,286.924Z" transform="translate(-130.377 -284.126)" fill="#1a2948"/>
          </g>
          <g id="Grupo_1099701" data-name="Grupo 1099701" transform="translate(22.757 68.623)">
            <path id="Trazado_873788" data-name="Trazado 873788" d="M126.723,272.258a.322.322,0,0,1-.32-.291l-.38-4.006a.322.322,0,0,1,.29-.351.318.318,0,0,1,.351.29l.352,3.714h.5l-.1-3.9a.322.322,0,1,1,.643-.017l.113,4.234a.322.322,0,0,1-.321.33l-1.125,0Z" transform="translate(-126.021 -267.377)" fill="#1a2948"/>
          </g>
          <g id="Grupo_1099702" data-name="Grupo 1099702" transform="translate(7.213 67.713)">
            <path id="Trazado_873789" data-name="Trazado 873789" d="M78.026,317.394h-.016a.321.321,0,0,1-.305-.337l2.161-46.31a9.865,9.865,0,0,1,.883-4.281,1.118,1.118,0,0,1-.3-.353,1.066,1.066,0,0,1,1.383-1.467.322.322,0,0,1-.274.582.423.423,0,1,0-.282.8.322.322,0,0,1,.193.488,8.533,8.533,0,0,0-.963,4.267l-2.161,46.31A.323.323,0,0,1,78.026,317.394Z" transform="translate(-77.704 -264.55)" fill="#1a2948"/>
          </g>
          <g id="Grupo_1099703" data-name="Grupo 1099703" transform="translate(31.577 122.924)">
            <path id="Trazado_873790" data-name="Trazado 873790" d="M153.759,437.245a.322.322,0,0,1-.077-.634,15.347,15.347,0,0,1,5.736-.3.322.322,0,0,1-.089.637,14.7,14.7,0,0,0-5.493.283A.326.326,0,0,1,153.759,437.245Z" transform="translate(-153.438 -436.172)" fill="#1a2948"/>
          </g>
          <g id="Grupo_1099704" data-name="Grupo 1099704" transform="translate(6.727 122.778)">
            <path id="Trazado_873791" data-name="Trazado 873791" d="M84.411,437.234a.317.317,0,0,1-.112-.02,13.988,13.988,0,0,0-7.716-.547.322.322,0,0,1-.136-.629,14.643,14.643,0,0,1,8.075.573.322.322,0,0,1-.112.624Z" transform="translate(-76.193 -435.717)" fill="#1a2948"/>
          </g>
          <g id="Grupo_1099705" data-name="Grupo 1099705" transform="translate(44.758 23.889)">
            <path id="Trazado_873792" data-name="Trazado 873792" d="M195.5,132.346a1.513,1.513,0,0,1-.21-.014,1.023,1.023,0,0,1-.775-.508,1.269,1.269,0,0,1,.011-1.009,5.1,5.1,0,0,1,1.341-2.045,1.8,1.8,0,0,1,.53-.364.95.95,0,0,1,.78,0,.322.322,0,0,1-.284.577.323.323,0,0,0-.251.013,1.207,1.207,0,0,0-.337.241,4.454,4.454,0,0,0-1.171,1.786.681.681,0,0,0-.048.5.4.4,0,0,0,.3.17,1.679,1.679,0,0,0,.544-.048.322.322,0,1,1,.126.631A2.789,2.789,0,0,1,195.5,132.346Z" transform="translate(-194.412 -128.323)" fill="#1a2948"/>
          </g>
          <g id="Grupo_1099706" data-name="Grupo 1099706" transform="translate(44.028 23.091)">
            <path id="Trazado_873793" data-name="Trazado 873793" d="M193.077,129.789a.322.322,0,0,1-.125-.026,1.326,1.326,0,0,1-.711-.782,1.9,1.9,0,0,1-.064-.975,2.605,2.605,0,0,1,2.942-2.137.322.322,0,0,1-.092.637,1.962,1.962,0,0,0-2.216,1.609,1.275,1.275,0,0,0,.035.649.692.692,0,0,0,.357.408.322.322,0,0,1-.126.618Z" transform="translate(-192.142 -125.842)" fill="#1a2948"/>
          </g>
          <g id="Grupo_1099707" data-name="Grupo 1099707" transform="translate(43.318 21.266)">
            <path id="Trazado_873794" data-name="Trazado 873794" d="M190.968,124.107a1.032,1.032,0,0,1-.893-.557,1.379,1.379,0,0,1-.037-1.123,2.73,2.73,0,0,1,.547-.837,6.914,6.914,0,0,1,1.692-1.378.322.322,0,0,1,.323.557,6.281,6.281,0,0,0-1.535,1.25,2.116,2.116,0,0,0-.424.634.75.75,0,0,0,0,.6.377.377,0,0,0,.377.208.322.322,0,1,1,.148.626A.921.921,0,0,1,190.968,124.107Z" transform="translate(-189.937 -120.168)" fill="#1a2948"/>
          </g>
          <g id="Grupo_1099708" data-name="Grupo 1099708" transform="translate(42.642 21.249)">
            <path id="Trazado_873795" data-name="Trazado 873795" d="M188.852,122.823l-.036,0a1.131,1.131,0,0,1-.914-.766,1.439,1.439,0,0,1,.11-1.117,2.16,2.16,0,0,1,.7-.763.322.322,0,1,1,.367.529,1.534,1.534,0,0,0-.5.533.805.805,0,0,0-.071.613.493.493,0,0,0,.376.333.321.321,0,0,1-.035.641Z" transform="translate(-187.835 -120.117)" fill="#1a2948"/>
          </g>
          <g id="Grupo_1099709" data-name="Grupo 1099709" transform="translate(42.6 23.218)">
            <path id="Trazado_873796" data-name="Trazado 873796" d="M189.364,131.019a.317.317,0,0,1-.062-.006.322.322,0,0,1-.253-.378,2.773,2.773,0,0,0-1.2-2.853.322.322,0,0,1-.115-.4l.442-.954a.322.322,0,0,1,.584.271l-.331.713a3.415,3.415,0,0,1,1.248,3.351A.321.321,0,0,1,189.364,131.019Z" transform="translate(-187.705 -126.237)" fill="#1a2948"/>
          </g>
          <g id="Grupo_1099710" data-name="Grupo 1099710" transform="translate(10.522 5.8)">
            <path id="Trazado_873797" data-name="Trazado 873797" d="M90.931,76.365a.32.32,0,0,1-.076-.009,4.179,4.179,0,0,1-2.843-2.448.322.322,0,1,1,.6-.243,3.522,3.522,0,0,0,1.449,1.674,4.673,4.673,0,0,1-.461-2.985.322.322,0,0,1,.632.118,4.014,4.014,0,0,0,.942,3.355.322.322,0,0,1-.239.537Z" transform="translate(-87.988 -72.093)" fill="#1a2948"/>
          </g>
          <g id="Grupo_1099726" data-name="Grupo 1099726" transform="translate(19.171 11.428)">
            <g id="Grupo_1099711" data-name="Grupo 1099711" transform="translate(0 0.295)">
              <path id="Trazado_873798" data-name="Trazado 873798" d="M114.876,92.3a3.8,3.8,0,0,1,2.866-.746.468.468,0,0,0,.548-.434c-.014-.192-.15-.4-.58-.547C116.705,90.233,114.929,91.285,114.876,92.3Z" transform="translate(-114.876 -90.507)" fill="#1a2948"/>
            </g>
            <g id="Grupo_1099712" data-name="Grupo 1099712" transform="translate(0.034 4.671)">
              <path id="Trazado_873799" data-name="Trazado 873799" d="M117.718,104.78c.03.422-.558.808-1.313.862s-1.392-.244-1.423-.666.557-.808,1.313-.862S117.688,104.358,117.718,104.78Z" transform="translate(-114.982 -104.107)" fill="#e06f43"/>
            </g>
            <g id="Grupo_1099713" data-name="Grupo 1099713" transform="translate(4.902)">
              <path id="Trazado_873800" data-name="Trazado 873800" d="M133.213,91.058a2.992,2.992,0,0,0-2.568-.356.418.418,0,0,1-.53-.356c-.013-.192.076-.418.427-.619A2.158,2.158,0,0,1,133.213,91.058Z" transform="translate(-130.114 -89.588)" fill="#1a2948"/>
            </g>
            <g id="Grupo_1099714" data-name="Grupo 1099714" transform="translate(3.713 2.163)">
              <path id="Trazado_873801" data-name="Trazado 873801" d="M127.411,96.312a20.7,20.7,0,0,0,1.023,2.423c.634,1.263,1.31,1.009,1.021,1.928s-2.419.985-2.84.613-.122-1.48.493-1.47C127.108,99.807,126.738,97.22,127.411,96.312Z" transform="translate(-126.418 -96.312)" fill="#e06f43"/>
            </g>
            <g id="Grupo_1099719" data-name="Grupo 1099719" transform="translate(2.167 7.67)">
              <g id="Grupo_1099715" data-name="Grupo 1099715">
                <path id="Trazado_873802" data-name="Trazado 873802" d="M125.967,114.623a1.868,1.868,0,0,1-1.766,1.061v-.007a1.382,1.382,0,0,0-1.139-.974,2.1,2.1,0,0,0-1.025.187,1.83,1.83,0,0,1-.419-.932.456.456,0,0,1,.521-.524l.084.011v0c.014.047.189.511,1.5.713,1.385.218,1.814-.2,1.814-.2l.08.012A.458.458,0,0,1,125.967,114.623Z" transform="translate(-121.612 -113.429)" fill="#1a2948"/>
              </g>
              <g id="Grupo_1099716" data-name="Grupo 1099716" transform="translate(0.424 1.265)">
                <path id="Trazado_873803" data-name="Trazado 873803" d="M125.1,118.344v.007a3.293,3.293,0,0,1-.624-.042,2.427,2.427,0,0,1-1.541-.752,2.1,2.1,0,0,1,1.025-.187A1.382,1.382,0,0,1,125.1,118.344Z" transform="translate(-122.931 -117.36)" fill="#dc3d3d"/>
              </g>
              <g id="Grupo_1099717" data-name="Grupo 1099717" transform="translate(0.628 0.023)">
                <path id="Trazado_873804" data-name="Trazado 873804" d="M126.883,114.018s-.447.411-1.831.193c-1.315-.2-1.489-.666-1.486-.71Z" transform="translate(-123.566 -113.501)" fill="#fbf5e8"/>
              </g>
              <g id="Grupo_1099718" data-name="Grupo 1099718" transform="translate(0.398 1.461)">
                <path id="Trazado_873805" data-name="Trazado 873805" d="M122.875,117.972a.079.079,0,0,0-.027.009" transform="translate(-122.848 -117.972)" fill="#dc3d3d"/>
              </g>
            </g>
            <g id="Grupo_1099720" data-name="Grupo 1099720" transform="translate(1.723 2.183)">
              <path id="Trazado_873806" data-name="Trazado 873806" d="M121.627,97.126a.7.7,0,1,1-.753-.749A.755.755,0,0,1,121.627,97.126Z" transform="translate(-120.233 -96.375)" fill="#1a2948"/>
            </g>
            <g id="Grupo_1099721" data-name="Grupo 1099721" transform="translate(6.739 1.772)">
              <path id="Trazado_873807" data-name="Trazado 873807" d="M137.219,95.849a.7.7,0,1,1-.753-.749A.755.755,0,0,1,137.219,95.849Z" transform="translate(-135.825 -95.098)" fill="#1a2948"/>
            </g>
            <g id="Grupo_1099723" data-name="Grupo 1099723" transform="translate(5.361 1.5)">
              <g id="Grupo_1099722" data-name="Grupo 1099722">
                <path id="Trazado_873808" data-name="Trazado 873808" d="M131.863,95.606a.322.322,0,0,1-.222-.555,2.243,2.243,0,0,1,3.211-.23.322.322,0,0,1-.373.524,1.612,1.612,0,0,0-2.393.172A.32.32,0,0,1,131.863,95.606Z" transform="translate(-131.541 -94.252)" fill="#1a2948"/>
              </g>
            </g>
            <g id="Grupo_1099725" data-name="Grupo 1099725" transform="translate(0.113 1.877)">
              <g id="Grupo_1099724" data-name="Grupo 1099724">
                <path id="Trazado_873809" data-name="Trazado 873809" d="M115.548,96.776a.322.322,0,0,1-.222-.554,2.243,2.243,0,0,1,3.211-.23.322.322,0,1,1-.373.524,1.612,1.612,0,0,0-2.393.171A.319.319,0,0,1,115.548,96.776Z" transform="translate(-115.226 -95.423)" fill="#1a2948"/>
              </g>
            </g>
          </g>
          <g id="Grupo_1099727" data-name="Grupo 1099727" transform="translate(19.171 11.724)">
            <path id="Trazado_873810" data-name="Trazado 873810" d="M114.876,92.3a3.8,3.8,0,0,1,2.866-.746.468.468,0,0,0,.548-.434c-.014-.192-.15-.4-.58-.547C116.705,90.233,114.929,91.285,114.876,92.3Z" transform="translate(-114.876 -90.507)" fill="#1a2948"/>
          </g>
          <g id="Grupo_1099728" data-name="Grupo 1099728" transform="translate(19.205 16.099)">
            <path id="Trazado_873811" data-name="Trazado 873811" d="M117.718,104.78c.03.422-.558.808-1.313.862s-1.392-.244-1.423-.666.557-.808,1.313-.862S117.688,104.358,117.718,104.78Z" transform="translate(-114.982 -104.107)" fill="#e06f43"/>
          </g>
          <g id="Grupo_1099729" data-name="Grupo 1099729" transform="translate(24.073 11.428)">
            <path id="Trazado_873812" data-name="Trazado 873812" d="M133.213,91.058a2.992,2.992,0,0,0-2.568-.356.418.418,0,0,1-.53-.356c-.013-.192.076-.418.427-.619A2.158,2.158,0,0,1,133.213,91.058Z" transform="translate(-130.114 -89.588)" fill="#1a2948"/>
          </g>
          <g id="Grupo_1099730" data-name="Grupo 1099730" transform="translate(22.885 13.591)">
            <path id="Trazado_873813" data-name="Trazado 873813" d="M127.411,96.312a20.7,20.7,0,0,0,1.023,2.423c.634,1.263,1.31,1.009,1.021,1.928s-2.419.985-2.84.613-.122-1.48.493-1.47C127.108,99.807,126.738,97.22,127.411,96.312Z" transform="translate(-126.418 -96.312)" fill="#e06f43"/>
          </g>
          <g id="Grupo_1099735" data-name="Grupo 1099735" transform="translate(21.338 19.098)">
            <g id="Grupo_1099731" data-name="Grupo 1099731">
              <path id="Trazado_873814" data-name="Trazado 873814" d="M125.967,114.623a1.868,1.868,0,0,1-1.766,1.061v-.007a1.382,1.382,0,0,0-1.139-.974,2.1,2.1,0,0,0-1.025.187,1.83,1.83,0,0,1-.419-.932.456.456,0,0,1,.521-.524l.084.011v0c.014.047.189.511,1.5.713,1.385.218,1.814-.2,1.814-.2l.08.012A.458.458,0,0,1,125.967,114.623Z" transform="translate(-121.612 -113.429)" fill="#1a2948"/>
            </g>
            <g id="Grupo_1099732" data-name="Grupo 1099732" transform="translate(0.424 1.265)">
              <path id="Trazado_873815" data-name="Trazado 873815" d="M125.1,118.344v.007a3.293,3.293,0,0,1-.624-.042,2.427,2.427,0,0,1-1.541-.752,2.1,2.1,0,0,1,1.025-.187A1.382,1.382,0,0,1,125.1,118.344Z" transform="translate(-122.931 -117.36)" fill="#dc3d3d"/>
            </g>
            <g id="Grupo_1099733" data-name="Grupo 1099733" transform="translate(0.628 0.023)">
              <path id="Trazado_873816" data-name="Trazado 873816" d="M126.883,114.018s-.447.411-1.831.193c-1.315-.2-1.489-.666-1.486-.71Z" transform="translate(-123.566 -113.501)" fill="#fbf5e8"/>
            </g>
            <g id="Grupo_1099734" data-name="Grupo 1099734" transform="translate(0.398 1.461)">
              <path id="Trazado_873817" data-name="Trazado 873817" d="M122.875,117.972a.079.079,0,0,0-.027.009" transform="translate(-122.848 -117.972)" fill="#dc3d3d"/>
            </g>
          </g>
          <g id="Grupo_1099736" data-name="Grupo 1099736" transform="translate(20.895 13.612)">
            <path id="Trazado_873818" data-name="Trazado 873818" d="M121.627,97.126a.7.7,0,1,1-.753-.749A.755.755,0,0,1,121.627,97.126Z" transform="translate(-120.233 -96.375)" fill="#1a2948"/>
          </g>
          <g id="Grupo_1099737" data-name="Grupo 1099737" transform="translate(25.91 13.201)">
            <path id="Trazado_873819" data-name="Trazado 873819" d="M137.219,95.849a.7.7,0,1,1-.753-.749A.755.755,0,0,1,137.219,95.849Z" transform="translate(-135.825 -95.098)" fill="#1a2948"/>
          </g>
          <g id="Grupo_1099739" data-name="Grupo 1099739" transform="translate(24.533 12.929)">
            <g id="Grupo_1099738" data-name="Grupo 1099738">
              <path id="Trazado_873820" data-name="Trazado 873820" d="M131.863,95.606a.322.322,0,0,1-.222-.555,2.243,2.243,0,0,1,3.211-.23.322.322,0,0,1-.373.524,1.612,1.612,0,0,0-2.393.172A.32.32,0,0,1,131.863,95.606Z" transform="translate(-131.541 -94.252)" fill="#1a2948"/>
            </g>
          </g>
          <g id="Grupo_1099741" data-name="Grupo 1099741" transform="translate(19.284 13.305)">
            <g id="Grupo_1099740" data-name="Grupo 1099740">
              <path id="Trazado_873821" data-name="Trazado 873821" d="M115.548,96.776a.322.322,0,0,1-.222-.554,2.243,2.243,0,0,1,3.211-.23.322.322,0,1,1-.373.524,1.612,1.612,0,0,0-2.393.171A.319.319,0,0,1,115.548,96.776Z" transform="translate(-115.226 -95.423)" fill="#1a2948"/>
            </g>
          </g>
          <g id="Grupo_1099742" data-name="Grupo 1099742" transform="translate(0.239 43.426)">
            <path id="Trazado_873822" data-name="Trazado 873822" d="M87.47,192.2l-1.344,1.236a1.6,1.6,0,0,1-.684.894l-.552.342s.3.552-.552,1.209c0,0-.045.954-1.611,2.445s-6.8,1.77-6.8,1.77-14.766,4.432-15.316,4.482c-1.387.125-3.926.5-4.523-1.894-.377-1.515,1.1-12.412,1.1-12.412a8.5,8.5,0,0,0,3.57,2.457,7.228,7.228,0,0,0,2.684-.157c.052-.011.1-.025.154-.039a12.913,12.913,0,0,0,2.338-.791c.023-.011-.24,4.67-.24,4.67l8.875-.822a35.149,35.149,0,0,1,1.908-3.539,31.511,31.511,0,0,1,4.149-3,1.249,1.249,0,0,1,0,1.911,17.174,17.174,0,0,1-2.1,1.968l4.354-.09S86.8,191.014,87.47,192.2Z" transform="translate(-56.025 -189.052)" fill="#ecb78e"/>
          </g>
          <g id="Grupo_1099743" data-name="Grupo 1099743" transform="translate(1.617 50.467)">
            <path id="Trazado_873823" data-name="Trazado 873823" d="M60.631,213.985a.322.322,0,0,1-.2-.573,10.712,10.712,0,0,1,3.409-1.829,45.621,45.621,0,0,1,4.73-.64.322.322,0,1,1,.056.641,46.173,46.173,0,0,0-4.638.625,10.26,10.26,0,0,0-3.156,1.706A.318.318,0,0,1,60.631,213.985Z" transform="translate(-60.309 -210.941)" fill="#1a2948"/>
          </g>
          <g id="Grupo_1099744" data-name="Grupo 1099744" transform="translate(25.892 47.388)">
            <path id="Trazado_873824" data-name="Trazado 873824" d="M136.087,203.254a.322.322,0,0,1-.06-.638c.008,0,.82-.158,1.374-.291s2.766-.927,2.788-.936a.322.322,0,0,1,.217.606c-.093.033-2.276.816-2.855.955s-1.369.291-1.4.3A.33.33,0,0,1,136.087,203.254Z" transform="translate(-135.766 -201.37)" fill="#1a2948"/>
          </g>
          <g id="Grupo_1099745" data-name="Grupo 1099745" transform="translate(25.895 48.629)">
            <path id="Trazado_873825" data-name="Trazado 873825" d="M136.1,206.93a.324.324,0,0,1-.31-.226.318.318,0,0,1,.2-.4c.022-.007.089-.024.192-.047a8.373,8.373,0,0,0,2.656-.968.322.322,0,0,1,.386.515,8.862,8.862,0,0,1-2.9,1.081c-.068.015-.115.025-.136.032A.341.341,0,0,1,136.1,206.93Z" transform="translate(-135.777 -205.226)" fill="#1a2948"/>
          </g>
          <g id="Grupo_1099746" data-name="Grupo 1099746" transform="translate(25.892 50.022)">
            <path id="Trazado_873826" data-name="Trazado 873826" d="M136.088,211.635a.322.322,0,0,1-.092-.63,8.975,8.975,0,0,0,2.326-1.377.322.322,0,0,1,.406.5,9.438,9.438,0,0,1-2.548,1.5A.334.334,0,0,1,136.088,211.635Z" transform="translate(-135.766 -209.556)" fill="#1a2948"/>
          </g>
        </g>
        <g id="Grupo_1099751" data-name="Grupo 1099751" transform="translate(116.002 16.555)">
          <g id="Grupo_1099748" data-name="Grupo 1099748" transform="translate(0.16)">
            <path id="Trazado_873827" data-name="Trazado 873827" d="M379.233,59.891a.944.944,0,0,1,.962-.986.919.919,0,0,1,.719.314,1.025,1.025,0,0,1,.24.671.961.961,0,1,1-1.921,0Z" transform="translate(-379.233 -58.905)" fill="#1a2948"/>
          </g>
          <g id="Grupo_1099749" data-name="Grupo 1099749" transform="translate(0 5.424)">
            <path id="Trazado_873828" data-name="Trazado 873828" d="M381.624,77.211a.265.265,0,0,1-.266.266h-.911v.911a.266.266,0,0,1-.533,0v-.911H379a.266.266,0,0,1,0-.533h.911v-.914a.266.266,0,0,1,.533,0v.914h.911A.264.264,0,0,1,381.624,77.211Z" transform="translate(-378.736 -75.765)" fill="#1a2948"/>
          </g>
          <g id="Grupo_1099750" data-name="Grupo 1099750" transform="translate(3.881 2.39)">
            <path id="Trazado_873829" data-name="Trazado 873829" d="M393.733,67.843a1.467,1.467,0,1,1-1.468-1.51,1.4,1.4,0,0,1,1.1.48A1.578,1.578,0,0,1,393.733,67.843Z" transform="translate(-390.8 -66.333)" fill="#1a2948"/>
          </g>
        </g>
        <g id="Grupo_1099752" data-name="Grupo 1099752" transform="translate(113.715 2.267)">
          <path id="Trazado_873830" data-name="Trazado 873830" d="M377.321,17.057l1.759-2.568-.086,3.112,2.933-1.044-1.9,2.467,2.986.88-2.986.88,1.9,2.467-2.933-1.044.086,3.112-1.759-2.568-1.76,2.568.086-3.112-2.933,1.044,1.9-2.467-2.986-.88,2.986-.88-1.9-2.467,2.933,1.044-.086-3.112Z" transform="translate(-371.627 -14.489)" fill="#eaac36"/>
        </g>
        <g id="Grupo_1099753" data-name="Grupo 1099753" transform="translate(66.039 52.585)">
          <path id="Trazado_873831" data-name="Trazado 873831" d="M229.12,173.471l1.759-2.568-.086,3.112,2.933-1.044-1.9,2.467,2.986.88-2.986.88,1.9,2.467-2.933-1.044.086,3.112-1.759-2.568-1.76,2.568.086-3.112-2.933,1.044,1.9-2.467-2.986-.88,2.986-.88-1.9-2.467,2.933,1.044-.086-3.112Z" transform="translate(-223.426 -170.903)" fill="#71c4bb"/>
        </g>
        <g id="Grupo_1099757" data-name="Grupo 1099757" transform="translate(79.165 58.158)">
          <g id="Grupo_1099754" data-name="Grupo 1099754" transform="translate(0.16)">
            <path id="Trazado_873832" data-name="Trazado 873832" d="M264.725,189.212a.944.944,0,0,1,.962-.986.919.919,0,0,1,.719.314,1.025,1.025,0,0,1,.24.671.961.961,0,1,1-1.921,0Z" transform="translate(-264.725 -188.226)" fill="#1a2948"/>
          </g>
          <g id="Grupo_1099755" data-name="Grupo 1099755" transform="translate(0 5.424)">
            <path id="Trazado_873833" data-name="Trazado 873833" d="M267.116,206.532a.265.265,0,0,1-.266.266h-.911v.911a.266.266,0,1,1-.533,0V206.8h-.911a.266.266,0,1,1,0-.533h.911v-.914a.266.266,0,1,1,.533,0v.914h.911A.264.264,0,0,1,267.116,206.532Z" transform="translate(-264.228 -205.086)" fill="#1a2948"/>
          </g>
          <g id="Grupo_1099756" data-name="Grupo 1099756" transform="translate(3.881 2.39)">
            <path id="Trazado_873834" data-name="Trazado 873834" d="M279.225,197.164a1.467,1.467,0,1,1-1.468-1.51,1.4,1.4,0,0,1,1.1.479A1.58,1.58,0,0,1,279.225,197.164Z" transform="translate(-276.292 -195.654)" fill="#1a2948"/>
          </g>
        </g>
        <g id="Grupo_1099758" data-name="Grupo 1099758" transform="translate(68.589 12.398)">
          <path id="Trazado_873835" data-name="Trazado 873835" d="M270.532,56.672c1.877,7.719-3.595,15.681-12.228,17.781s-17.151-2.46-19.028-10.179a13,13,0,0,1-.306-4.337,14.593,14.593,0,0,0-7.615-3.143,14.845,14.845,0,0,1,8.988-1.631,16.751,16.751,0,0,1,11.161-8.67C260.137,44.393,268.655,48.953,270.532,56.672Z" transform="translate(-231.355 -45.982)" fill="#71c4bb"/>
        </g>
        <g id="Grupo_1099812" data-name="Grupo 1099812" transform="translate(88.788 29.418)">
          <g id="Grupo_1099759" data-name="Grupo 1099759" transform="translate(7.158 47.498)">
            <path id="Trazado_873836" data-name="Trazado 873836" d="M344.071,308.555a3.33,3.33,0,0,1-1.61.335,13.108,13.108,0,0,1-2.673-.533c-.9-.259-1.537-.518-1.537-.518L335.442,264.4l-11.59,43.97a2.531,2.531,0,0,1-1.692.713,5.8,5.8,0,0,1-2.219-.246,9.449,9.449,0,0,1-1.906-.758,3.954,3.954,0,0,1-1.641-1.4l4.131-25.2s-.644-19.332,1.4-25.363,4.043-7.55,4.043-7.55l.032.009.019.006a7.651,7.651,0,0,0,4.737.243,28.453,28.453,0,0,0,4.018-2.282c1.351,1.038,3.986,2.8,6.29,2.765l.129.142c-.392.253-.748.533-.789.735-.095.461.66.9.66.9s-.688.363-.524.811,1.1.537,1.91.309c0,0-.451.5-.372.811s.767.581,1.645.439,2.411-.331,2.411-.331a4.394,4.394,0,0,0,1.165,2.654,1.131,1.131,0,0,0,.5.274l-.019.063a80.6,80.6,0,0,1-1.815,27l.527,23.673A8.43,8.43,0,0,1,344.071,308.555Z" transform="translate(-316.394 -246.538)" fill="#eaac36"/>
          </g>
          <g id="Grupo_1099760" data-name="Grupo 1099760" transform="translate(23.347 7.089)">
            <path id="Trazado_873837" data-name="Trazado 873837" d="M379.249,129.023c-.145.379-.325.833-.527,1.291a8.449,8.449,0,0,1-1.127,1.969,8.152,8.152,0,0,1-1.55,1.351l0,0a4.866,4.866,0,0,1-3.743.89c-.006,0-.013,0-.019,0a4.866,4.866,0,0,1-2.986-2.43,8.313,8.313,0,0,1-.811-1.891,8.454,8.454,0,0,1-.158-2.26,2.754,2.754,0,0,1-1.272-1.161,2.725,2.725,0,0,1-.259-1.963,1.87,1.87,0,0,1,.492-.915,1.2,1.2,0,0,1,.956-.357.889.889,0,0,1,.758.634,6.192,6.192,0,0,1,.5-1.531l2.3.688a29.468,29.468,0,0,0,3.715-1.515c-.685.912-1.78,2.067-1.78,2.067l1.051.445c1.783-.227,3.655-3.412,3.655-3.412s2.026,2.771,1.338,5.668a.9.9,0,0,1,.922-.2,1.2,1.2,0,0,1,.707.735c.016.044.032.092.044.139l-.436.155a3.486,3.486,0,0,0-1.493,1.708Z" transform="translate(-366.716 -120.925)" fill="#ecb78e"/>
          </g>
          <g id="Grupo_1099761" data-name="Grupo 1099761" transform="translate(18.332 1.34)">
            <path id="Trazado_873838" data-name="Trazado 873838" d="M368.61,105.647a5.016,5.016,0,0,1,2.178.619,2.408,2.408,0,0,1,1.218,1.846c.044.852-.483,1.739-.145,2.525.221.511.748.811,1.108,1.234a3.029,3.029,0,0,1,.577,2.32,9.515,9.515,0,0,1-.723,2.345,2.739,2.739,0,0,0-.265,1.06,4.116,4.116,0,0,0,.505,1.436,5.221,5.221,0,0,1-.631,4.592,1.925,1.925,0,0,1-.849.073c-.477-.054-.934-.227-1.4-.328a2.015,2.015,0,0,0-1.408.114,6.205,6.205,0,0,0-.505-1.676c-.009.559-.019,1.12-.028,1.682a3.393,3.393,0,0,1-1.805.429,3.652,3.652,0,0,0-1.424.028,7.723,7.723,0,0,1,.171-1.445,6.55,6.55,0,0,1,.291-.985l0,0a8.151,8.151,0,0,0,1.55-1.351,8.448,8.448,0,0,0,1.127-1.969,2.705,2.705,0,0,0,1.644-.493,2.733,2.733,0,0,0,1.089-1.657,2.058,2.058,0,0,0,0-.9c-.013-.047-.028-.095-.044-.139a1.2,1.2,0,0,0-.707-.735.9.9,0,0,0-.922.2c.688-2.9-1.338-5.668-1.338-5.668s-1.872,3.185-3.655,3.412l-1.051-.445s1.1-1.155,1.78-2.067a29.438,29.438,0,0,1-3.715,1.515l-2.3-.688a6.192,6.192,0,0,0-.5,1.531.888.888,0,0,0-.758-.634,1.2,1.2,0,0,0-.956.357,1.869,1.869,0,0,0-.492.915,2.723,2.723,0,0,0,.259,1.963,2.752,2.752,0,0,0,1.272,1.161,8.441,8.441,0,0,0,.158,2.26,8.327,8.327,0,0,0,.811,1.891,7.088,7.088,0,0,1-.524,2.124v0c-.041.1-.085.2-.133.306a6.051,6.051,0,0,0-1.06-.776,2.2,2.2,0,0,0-1.361-.287,4.275,4.275,0,0,0,.657-1.67,4.333,4.333,0,0,0-1.3,1.635,3.381,3.381,0,0,0-1.793-.871,6.055,6.055,0,0,1-.76-.117,2.566,2.566,0,0,1-1.323-1.092,2.712,2.712,0,0,0,1.247-2.074c.057-.779-.234-1.546-.221-2.329a3.091,3.091,0,0,1,.716-1.925c.773-.918,2.048-1.348,2.689-2.361.672-1.07.455-2.493,1.007-3.63a2.931,2.931,0,0,1,1.48-1.4c.922-.388,2-.284,2.907-.707a15.748,15.748,0,0,0,1.635-1.117,4.12,4.12,0,0,1,6.022,1.967Z" transform="translate(-351.128 -103.055)" fill="#1a2948"/>
          </g>
          <g id="Grupo_1099762" data-name="Grupo 1099762" transform="translate(35.353 13.429)">
            <path id="Trazado_873839" data-name="Trazado 873839" d="M406.77,141.534a2.7,2.7,0,0,1-2.733,2.15c.2-.458.382-.912.527-1.291l.275.1a3.487,3.487,0,0,1,1.493-1.708l.436-.155A2.059,2.059,0,0,1,406.77,141.534Z" transform="translate(-404.037 -140.635)" fill="#ecb78e"/>
          </g>
          <g id="Grupo_1099763" data-name="Grupo 1099763" transform="translate(31.166 47.671)">
            <path id="Trazado_873840" data-name="Trazado 873840" d="M392.87,249.209c-1.007.3-2.089-.331-1.793-.682a6.422,6.422,0,0,1,3.093-1.449,4.857,4.857,0,0,1,2.276.556c.335.158.653.331.95.5a10.825,10.825,0,0,1,1.878,2.32c.281.41.568.84.846,1.262.865,1.323,1.632,2.566,1.805,2.85a3.59,3.59,0,0,1-3.5,1.846,1.136,1.136,0,0,1-.5-.274,4.392,4.392,0,0,1-1.165-2.654s-1.534.186-2.411.331-1.569-.133-1.645-.439.373-.811.373-.811c-.811.227-1.745.142-1.91-.309s.524-.811.524-.811-.754-.439-.66-.9c.041-.2.4-.483.789-.735C392.292,249.5,392.816,249.238,392.87,249.209Z" transform="translate(-391.021 -247.074)" fill="#ecb78e"/>
          </g>
          <g id="Grupo_1099764" data-name="Grupo 1099764" transform="translate(0 16.519)">
            <path id="Trazado_873841" data-name="Trazado 873841" d="M301.857,150.637c.246.066.388.117.388.117a3.365,3.365,0,0,1,.221,2.033c-.243,1.111-1.537,8.758-1.537,8.758a107.068,107.068,0,0,1,8.38-7.133c2.37-1.54,6.625-.309,6.625-.309a3.763,3.763,0,0,1,1.556,0,4.662,4.662,0,0,1,1.717.716l0,0c-.114.205-.24.417-.382.625.189.581.95,2.56,2.585,3.159,1.919.7,4.99-1.66,4.99-1.66-.022-.164-.035-.325-.041-.48a2.134,2.134,0,0,1,1.679.253s5.441-.615,8.073,2.588,8.926,14.783,9.7,16.32.107,3.175-.922,4.62-8.641,8.695-8.641,8.695l-.035-.06c-.174-.284-.941-1.528-1.805-2.85-.278-.423-.565-.852-.846-1.262l5.526-9.215-6.043-7.211-2.026,9.543a3.5,3.5,0,0,1-.271,4.037l-.013.028a4.857,4.857,0,0,0-2.276-.556,6.424,6.424,0,0,0-3.093,1.449c-.3.35.786.982,1.793.682-.054.028-.577.293-1.051.6l-.129-.142c-2.3.032-4.939-1.727-6.29-2.765a28.45,28.45,0,0,1-4.018,2.282,7.653,7.653,0,0,1-4.737-.243l-.019-.006c-1.01-.357-1.767-.859-1.865-1.373-.243-1.272,1.139-8.4,1.139-8.4a30.061,30.061,0,0,1-1.973-3.071c-.4-.877.439-4.431.439-4.431s-8.885,4.431-10.485,4.431-3.686-.922-3.993-2.942,1.689-13.205,2.105-14.941,1.4-2.089,1.4-2.089a4.539,4.539,0,0,1,.72-.148A9.389,9.389,0,0,1,301.857,150.637Z" transform="translate(-294.142 -150.24)" fill="#7666fa"/>
          </g>
          <g id="Grupo_1099765" data-name="Grupo 1099765" transform="translate(29.938 116.242)">
            <path id="Trazado_873842" data-name="Trazado 873842" d="M393.223,462.7c.088,1.666-.133,3.2-1.887,3.333s-4.012-.243-4.122-2.588a22.063,22.063,0,0,1,.205-3.213,4.059,4.059,0,0,0,2.8,2.907,2.536,2.536,0,0,0,2.9-1.594C393.172,462.048,393.21,462.449,393.223,462.7Z" transform="translate(-387.205 -460.227)" fill="#7666fa"/>
          </g>
          <g id="Grupo_1099766" data-name="Grupo 1099766" transform="translate(30.152 109.316)">
            <path id="Trazado_873843" data-name="Trazado 873843" d="M392.553,438.9c.281,2.077.792,5.952,1.016,8.039a2.536,2.536,0,0,1-2.9,1.594,4.059,4.059,0,0,1-2.8-2.907v0c.287-2.418.76-4.987.76-4.987l-.36-1.935a13.112,13.112,0,0,0,2.673.533A3.325,3.325,0,0,0,392.553,438.9Z" transform="translate(-387.869 -438.7)" fill="#ecb78e"/>
          </g>
          <g id="Grupo_1099767" data-name="Grupo 1099767" transform="translate(25.402 18.258)">
            <path id="Trazado_873844" data-name="Trazado 873844" d="M380.375,157.189a6.647,6.647,0,0,0-.29.985s-2.383,1.872-4.128,1.96c-1.72.088-2.818-2.288-2.853-2.361v0a7.1,7.1,0,0,0,.524-2.124,4.866,4.866,0,0,0,2.986,2.43c.006,0,.013,0,.019,0A4.866,4.866,0,0,0,380.375,157.189Z" transform="translate(-373.103 -155.645)" fill="#1a2948"/>
          </g>
          <g id="Grupo_1099768" data-name="Grupo 1099768" transform="translate(24.685 20.385)">
            <path id="Trazado_873845" data-name="Trazado 873845" d="M378.411,164.617c.006.155.019.316.041.48,0,0-3.071,2.361-4.99,1.66-1.635-.6-2.4-2.578-2.585-3.159.142-.208.268-.42.382-.625.073-.139.142-.278.2-.41.047-.1.092-.208.133-.306.035.073,1.133,2.449,2.853,2.361,1.746-.088,4.128-1.96,4.128-1.96a7.726,7.726,0,0,0-.171,1.445C378.4,164.267,378.4,164.441,378.411,164.617Z" transform="translate(-370.877 -162.256)" fill="#ecb78e"/>
          </g>
          <g id="Grupo_1099769" data-name="Grupo 1099769" transform="translate(7.474 117.166)">
            <path id="Trazado_873846" data-name="Trazado 873846" d="M323.192,463.1a21.723,21.723,0,0,1,.208,3.213c-.11,2.348-2.37,2.721-4.125,2.588s-1.973-1.666-1.884-3.333c.013-.243.051-.644.1-1.152a2.535,2.535,0,0,0,2.894,1.591A4.052,4.052,0,0,0,323.192,463.1Z" transform="translate(-317.375 -463.101)" fill="#7666fa"/>
          </g>
          <g id="Grupo_1099770" data-name="Grupo 1099770" transform="translate(7.595 109.036)">
            <path id="Trazado_873847" data-name="Trazado 873847" d="M323.082,438.832l0,.025-.394,2.112s.474,2.572.758,4.99a4.052,4.052,0,0,1-2.8,2.907,2.535,2.535,0,0,1-2.894-1.591c.309-2.9,1.18-9.267,1.206-9.446a9.485,9.485,0,0,0,1.906.758A5.793,5.793,0,0,0,323.082,438.832Z" transform="translate(-317.751 -437.828)" fill="#ecb78e"/>
          </g>
          <g id="Grupo_1099771" data-name="Grupo 1099771" transform="translate(0.64 7.404)">
            <path id="Trazado_873848" data-name="Trazado 873848" d="M303.244,128.707a3.625,3.625,0,0,1-.038,2.711,9.375,9.375,0,0,0-3.453-.35l.375-1.18s-2.433-1.72-2.806-2.083-.2-1.449-.2-1.449a10.406,10.406,0,0,1-.988-3.071c-.076-1.25.811-1.379.811-1.379h2.3c.133,1.149-1.733,1.139-1.733,1.139l.221.96c.293-.972,1.468-.827,1.468-.827a11.106,11.106,0,0,1,2.544.587c.275.272-.022.862-.022.862s.189,1.622-.35,1.818-.878-.9-.878-.9l-.789.622S302.565,127.672,303.244,128.707Z" transform="translate(-296.132 -121.906)" fill="#ecb78e"/>
          </g>
          <g id="Grupo_1099772" data-name="Grupo 1099772" transform="translate(23.82 10.178)">
            <path id="Trazado_873849" data-name="Trazado 873849" d="M369.1,133.514l-.035,0a.322.322,0,0,1-.285-.355,3.179,3.179,0,0,0-.538-2.125.322.322,0,0,1,.529-.366,3.833,3.833,0,0,1,.649,2.561A.322.322,0,0,1,369.1,133.514Z" transform="translate(-368.185 -130.527)" fill="#1a2948"/>
          </g>
          <g id="Grupo_1099773" data-name="Grupo 1099773" transform="translate(23.66 11.345)">
            <path id="Trazado_873850" data-name="Trazado 873850" d="M368.01,135.57a.317.317,0,0,1-.131-.028.322.322,0,0,1-.162-.425,2.157,2.157,0,0,1,.771-.906.322.322,0,0,1,.354.537,1.507,1.507,0,0,0-.538.632A.322.322,0,0,1,368.01,135.57Z" transform="translate(-367.688 -134.157)" fill="#1a2948"/>
          </g>
          <g id="Grupo_1099774" data-name="Grupo 1099774" transform="translate(35.776 13.261)">
            <path id="Trazado_873851" data-name="Trazado 873851" d="M405.675,142.609a.322.322,0,0,1-.3-.429,3.833,3.833,0,0,1,1.7-2.026.322.322,0,1,1,.318.559,3.183,3.183,0,0,0-1.407,1.681A.322.322,0,0,1,405.675,142.609Z" transform="translate(-405.353 -140.112)" fill="#1a2948"/>
          </g>
          <g id="Grupo_1099775" data-name="Grupo 1099775" transform="translate(36.376 14.099)">
            <path id="Trazado_873852" data-name="Trazado 873852" d="M407.794,144.336h-.009a.322.322,0,0,1-.313-.33,1.507,1.507,0,0,0-.21-.8.322.322,0,1,1,.552-.331,2.151,2.151,0,0,1,.3,1.151A.322.322,0,0,1,407.794,144.336Z" transform="translate(-407.216 -142.715)" fill="#1a2948"/>
          </g>
          <g id="Grupo_1099776" data-name="Grupo 1099776" transform="translate(33.736)">
            <path id="Trazado_873853" data-name="Trazado 873853" d="M401,103.43a.322.322,0,0,1-.318-.373,3.744,3.744,0,0,0-1.536-3.58.322.322,0,0,1,.363-.531,4.358,4.358,0,0,1,1.834,3.089,5.012,5.012,0,0,0,.586-2.634.322.322,0,1,1,.642-.037,5.657,5.657,0,0,1-1.326,3.953A.32.32,0,0,1,401,103.43Z" transform="translate(-399.01 -98.89)" fill="#1a2948"/>
          </g>
          <g id="Grupo_1099777" data-name="Grupo 1099777" transform="translate(35.438 23.576)">
            <path id="Trazado_873854" data-name="Trazado 873854" d="M404.627,178.674a.322.322,0,0,1-.322-.314,9.371,9.371,0,0,1,2.086-6.068.322.322,0,1,1,.5.407,8.715,8.715,0,0,0-1.941,5.645.322.322,0,0,1-.314.329Z" transform="translate(-404.302 -172.174)" fill="#1a2948"/>
          </g>
          <g id="Grupo_1099778" data-name="Grupo 1099778" transform="translate(36.428 32.459)">
            <path id="Trazado_873855" data-name="Trazado 873855" d="M409.454,202.234a.32.32,0,0,1-.231-.1l-1.752-1.8a.322.322,0,1,1,.461-.448l1.752,1.8a.322.322,0,0,1-.231.546Z" transform="translate(-407.38 -199.789)" fill="#1a2948"/>
          </g>
          <g id="Grupo_1099779" data-name="Grupo 1099779" transform="translate(36.065 33.934)">
            <path id="Trazado_873856" data-name="Trazado 873856" d="M408.242,205.8a.319.319,0,0,1-.136-.03l-1.671-.78a.322.322,0,0,1,.272-.583l1.671.78a.322.322,0,0,1-.136.613Z" transform="translate(-406.25 -204.374)" fill="#1a2948"/>
          </g>
          <g id="Grupo_1099780" data-name="Grupo 1099780" transform="translate(17.615 37.35)">
            <path id="Trazado_873857" data-name="Trazado 873857" d="M349.222,217.3a.322.322,0,0,1-.1-.627,33.05,33.05,0,0,1,11.642-1.662.322.322,0,0,1-.024.643,32.367,32.367,0,0,0-11.416,1.629A.328.328,0,0,1,349.222,217.3Z" transform="translate(-348.9 -214.991)" fill="#1a2948"/>
          </g>
          <g id="Grupo_1099781" data-name="Grupo 1099781" transform="translate(21.918 43.879)">
            <path id="Trazado_873858" data-name="Trazado 873858" d="M365.545,239.076a.322.322,0,0,1-.235-.1l-2.951-3.145a.322.322,0,0,1,.469-.44l2.951,3.145a.322.322,0,0,1-.235.542Z" transform="translate(-362.273 -235.288)" fill="#1a2948"/>
          </g>
          <g id="Grupo_1099782" data-name="Grupo 1099782" transform="translate(14.114 26.086)">
            <path id="Trazado_873859" data-name="Trazado 873859" d="M338.339,185.988a.318.318,0,0,1-.063-.006.322.322,0,0,1-.253-.378l1.062-5.368a.322.322,0,0,1,.632.125l-1.062,5.368A.322.322,0,0,1,338.339,185.988Z" transform="translate(-338.017 -179.977)" fill="#1a2948"/>
          </g>
          <g id="Grupo_1099783" data-name="Grupo 1099783" transform="translate(44.838 40.835)">
            <path id="Trazado_873860" data-name="Trazado 873860" d="M433.845,227.056a.322.322,0,0,1-.179-.589c1.279-.852,3.44-.688,4.514-.457a.322.322,0,0,1-.135.629,6.051,6.051,0,0,0-4.023.364A.322.322,0,0,1,433.845,227.056Z" transform="translate(-433.523 -225.824)" fill="#1a2948"/>
          </g>
          <g id="Grupo_1099784" data-name="Grupo 1099784" transform="translate(6.443 27.721)">
            <path id="Trazado_873861" data-name="Trazado 873861" d="M314.5,189.17a.322.322,0,0,1-.322-.321l-.008-3.466a.322.322,0,0,1,.321-.323h0a.322.322,0,0,1,.322.321l.008,3.466a.322.322,0,0,1-.321.323Z" transform="translate(-314.171 -185.061)" fill="#1a2948"/>
          </g>
          <g id="Grupo_1099785" data-name="Grupo 1099785" transform="translate(1.991 9.35)">
            <path id="Trazado_873862" data-name="Trazado 873862" d="M300.652,130.373a.322.322,0,0,1-.274-.489c.4-.65,1.128-1.761,1.553-1.894a5.407,5.407,0,0,1,2.888.525.322.322,0,1,1-.479.429,6.32,6.32,0,0,0-2.217-.339,7.984,7.984,0,0,0-1.2,1.615A.323.323,0,0,1,300.652,130.373Z" transform="translate(-300.331 -127.955)" fill="#1a2948"/>
          </g>
          <g id="Grupo_1099786" data-name="Grupo 1099786" transform="translate(1.927 8.37)">
            <path id="Trazado_873863" data-name="Trazado 873863" d="M300.7,127.126l-.567-.3s.341-.638.493-.943a3.43,3.43,0,0,1,1.268-.939.322.322,0,0,1,.289.575,3.572,3.572,0,0,0-.982.652C301.045,126.478,300.7,127.126,300.7,127.126Z" transform="translate(-300.131 -124.908)" fill="#1a2948"/>
          </g>
          <g id="Grupo_1099787" data-name="Grupo 1099787" transform="translate(1.311 9.021)">
            <path id="Trazado_873864" data-name="Trazado 873864" d="M298.539,130.088h0a.322.322,0,0,1-.319-.324,9.744,9.744,0,0,1,.6-2.623.322.322,0,0,1,.6.226,9.287,9.287,0,0,0-.557,2.4A.322.322,0,0,1,298.539,130.088Z" transform="translate(-298.217 -126.932)" fill="#1a2948"/>
          </g>
          <g id="Grupo_1099788" data-name="Grupo 1099788" transform="translate(23.662 48.187)">
            <path id="Trazado_873865" data-name="Trazado 873865" d="M370.124,256.635H368.67a.322.322,0,0,1-.32-.291L367.7,249.5a.321.321,0,0,1,.289-.351.317.317,0,0,1,.351.29l.624,6.552h.855l.336-7a.322.322,0,0,1,.643.031l-.351,7.312A.321.321,0,0,1,370.124,256.635Z" transform="translate(-367.696 -248.68)" fill="#1a2948"/>
          </g>
          <g id="Grupo_1099789" data-name="Grupo 1099789" transform="translate(26.469 60.918)">
            <path id="Trazado_873866" data-name="Trazado 873866" d="M376.743,292.392a.322.322,0,0,1-.174-.592,36.866,36.866,0,0,1,7.037-3.527.322.322,0,1,1,.225.6,36.236,36.236,0,0,0-6.914,3.465A.319.319,0,0,1,376.743,292.392Z" transform="translate(-376.421 -288.253)" fill="#1a2948"/>
          </g>
          <g id="Grupo_1099790" data-name="Grupo 1099790" transform="translate(19.628 60.644)">
            <path id="Trazado_873867" data-name="Trazado 873867" d="M360.98,291.9a.319.319,0,0,1-.21-.078,32.584,32.584,0,0,0-5.45-3.818.322.322,0,0,1,.313-.562,33.225,33.225,0,0,1,5.557,3.893.321.321,0,0,1-.21.565Z" transform="translate(-355.155 -287.403)" fill="#1a2948"/>
          </g>
          <g id="Grupo_1099791" data-name="Grupo 1099791" transform="translate(19.922 63.906)">
            <path id="Trazado_873868" data-name="Trazado 873868" d="M360.311,298.942a.3.3,0,0,1-.061-.006l-3.92-.756a.322.322,0,1,1,.122-.631l3.92.756a.322.322,0,0,1-.061.637Z" transform="translate(-356.07 -297.542)" fill="#1a2948"/>
          </g>
          <g id="Grupo_1099792" data-name="Grupo 1099792" transform="translate(32.854 52.115)">
            <path id="Trazado_873869" data-name="Trazado 873869" d="M396.59,262.238a.322.322,0,0,1-.065-.637l3.421-.706a.322.322,0,1,1,.13.63l-3.421.706A.325.325,0,0,1,396.59,262.238Z" transform="translate(-396.268 -260.888)" fill="#1a2948"/>
          </g>
          <g id="Grupo_1099793" data-name="Grupo 1099793" transform="translate(31.477 50.551)">
            <path id="Trazado_873870" data-name="Trazado 873870" d="M392.312,257.71a.322.322,0,0,1-.158-.6,8.267,8.267,0,0,1,2.257-.982,4.341,4.341,0,0,1,2.816.339.322.322,0,0,1-.282.578,3.692,3.692,0,0,0-2.4-.288,7.777,7.777,0,0,0-2.079.914A.323.323,0,0,1,392.312,257.71Z" transform="translate(-391.99 -256.028)" fill="#1a2948"/>
          </g>
          <g id="Grupo_1099794" data-name="Grupo 1099794" transform="translate(32.509 48.781)">
            <path id="Trazado_873871" data-name="Trazado 873871" d="M399.649,252.3a.32.32,0,0,1-.206-.075,6.9,6.9,0,0,0-1.026-.757,2.1,2.1,0,0,0-1.1-.3,3.27,3.27,0,0,0-1.612.75.322.322,0,0,1-.369-.527,3.877,3.877,0,0,1,1.945-.865,2.657,2.657,0,0,1,1.45.378,7.342,7.342,0,0,1,1.126.825.322.322,0,0,1-.207.568Z" transform="translate(-395.197 -250.526)" fill="#1a2948"/>
          </g>
          <g id="Grupo_1099795" data-name="Grupo 1099795" transform="translate(25.301 12.807)">
            <path id="Trazado_873872" data-name="Trazado 873872" d="M375.366,139.937c-.127.394-.8.53-1.508.3s-1.175-.732-1.047-1.126.8-.53,1.508-.3S375.493,139.543,375.366,139.937Z" transform="translate(-372.79 -138.701)" fill="#e06f43"/>
          </g>
          <g id="Grupo_1099796" data-name="Grupo 1099796" transform="translate(32.084 14.994)">
            <path id="Trazado_873873" data-name="Trazado 873873" d="M393.9,145.91c-.127.394.342.9,1.047,1.126s1.38.092,1.507-.3-.342-.9-1.047-1.126S394.022,145.516,393.9,145.91Z" transform="translate(-393.874 -145.498)" fill="#e06f43"/>
          </g>
          <g id="Grupo_1099797" data-name="Grupo 1099797" transform="translate(28.596 11.639)">
            <path id="Trazado_873874" data-name="Trazado 873874" d="M384.971,139.176c-.724.3-2.028-.464-1.932-1.2.06-.254.322-.411.554-.564a4.755,4.755,0,0,0,1.879-2.344A2.942,2.942,0,0,1,385,138.2.558.558,0,0,1,384.971,139.176Z" transform="translate(-383.034 -135.071)" fill="#e06f43"/>
          </g>
          <g id="Grupo_1099806" data-name="Grupo 1099806" transform="translate(26.295 9.14)">
            <g id="Grupo_1099798" data-name="Grupo 1099798" transform="translate(0.227)">
              <path id="Trazado_873875" data-name="Trazado 873875" d="M376.585,128.214a3.792,3.792,0,0,1,2.933.38.468.468,0,0,0,.669-.2c.059-.183.011-.428-.333-.723C379.051,126.986,377.013,127.3,376.585,128.214Z" transform="translate(-376.585 -127.3)" fill="#1a2948"/>
            </g>
            <g id="Grupo_1099799" data-name="Grupo 1099799" transform="translate(0.379 1.673)">
              <path id="Trazado_873876" data-name="Trazado 873876" d="M378.43,133.5a.7.7,0,1,1-.418-.975A.754.754,0,0,1,378.43,133.5Z" transform="translate(-377.059 -132.5)" fill="#1a2948"/>
            </g>
            <g id="Grupo_1099801" data-name="Grupo 1099801" transform="translate(0 1.293)">
              <g id="Grupo_1099800" data-name="Grupo 1099800">
                <path id="Trazado_873877" data-name="Trazado 873877" d="M378.872,133.046a.321.321,0,0,1-.271-.149,1.609,1.609,0,0,0-2.28-.735.322.322,0,1,1-.238-.6,2.24,2.24,0,0,1,3.06.986.322.322,0,0,1-.271.5Z" transform="translate(-375.88 -131.318)" fill="#1a2948"/>
              </g>
            </g>
            <g id="Grupo_1099802" data-name="Grupo 1099802" transform="translate(6.351 1.485)">
              <path id="Trazado_873878" data-name="Trazado 873878" d="M398.492,134.467a3.793,3.793,0,0,0-2.465-1.635.468.468,0,0,1-.377-.587c.076-.177.272-.331.725-.328C397.435,131.923,398.771,133.493,398.492,134.467Z" transform="translate(-395.624 -131.917)" fill="#1a2948"/>
            </g>
            <g id="Grupo_1099803" data-name="Grupo 1099803" transform="translate(5.483 3.351)">
              <path id="Trazado_873879" data-name="Trazado 873879" d="M393,138.227a.7.7,0,1,0,.954-.463A.754.754,0,0,0,393,138.227Z" transform="translate(-392.924 -137.715)" fill="#1a2948"/>
            </g>
            <g id="Grupo_1099805" data-name="Grupo 1099805" transform="translate(5.64 3.112)">
              <g id="Grupo_1099804" data-name="Grupo 1099804">
                <path id="Trazado_873880" data-name="Trazado 873880" d="M396.315,138.854a.322.322,0,0,1-.286-.174,1.609,1.609,0,0,0-2.2-.938.322.322,0,1,1-.183-.617,2.239,2.239,0,0,1,2.958,1.26.321.321,0,0,1-.138.433A.318.318,0,0,1,396.315,138.854Z" transform="translate(-393.412 -136.973)" fill="#1a2948"/>
              </g>
            </g>
          </g>
          <g id="Grupo_1099811" data-name="Grupo 1099811" transform="translate(27.323 16.205)">
            <g id="Grupo_1099807" data-name="Grupo 1099807">
              <path id="Trazado_873881" data-name="Trazado 873881" d="M379.083,149.793a1.891,1.891,0,0,0,1.4,1.544l0-.006a1.4,1.4,0,0,1,1.389-.612,2.119,2.119,0,0,1,.939.481,1.855,1.855,0,0,0,.678-.782.462.462,0,0,0-.353-.66l-.084-.014v0c-.027.042-.332.44-1.666.253-1.406-.193-1.7-.719-1.7-.719l-.081-.012A.463.463,0,0,0,379.083,149.793Z" transform="translate(-379.077 -149.265)" fill="#1a2948"/>
            </g>
            <g id="Grupo_1099808" data-name="Grupo 1099808" transform="translate(1.408 1.435)">
              <path id="Trazado_873882" data-name="Trazado 873882" d="M383.457,154.357l0,.006a3.33,3.33,0,0,0,.617.142,2.459,2.459,0,0,0,1.713-.279,2.122,2.122,0,0,0-.939-.481A1.4,1.4,0,0,0,383.457,154.357Z" transform="translate(-383.454 -153.726)" fill="#dc3d3d"/>
            </g>
            <g id="Grupo_1099809" data-name="Grupo 1099809" transform="translate(0.593 0.014)">
              <path id="Trazado_873883" data-name="Trazado 873883" d="M380.92,149.308s.313.529,1.72.722c1.334.188,1.639-.211,1.648-.255Z" transform="translate(-380.92 -149.308)" fill="#fbf5e8"/>
            </g>
            <g id="Grupo_1099810" data-name="Grupo 1099810" transform="translate(3.739 1.935)">
              <path id="Trazado_873884" data-name="Trazado 873884" d="M390.722,155.3a.08.08,0,0,0-.023-.016" transform="translate(-390.699 -155.28)" fill="#dc3d3d"/>
            </g>
          </g>
        </g>
        <g id="Grupo_1099814" data-name="Grupo 1099814" transform="translate(67.258 0)">
          <g id="Grupo_1099813" data-name="Grupo 1099813">
            <path id="Trazado_873885" data-name="Trazado 873885" d="M227.215,26.477a5.463,5.463,0,0,0,4.316-.742c6.193,4.894,18.066,2.482,18.352-7.655.28-13.82-21.629-14.353-22.023-.538a10.216,10.216,0,0,0,1.661,6.033A5.109,5.109,0,0,1,227.215,26.477Z" transform="translate(-227.215 -7.443)" fill="#eaac36"/>
          </g>
        </g>
        <g id="Grupo_1099816" data-name="Grupo 1099816" transform="translate(68.583 28.095)">
          <g id="Grupo_1099815" data-name="Grupo 1099815">
            <path id="Trazado_873886" data-name="Trazado 873886" d="M231.336,96.169a4.472,4.472,0,0,1,3.533.608c5.07-4.006,14.789-2.032,15.024,6.266.229,11.313-17.706,11.749-18.028.44a8.359,8.359,0,0,1,1.36-4.939A4.185,4.185,0,0,0,231.336,96.169Z" transform="translate(-231.336 -94.777)" fill="#7666fa"/>
          </g>
        </g>
        <g id="Grupo_1099820" data-name="Grupo 1099820" transform="translate(83.645 23.614)">
          <g id="Grupo_1099817" data-name="Grupo 1099817">
            <path id="Trazado_873887" data-name="Trazado 873887" d="M280.273,85.208a2.181,2.181,0,0,1,0-4.361,2.026,2.026,0,0,1,1.591.693,2.273,2.273,0,0,1,.527,1.487A2.084,2.084,0,0,1,280.273,85.208Zm0-3.718a1.4,1.4,0,0,0-1.1.469,1.658,1.658,0,0,0-.371,1.069,1.429,1.429,0,0,0,1.474,1.536,1.447,1.447,0,0,0,1.474-1.538,1.655,1.655,0,0,0-.371-1.068A1.4,1.4,0,0,0,280.273,81.49Z" transform="translate(-278.156 -80.847)" fill="#1a2948"/>
          </g>
          <g id="Grupo_1099818" data-name="Grupo 1099818" transform="translate(6.047)">
            <path id="Trazado_873888" data-name="Trazado 873888" d="M299.069,85.208a2.181,2.181,0,0,1,0-4.361,2.025,2.025,0,0,1,1.591.693,2.274,2.274,0,0,1,.526,1.487A2.083,2.083,0,0,1,299.069,85.208Zm0-3.718a1.4,1.4,0,0,0-1.1.469,1.658,1.658,0,0,0-.371,1.069,1.429,1.429,0,0,0,1.474,1.536,1.447,1.447,0,0,0,1.474-1.538,1.653,1.653,0,0,0-.371-1.067A1.4,1.4,0,0,0,299.069,81.49Z" transform="translate(-296.952 -80.847)" fill="#1a2948"/>
          </g>
          <g id="Grupo_1099819" data-name="Grupo 1099819" transform="translate(12.093)">
            <path id="Trazado_873889" data-name="Trazado 873889" d="M317.865,85.208a2.181,2.181,0,0,1,0-4.361,2.026,2.026,0,0,1,1.591.693,2.274,2.274,0,0,1,.526,1.487A2.084,2.084,0,0,1,317.865,85.208Zm0-3.718a1.447,1.447,0,0,0-1.474,1.538,1.656,1.656,0,0,0,.371,1.068,1.4,1.4,0,0,0,1.1.468,1.447,1.447,0,0,0,1.474-1.538A1.43,1.43,0,0,0,317.865,81.49Z" transform="translate(-315.748 -80.847)" fill="#1a2948"/>
          </g>
        </g>
      </g>
    </g>
  </g>
</svg>
