<svg xmlns="http://www.w3.org/2000/svg" xmlns:xlink="http://www.w3.org/1999/xlink" width="399.905" height="272.207" viewBox="0 0 399.905 272.207">
  <defs>
    <clipPath id="clip-path">
      <path id="Trazado_875955" data-name="Trazado 875955" d="M408.362,213.948v92.673H403.8a62.944,62.944,0,0,1-7.509,19.854c-13.443,22.041-38.987,30.3-64.431,28.427a9.727,9.727,0,0,0-7.182,2.355c-14.231,12.655-32.986,14.1-33.665,14.138a47.688,47.688,0,0,0,10.727-9.889,9.94,9.94,0,0,0-3.7-15.227c-18.3-8.372-32.869-22.225-37.328-39.657H244.8V213.948Z" transform="translate(-244.796 -213.948)"/>
    </clipPath>
    <clipPath id="clip-path-3">
      <path id="Trazado_876004" data-name="Trazado 876004" d="M213.881,71.822v55.3h-.1v70.239H153.33V182.682c-6.419.369-12.831.637-19.242,1.031-20.541,1.249-6.671,17.734-1.09,21.941-.754-.143-14.9,1.316-27.623-17.994a6.4,6.4,0,0,0-5.464-2.891q-7.517.138-15.06.193c-12.261-.343-23.935-8.833-26.148-21.245A278.378,278.378,0,0,1,56.3,121.872,28.049,28.049,0,0,1,78.943,96.109c.947-.117,1.9-.243,2.849-.352V66.274H148.67V89.74q9.491-.566,19.007-.981c.251-.017.5-.025.762-.025V71.822Z" transform="translate(-56.26 -66.274)"/>
    </clipPath>
    <clipPath id="clip-path-5">
      <path id="Trazado_876118" data-name="Trazado 876118" d="M596.64,113.582c-2.355,13.585-14.792,23.323-28.075,24.924-13.392,1.148-18.387,2.17-31.763,3.034l-9.487.5a4.317,4.317,0,0,0-3.428,2.012l-7.711,12.311-11.708-11.683a4.3,4.3,0,0,0-3.277-1.257l-5.053.268q-15.035.628-30.1.93c-14.071-.444-27.212-10.417-31-24.036-.838-3.755-1.45-6.8-1.9-9.654H414.426V10.986H566.443V66.851l.662.025c14.741,1.341,28.8,12.588,30.363,27.84A105.447,105.447,0,0,1,596.64,113.582Z" transform="translate(-414.426 -10.986)"/>
    </clipPath>
  </defs>
  <g id="_201007032_10786411" data-name="201007032_10786411" transform="translate(-26.917 -8.794)">
    <g id="OBJECTS" transform="translate(26.917 8.794)">
      <g id="Grupo_1101219" data-name="Grupo 1101219" transform="translate(234.24 56.03)">
        <g id="Grupo_1101218" data-name="Grupo 1101218">
          <path id="Trazado_875939" data-name="Trazado 875939" d="M610.4,156.751c-2.355,13.585-14.792,23.323-28.075,24.924-13.392,1.148-18.387,2.17-31.763,3.034l-9.487.5a4.317,4.317,0,0,0-3.428,2.012l-7.711,12.311-11.708-11.683a4.3,4.3,0,0,0-3.277-1.257l-5.053.269q-15.035.628-30.1.93c-14.071-.444-27.212-10.417-31-24.036a108.919,108.919,0,0,1-3.143-24.681c.721-15.839,15.27-27.64,30.363-29.031,37.78-1.45,67.062-1.45,104.842,0,14.741,1.341,28.8,12.588,30.363,27.84A105.434,105.434,0,0,1,610.4,156.751Z" transform="translate(-445.664 -108.959)" fill="#edba59"/>
        </g>
      </g>
      <g id="Grupo_1101223" data-name="Grupo 1101223" transform="translate(360.007 15.961)">
        <g id="Grupo_1101220" data-name="Grupo 1101220" transform="translate(0.373)">
          <path id="Trazado_875940" data-name="Trazado 875940" d="M671.162,39.629a2.2,2.2,0,0,1,2.246-2.3,2.145,2.145,0,0,1,1.68.734,2.393,2.393,0,0,1,.56,1.567,2.244,2.244,0,1,1-4.486,0Z" transform="translate(-671.162 -37.327)" fill="#1a2948"/>
        </g>
        <g id="Grupo_1101221" data-name="Grupo 1101221" transform="translate(0 12.666)">
          <path id="Trazado_875941" data-name="Trazado 875941" d="M677.239,63.348a.62.62,0,0,1-.622.622h-2.127V66.1a.622.622,0,0,1-1.244,0V63.97h-2.127a.622.622,0,0,1,0-1.244h2.127V60.592a.622.622,0,0,1,1.244,0v2.134h2.127A.616.616,0,0,1,677.239,63.348Z" transform="translate(-670.496 -59.97)" fill="#1a2948"/>
        </g>
        <g id="Grupo_1101222" data-name="Grupo 1101222" transform="translate(9.063 5.58)">
          <path id="Trazado_875942" data-name="Trazado 875942" d="M693.547,50.83a3.426,3.426,0,1,1-3.428-3.527,3.268,3.268,0,0,1,2.575,1.12A3.69,3.69,0,0,1,693.547,50.83Z" transform="translate(-686.697 -47.303)" fill="#1a2948"/>
        </g>
      </g>
      <g id="Grupo_1101224" data-name="Grupo 1101224" transform="translate(362.08 44.655)">
        <path id="Trazado_875943" data-name="Trazado 875943" d="M693.115,97.154l5.844-8.531-.286,10.337,9.742-3.466-6.307,8.194,9.919,2.922-9.919,2.922,6.307,8.194-9.742-3.466.286,10.337-5.844-8.531L687.27,124.6l.286-10.337-9.743,3.466,6.308-8.194-9.92-2.922,9.92-2.922-6.308-8.194,9.743,3.466-.286-10.337Z" transform="translate(-674.202 -88.623)" fill="#7666fa"/>
      </g>
      <g id="Grupo_1101228" data-name="Grupo 1101228" transform="translate(69.099 236.965)">
        <g id="Grupo_1101225" data-name="Grupo 1101225" transform="translate(0.373)">
          <path id="Trazado_875944" data-name="Trazado 875944" d="M151.11,434.715a2.2,2.2,0,0,1,2.246-2.3,2.145,2.145,0,0,1,1.68.734,2.392,2.392,0,0,1,.56,1.567,2.244,2.244,0,1,1-4.486,0Z" transform="translate(-151.11 -432.413)" fill="#1a2948"/>
        </g>
        <g id="Grupo_1101226" data-name="Grupo 1101226" transform="translate(0 12.666)">
          <path id="Trazado_875945" data-name="Trazado 875945" d="M157.187,458.434a.62.62,0,0,1-.622.622h-2.127v2.127a.622.622,0,0,1-1.244,0v-2.127h-2.127a.622.622,0,1,1,0-1.244h2.127v-2.134a.622.622,0,0,1,1.244,0v2.134h2.127A.616.616,0,0,1,157.187,458.434Z" transform="translate(-150.444 -455.056)" fill="#1a2948"/>
        </g>
        <g id="Grupo_1101227" data-name="Grupo 1101227" transform="translate(9.063 5.58)">
          <path id="Trazado_875946" data-name="Trazado 875946" d="M173.5,445.915a3.426,3.426,0,1,1-3.428-3.527,3.27,3.27,0,0,1,2.575,1.12A3.692,3.692,0,0,1,173.5,445.915Z" transform="translate(-166.646 -442.388)" fill="#1a2948"/>
        </g>
      </g>
      <g id="Grupo_1101229" data-name="Grupo 1101229" transform="translate(101.533 216.717)">
        <path id="Trazado_875947" data-name="Trazado 875947" d="M229.164,405.569l6.408-9.353-.314,11.334,10.683-3.8-6.916,8.985,10.876,3.2-10.876,3.2,6.916,8.985-10.683-3.8.314,11.334-6.408-9.353-6.408,9.353.314-11.334-10.682,3.8,6.915-8.985-10.876-3.2,10.876-3.2-6.915-8.985,10.682,3.8-.314-11.334Z" transform="translate(-208.427 -396.216)" fill="#eaac36"/>
      </g>
      <g id="Grupo_1101230" data-name="Grupo 1101230" transform="translate(271.767 151.541)">
        <path id="Trazado_875948" data-name="Trazado 875948" d="M515.564,282.916a.559.559,0,0,1-.381-.15l-2.253-2.1a.559.559,0,1,1,.761-.819l2.253,2.1a.56.56,0,0,1-.38.969Z" transform="translate(-512.751 -279.702)" fill="#1a2948"/>
      </g>
      <g id="Grupo_1101236" data-name="Grupo 1101236" transform="translate(126.989)">
        <g id="Grupo_1101231" data-name="Grupo 1101231" transform="translate(0 26.154)">
          <path id="Trazado_875949" data-name="Trazado 875949" d="M254.493,57.647a.56.56,0,0,1-.032-1.118l16.859-.979a.56.56,0,0,1,.065,1.118l-16.859.979Z" transform="translate(-253.933 -55.549)" fill="#1a2948"/>
        </g>
        <g id="Grupo_1101232" data-name="Grupo 1101232" transform="translate(5.29 13.156)">
          <path id="Trazado_875950" data-name="Trazado 875950" d="M278.741,38.713a.552.552,0,0,1-.188-.033L263.762,33.4a.559.559,0,0,1,.376-1.053l14.792,5.281a.559.559,0,0,1-.189,1.086Z" transform="translate(-263.39 -32.313)" fill="#1a2948"/>
        </g>
        <g id="Grupo_1101233" data-name="Grupo 1101233" transform="translate(10.1 0.494)">
          <path id="Trazado_875951" data-name="Trazado 875951" d="M285.052,22.523a.557.557,0,0,1-.383-.152l-12.5-11.727a.56.56,0,1,1,.766-.816l12.5,11.727a.56.56,0,0,1-.383.968Z" transform="translate(-271.989 -9.678)" fill="#1a2948"/>
        </g>
        <g id="Grupo_1101234" data-name="Grupo 1101234" transform="translate(22.919)">
          <path id="Trazado_875952" data-name="Trazado 875952" d="M298.084,16.944a.56.56,0,0,1-.524-.364l-2.619-7.03a.559.559,0,0,1,1.048-.39l2.619,7.03a.559.559,0,0,1-.524.755Z" transform="translate(-294.906 -8.794)" fill="#1a2948"/>
        </g>
        <g id="Grupo_1101235" data-name="Grupo 1101235" transform="translate(9.522 30.894)">
          <path id="Trazado_875953" data-name="Trazado 875953" d="M271.514,67.581a.559.559,0,0,1-.173-1.091l7.505-2.438a.559.559,0,0,1,.346,1.064l-7.505,2.438A.563.563,0,0,1,271.514,67.581Z" transform="translate(-270.955 -64.024)" fill="#1a2948"/>
        </g>
      </g>
      <g id="Grupo_1101283" data-name="Grupo 1101283" transform="translate(121.878 114.759)">
        <g id="Grupo_1101237" data-name="Grupo 1101237" clip-path="url(#clip-path)">
          <path id="Trazado_875954" data-name="Trazado 875954" d="M343.292,373.9a9.764,9.764,0,0,0-7.185,2.354c-14.226,12.658-32.984,14.095-33.663,14.145a47.794,47.794,0,0,0,10.73-9.893,9.944,9.944,0,0,0-3.7-15.228c-30.717-14.052-50.94-43.57-30.431-79.508,37.819-61.972,171.339-15.062,128.679,59.707C394.277,367.512,368.732,375.775,343.292,373.9Z" transform="translate(-256.225 -232.947)" fill="#85d2d0"/>
        </g>
        <g id="Grupo_1101282" data-name="Grupo 1101282" clip-path="url(#clip-path)">
          <g id="Grupo_1101238" data-name="Grupo 1101238" transform="translate(56.359 53.69)">
            <path id="Trazado_875956" data-name="Trazado 875956" d="M434.779,347.705s-2.933,2.615-6.177,4.995v.008a28.655,28.655,0,0,1-5.867,3.545c-2.866,1.081-8.372.017-11.624-.779l1.618,4.911,1.123,3.428-.939,3.419-1.827,6.646a26.132,26.132,0,0,1,8.632,9.923,45.947,45.947,0,0,1,2.8,6.428c.092.26.184.528.276.8a68.482,68.482,0,0,1,2.154,8.029c.486,2.28.855,4.525,1.132,6.638a100.684,100.684,0,0,1,.93,14.164H354.869c-.084-1.835-.076-3.88.017-6.068.092-2.112.251-4.358.478-6.688.671-7.191,1.894-15.169,3.168-22.376.411-2.313.821-4.542,1.223-6.638.436-2.238.846-4.325,1.232-6.2.545-2.656,1.023-4.9,1.383-6.554.436-1.97.7-3.1.7-3.1a16.362,16.362,0,0,1-1.056-1.844,66.314,66.314,0,0,1-3.26-8.641,25.433,25.433,0,0,1-10.87-5.431,24.707,24.707,0,0,1-2.321-2.17c0-.008,0-.008-.008-.008s.964-2.581,2.405-6.185c1.9-4.786,4.651-11.39,7.107-16.167a24.164,24.164,0,0,1,3.578-5.623c.092-.076.176-.151.26-.218,4.006-3.1,17.247-3.5,17.247-3.5a6.02,6.02,0,0,1,4.434.461,18.047,18.047,0,0,1-.905,3.352,7.041,7.041,0,0,0,5.54,5.431c4.944,1.24,12.722-10.434,12.722-10.434-.1-.427-.2-.855-.293-1.282a6.4,6.4,0,0,1,4.978,1.391s11.465-.234,16.686,3.956c.017.008.025.025.042.042a12.193,12.193,0,0,1,2.221,2.715c.545.83,1.106,1.785,1.684,2.833a190.571,190.571,0,0,1,8.7,19.385c1.073,2.732,1.919,4.978,2.405,6.261C434.628,347.295,434.779,347.705,434.779,347.705Z" transform="translate(-345.549 -309.928)" fill="#7666fa"/>
          </g>
          <g id="Grupo_1101239" data-name="Grupo 1101239" transform="translate(65.872 59.126)">
            <path id="Trazado_875957" data-name="Trazado 875957" d="M430.749,325.194a90.936,90.936,0,0,1-32.534,9.763c-12.73,1.324-26.081-.612-35.66-8.892a24.163,24.163,0,0,1,3.578-5.623c9.076,8.682,23.474,9.21,35.383,7.392a83.758,83.758,0,0,0,25.327-8.188,12.191,12.191,0,0,1,2.221,2.715C429.609,323.191,430.171,324.147,430.749,325.194Z" transform="translate(-362.555 -319.646)" fill="#938bfa"/>
          </g>
          <g id="Grupo_1101240" data-name="Grupo 1101240" transform="translate(56.361 81.711)">
            <path id="Trazado_875958" data-name="Trazado 875958" d="M434.361,368.629a130.315,130.315,0,0,1-88.8-2.414c0-.008,0-.008-.008-.008s.964-2.581,2.405-6.185a123.652,123.652,0,0,0,84,2.347C433.029,365.1,433.875,367.347,434.361,368.629Z" transform="translate(-345.551 -360.022)" fill="#938bfa"/>
          </g>
          <g id="Grupo_1101241" data-name="Grupo 1101241" transform="translate(71.798 104.147)">
            <path id="Trazado_875959" data-name="Trazado 875959" d="M426.013,403.558l-.939,3.419a186.409,186.409,0,0,1-51.927,4.651c.545-2.656,1.023-4.9,1.383-6.554a178.647,178.647,0,0,0,50.359-4.945Z" transform="translate(-373.148 -400.13)" fill="#938bfa"/>
          </g>
          <g id="Grupo_1101242" data-name="Grupo 1101242" transform="translate(69.342 121.847)">
            <path id="Trazado_875960" data-name="Trazado 875960" d="M432.745,443.916a160.71,160.71,0,0,1-63.987-5.506c.411-2.313.821-4.542,1.223-6.638a154.344,154.344,0,0,0,59.964,5.716A45.919,45.919,0,0,1,432.745,443.916Z" transform="translate(-368.758 -431.772)" fill="#938bfa"/>
          </g>
          <g id="Grupo_1101243" data-name="Grupo 1101243" transform="translate(65.697 142.815)">
            <path id="Trazado_875961" data-name="Trazado 875961" d="M433.435,475.895a239.54,239.54,0,0,1-71.194,8.1c.092-2.112.251-4.358.478-6.688a234.225,234.225,0,0,0,69.585-8.046C432.79,471.536,433.158,473.782,433.435,475.895Z" transform="translate(-362.241 -469.257)" fill="#938bfa"/>
          </g>
          <g id="Grupo_1101244" data-name="Grupo 1101244" transform="translate(80.399 2.874)">
            <path id="Trazado_875962" data-name="Trazado 875962" d="M396.274,223.167a16.165,16.165,0,0,1,23.684,2.4c2.288,3.059,3.654,7.09,7.015,8.917,4.626,2.514,11.129-.276,15.244,3.017,2.313,1.852,3.084,5.112,5.288,7.1,1.81,1.626,4.325,2.162,6.738,2.464s4.9.436,7.1,1.458c2.037.947,3.8,2.9,3.864,5.1a23.7,23.7,0,0,0-8.791,9.168,7.636,7.636,0,0,1-1.09,1.718,2.162,2.162,0,0,1-1.81.754c-1.265-.193-1.944-1.81-3.21-1.961.737,1.819,1.475,3.646,2.212,5.464-2.246-.57-4.584.729-6.177,2.422s-2.707,3.78-4.274,5.489a10.26,10.26,0,0,1-1.559,1.383,12.225,12.225,0,0,0-2.263-2.757c-5.221-4.19-16.686-3.956-16.686-3.956a6.4,6.4,0,0,0-4.978-1.391,63.512,63.512,0,0,1-1.458-10.954,7.928,7.928,0,0,0,3.7-1.24,9.193,9.193,0,0,0,3.771-5.246,7.247,7.247,0,0,0-.21-4.853,4.657,4.657,0,0,0-3.8-2.8,3.6,3.6,0,0,0-3.336,1.911c-15.387-5.866-13.109-16.046-13.109-16.046-6.034,1.064-10.281,2.9-11.3,3.609-.268.536-.57,1.131-.855,1.751-.05-.143-.092-.293-.134-.436a35.646,35.646,0,0,1-1.232-5.917,7.089,7.089,0,0,1,.21-3.411,5.213,5.213,0,0,1,3.7-2.908A12.431,12.431,0,0,1,396.274,223.167Z" transform="translate(-388.525 -219.085)" fill="#eaac36"/>
          </g>
          <g id="Grupo_1101245" data-name="Grupo 1101245" transform="translate(121.923 96.47)">
            <path id="Trazado_875963" data-name="Trazado 875963" d="M465.5,397.511l-2.74-8.339c3.252.8,8.758,1.86,11.624.779a28.69,28.69,0,0,0,5.866-3.545l10.677,38.317H474.447Z" transform="translate(-462.756 -386.407)" fill="#ecb78e"/>
          </g>
          <g id="Grupo_1101246" data-name="Grupo 1101246" transform="translate(78.396 14.51)">
            <path id="Trazado_875964" data-name="Trazado 875964" d="M413.544,268.16a7.008,7.008,0,0,1-1.391-.017c-.185-.025-.36-.05-.545-.084-2.481,5.305-8.5,8.507-13.518,8.682a11.591,11.591,0,0,1-1.433-.034c-5.314-.478-10.283-8.774-11.456-13.845s2-7.576,2-7.576a43.98,43.98,0,0,1-.143-6,14.52,14.52,0,0,1,1.358-4.039c.285-.62.587-1.215.855-1.751,1.014-.7,5.262-2.545,11.3-3.609,0,0-2.278,10.18,13.109,16.046a3.6,3.6,0,0,1,3.336-1.911,4.657,4.657,0,0,1,3.8,2.8,7.246,7.246,0,0,1,.21,4.853,9.2,9.2,0,0,1-3.771,5.246A7.923,7.923,0,0,1,413.544,268.16Z" transform="translate(-384.943 -239.887)" fill="#ecb78e"/>
          </g>
          <g id="Grupo_1101247" data-name="Grupo 1101247" transform="translate(90.486 42.768)">
            <path id="Trazado_875965" data-name="Trazado 875965" d="M424.525,301.372c.092.427.193.855.293,1.282,0,0-7.777,11.674-12.722,10.434a7.041,7.041,0,0,1-5.54-5.431,18.049,18.049,0,0,0,.905-3.352c.05-.276.092-.553.126-.838a5.174,5.174,0,0,0,3.243.159,10.458,10.458,0,0,0,4.609-3.176,29.944,29.944,0,0,0,6.235-10.048,7.009,7.009,0,0,0,1.391.017A63.514,63.514,0,0,0,424.525,301.372Z" transform="translate(-406.557 -290.403)" fill="#ecb78e"/>
          </g>
          <g id="Grupo_1101248" data-name="Grupo 1101248" transform="translate(91.518 42.683)">
            <path id="Trazado_875966" data-name="Trazado 875966" d="M421.944,290.251c.185.034.36.059.545.084a29.928,29.928,0,0,1-6.235,10.048,10.458,10.458,0,0,1-4.609,3.176,5.17,5.17,0,0,1-3.243-.159,18.087,18.087,0,0,0,.025-4.467C413.446,298.758,419.463,295.556,421.944,290.251Z" transform="translate(-408.401 -290.251)" fill="#1a2948"/>
          </g>
          <g id="Grupo_1101249" data-name="Grupo 1101249" transform="translate(2.373 63.256)">
            <path id="Trazado_875967" data-name="Trazado 875967" d="M316.225,359.28a66.338,66.338,0,0,0,3.26,8.641s-8.448,13.459-11.18,15.027-7.811.813-9.73-.872-21.722-35.182-21.722-35.182L265.9,342.645l-7.509-1.517s-6.7-2.212-8.33-3.494.352-1.626.352-1.626c-1.4-.495-1.894-2.07-.7-2.506a6.2,6.2,0,0,1,3.092.117,3,3,0,0,1-1.165-1.517c-.235-.905,1.542-1.425,2.732-1.223s8.448,4.953,8.448,4.953l-.469-2.212s-4.836-2.447-4.014-3.729,3.494-.352,3.494-.352.084-2.447,1.567-2.506,1.869,3.268,1.869,3.268a35.522,35.522,0,0,1,7.744,1.274c3.143,1.056,10.484,10.2,10.484,10.2s16.8,17.247,17.675,18.4a.06.06,0,0,0,.034.059c.017.008.017-.008-.034-.059-.059-.528,2.74-4.375,4.19-6.327A25.427,25.427,0,0,0,316.225,359.28Z" transform="translate(-249.038 -327.031)" fill="#ecb78e"/>
          </g>
          <g id="Grupo_1101250" data-name="Grupo 1101250" transform="translate(54.5 96.403)">
            <path id="Trazado_875968" data-name="Trazado 875968" d="M342.225,386.286c.05.05.05.067.034.059A.06.06,0,0,1,342.225,386.286Z" transform="translate(-342.225 -386.286)" fill="#1a2948"/>
          </g>
          <g id="Grupo_1101251" data-name="Grupo 1101251" transform="translate(107.525 30.868)">
            <path id="Trazado_875969" data-name="Trazado 875969" d="M437.934,278.595a.56.56,0,0,1-.532-.387,7.876,7.876,0,0,1,3.1-8.981.559.559,0,0,1,.623.929,6.759,6.759,0,0,0-2.662,7.707.559.559,0,0,1-.359.705A.572.572,0,0,1,437.934,278.595Z" transform="translate(-437.018 -269.131)" fill="#1a2948"/>
          </g>
          <g id="Grupo_1101252" data-name="Grupo 1101252" transform="translate(108.184 34.131)">
            <path id="Trazado_875970" data-name="Trazado 875970" d="M441.319,279.609a.56.56,0,0,1-.539-.413,5.644,5.644,0,0,0-2.33-3.2.559.559,0,0,1,.612-.936,6.772,6.772,0,0,1,2.8,3.849.56.56,0,0,1-.393.686A.577.577,0,0,1,441.319,279.609Z" transform="translate(-438.196 -274.964)" fill="#1a2948"/>
          </g>
          <g id="Grupo_1101253" data-name="Grupo 1101253" transform="translate(84.566 27.914)">
            <path id="Trazado_875971" data-name="Trazado 875971" d="M398.95,263.85s.137,3.721-1.176,6.02-2.626,2.409-1.149,3.913,4.474,1.286,5.062.383a1.779,1.779,0,0,0-1.45-2.435S401.3,266.847,398.95,263.85Z" transform="translate(-395.973 -263.85)" fill="#e06f43"/>
          </g>
          <g id="Grupo_1101254" data-name="Grupo 1101254" transform="translate(78.897 23.386)">
            <path id="Trazado_875972" data-name="Trazado 875972" d="M385.839,259.983a5.264,5.264,0,0,1,5.2-1.408c.521.128,1.033-.364,1.031-1.027a1.756,1.756,0,0,0-.964-1.533C389.36,254.946,386.063,257.354,385.839,259.983Z" transform="translate(-385.839 -255.755)" fill="#1a2948"/>
          </g>
          <g id="Grupo_1101255" data-name="Grupo 1101255" transform="translate(90.975 23.372)">
            <path id="Trazado_875973" data-name="Trazado 875973" d="M416.543,259.957s-2.744-2.221-7.6-1.408a1.223,1.223,0,0,1-1.508-1.027c0-.5.315-1.075,1.41-1.533C411.393,254.92,416.216,257.328,416.543,259.957Z" transform="translate(-407.431 -255.729)" fill="#1a2948"/>
          </g>
          <g id="Grupo_1101256" data-name="Grupo 1101256" transform="translate(92.483 32.604)">
            <ellipse id="Elipse_11552" data-name="Elipse 11552" cx="3.776" cy="2.143" rx="3.776" ry="2.143" fill="#e06f43"/>
          </g>
          <g id="Grupo_1101257" data-name="Grupo 1101257" transform="translate(91.595 27.914)">
            <path id="Trazado_875974" data-name="Trazado 875974" d="M411.929,265.8a1.711,1.711,0,1,1-1.695-1.946A1.833,1.833,0,0,1,411.929,265.8Z" transform="translate(-408.539 -263.85)" fill="#1a2948"/>
          </g>
          <g id="Grupo_1101259" data-name="Grupo 1101259" transform="translate(90.288 27.186)">
            <g id="Grupo_1101258" data-name="Grupo 1101258">
              <path id="Trazado_875975" data-name="Trazado 875975" d="M406.763,265.053a.559.559,0,0,1-.356-.99c2.326-1.923,4.5-2.015,6.81-.277l.794-.606a.559.559,0,0,1,.678.889l-1.139.869a.561.561,0,0,1-.7-.013c-2.036-1.684-3.7-1.684-5.735,0A.564.564,0,0,1,406.763,265.053Z" transform="translate(-406.203 -262.547)" fill="#1a2948"/>
            </g>
          </g>
          <g id="Grupo_1101260" data-name="Grupo 1101260" transform="translate(80.031 27.914)">
            <path id="Trazado_875976" data-name="Trazado 875976" d="M387.866,265.8a1.711,1.711,0,1,0,1.695-1.946A1.833,1.833,0,0,0,387.866,265.8Z" transform="translate(-387.866 -263.85)" fill="#1a2948"/>
          </g>
          <g id="Grupo_1101262" data-name="Grupo 1101262" transform="translate(77.072 27.185)">
            <g id="Grupo_1101261" data-name="Grupo 1101261">
              <path id="Trazado_875977" data-name="Trazado 875977" d="M390.723,265.052a.557.557,0,0,1-.356-.128c-2.038-1.684-3.7-1.684-5.735,0a.56.56,0,0,1-.7.013l-1.138-.869a.559.559,0,1,1,.678-.889l.793.606c2.311-1.739,4.485-1.645,6.81.277a.56.56,0,0,1-.356.991Z" transform="translate(-382.577 -262.547)" fill="#1a2948"/>
            </g>
          </g>
          <g id="Grupo_1101268" data-name="Grupo 1101268" transform="translate(86.42 38.811)">
            <g id="Grupo_1101267" data-name="Grupo 1101267">
              <g id="XMLID_00000162343777747230770580000006684948962310064768_">
                <g id="Grupo_1101266" data-name="Grupo 1101266">
                  <g id="Grupo_1101263" data-name="Grupo 1101263" transform="translate(4.154 2.887)">
                    <path id="Trazado_875978" data-name="Trazado 875978" d="M408.068,290.686a7.421,7.421,0,0,1-1.354.2v-.017a3.02,3.02,0,0,1,2.311-2.32,4.558,4.558,0,0,1,2.268.237A5.355,5.355,0,0,1,408.068,290.686Z" transform="translate(-406.714 -288.49)" fill="#dc3d3d"/>
                  </g>
                  <g id="Grupo_1101264" data-name="Grupo 1101264" transform="translate(0.946 0.073)">
                    <path id="Trazado_875979" data-name="Trazado 875979" d="M408.107,283.459s-.167,1.108-3.147,1.82-3.982-.123-3.982-.123Z" transform="translate(-400.979 -283.459)" fill="#fbf5e8"/>
                  </g>
                  <g id="Grupo_1101265" data-name="Grupo 1101265">
                    <path id="Trazado_875980" data-name="Trazado 875980" d="M404.216,285.221c2.98-.712,3.147-1.82,3.147-1.82l.185-.044a1,1,0,0,1,1.222,1.054,4.02,4.02,0,0,1-.747,2.1,4.558,4.558,0,0,0-2.268-.237,3.02,3.02,0,0,0-2.311,2.32v.017a4.072,4.072,0,0,1-4.017-2.013.988.988,0,0,1,.633-1.459l.176-.044S401.245,285.924,404.216,285.221Z" transform="translate(-399.288 -283.329)" fill="#1a2948"/>
                  </g>
                </g>
              </g>
            </g>
          </g>
          <g id="Grupo_1101269" data-name="Grupo 1101269" transform="translate(54.294 96.146)">
            <path id="Trazado_875981" data-name="Trazado 875981" d="M348.174,395a.559.559,0,0,1-.517-.346,21.376,21.376,0,0,0-5.609-7.845.559.559,0,1,1,.738-.84,22.5,22.5,0,0,1,5.905,8.259.559.559,0,0,1-.3.731A.579.579,0,0,1,348.174,395Z" transform="translate(-341.857 -385.827)" fill="#1a2948"/>
          </g>
          <g id="Grupo_1101270" data-name="Grupo 1101270" transform="translate(69.007 71.623)">
            <path id="Trazado_875982" data-name="Trazado 875982" d="M368.719,366.111h-.037a.56.56,0,0,1-.521-.6,87.3,87.3,0,0,1,4.751-23.152.559.559,0,0,1,1.055.371,86.142,86.142,0,0,0-4.69,22.855A.559.559,0,0,1,368.719,366.111Z" transform="translate(-368.159 -341.988)" fill="#1a2948"/>
          </g>
          <g id="Grupo_1101271" data-name="Grupo 1101271" transform="translate(68.796 71.961)">
            <path id="Trazado_875983" data-name="Trazado 875983" d="M368.627,350.545a.559.559,0,0,1-.558-.536l-.287-6.835a.559.559,0,1,1,1.118-.047l.287,6.835a.559.559,0,0,1-.535.582Z" transform="translate(-367.781 -342.591)" fill="#1a2948"/>
          </g>
          <g id="Grupo_1101272" data-name="Grupo 1101272" transform="translate(18.037 65.966)">
            <path id="Trazado_875984" data-name="Trazado 875984" d="M291.054,342.406a.558.558,0,0,1-.455-.234c-2.066-2.885-9.125-3.182-9.2-3.184a.558.558,0,0,1-.342-.133l-3.184-2.716a.561.561,0,0,1-.186-.318l-.639-3.277a.559.559,0,1,1,1.1-.214l.6,3.086,2.89,2.466c1.237.069,7.669.571,9.867,3.642a.557.557,0,0,1-.454.884Z" transform="translate(-277.041 -331.875)" fill="#1a2948"/>
          </g>
          <g id="Grupo_1101273" data-name="Grupo 1101273" transform="translate(14.602 65.204)">
            <path id="Trazado_875985" data-name="Trazado 875985" d="M272.447,337.925a.56.56,0,0,1-.533-.39,37.215,37.215,0,0,1-1.014-6.422.559.559,0,0,1,1.115-.083,36.94,36.94,0,0,0,.964,6.166.559.559,0,0,1-.364.7A.576.576,0,0,1,272.447,337.925Z" transform="translate(-270.899 -330.513)" fill="#1a2948"/>
          </g>
          <g id="Grupo_1101274" data-name="Grupo 1101274" transform="translate(5.576 69.285)">
            <path id="Trazado_875986" data-name="Trazado 875986" d="M264.843,344.71a.554.554,0,0,1-.29-.082l-9.521-5.783a.559.559,0,1,1,.581-.956l9.521,5.783a.56.56,0,0,1-.291,1.038Z" transform="translate(-254.763 -337.808)" fill="#1a2948"/>
          </g>
          <g id="Grupo_1101275" data-name="Grupo 1101275" transform="translate(3.187 71.674)">
            <path id="Trazado_875987" data-name="Trazado 875987" d="M261.339,347.446a.553.553,0,0,1-.213-.043l-10.286-4.249a.559.559,0,1,1,.427-1.034l10.286,4.249a.559.559,0,0,1-.214,1.076Z" transform="translate(-250.494 -342.078)" fill="#1a2948"/>
          </g>
          <g id="Grupo_1101276" data-name="Grupo 1101276" transform="translate(94.924 14.061)">
            <path id="Trazado_875988" data-name="Trazado 875988" d="M422.993,246.726a.568.568,0,0,1-.087-.007,10.828,10.828,0,0,1-8.381-6.883.56.56,0,0,1,1.051-.384,9.823,9.823,0,0,0,7.5,6.162.559.559,0,0,1-.086,1.112Z" transform="translate(-414.491 -239.084)" fill="#1a2948"/>
          </g>
          <g id="Grupo_1101277" data-name="Grupo 1101277" transform="translate(98.635 14.171)">
            <path id="Trazado_875989" data-name="Trazado 875989" d="M426.916,241.54a13.089,13.089,0,0,1-5.466-1.192.559.559,0,0,1,.469-1.016,11.953,11.953,0,0,0,7.218.879.56.56,0,1,1,.211,1.1A12.849,12.849,0,0,1,426.916,241.54Z" transform="translate(-421.124 -239.281)" fill="#1a2948"/>
          </g>
          <g id="Grupo_1101278" data-name="Grupo 1101278" transform="translate(144.556 39.043)">
            <path id="Trazado_875990" data-name="Trazado 875990" d="M508.718,288.365a.558.558,0,0,1-.323-.1l-4.943-3.5a.56.56,0,1,1,.647-.913l4.943,3.5a.56.56,0,0,1-.324,1.016Z" transform="translate(-503.216 -283.744)" fill="#1a2948"/>
          </g>
          <g id="Grupo_1101279" data-name="Grupo 1101279" transform="translate(137.148 48.098)">
            <path id="Trazado_875991" data-name="Trazado 875991" d="M492.976,305.378a.559.559,0,0,1-.488-.285l-2.443-4.328a.559.559,0,0,1,.974-.549l2.443,4.328a.559.559,0,0,1-.487.834Z" transform="translate(-489.973 -299.931)" fill="#1a2948"/>
          </g>
          <g id="Grupo_1101280" data-name="Grupo 1101280" transform="translate(133.814 53.5)">
            <path id="Trazado_875992" data-name="Trazado 875992" d="M486.512,313.507a.558.558,0,0,1-.46-.241l-1.939-2.8a.56.56,0,1,1,.92-.637l1.939,2.8a.56.56,0,0,1-.46.878Z" transform="translate(-484.013 -309.589)" fill="#1a2948"/>
          </g>
          <g id="Grupo_1101281" data-name="Grupo 1101281" transform="translate(111.636 78.018)">
            <path id="Trazado_875993" data-name="Trazado 875993" d="M453.89,373.932a.56.56,0,0,1-.508-.324l-8.964-19.394a.56.56,0,0,1,1.016-.47l8.964,19.394a.56.56,0,0,1-.273.743A.554.554,0,0,1,453.89,373.932Z" transform="translate(-444.366 -353.42)" fill="#1a2948"/>
          </g>
        </g>
      </g>
      <g id="Grupo_1101291" data-name="Grupo 1101291" transform="translate(0 159.833)">
        <g id="Grupo_1101284" data-name="Grupo 1101284" transform="translate(0.559 0.559)">
          <path id="Trazado_875995" data-name="Trazado 875995" d="M27.917,295.526,69.9,325.393l17.971-4.483Z" transform="translate(-27.917 -295.526)" fill="#f0e1cc"/>
        </g>
        <g id="Grupo_1101285" data-name="Grupo 1101285" transform="translate(0.559 0.559)">
          <path id="Trazado_875996" data-name="Trazado 875996" d="M27.917,295.526l11.51,37.157,14.182-3.5,8.255-2.031Z" transform="translate(-27.917 -295.526)" fill="#f0e1cc"/>
        </g>
        <g id="Grupo_1101286" data-name="Grupo 1101286" transform="translate(0.559 0.559)">
          <path id="Trazado_875997" data-name="Trazado 875997" d="M27.917,295.526l33.947,31.63-2.091,14.419L69.9,325.393Z" transform="translate(-27.917 -295.526)" fill="#f0e1cc"/>
        </g>
        <g id="Grupo_1101287" data-name="Grupo 1101287" transform="translate(26.251 32.189)">
          <path id="Trazado_875998" data-name="Trazado 875998" d="M73.846,354.1l6.164,12.389L82.1,352.07Z" transform="translate(-73.846 -352.07)" fill="#f0e1cc"/>
        </g>
        <g id="Grupo_1101288" data-name="Grupo 1101288" transform="translate(32.415 46.608)">
          <path id="Trazado_875999" data-name="Trazado 875999" d="M84.865,377.847" transform="translate(-84.865 -377.847)" fill="none" stroke="#1a2948" stroke-linecap="round" stroke-linejoin="round" stroke-miterlimit="10" stroke-width="2"/>
        </g>
        <g id="Grupo_1101289" data-name="Grupo 1101289">
          <path id="Trazado_876000" data-name="Trazado 876000" d="M53.168,329.305a.559.559,0,0,1-.133-1.1l7.25-1.783-33.19-30.925a.559.559,0,0,1,.706-.865L69.781,324.5a.559.559,0,1,1-.649.911l-35.069-24.95L61.8,326.306a.559.559,0,0,1-.248.952L53.3,329.289A.529.529,0,0,1,53.168,329.305Z" transform="translate(-26.917 -294.526)" fill="#1a2948"/>
        </g>
        <g id="Grupo_1101290" data-name="Grupo 1101290" transform="translate(31.856 31.628)">
          <path id="Trazado_876001" data-name="Trazado 876001" d="M84.426,366.607a.5.5,0,0,1-.081-.006.559.559,0,0,1-.473-.634l2.091-14.419a.559.559,0,1,1,1.107.161l-2.091,14.419A.56.56,0,0,1,84.426,366.607Z" transform="translate(-83.866 -351.068)" fill="#1a2948"/>
        </g>
      </g>
      <g id="Grupo_1101292" data-name="Grupo 1101292" transform="translate(34.527 168.454)">
        <path id="Trazado_876002" data-name="Trazado 876002" d="M116.907,365.259a.559.559,0,0,1-.013-1.119,31.433,31.433,0,0,0,3.286-.253.559.559,0,1,1,.145,1.109,32.3,32.3,0,0,1-3.4.263Zm-3.353-.1-.048,0a31.14,31.14,0,0,1-3.383-.471.559.559,0,1,1,.215-1.1,30.177,30.177,0,0,0,3.262.455.559.559,0,0,1-.046,1.117Zm10-.767a.559.559,0,0,1-.13-1.1,30.92,30.92,0,0,0,3.159-.938.56.56,0,0,1,.375,1.054,31.93,31.93,0,0,1-3.274.971A.553.553,0,0,1,123.55,364.392Zm-16.569-.525a.561.561,0,0,1-.17-.026,31.025,31.025,0,0,1-3.194-1.211.559.559,0,0,1,.453-1.023,30.043,30.043,0,0,0,3.079,1.167.559.559,0,0,1-.168,1.092Zm22.88-1.725a.56.56,0,0,1-.244-1.063,29.5,29.5,0,0,0,2.737-1.509l.14-.088a.56.56,0,0,1,.6.947l-.148.092a30.374,30.374,0,0,1-2.84,1.566A.558.558,0,0,1,129.862,362.143Zm-29.006-.989a.552.552,0,0,1-.28-.076,32.472,32.472,0,0,1-2.859-1.866.559.559,0,0,1,.66-.9,31.289,31.289,0,0,0,2.759,1.8.559.559,0,0,1-.281,1.043Zm34.678-2.575a.559.559,0,0,1-.346-1c.84-.659,1.682-1.384,2.5-2.156a.559.559,0,1,1,.767.814c-.845.8-1.713,1.544-2.579,2.224A.562.562,0,0,1,135.534,358.579ZM95.446,357.2a.556.556,0,0,1-.375-.145,32.021,32.021,0,0,1-2.4-2.425.559.559,0,1,1,.836-.744,31.14,31.14,0,0,0,2.319,2.341.559.559,0,0,1-.376.973Zm44.978-3.209a.56.56,0,0,1-.413-.936c.717-.788,1.441-1.638,2.152-2.528a.559.559,0,1,1,.874.7c-.726.908-1.466,1.778-2.2,2.583A.556.556,0,0,1,140.424,353.992Zm-49.431-1.8a.558.558,0,0,1-.456-.235,30.7,30.7,0,0,1-1.825-2.889.559.559,0,1,1,.978-.543,29.572,29.572,0,0,0,1.759,2.783.558.558,0,0,1-.455.883Zm53.629-3.437a.552.552,0,0,1-.326-.105.559.559,0,0,1-.129-.78c.616-.859,1.25-1.784,1.885-2.75a.56.56,0,1,1,.935.615c-.643.978-1.286,1.916-1.91,2.787A.559.559,0,0,1,144.621,348.759Zm3.7-5.6a.559.559,0,0,1-.476-.852q.876-1.425,1.727-2.867a.559.559,0,1,1,.963.57q-.859,1.449-1.737,2.882A.557.557,0,0,1,148.318,343.157Zm3.436-5.767a.553.553,0,0,1-.283-.077.559.559,0,0,1-.2-.765q.852-1.451,1.711-2.893a.559.559,0,1,1,.96.573q-.859,1.438-1.706,2.885A.56.56,0,0,1,151.754,337.39Zm3.456-5.753a.559.559,0,0,1-.473-.856c.641-1.024,1.24-1.951,1.832-2.833a.559.559,0,0,1,.929.624c-.585.872-1.178,1.789-1.812,2.8A.56.56,0,0,1,155.211,331.637Zm3.752-5.564a.559.559,0,0,1-.45-.891c.683-.925,1.378-1.816,2.065-2.645l.451.332.417.374c-.68.821-1.362,1.694-2.032,2.6A.558.558,0,0,1,158.962,326.073Zm40.927-4.753a.56.56,0,0,1-.522-.358,13.344,13.344,0,0,0-1.514-2.833.56.56,0,0,1,.917-.642,14.475,14.475,0,0,1,1.641,3.072.559.559,0,0,1-.32.723A.547.547,0,0,1,199.889,321.32Zm-36.626-.4a.559.559,0,0,1-.4-.947c.8-.827,1.621-1.62,2.452-2.357a.559.559,0,1,1,.742.837c-.809.717-1.612,1.489-2.387,2.3A.559.559,0,0,1,163.263,320.923Zm5.028-4.436a.559.559,0,0,1-.332-1.01,33.277,33.277,0,0,1,2.846-1.883.559.559,0,1,1,.568.963,32.2,32.2,0,0,0-2.749,1.82A.563.563,0,0,1,168.291,316.487Zm27.805-.629a.556.556,0,0,1-.376-.146,16.571,16.571,0,0,0-2.6-1.932.559.559,0,0,1,.578-.958,17.711,17.711,0,0,1,2.777,2.063.559.559,0,0,1-.377.973ZM174.07,313.1a.559.559,0,0,1-.225-1.071,26.16,26.16,0,0,1,3.218-1.177.559.559,0,1,1,.313,1.074,25.077,25.077,0,0,0-3.08,1.128A.564.564,0,0,1,174.07,313.1Zm16.324-.708a.555.555,0,0,1-.2-.037,19.8,19.8,0,0,0-3.131-.908.56.56,0,0,1,.223-1.1,20.835,20.835,0,0,1,3.309.96.559.559,0,0,1-.2,1.081Zm-9.871-1.157a.57.57,0,0,1-.565-.47.548.548,0,0,1,.441-.636l.062-.009a19.994,19.994,0,0,1,3.4-.173.559.559,0,0,1,.54.578.553.553,0,0,1-.578.54,18.9,18.9,0,0,0-3.223.164A.479.479,0,0,1,180.523,311.237Z" transform="translate(-88.64 -309.937)" fill="#1a2948"/>
      </g>
      <g id="Grupo_1101339" data-name="Grupo 1101339" transform="translate(16.414 32.153)">
        <g id="Grupo_1101293" data-name="Grupo 1101293" clip-path="url(#clip-path-3)">
          <path id="Trazado_876003" data-name="Trazado 876003" d="M56.3,139.553a277.54,277.54,0,0,0,2.4,41.843c2.214,12.412,13.884,20.9,26.151,21.243q7.534-.059,15.057-.189a6.4,6.4,0,0,1,5.461,2.891c12.724,19.308,26.872,17.854,27.625,18-5.583-4.208-19.448-20.693,1.092-21.943,7.945-.484,15.9-.781,23.859-1.313,9.466-.718,18.065-8.036,21.415-17.768,5.346-15.51,11.3-31.58,14.911-46.976,3.39-14.415-11.359-29.764-26.6-28.9-29.749,1.3-59.208,3.6-88.74,7.355A28.04,28.04,0,0,0,56.3,139.553Z" transform="translate(-56.261 -83.956)" fill="#938bfa"/>
        </g>
        <g id="Grupo_1101338" data-name="Grupo 1101338" clip-path="url(#clip-path-3)">
          <g id="Grupo_1101303" data-name="Grupo 1101303" transform="translate(97.071 17.612)">
            <g id="Grupo_1101294" data-name="Grupo 1101294" transform="translate(15.113 36.34)">
              <path id="Trazado_876005" data-name="Trazado 876005" d="M256.809,164.507a61.516,61.516,0,0,1,6.737,12.5,3.447,3.447,0,0,0,5.248,1.441,10.147,10.147,0,0,0,2.683-2.948c2.071-3.589-4.432-8.62-4.432-8.62l-.394-4.161Z" transform="translate(-256.809 -162.723)" fill="#7666fa"/>
            </g>
            <g id="Grupo_1101300" data-name="Grupo 1101300">
              <g id="Grupo_1101295" data-name="Grupo 1101295" transform="translate(0 22.084)">
                <path id="Trazado_876006" data-name="Trazado 876006" d="M231.129,139.615a2.137,2.137,0,0,0-1.33,1.893,19.069,19.069,0,0,0,1.354,7.009,19.594,19.594,0,0,0,3.431,6.227,2.143,2.143,0,0,0,2.24.667q2.922-.884,5.695-1.563a32.8,32.8,0,0,1-4-7.924,33.835,33.835,0,0,1-2.026-8.684Q233.931,138.454,231.129,139.615Z" transform="translate(-229.792 -137.239)" fill="#7666fa"/>
              </g>
              <g id="Grupo_1101296" data-name="Grupo 1101296" transform="translate(6.703 6.135)">
                <path id="Trazado_876007" data-name="Trazado 876007" d="M271.547,132.111a22.34,22.34,0,0,0,5.3,5.948,102.187,102.187,0,0,0-26.667,2.655c-.78.175-1.58.366-2.385.569a32.842,32.842,0,0,1-4-7.926,33.743,33.743,0,0,1-2.024-8.684c.751-.352,1.481-.707,2.2-1.065a102.452,102.452,0,0,0,22.412-14.883,21.826,21.826,0,0,0-.394,7.487,36.193,36.193,0,0,0,1.966,8.489A36.586,36.586,0,0,0,271.547,132.111Z" transform="translate(-241.775 -108.726)" fill="#f0e1cc"/>
              </g>
              <g id="Grupo_1101297" data-name="Grupo 1101297" transform="translate(30.776)">
                <path id="Trazado_876008" data-name="Trazado 876008" d="M285.348,103.894a21.843,21.843,0,0,0-.394,7.486,36.2,36.2,0,0,0,1.966,8.489,36.613,36.613,0,0,0,3.587,7.411,22.312,22.312,0,0,0,5.306,5.947h0c2.428,1.8,4.921,2.477,7.115,1.694,5.291-1.888,6.549-11.462,2.861-21.788s-10.721-16.943-16.012-15.054C287.59,98.863,286.091,100.965,285.348,103.894Zm6.5-3.636c3.242-1.16,9.173,4.057,12.507,13.387s2.041,17.126-1.2,18.282c-2.4.854-6.265-1.773-9.466-6.979a35.474,35.474,0,0,1-4.82-13.868C288.211,105.317,289.533,101.086,291.852,100.258Z" transform="translate(-284.809 -97.759)" fill="#7666fa"/>
              </g>
              <g id="Grupo_1101298" data-name="Grupo 1101298" transform="translate(34.668 2.338)">
                <path id="Trazado_876009" data-name="Trazado 876009" d="M291.937,112.92a35.473,35.473,0,0,0,4.82,13.868c3.2,5.207,7.07,7.834,9.466,6.979,3.242-1.156,4.53-8.95,1.2-18.282s-9.264-14.546-12.507-13.387C292.6,102.928,291.277,107.159,291.937,112.92Z" transform="translate(-291.768 -101.939)" fill="#ecb78e"/>
              </g>
              <g id="Grupo_1101299" data-name="Grupo 1101299" transform="translate(34.838 12.915)">
                <path id="Trazado_876010" data-name="Trazado 876010" d="M297.5,120.846l-5.434.4a35.473,35.473,0,0,0,4.82,13.868l4.567-3.2s.992-2.139-.421-6.088S297.5,120.846,297.5,120.846Z" transform="translate(-292.071 -120.846)" fill="#7666fa"/>
              </g>
            </g>
            <g id="Grupo_1101301" data-name="Grupo 1101301" transform="translate(39.561 12.861)">
              <path id="Trazado_876011" data-name="Trazado 876011" d="M304.386,131.609a.557.557,0,0,1-.4-.171,12.523,12.523,0,0,1-3.371-10.2.56.56,0,0,1,1.11.143,11.547,11.547,0,0,0,3.067,9.278.559.559,0,0,1-.4.948Z" transform="translate(-300.514 -120.751)" fill="#1a2948"/>
            </g>
            <g id="Grupo_1101302" data-name="Grupo 1101302" transform="translate(34.307 4.756)">
              <path id="Trazado_876012" data-name="Trazado 876012" d="M300.9,134.557a.556.556,0,0,1-.4-.165,32.858,32.858,0,0,1-9.028-27.654.559.559,0,1,1,1.105.169,31.719,31.719,0,0,0,8.715,26.7.559.559,0,0,1-.4.954Z" transform="translate(-291.122 -106.262)" fill="#1a2948"/>
            </g>
          </g>
          <g id="Grupo_1101304" data-name="Grupo 1101304" transform="translate(111.806 54.958)">
            <path id="Trazado_876013" data-name="Trazado 876013" d="M265.023,167.994c.117-.26,1.215-2.548,3.084-2.078,1.978.495,1.894,2.012,1.684,3.494,0,0,2.246-.143,1.986,2.623,0,0,1.165.117,1.215,2.33,0,0,2.472,1.106,1.031,3.26,0,0,.084,6.587-3.185,10.024l.059,2.833c-2.841-.72-7.149-1.408-10.82-.285l.511-4.241s-4.894-10.367-4.425-12.521,6.261-9.084,7.685-8.909S265.367,167.038,265.023,167.994Z" transform="translate(-256.133 -164.521)" fill="#e48a56"/>
          </g>
          <g id="Grupo_1101305" data-name="Grupo 1101305" transform="translate(-8.065 59.36)">
            <path id="Trazado_876014" data-name="Trazado 876014" d="M176.478,193.947a27.613,27.613,0,0,1,3.126.972s-2.095,35.408-4.19,39.607-10.333,4.35-12.579,3.26S142.8,222.408,142.8,222.408l2.02,31.067H77.56l1.559-31.067-16,31.067H41.841s22.284-68.11,26.709-72.845,24.237-6.369,24.237-6.369,2.833-1.869,3.956-1.869a6.06,6.06,0,0,1,1.928.511c-.008.947-.017,1.9-.025,2.849,0,0,14.733,14.348,20.256,14.2s2.137-12.872,2.137-12.872c-.193-.5-.369-1.014-.52-1.525a6.849,6.849,0,0,1,4.106.813s10.71,1.7,13.979,3.645,22.67,26.869,22.67,26.869l3.109-12.739a11.026,11.026,0,0,1,1.274-.478C169.329,192.539,173.636,193.226,176.478,193.947Z" transform="translate(-41.841 -172.392)" fill="#eaac36"/>
          </g>
          <g id="Grupo_1101306" data-name="Grupo 1101306" transform="translate(36.938 3.996)">
            <path id="Trazado_876015" data-name="Trazado 876015" d="M143.9,79.755a6.462,6.462,0,1,1,12.914.453,5.4,5.4,0,0,1,6.763.72,6.85,6.85,0,0,1,1.416,6.9,7.31,7.31,0,0,1-5.8,4.878.491.491,0,0,1-.109.017,6.339,6.339,0,0,1-6.31-3.486c-.36.076-.746.143-1.173.209-5.691.855-12.286-1.718-12.286-1.718s-4.081,3.922-4.081,8.448,1.232,6.788,1.232,6.788A4.366,4.366,0,0,0,129.409,104a4.664,4.664,0,0,0-.486,1.944,7.244,7.244,0,0,0,.9,3.637,10.257,10.257,0,0,0,4.459,4.291c-.034,2.749-.059,5.489-.084,8.238h-.008s-11.842-15.32-11.892-22.762,4.123-6.629,4.123-6.629A16.752,16.752,0,0,1,143.9,79.755Z" transform="translate(-122.293 -73.418)" fill="#1a2948"/>
          </g>
          <g id="Grupo_1101307" data-name="Grupo 1101307" transform="translate(43.562 18.304)">
            <path id="Trazado_876016" data-name="Trazado 876016" d="M159.979,137.789c-3.948.478-8.783-.143-11.5-2.648a18.124,18.124,0,0,1-4.4-7.2c-.234-.671-.411-1.265-.536-1.735a10.049,10.049,0,0,1-4.048-1.065,10.257,10.257,0,0,1-4.459-4.291,7.245,7.245,0,0,1-.9-3.637,4.664,4.664,0,0,1,.486-1.944,4.366,4.366,0,0,1,7.057-1.039s-1.223-2.254-1.232-6.788S144.533,99,144.533,99s6.6,2.573,12.286,1.718c.427-.067.813-.134,1.173-.209a6.338,6.338,0,0,0,6.31,3.486.491.491,0,0,0,.109-.017,56.96,56.96,0,0,1,1.919,6.261,8.7,8.7,0,0,1-.478,3.05,5.86,5.86,0,0,1,3.034,5.07c.067,3.637-.646,16.116-4.216,18.094A13.4,13.4,0,0,1,159.979,137.789Z" transform="translate(-134.135 -98.995)" fill="#e48a56"/>
          </g>
          <g id="Grupo_1101308" data-name="Grupo 1101308" transform="translate(48.74 44.451)">
            <path id="Trazado_876017" data-name="Trazado 876017" d="M143.416,161.159c.025-2.4.05-4.786.076-7.182.025-2.749.05-5.489.084-8.238a10.048,10.048,0,0,0,4.048,1.064c.126.469.3,1.065.536,1.735,1.425,7.208,8.984,22.4,16.519,13.217.168.687.36,1.374.587,2.053.151.511.327,1.023.52,1.525,0,0,3.386,12.714-2.137,12.872s-20.256-14.2-20.256-14.2C143.4,163.062,143.407,162.107,143.416,161.159Z" transform="translate(-143.391 -145.739)" fill="#e48a56"/>
          </g>
          <g id="Grupo_1101309" data-name="Grupo 1101309" transform="translate(53.508 47.25)">
            <path id="Trazado_876018" data-name="Trazado 876018" d="M167.813,160.59a30.868,30.868,0,0,0,.62,3.369c-7.534,9.185-15.094-6.009-16.519-13.217a18.118,18.118,0,0,0,4.4,7.2C159.03,160.448,163.866,161.068,167.813,160.59Z" transform="translate(-151.915 -150.743)" fill="#1a2948"/>
          </g>
          <g id="Grupo_1101310" data-name="Grupo 1101310" transform="translate(45.358 34.409)">
            <path id="Trazado_876019" data-name="Trazado 876019" d="M142.561,136.252h-.006a.559.559,0,0,1-.554-.565,7.649,7.649,0,0,0-4.331-6.833.56.56,0,0,1,.468-1.017,8.8,8.8,0,0,1,4.982,7.86A.56.56,0,0,1,142.561,136.252Z" transform="translate(-137.345 -127.786)" fill="#1a2948"/>
          </g>
          <g id="Grupo_1101311" data-name="Grupo 1101311" transform="translate(47.151 37.162)">
            <path id="Trazado_876020" data-name="Trazado 876020" d="M141.11,137.691h-.035a.559.559,0,0,1-.524-.592,8.035,8.035,0,0,1,1.462-4.153.559.559,0,0,1,.913.646,7.01,7.01,0,0,0-1.259,3.576A.559.559,0,0,1,141.11,137.691Z" transform="translate(-140.55 -132.708)" fill="#1a2948"/>
          </g>
          <g id="Grupo_1101312" data-name="Grupo 1101312" transform="translate(56.882 27.908)">
            <path id="Trazado_876021" data-name="Trazado 876021" d="M157.948,120.745a8.892,8.892,0,0,1,6.574-2.205,1.1,1.1,0,0,0,1.21-1.1c-.064-.447-.415-.915-1.444-1.184C161.887,115.627,157.909,118.37,157.948,120.745Z" transform="translate(-157.947 -116.164)" fill="#1a2948"/>
          </g>
          <g id="Grupo_1101313" data-name="Grupo 1101313" transform="translate(57.511 38.265)">
            <path id="Trazado_876022" data-name="Trazado 876022" d="M165.439,136.063c.139.981-1.172,1.978-2.927,2.226s-3.291-.346-3.43-1.327,1.172-1.978,2.927-2.226S165.3,135.082,165.439,136.063Z" transform="translate(-159.072 -134.679)" fill="#c55941"/>
          </g>
          <g id="Grupo_1101314" data-name="Grupo 1101314" transform="translate(68.109 26.653)">
            <path id="Trazado_876023" data-name="Trazado 876023" d="M185.379,117.025a7,7,0,0,0-6.055-.418.978.978,0,0,1-1.295-.747c-.062-.447.109-.988.9-1.515C180.765,113.117,184.8,114.727,185.379,117.025Z" transform="translate(-178.017 -113.921)" fill="#1a2948"/>
          </g>
          <g id="Grupo_1101315" data-name="Grupo 1101315" transform="translate(66.278 31.908)">
            <path id="Trazado_876024" data-name="Trazado 876024" d="M176.352,123.315a48.446,48.446,0,0,0,2.78,5.495c1.685,2.847,3.221,2.146,2.7,4.339s-5.492,2.691-6.534,1.891-.524-3.439.916-3.512C176.208,131.528,174.926,125.545,176.352,123.315Z" transform="translate(-174.744 -123.315)" fill="#c55941"/>
          </g>
          <g id="Grupo_1101320" data-name="Grupo 1101320" transform="translate(62.915 45.102)">
            <g id="Grupo_1101316" data-name="Grupo 1101316">
              <path id="Trazado_876025" data-name="Trazado 876025" d="M179.025,149.064a4.373,4.373,0,0,1-3.953,2.764l0-.016a3.235,3.235,0,0,0-2.818-2.09,4.9,4.9,0,0,0-2.363.6,4.286,4.286,0,0,1-1.128-2.11,1.068,1.068,0,0,1,1.133-1.307l.2.013v.008c.04.109.522,1.162,3.626,1.423,3.27.286,4.2-.75,4.2-.75l.189.014A1.071,1.071,0,0,1,179.025,149.064Z" transform="translate(-168.733 -146.903)" fill="#1a2948"/>
            </g>
            <g id="Grupo_1101317" data-name="Grupo 1101317" transform="translate(1.157 2.815)">
              <path id="Trazado_876026" data-name="Trazado 876026" d="M175.981,154.03l0,.016a7.761,7.761,0,0,1-1.463,0,5.681,5.681,0,0,1-3.719-1.508,4.9,4.9,0,0,1,2.363-.6A3.235,3.235,0,0,1,175.981,154.03Z" transform="translate(-170.801 -151.936)" fill="#dc3d3d"/>
            </g>
            <g id="Grupo_1101318" data-name="Grupo 1101318" transform="translate(1.4 0.029)">
              <path id="Trazado_876027" data-name="Trazado 876027" d="M179.067,147.628s-.977,1.031-4.247.746c-3.1-.26-3.586-1.315-3.585-1.419Z" transform="translate(-171.236 -146.955)" fill="#fbf5e8"/>
            </g>
            <g id="Grupo_1101319" data-name="Grupo 1101319" transform="translate(1.095 3.421)">
              <path id="Trazado_876028" data-name="Trazado 876028" d="M170.753,153.019a.181.181,0,0,0-.062.025" transform="translate(-170.691 -153.019)" fill="#dc3d3d"/>
            </g>
          </g>
          <g id="Grupo_1101321" data-name="Grupo 1101321" transform="translate(60.293 32.375)">
            <path id="Trazado_876029" data-name="Trazado 876029" d="M167.3,125.793a1.649,1.649,0,1,1-1.88-1.628A1.768,1.768,0,0,1,167.3,125.793Z" transform="translate(-164.044 -124.151)" fill="#1a2948"/>
          </g>
          <g id="Grupo_1101322" data-name="Grupo 1101322" transform="translate(71.942 30.606)">
            <path id="Trazado_876030" data-name="Trazado 876030" d="M188.125,122.63a1.649,1.649,0,1,1-1.88-1.628A1.768,1.768,0,0,1,188.125,122.63Z" transform="translate(-184.869 -120.988)" fill="#1a2948"/>
          </g>
          <g id="Grupo_1101324" data-name="Grupo 1101324" transform="translate(69.668 30.156)">
            <g id="Grupo_1101323" data-name="Grupo 1101323">
              <path id="Trazado_876031" data-name="Trazado 876031" d="M181.364,123.2a.559.559,0,0,1-.413-.936c2.175-2.385,4.469-2.71,7.218-1.021a.559.559,0,0,1-.585.953c-2.3-1.413-3.985-1.175-5.806.822A.558.558,0,0,1,181.364,123.2Z" transform="translate(-180.805 -120.184)" fill="#1a2948"/>
            </g>
          </g>
          <g id="Grupo_1101326" data-name="Grupo 1101326" transform="translate(57.471 31.883)">
            <g id="Grupo_1101325" data-name="Grupo 1101325">
              <path id="Trazado_876032" data-name="Trazado 876032" d="M159.559,126.286a.559.559,0,0,1-.413-.936c2.173-2.384,4.466-2.71,7.218-1.021a.559.559,0,1,1-.585.954c-2.3-1.413-3.987-1.175-5.806.822A.563.563,0,0,1,159.559,126.286Z" transform="translate(-159 -123.27)" fill="#1a2948"/>
            </g>
          </g>
          <g id="Grupo_1101327" data-name="Grupo 1101327" transform="translate(37.679 13.36)">
            <path id="Trazado_876033" data-name="Trazado 876033" d="M127.511,101.18a.562.562,0,0,1-.324-.1,8.691,8.691,0,0,1-3.486-8.16.559.559,0,1,1,1.106.162A7.573,7.573,0,0,0,126.562,99a12.534,12.534,0,0,1,1.792-8.581.559.559,0,0,1,.943.6,11.386,11.386,0,0,0-1.252,9.436.56.56,0,0,1-.534.727Z" transform="translate(-123.617 -90.157)" fill="#1a2948"/>
          </g>
          <g id="Grupo_1101328" data-name="Grupo 1101328" transform="translate(108.534 93.764)">
            <path id="Trazado_876034" data-name="Trazado 876034" d="M250.845,246.659a.572.572,0,0,1-.1-.008.559.559,0,0,1-.455-.647l2.034-11.646a.559.559,0,1,1,1.1.192L251.4,246.195A.559.559,0,0,1,250.845,246.659Z" transform="translate(-250.285 -233.894)" fill="#1a2948"/>
          </g>
          <g id="Grupo_1101329" data-name="Grupo 1101329" transform="translate(117.557 56.489)">
            <path id="Trazado_876035" data-name="Trazado 876035" d="M269.37,183.945a.56.56,0,0,1-.482-.842,5.349,5.349,0,0,0-1.3-6.672l-.116-.088a2.23,2.23,0,0,1-1.045-1.387,2.284,2.284,0,0,1,.713-1.741l.04-.048A8.21,8.21,0,0,0,269,167.832a.559.559,0,1,1,1.118-.031,9.341,9.341,0,0,1-2.065,6.072l-.04.05c-.239.293-.51.625-.474.868.034.222.328.444.614.66l.123.093a6.428,6.428,0,0,1,1.58,8.124A.559.559,0,0,1,269.37,183.945Z" transform="translate(-266.414 -167.258)" fill="#1a2948"/>
          </g>
          <g id="Grupo_1101330" data-name="Grupo 1101330" transform="translate(119.833 58.174)">
            <path id="Trazado_876036" data-name="Trazado 876036" d="M271.043,178.411a.559.559,0,0,1-.277-1.045,9.5,9.5,0,0,0,4.622-6.628.559.559,0,0,1,1.1.184,10.627,10.627,0,0,1-5.172,7.415A.55.55,0,0,1,271.043,178.411Z" transform="translate(-270.483 -170.271)" fill="#1a2948"/>
          </g>
          <g id="Grupo_1101331" data-name="Grupo 1101331" transform="translate(121.364 61.291)">
            <path id="Trazado_876037" data-name="Trazado 876037" d="M273.78,182.654a.559.559,0,0,1-.09-1.111,6.027,6.027,0,0,0,4.831-5.191.559.559,0,1,1,1.114.1,7.1,7.1,0,0,1-5.764,6.193A.555.555,0,0,1,273.78,182.654Z" transform="translate(-273.221 -175.843)" fill="#1a2948"/>
          </g>
          <g id="Grupo_1101332" data-name="Grupo 1101332" transform="translate(121.716 64.227)">
            <path id="Trazado_876038" data-name="Trazado 876038" d="M276.595,187.181a2.911,2.911,0,0,1-2.013-.843,2.345,2.345,0,0,1-.731-1.734.553.553,0,0,1,.576-.543.559.559,0,0,1,.543.576,1.24,1.24,0,0,0,.4.906,1.754,1.754,0,0,0,1.278.517,2.993,2.993,0,0,0,2.254-1.523,9.915,9.915,0,0,0,1.033-3.012.56.56,0,1,1,1.091.249,10.91,10.91,0,0,1-1.171,3.349,4.02,4.02,0,0,1-3.166,2.054C276.657,187.181,276.625,187.181,276.595,187.181Z" transform="translate(-273.849 -181.092)" fill="#1a2948"/>
          </g>
          <g id="Grupo_1101333" data-name="Grupo 1101333" transform="translate(123.447 68.253)">
            <path id="Trazado_876039" data-name="Trazado 876039" d="M280.084,192.175a3.74,3.74,0,0,1-3.042-1.567.559.559,0,1,1,.924-.632,2.5,2.5,0,0,0,4.55-1.18.559.559,0,0,1,1.114.1,3.722,3.722,0,0,1-2.694,3.168A3.381,3.381,0,0,1,280.084,192.175Z" transform="translate(-276.944 -188.289)" fill="#1a2948"/>
          </g>
          <g id="Grupo_1101334" data-name="Grupo 1101334" transform="translate(27.902 94.042)">
            <path id="Trazado_876040" data-name="Trazado 876040" d="M106.7,247.616a.593.593,0,0,1-.128-.015.559.559,0,0,1-.417-.672l2.832-12.107a.559.559,0,1,1,1.089.255l-2.832,12.107A.559.559,0,0,1,106.7,247.616Z" transform="translate(-106.14 -234.392)" fill="#1a2948"/>
          </g>
          <g id="Grupo_1101335" data-name="Grupo 1101335" transform="translate(24.973 97.784)">
            <path id="Trazado_876041" data-name="Trazado 876041" d="M102.366,249.212a.559.559,0,0,1-.554-.488l-.9-7.013a.559.559,0,0,1,.483-.627.566.566,0,0,1,.627.483l.9,7.013a.559.559,0,0,1-.483.626A.64.64,0,0,1,102.366,249.212Z" transform="translate(-100.903 -241.082)" fill="#1a2948"/>
          </g>
          <g id="Grupo_1101336" data-name="Grupo 1101336" transform="translate(44.311 64.267)">
            <path id="Trazado_876042" data-name="Trazado 876042" d="M149.258,192.356a.558.558,0,0,1-.281-.076,68.5,68.5,0,0,1-13.334-10.156.559.559,0,0,1,.781-.8,67.354,67.354,0,0,0,13.116,9.99.559.559,0,0,1-.282,1.043Z" transform="translate(-135.474 -181.164)" fill="#1a2948"/>
          </g>
          <g id="Grupo_1101337" data-name="Grupo 1101337" transform="translate(89.68 85.365)">
            <path id="Trazado_876043" data-name="Trazado 876043" d="M219.314,243a.56.56,0,0,1-.557-.507l-2.175-23a.559.559,0,0,1,1.114-.106l2.175,23a.559.559,0,0,1-.5.609A.427.427,0,0,1,219.314,243Z" transform="translate(-216.58 -218.881)" fill="#1a2948"/>
          </g>
        </g>
      </g>
      <g id="Grupo_1101417" data-name="Grupo 1101417" transform="translate(216.766 1.226)">
        <g id="Grupo_1101416" data-name="Grupo 1101416" clip-path="url(#clip-path-5)">
          <g id="Grupo_1101340" data-name="Grupo 1101340" transform="translate(23.768 52.825)">
            <path id="Trazado_876045" data-name="Trazado 876045" d="M574.565,178.985l4.2,19.8H505.139l3.143-32.5s-9.37,11.649-12.228,14.214-9.085,1.4-12.228-.234-23.709-22.653-24-23.877-.578-4.283-.578-4.283l-2.33-2.824s.21-.285.578-.762c1.45-1.886,5.405-6.713,8.707-8.146a4.638,4.638,0,0,1,.964-.327l2.1,1.635s3.511.335,4.978,1.735,14.591,11.339,14.591,11.339,12.236-37.277,15.5-40.655,12.412-4.777,12.412-4.777a2.594,2.594,0,0,1,2.313-1.743,16.571,16.571,0,0,1,5.1.922c-.2.671-.419,1.341-.671,1.995,0,0,1.928,7.1,7.166,5.59s13.887-6.83,13.887-6.83c-.008-1.274-.025-2.548-.034-3.813a9.007,9.007,0,0,1,2.69.159,33.564,33.564,0,0,1,3.964,1.86s16.016,1.919,21.664,6.059,6.286,8.85,7.92,16.191-1.693,36.054-2.565,41.468S574.565,178.985,574.565,178.985Z" transform="translate(-456.916 -105.421)" fill="#71c4bb"/>
          </g>
          <g id="Grupo_1101341" data-name="Grupo 1101341" transform="translate(90.374 5.882)">
            <path id="Trazado_876046" data-name="Trazado 876046" d="M600.8,28.568a9.013,9.013,0,0,1,6.755,8.833c-.034,2.816-1.374,5.439-2.682,7.945q-3.985,7.643-7.978,15.286-.025-2.778-.059-5.54a9.485,9.485,0,0,0,4.19-4.023,5.829,5.829,0,0,0,.385-5.246,4.094,4.094,0,0,0-6.629-.981,14.571,14.571,0,0,0,1.148-6.378c.008-4.257-3.83-7.945-3.83-7.945s-6.2,2.414-11.548,1.617c-5.037-.754-4.593-2.338-4.525-2.523a.026.026,0,0,0,.008-.017,15.75,15.75,0,0,1,14.473-6.52l.235-1.576a18.74,18.74,0,0,1,4.316,1.039A10.377,10.377,0,0,1,600.8,28.568Z" transform="translate(-575.986 -21.502)" fill="#7666fa"/>
          </g>
          <g id="Grupo_1101342" data-name="Grupo 1101342" transform="translate(83.585 13.996)">
            <path id="Trazado_876047" data-name="Trazado 876047" d="M568.431,40.565c.05-.143.076-.218.076-.218.05-.185.117-.36.176-.545a15.615,15.615,0,0,1,1.995-3.8c-.067.185-.511,1.768,4.525,2.523,5.347.8,11.548-1.617,11.548-1.617s3.839,3.687,3.83,7.945a14.567,14.567,0,0,1-1.148,6.378,4.094,4.094,0,0,1,6.629.981,5.829,5.829,0,0,1-.385,5.246,9.485,9.485,0,0,1-4.19,4.023,9.191,9.191,0,0,1-3.813,1.014c-.117.436-.276.981-.495,1.593a16.919,16.919,0,0,1-4.14,6.8c-2.556,2.355-7.1,2.933-10.8,2.489a12.461,12.461,0,0,1-4.417-1.257c-3.352-1.86-4.031-13.594-3.964-17.021a5.5,5.5,0,0,1,2.858-4.76,8.155,8.155,0,0,1-.453-2.875A66.4,66.4,0,0,1,568.431,40.565Z" transform="translate(-563.85 -36.006)" fill="#ecb78e"/>
          </g>
          <g id="Grupo_1101343" data-name="Grupo 1101343" transform="translate(90.337 39.472)">
            <path id="Trazado_876048" data-name="Trazado 876048" d="M596.863,87.09q.038,3.909.075,7.836c.008,1.265.025,2.539.034,3.813,0,0-8.641,5.314-13.887,6.83s-7.166-5.59-7.166-5.59c.251-.654.469-1.324.671-1.995.143-.453.26-.913.377-1.374,7.09,8.657,14.206-5.691,15.53-12.454.218-.612.377-1.157.495-1.593a9.194,9.194,0,0,0,3.813-1.014Q596.842,84.316,596.863,87.09Z" transform="translate(-575.92 -81.55)" fill="#ecb78e"/>
          </g>
          <g id="Grupo_1101344" data-name="Grupo 1101344" transform="translate(91.384 42.08)">
            <path id="Trazado_876049" data-name="Trazado 876049" d="M589.182,93.016a16.928,16.928,0,0,0,4.14-6.8c-1.324,6.763-8.439,21.111-15.53,12.454a28.833,28.833,0,0,0,.587-3.159C582.083,95.949,586.625,95.371,589.182,93.016Z" transform="translate(-577.792 -86.211)" fill="#1a2948"/>
          </g>
          <g id="Grupo_1101345" data-name="Grupo 1101345" transform="translate(87.709 1.098)">
            <path id="Trazado_876050" data-name="Trazado 876050" d="M588.642,17.734l-.235,1.576a15.75,15.75,0,0,0-14.473,6.52.026.026,0,0,1-.008.017,15.634,15.634,0,0,0-1.995,3.8,13.948,13.948,0,0,1,4.132-14.909,4.19,4.19,0,0,0,.729,3.52q1.307-2.652,2.6-5.305c.922,2.4,3.536,3.7,6.042,4.249C586.489,17.432,587.569,17.575,588.642,17.734Z" transform="translate(-571.223 -12.948)" fill="#7666fa"/>
          </g>
          <g id="Grupo_1101346" data-name="Grupo 1101346" transform="translate(75.2 75.427)">
            <path id="Trazado_876051" data-name="Trazado 876051" d="M580.481,158.932s-5.062,9.344-5.062,9.5c0,0-3.294.813-5.07-.293a32.3,32.3,0,0,1-3.671-2.791s-7.777-.352-9.319-1.517-.176-2.858-.176-2.858c-1.425-1.777.176-2.791.176-2.791-1.659-1.718.352-3.788.352-3.788a2.012,2.012,0,0,1-.528-3.26,41.731,41.731,0,0,1-6.52-2.095c-3.2-1.374-1.165-3.21-1.165-3.21s11.967,1.341,13.216,1.341a11.356,11.356,0,0,1,6.646,2.212C571.572,151.214,580.481,158.932,580.481,158.932Z" transform="translate(-548.859 -145.825)" fill="#ecb78e"/>
          </g>
          <g id="Grupo_1101347" data-name="Grupo 1101347" transform="translate(11.804 71.663)">
            <path id="Trazado_876052" data-name="Trazado 876052" d="M451.315,148.952c.2-.234.8-.93,1.416-1.6a6.912,6.912,0,0,1,1.517-1.433,1.556,1.556,0,0,1,1.542,1.374c.059,1.09-2.238,4.45-2.238,4.45a7.617,7.617,0,0,1,2.439,1.659,6.3,6.3,0,0,1,.788,1.81c-3.3,1.433-7.257,6.261-8.707,8.146-2.782-2.59-9.244-8.682-10.216-10.534-1.257-2.372-.268-3.847-.268-3.847s-1.8-4.961-2.037-5.649c-.076-.21.042-.536.3-.922a9.421,9.421,0,0,1,3.109-2.715c1.844-1,3.159-.646,3.6.343s-2.707,3.176-2.707,3.176l2.187,2.3s5.749-4.509,7.392-5.582a2.735,2.735,0,0,1,.385-.218c.671-.218,1.065,1.265,1.132,2.154a1.6,1.6,0,0,1-.335.729,74.522,74.522,0,0,1-5.053,5.824c-.092.159,3.755-3.277,5.581-4.651a3.748,3.748,0,0,1,.855-.562c.729-.192,1.441.654,1.718,1.425.134.377-.461,1.45-1.106,2.439C452.069,147.922,451.5,148.7,451.315,148.952Z" transform="translate(-435.529 -139.096)" fill="#ecb78e"/>
          </g>
          <g id="Grupo_1101348" data-name="Grupo 1101348" transform="translate(21.839 75.166)">
            <path id="Trazado_876053" data-name="Trazado 876053" d="M458.523,145.36l.528,1.173c-1.827,1.374-5.674,4.811-5.582,4.651A74.4,74.4,0,0,0,458.523,145.36Z" transform="translate(-453.468 -145.36)" fill="#1a2948"/>
          </g>
          <g id="Grupo_1101349" data-name="Grupo 1101349" transform="translate(8.111 64.029)">
            <path id="Trazado_876054" data-name="Trazado 876054" d="M443.176,126.388l3.352,7.534c-1.642,1.073-7.392,5.582-7.392,5.582l-2.187-2.3s3.159-2.187,2.707-3.176-1.76-1.341-3.6-.343a9.421,9.421,0,0,0-3.109,2.715l-3.88-8.724a1.58,1.58,0,0,1,1.441-2.221h11.23A1.587,1.587,0,0,1,443.176,126.388Z" transform="translate(-428.927 -125.45)" fill="#1a2948"/>
          </g>
          <g id="Grupo_1101350" data-name="Grupo 1101350" transform="translate(96.706 23.338)">
            <path id="Trazado_876055" data-name="Trazado 876055" d="M595.1,57.287a8.892,8.892,0,0,0-6.574-2.205,1.1,1.1,0,0,1-1.21-1.1c.065-.447.415-.915,1.444-1.184C591.159,52.169,595.138,54.912,595.1,57.287Z" transform="translate(-587.307 -52.706)" fill="#1a2948"/>
          </g>
          <g id="Grupo_1101351" data-name="Grupo 1101351" transform="translate(97.492 33.695)">
            <path id="Trazado_876056" data-name="Trazado 876056" d="M588.721,72.6c-.139.981,1.172,1.978,2.927,2.226s3.291-.346,3.43-1.327-1.172-1.978-2.927-2.226S588.86,71.623,588.721,72.6Z" transform="translate(-588.711 -71.221)" fill="#e06f43"/>
          </g>
          <g id="Grupo_1101352" data-name="Grupo 1101352" transform="translate(85.911 22.083)">
            <path id="Trazado_876057" data-name="Trazado 876057" d="M568.008,53.567a7,7,0,0,1,6.055-.418.978.978,0,0,0,1.295-.747c.062-.447-.109-.988-.9-1.515C572.622,49.659,568.591,51.269,568.008,53.567Z" transform="translate(-568.008 -50.463)" fill="#1a2948"/>
          </g>
          <g id="Grupo_1101353" data-name="Grupo 1101353" transform="translate(87.915 27.338)">
            <path id="Trazado_876058" data-name="Trazado 876058" d="M577.171,59.857a48.45,48.45,0,0,1-2.78,5.495c-1.685,2.847-3.221,2.146-2.7,4.339s5.492,2.691,6.534,1.891.524-3.439-.916-3.512C577.314,68.07,578.6,62.087,577.171,59.857Z" transform="translate(-571.59 -59.857)" fill="#e06f43"/>
          </g>
          <g id="Grupo_1101358" data-name="Grupo 1101358" transform="translate(88.099 40.532)">
            <g id="Grupo_1101354" data-name="Grupo 1101354">
              <path id="Trazado_876059" data-name="Trazado 876059" d="M571.994,85.606a4.373,4.373,0,0,0,3.953,2.764l0-.016a3.235,3.235,0,0,1,2.818-2.09,4.9,4.9,0,0,1,2.363.6,4.284,4.284,0,0,0,1.128-2.11,1.069,1.069,0,0,0-1.133-1.307l-.2.013v.008c-.04.109-.522,1.162-3.626,1.423-3.269.286-4.2-.75-4.2-.75l-.189.014A1.071,1.071,0,0,0,571.994,85.606Z" transform="translate(-571.919 -83.445)" fill="#1a2948"/>
            </g>
            <g id="Grupo_1101355" data-name="Grupo 1101355" transform="translate(4.028 2.814)">
              <path id="Trazado_876060" data-name="Trazado 876060" d="M579.121,90.571l0,.016a7.759,7.759,0,0,0,1.463,0,5.681,5.681,0,0,0,3.719-1.508,4.9,4.9,0,0,0-2.363-.6A3.235,3.235,0,0,0,579.121,90.571Z" transform="translate(-579.119 -88.477)" fill="#dc3d3d"/>
            </g>
            <g id="Grupo_1101356" data-name="Grupo 1101356" transform="translate(1.135 0.029)">
              <path id="Trazado_876061" data-name="Trazado 876061" d="M573.948,84.17s.977,1.032,4.247.746c3.1-.26,3.586-1.315,3.585-1.419Z" transform="translate(-573.948 -83.497)" fill="#fbf5e8"/>
            </g>
            <g id="Grupo_1101357" data-name="Grupo 1101357" transform="translate(9.21 3.421)">
              <path id="Trazado_876062" data-name="Trazado 876062" d="M588.384,89.561a.183.183,0,0,1,.062.025" transform="translate(-588.384 -89.561)" fill="#dc3d3d"/>
            </g>
          </g>
          <g id="Grupo_1101359" data-name="Grupo 1101359" transform="translate(97.81 27.805)">
            <path id="Trazado_876063" data-name="Trazado 876063" d="M589.3,62.335a1.649,1.649,0,1,0,1.88-1.628A1.767,1.767,0,0,0,589.3,62.335Z" transform="translate(-589.28 -60.693)" fill="#1a2948"/>
          </g>
          <g id="Grupo_1101360" data-name="Grupo 1101360" transform="translate(86.161 26.036)">
            <path id="Trazado_876064" data-name="Trazado 876064" d="M568.477,59.173a1.649,1.649,0,1,0,1.88-1.628A1.768,1.768,0,0,0,568.477,59.173Z" transform="translate(-568.456 -57.531)" fill="#1a2948"/>
          </g>
          <g id="Grupo_1101361" data-name="Grupo 1101361" transform="translate(39.671 95.704)">
            <path id="Trazado_876065" data-name="Trazado 876065" d="M488.584,182.075c-4.314,0-4.321,6.7,0,6.7S492.906,182.075,488.584,182.075Z" transform="translate(-485.346 -182.075)" fill="#85d2d0"/>
          </g>
          <g id="Grupo_1101362" data-name="Grupo 1101362" transform="translate(36.72 108.13)">
            <path id="Trazado_876066" data-name="Trazado 876066" d="M483.308,204.288c-4.314,0-4.321,6.7,0,6.7S487.63,204.288,483.308,204.288Z" transform="translate(-480.07 -204.288)" fill="#85d2d0"/>
          </g>
          <g id="Grupo_1101363" data-name="Grupo 1101363" transform="translate(49.612 115.896)">
            <path id="Trazado_876067" data-name="Trazado 876067" d="M506.354,218.171c-4.314,0-4.321,6.7,0,6.7S510.676,218.171,506.354,218.171Z" transform="translate(-503.116 -218.171)" fill="#85d2d0"/>
          </g>
          <g id="Grupo_1101364" data-name="Grupo 1101364" transform="translate(59.707 97.723)">
            <path id="Trazado_876068" data-name="Trazado 876068" d="M524.4,185.685c-4.314,0-4.321,6.7,0,6.7S528.724,185.685,524.4,185.685Z" transform="translate(-521.164 -185.685)" fill="#85d2d0"/>
          </g>
          <g id="Grupo_1101365" data-name="Grupo 1101365" transform="translate(61.882 114.498)">
            <path id="Trazado_876069" data-name="Trazado 876069" d="M528.289,215.672c-4.314,0-4.321,6.7,0,6.7S532.611,215.672,528.289,215.672Z" transform="translate(-525.051 -215.672)" fill="#85d2d0"/>
          </g>
          <g id="Grupo_1101366" data-name="Grupo 1101366" transform="translate(67.784 87.628)">
            <path id="Trazado_876070" data-name="Trazado 876070" d="M538.84,167.637c-4.314,0-4.321,6.7,0,6.7S543.161,167.637,538.84,167.637Z" transform="translate(-535.602 -167.637)" fill="#85d2d0"/>
          </g>
          <g id="Grupo_1101367" data-name="Grupo 1101367" transform="translate(67.162 70.854)">
            <path id="Trazado_876071" data-name="Trazado 876071" d="M537.729,137.65c-4.314,0-4.321,6.7,0,6.7S542.051,137.65,537.729,137.65Z" transform="translate(-534.491 -137.65)" fill="#85d2d0"/>
          </g>
          <g id="Grupo_1101368" data-name="Grupo 1101368" transform="translate(84.558 61.068)">
            <path id="Trazado_876072" data-name="Trazado 876072" d="M568.827,120.157c-4.314,0-4.321,6.7,0,6.7S573.149,120.157,568.827,120.157Z" transform="translate(-565.589 -120.157)" fill="#85d2d0"/>
          </g>
          <g id="Grupo_1101369" data-name="Grupo 1101369" transform="translate(92.635 71.474)">
            <path id="Trazado_876073" data-name="Trazado 876073" d="M583.266,138.76c-4.314,0-4.321,6.7,0,6.7S587.588,138.76,583.266,138.76Z" transform="translate(-580.028 -138.76)" fill="#85d2d0"/>
          </g>
          <g id="Grupo_1101370" data-name="Grupo 1101370" transform="translate(105.681 61.224)">
            <path id="Trazado_876074" data-name="Trazado 876074" d="M606.589,120.435c-4.314,0-4.321,6.7,0,6.7S610.911,120.435,606.589,120.435Z" transform="translate(-603.351 -120.435)" fill="#85d2d0"/>
          </g>
          <g id="Grupo_1101371" data-name="Grupo 1101371" transform="translate(109.409 76.6)">
            <path id="Trazado_876075" data-name="Trazado 876075" d="M613.253,147.923c-4.314,0-4.321,6.7,0,6.7S617.575,147.923,613.253,147.923Z" transform="translate(-610.015 -147.923)" fill="#85d2d0"/>
          </g>
          <g id="Grupo_1101372" data-name="Grupo 1101372" transform="translate(117.33 61.534)">
            <path id="Trazado_876076" data-name="Trazado 876076" d="M627.414,120.99c-4.314,0-4.321,6.7,0,6.7S631.735,120.99,627.414,120.99Z" transform="translate(-624.176 -120.99)" fill="#85d2d0"/>
          </g>
          <g id="Grupo_1101373" data-name="Grupo 1101373" transform="translate(132.707 73.804)">
            <path id="Trazado_876077" data-name="Trazado 876077" d="M654.9,142.925c-4.314,0-4.321,6.7,0,6.7S659.224,142.925,654.9,142.925Z" transform="translate(-651.664 -142.925)" fill="#85d2d0"/>
          </g>
          <g id="Grupo_1101374" data-name="Grupo 1101374" transform="translate(138.609 87.162)">
            <path id="Trazado_876078" data-name="Trazado 876078" d="M665.453,166.8c-4.314,0-4.321,6.7,0,6.7S669.775,166.8,665.453,166.8Z" transform="translate(-662.215 -166.804)" fill="#85d2d0"/>
          </g>
          <g id="Grupo_1101375" data-name="Grupo 1101375" transform="translate(134.26 109.838)">
            <path id="Trazado_876079" data-name="Trazado 876079" d="M657.678,207.342c-4.314,0-4.321,6.7,0,6.7S662,207.342,657.678,207.342Z" transform="translate(-654.44 -207.342)" fill="#85d2d0"/>
          </g>
          <g id="Grupo_1101376" data-name="Grupo 1101376" transform="translate(125.251 98.344)">
            <path id="Trazado_876080" data-name="Trazado 876080" d="M641.574,186.795c-4.314,0-4.321,6.7,0,6.7S645.9,186.795,641.574,186.795Z" transform="translate(-638.336 -186.795)" fill="#85d2d0"/>
          </g>
          <g id="Grupo_1101377" data-name="Grupo 1101377" transform="translate(117.485 108.285)">
            <path id="Trazado_876081" data-name="Trazado 876081" d="M627.691,204.566c-4.314,0-4.321,6.7,0,6.7S632.013,204.566,627.691,204.566Z" transform="translate(-624.453 -204.566)" fill="#85d2d0"/>
          </g>
          <g id="Grupo_1101378" data-name="Grupo 1101378" transform="translate(111.583 97.723)">
            <path id="Trazado_876082" data-name="Trazado 876082" d="M617.14,185.685c-4.314,0-4.321,6.7,0,6.7S621.462,185.685,617.14,185.685Z" transform="translate(-613.902 -185.685)" fill="#85d2d0"/>
          </g>
          <g id="Grupo_1101379" data-name="Grupo 1101379" transform="translate(79.433 99.276)">
            <path id="Trazado_876083" data-name="Trazado 876083" d="M559.665,188.461c-4.314,0-4.321,6.7,0,6.7S563.987,188.461,559.665,188.461Z" transform="translate(-556.427 -188.461)" fill="#85d2d0"/>
          </g>
          <g id="Grupo_1101380" data-name="Grupo 1101380" transform="translate(95.275 105.489)">
            <path id="Trazado_876084" data-name="Trazado 876084" d="M587.986,199.568c-4.314,0-4.321,6.7,0,6.7S592.307,199.568,587.986,199.568Z" transform="translate(-584.748 -199.568)" fill="#85d2d0"/>
          </g>
          <g id="Grupo_1101381" data-name="Grupo 1101381" transform="translate(85.645 112.012)">
            <path id="Trazado_876085" data-name="Trazado 876085" d="M570.771,211.229c-4.314,0-4.321,6.7,0,6.7S575.093,211.229,570.771,211.229Z" transform="translate(-567.533 -211.229)" fill="#85d2d0"/>
          </g>
          <g id="Grupo_1101382" data-name="Grupo 1101382" transform="translate(76.171 121.798)">
            <path id="Trazado_876086" data-name="Trazado 876086" d="M553.834,228.722c-4.314,0-4.321,6.7,0,6.7S558.156,228.722,553.834,228.722Z" transform="translate(-550.596 -228.722)" fill="#85d2d0"/>
          </g>
          <g id="Grupo_1101383" data-name="Grupo 1101383" transform="translate(108.477 118.38)">
            <path id="Trazado_876087" data-name="Trazado 876087" d="M611.587,222.613c-4.314,0-4.321,6.7,0,6.7S615.909,222.613,611.587,222.613Z" transform="translate(-608.349 -222.613)" fill="#85d2d0"/>
          </g>
          <g id="Grupo_1101384" data-name="Grupo 1101384" transform="translate(91.547 123.816)">
            <path id="Trazado_876088" data-name="Trazado 876088" d="M581.322,232.331c-4.314,0-4.321,6.7,0,6.7S585.644,232.331,581.322,232.331Z" transform="translate(-578.084 -232.331)" fill="#85d2d0"/>
          </g>
          <g id="Grupo_1101385" data-name="Grupo 1101385" transform="translate(77.724 135.932)">
            <path id="Trazado_876089" data-name="Trazado 876089" d="M556.61,253.989c-4.314,0-4.321,6.7,0,6.7S560.932,253.989,556.61,253.989Z" transform="translate(-553.372 -253.989)" fill="#85d2d0"/>
          </g>
          <g id="Grupo_1101386" data-name="Grupo 1101386" transform="translate(101.954 133.602)">
            <path id="Trazado_876090" data-name="Trazado 876090" d="M599.925,249.824c-4.314,0-4.321,6.7,0,6.7S604.247,249.824,599.925,249.824Z" transform="translate(-596.687 -249.824)" fill="#85d2d0"/>
          </g>
          <g id="Grupo_1101387" data-name="Grupo 1101387" transform="translate(121.213 126.146)">
            <path id="Trazado_876091" data-name="Trazado 876091" d="M634.355,236.5c-4.314,0-4.321,6.7,0,6.7S638.677,236.5,634.355,236.5Z" transform="translate(-631.117 -236.496)" fill="#85d2d0"/>
          </g>
          <g id="Grupo_1101388" data-name="Grupo 1101388" transform="translate(136.745 137.174)">
            <path id="Trazado_876092" data-name="Trazado 876092" d="M662.121,256.21c-4.314,0-4.321,6.7,0,6.7S666.443,256.21,662.121,256.21Z" transform="translate(-658.883 -256.21)" fill="#85d2d0"/>
          </g>
          <g id="Grupo_1101389" data-name="Grupo 1101389" transform="translate(117.485 136.708)">
            <path id="Trazado_876093" data-name="Trazado 876093" d="M627.691,255.377c-4.314,0-4.321,6.7,0,6.7S632.013,255.377,627.691,255.377Z" transform="translate(-624.453 -255.377)" fill="#85d2d0"/>
          </g>
          <g id="Grupo_1101390" data-name="Grupo 1101390" transform="translate(89.373 138.261)">
            <path id="Trazado_876094" data-name="Trazado 876094" d="M577.435,258.154c-4.314,0-4.321,6.7,0,6.7S581.757,258.154,577.435,258.154Z" transform="translate(-574.197 -258.154)" fill="#85d2d0"/>
          </g>
          <g id="Grupo_1101391" data-name="Grupo 1101391" transform="translate(109.11 30.008)">
            <path id="Trazado_876095" data-name="Trazado 876095" d="M610.04,72.656a.56.56,0,0,1-.559-.554,8.306,8.306,0,0,1,4.7-7.42.56.56,0,0,1,.468,1.017,7.157,7.157,0,0,0-4.051,6.393.56.56,0,0,1-.554.565Z" transform="translate(-609.48 -64.631)" fill="#1a2948"/>
          </g>
          <g id="Grupo_1101392" data-name="Grupo 1101392" transform="translate(110.523 32.596)">
            <path id="Trazado_876096" data-name="Trazado 876096" d="M613.845,74.009a.559.559,0,0,1-.558-.525,6.561,6.561,0,0,0-1.177-3.344.559.559,0,1,1,.913-.646,7.582,7.582,0,0,1,1.38,3.922.559.559,0,0,1-.525.592Z" transform="translate(-612.007 -69.257)" fill="#1a2948"/>
          </g>
          <g id="Grupo_1101394" data-name="Grupo 1101394" transform="translate(84.082 25.587)">
            <g id="Grupo_1101393" data-name="Grupo 1101393">
              <path id="Trazado_876097" data-name="Trazado 876097" d="M571.81,59.743a.559.559,0,0,1-.413-.182c-1.82-2-3.5-2.236-5.806-.822a.559.559,0,1,1-.586-.953c2.751-1.688,5.043-1.364,7.219,1.021a.559.559,0,0,1-.413.936Z" transform="translate(-564.738 -56.727)" fill="#1a2948"/>
            </g>
          </g>
          <g id="Grupo_1101396" data-name="Grupo 1101396" transform="translate(96.279 27.313)">
            <g id="Grupo_1101395" data-name="Grupo 1101395">
              <path id="Trazado_876098" data-name="Trazado 876098" d="M593.614,62.829a.558.558,0,0,1-.413-.182c-1.82-2-3.5-2.235-5.807-.822a.559.559,0,1,1-.585-.954c2.751-1.688,5.046-1.363,7.218,1.021a.559.559,0,0,1-.413.936Z" transform="translate(-586.542 -59.813)" fill="#1a2948"/>
            </g>
          </g>
          <g id="Grupo_1101397" data-name="Grupo 1101397" transform="translate(113.286 5.821)">
            <path id="Trazado_876099" data-name="Trazado 876099" d="M619.549,28.49a.559.559,0,0,1-.558-.592,7.832,7.832,0,0,0-1.907-5.578.559.559,0,1,1,.842-.736,8.973,8.973,0,0,1,2.158,5.046,7.677,7.677,0,0,0,1.824-4.125.559.559,0,1,1,1.111.128,8.789,8.789,0,0,1-3.114,5.731A.56.56,0,0,1,619.549,28.49Z" transform="translate(-616.946 -21.393)" fill="#1a2948"/>
          </g>
          <g id="Grupo_1101398" data-name="Grupo 1101398" transform="translate(100.361 86.312)">
            <path id="Trazado_876100" data-name="Trazado 876100" d="M631.788,206.412c-12.36,0-32.967-18-34.135-19.853a10.311,10.311,0,0,1-1.469-4.41l-2.193-2.339a.559.559,0,0,1-.113-.586c.18-.461,4.437-11.334,7.467-13.813a.558.558,0,0,1,.591-.074L605.5,167a8.433,8.433,0,0,1,4.426-.557c1.736.237,7.645,3.534,14.613,7.493,2.308,1.312,4.3,2.444,5.127,2.846,2.96,1.44,7.4,7.764,7.07,12.542a.55.55,0,0,1-.6.52.56.56,0,0,1-.52-.6c.285-4.155-3.812-10.18-6.443-11.459-.857-.417-2.769-1.5-5.189-2.879-5-2.839-12.549-7.131-14.211-7.358a7.157,7.157,0,0,0-4.008.559.561.561,0,0,1-.5.014l-3.471-1.622c-2.518,2.439-6.031,11.011-6.747,12.8l2.088,2.226a.562.562,0,0,1,.151.362,9.234,9.234,0,0,0,1.313,4.071c1.211,1.924,25.331,22.716,36.107,18.871a.559.559,0,1,1,.376,1.054A9.8,9.8,0,0,1,631.788,206.412Z" transform="translate(-593.839 -165.285)" fill="#1a2948"/>
          </g>
          <g id="Grupo_1101399" data-name="Grupo 1101399" transform="translate(125.834 75.355)">
            <path id="Trazado_876101" data-name="Trazado 876101" d="M641.209,164.587a.559.559,0,0,1-.557-.52L639.379,146.3a.559.559,0,0,1,.518-.6.567.567,0,0,1,.6.518l1.273,17.772a.559.559,0,0,1-.518.6A.316.316,0,0,1,641.209,164.587Z" transform="translate(-639.377 -145.697)" fill="#1a2948"/>
          </g>
          <g id="Grupo_1101400" data-name="Grupo 1101400" transform="translate(129.146 89.053)">
            <path id="Trazado_876102" data-name="Trazado 876102" d="M645.859,175.194a.56.56,0,0,1-.309-1.026,25.156,25.156,0,0,1,10.993-3.978.559.559,0,1,1,.124,1.111,24.031,24.031,0,0,0-10.5,3.8A.551.551,0,0,1,645.859,175.194Z" transform="translate(-645.299 -170.185)" fill="#1a2948"/>
          </g>
          <g id="Grupo_1101401" data-name="Grupo 1101401" transform="translate(83.019 80.352)">
            <path id="Trazado_876103" data-name="Trazado 876103" d="M567.945,156.09l-.042,0-4.548-.34a.559.559,0,0,1,.083-1.115l4.548.34a.559.559,0,0,1-.041,1.117Z" transform="translate(-562.837 -154.631)" fill="#1a2948"/>
          </g>
          <g id="Grupo_1101402" data-name="Grupo 1101402" transform="translate(83.134 83.886)">
            <path id="Trazado_876104" data-name="Trazado 876104" d="M567.68,162.648a.557.557,0,0,1-.08-.006l-4.077-.582a.559.559,0,1,1,.158-1.107l4.077.582a.559.559,0,0,1-.078,1.113Z" transform="translate(-563.043 -160.948)" fill="#1a2948"/>
          </g>
          <g id="Grupo_1101403" data-name="Grupo 1101403" transform="translate(82.957 87.424)">
            <path id="Trazado_876105" data-name="Trazado 876105" d="M566.657,169.352a.554.554,0,0,1-.153-.022l-3.37-.959a.559.559,0,0,1,.306-1.076l3.37.959a.56.56,0,0,1-.153,1.1Z" transform="translate(-562.727 -167.273)" fill="#1a2948"/>
          </g>
          <g id="Grupo_1101404" data-name="Grupo 1101404" transform="translate(82.794 90.218)">
            <path id="Trazado_876106" data-name="Trazado 876106" d="M565.955,173.817a.579.579,0,0,1-.082-.006l-2.959-.431a.56.56,0,0,1,.162-1.108l2.959.431a.559.559,0,0,1-.08,1.113Z" transform="translate(-562.436 -172.267)" fill="#1a2948"/>
          </g>
          <g id="Grupo_1101405" data-name="Grupo 1101405" transform="translate(74.975 78.718)">
            <path id="Trazado_876107" data-name="Trazado 876107" d="M549.018,185.74h-.03a.559.559,0,0,1-.529-.588l1.725-32.912a.546.546,0,0,1,.589-.529.559.559,0,0,1,.529.588l-1.725,32.912A.56.56,0,0,1,549.018,185.74Z" transform="translate(-548.458 -151.709)" fill="#1a2948"/>
          </g>
          <g id="Grupo_1101406" data-name="Grupo 1101406" transform="translate(75.555 59.184)">
            <path id="Trazado_876108" data-name="Trazado 876108" d="M552.184,129.806h-.01a.559.559,0,0,1-.549-.569,30.94,30.94,0,0,0-2.091-11.686.559.559,0,1,1,1.042-.407,32.066,32.066,0,0,1,2.168,12.112A.56.56,0,0,1,552.184,129.806Z" transform="translate(-549.495 -116.788)" fill="#1a2948"/>
          </g>
          <g id="Grupo_1101407" data-name="Grupo 1101407" transform="translate(126.285 60.791)">
            <path id="Trazado_876109" data-name="Trazado 876109" d="M640.744,130.229a.56.56,0,0,1-.52-.766,16.941,16.941,0,0,1,10.714-9.779.559.559,0,1,1,.317,1.073,15.8,15.8,0,0,0-9.991,9.119A.56.56,0,0,1,640.744,130.229Z" transform="translate(-640.185 -119.661)" fill="#1a2948"/>
          </g>
          <g id="Grupo_1101408" data-name="Grupo 1101408" transform="translate(54.499 104.511)">
            <path id="Trazado_876110" data-name="Trazado 876110" d="M512.413,204.762a.558.558,0,0,1-.556-.627l.706-5.824a.56.56,0,0,1,1.111.135l-.707,5.824A.559.559,0,0,1,512.413,204.762Z" transform="translate(-511.853 -197.82)" fill="#1a2948"/>
          </g>
          <g id="Grupo_1101409" data-name="Grupo 1101409" transform="translate(57.206 104.825)">
            <path id="Trazado_876111" data-name="Trazado 876111" d="M518.907,203.73a.561.561,0,0,1-.521-.356l-1.655-4.23a.56.56,0,0,1,1.042-.408l1.655,4.23a.559.559,0,0,1-.317.724A.544.544,0,0,1,518.907,203.73Z" transform="translate(-516.692 -198.381)" fill="#1a2948"/>
          </g>
          <g id="Grupo_1101410" data-name="Grupo 1101410" transform="translate(106.991 91.68)">
            <path id="Trazado_876112" data-name="Trazado 876112" d="M606.251,183.2a.56.56,0,0,1-.5-.806l3.539-7.2a.559.559,0,1,1,1,.494l-3.539,7.2A.561.561,0,0,1,606.251,183.2Z" transform="translate(-605.693 -174.882)" fill="#1a2948"/>
          </g>
          <g id="Grupo_1101411" data-name="Grupo 1101411" transform="translate(27.702 91.253)">
            <path id="Trazado_876113" data-name="Trazado 876113" d="M464.508,180.429a.56.56,0,0,1-.351-1l6.469-5.193a.559.559,0,0,1,.7.873l-6.469,5.193A.554.554,0,0,1,464.508,180.429Z" transform="translate(-463.948 -174.117)" fill="#1a2948"/>
          </g>
          <g id="Grupo_1101412" data-name="Grupo 1101412" transform="translate(12.734 73.647)">
            <path id="Trazado_876114" data-name="Trazado 876114" d="M438.178,154.334a.559.559,0,0,1-.448-.223,3.26,3.26,0,0,1-.058-3.511,8.565,8.565,0,0,1,2.235-2.379l6.672-5.451a.559.559,0,0,1,.708.866l-6.672,5.451a7.617,7.617,0,0,0-1.963,2.052,2.2,2.2,0,0,0-.027,2.3.56.56,0,0,1-.111.783A.552.552,0,0,1,438.178,154.334Z" transform="translate(-437.19 -142.644)" fill="#1a2948"/>
          </g>
          <g id="Grupo_1101413" data-name="Grupo 1101413" transform="translate(17.62 76.423)">
            <path id="Trazado_876115" data-name="Trazado 876115" d="M446.486,156.088a.559.559,0,0,1-.362-.986l8.716-7.364a.559.559,0,1,1,.722.854l-8.716,7.364A.555.555,0,0,1,446.486,156.088Z" transform="translate(-445.926 -147.606)" fill="#1a2948"/>
          </g>
          <g id="Grupo_1101414" data-name="Grupo 1101414" transform="translate(22.072 78.829)">
            <path id="Trazado_876116" data-name="Trazado 876116" d="M454.443,160.279a.559.559,0,0,1-.4-.945l6.9-7.254a.559.559,0,0,1,.811.771l-6.9,7.254A.559.559,0,0,1,454.443,160.279Z" transform="translate(-453.883 -151.907)" fill="#1a2948"/>
          </g>
          <g id="Grupo_1101415" data-name="Grupo 1101415" transform="translate(26.683 83.411)">
            <path id="Trazado_876117" data-name="Trazado 876117" d="M466.4,166.508a.557.557,0,0,1-.336-.112,4.55,4.55,0,0,0-3.3-.869.56.56,0,0,1-.533-.873l2.986-4.313a.56.56,0,1,1,.92.637l-2.361,3.411a5.677,5.677,0,0,1,2.962,1.114.559.559,0,0,1-.337,1.005Z" transform="translate(-462.128 -160.1)" fill="#1a2948"/>
          </g>
        </g>
      </g>
      <g id="Grupo_1101420" data-name="Grupo 1101420" transform="translate(150.308 109.228)">
        <g id="Grupo_1101418" data-name="Grupo 1101418">
          <path id="Trazado_876119" data-name="Trazado 876119" d="M295.621,221.988c0,9.9,11.077,17.936,24.747,17.936.922,0,1.838-.035,2.733-.111a4.545,4.545,0,0,1,3,.825,37.7,37.7,0,0,0,12.11,5.417,16.241,16.241,0,0,1-3.544-2.712,4.586,4.586,0,0,1,.992-7.262c5.757-3.281,9.447-8.378,9.447-14.094,0-9.9-11.076-17.929-24.74-17.929S295.621,212.091,295.621,221.988Z" transform="translate(-295.621 -204.059)" fill="#f0e1cc"/>
        </g>
        <g id="Grupo_1101419" data-name="Grupo 1101419" transform="translate(34.012 4.598)">
          <path id="Trazado_876120" data-name="Trazado 876120" d="M369.261,224.165a.559.559,0,0,1-.516-.342,18.49,18.49,0,0,0-11.91-10.445.559.559,0,0,1,.3-1.079,19.632,19.632,0,0,1,12.645,11.091.56.56,0,0,1-.3.733A.571.571,0,0,1,369.261,224.165Z" transform="translate(-356.424 -212.278)" fill="#1a2948"/>
        </g>
      </g>
      <g id="Grupo_1101424" data-name="Grupo 1101424" transform="translate(150.793 2.883)">
        <g id="Grupo_1101421" data-name="Grupo 1101421">
          <path id="Trazado_876121" data-name="Trazado 876121" d="M332.153,66.6a4.433,4.433,0,0,0-3.133,1.4c-5.826,6.383-14.225,7.913-14.529,7.967A21.687,21.687,0,0,0,318.869,71a4.513,4.513,0,0,0-2.385-6.7c-14.525-4.9-25.041-17.271-17.475-34.456C313.166.09,375.638,14.985,359.9,50.739,354.865,61.317,343.724,66.248,332.153,66.6Z" transform="translate(-296.487 -13.948)" fill="#f5ddbf"/>
        </g>
        <g id="Grupo_1101422" data-name="Grupo 1101422" transform="translate(4.111 1.715)">
          <path id="Trazado_876122" data-name="Trazado 876122" d="M304.395,32.285a.559.559,0,0,1-.491-.827,28.308,28.308,0,0,1,22.868-14.442.559.559,0,0,1,.061,1.117,27.166,27.166,0,0,0-21.946,13.86A.561.561,0,0,1,304.395,32.285Z" transform="translate(-303.836 -17.015)" fill="#1a2948"/>
        </g>
        <g id="Grupo_1101423" data-name="Grupo 1101423" transform="translate(29.06 1.747)">
          <path id="Trazado_876123" data-name="Trazado 876123" d="M354.021,18.191H349a.559.559,0,0,1,0-1.119h5.023a.559.559,0,1,1,0,1.119Z" transform="translate(-348.438 -17.071)" fill="#1a2948"/>
        </g>
      </g>
      <g id="Grupo_1101431" data-name="Grupo 1101431" transform="translate(195.666 24.848)">
        <g id="Grupo_1101425" data-name="Grupo 1101425">
          <path id="Trazado_876124" data-name="Trazado 876124" d="M376.707,68.542c0,8.467,9.469,15.333,21.156,15.333.789,0,1.571-.03,2.337-.1a3.887,3.887,0,0,1,2.568.705,32.241,32.241,0,0,0,10.353,4.631,13.9,13.9,0,0,1-3.03-2.319,3.921,3.921,0,0,1,.848-6.208c4.921-2.8,8.076-7.163,8.076-12.049,0-8.461-9.469-15.328-21.15-15.328S376.707,60.081,376.707,68.542Z" transform="translate(-376.707 -53.214)" fill="#7666fa"/>
        </g>
        <g id="Grupo_1101426" data-name="Grupo 1101426" transform="translate(34.286 5.626)">
          <path id="Trazado_876125" data-name="Trazado 876125" d="M444.1,73.636a.56.56,0,0,1-.556-.5,12.2,12.2,0,0,0-5.3-8.835.559.559,0,1,1,.622-.93,13.328,13.328,0,0,1,5.791,9.654.559.559,0,0,1-.5.612A.492.492,0,0,1,444.1,73.636Z" transform="translate(-438 -63.272)" fill="#1a2948"/>
        </g>
        <g id="Grupo_1101427" data-name="Grupo 1101427" transform="translate(1.621 16.842)">
          <path id="Trazado_876126" data-name="Trazado 876126" d="M387.569,92.775a.554.554,0,0,1-.253-.061,16.006,16.006,0,0,1-7.677-8.639.559.559,0,1,1,1.05-.387,14.877,14.877,0,0,0,7.134,8.029.559.559,0,0,1-.254,1.057Z" transform="translate(-379.604 -83.322)" fill="#1a2948"/>
        </g>
        <g id="Grupo_1101428" data-name="Grupo 1101428" transform="translate(6.885 12.049)">
          <path id="Trazado_876127" data-name="Trazado 876127" d="M392.282,74.753c-4.352,0-4.359,6.763,0,6.763S396.641,74.753,392.282,74.753Z" transform="translate(-389.015 -74.753)" fill="#fbf5e8"/>
        </g>
        <g id="Grupo_1101429" data-name="Grupo 1101429" transform="translate(17.886 12.049)">
          <path id="Trazado_876128" data-name="Trazado 876128" d="M411.949,74.753c-4.352,0-4.359,6.763,0,6.763S416.308,74.753,411.949,74.753Z" transform="translate(-408.682 -74.753)" fill="#fbf5e8"/>
        </g>
        <g id="Grupo_1101430" data-name="Grupo 1101430" transform="translate(28.888 12.049)">
          <path id="Trazado_876129" data-name="Trazado 876129" d="M431.616,74.753c-4.352,0-4.359,6.763,0,6.763S435.975,74.753,431.616,74.753Z" transform="translate(-428.349 -74.753)" fill="#fbf5e8"/>
        </g>
      </g>
    </g>
  </g>
</svg>
