<svg xmlns="http://www.w3.org/2000/svg" xmlns:xlink="http://www.w3.org/1999/xlink" width="402" height="404" viewBox="0 0 402 404">
  <defs>
    <clipPath id="clip-path">
      <rect id="Rectángulo_401258" data-name="Rectángulo 401258" width="158.226" height="140.275" fill="#405f5a"/>
    </clipPath>
    <clipPath id="clip-path-2">
      <rect id="Rectángulo_402350" data-name="Rectángulo 402350" width="388.084" height="281.454" fill="none"/>
    </clipPath>
    <clipPath id="clip-path-3">
      <path id="Trazado_873467" data-name="Trazado 873467" d="M140.067,72.316A61.377,61.377,0,1,1,78.689,10.939a61.378,61.378,0,0,1,61.378,61.377" transform="translate(-17.313 -10.939)" fill="#2436b1"/>
    </clipPath>
  </defs>
  <g id="Grupo_1101456" data-name="Grupo 1101456" transform="translate(-283.333 -569)">
    <rect id="Rectángulo_401253" data-name="Rectángulo 401253" width="402" height="404" rx="10" transform="translate(283.333 569)" fill="#d2d6ef"/>
    <g id="Grupo_1099438" data-name="Grupo 1099438" transform="translate(505.057 585.934)">
      <g id="Grupo_1099431" data-name="Grupo 1099431" clip-path="url(#clip-path)">
        <path id="Trazado_873431" data-name="Trazado 873431" d="M0,3.158A3.158,3.158,0,1,0,3.158,0,3.158,3.158,0,0,0,0,3.158" transform="translate(151.909)" fill="#405f5a"/>
        <path id="Trazado_873432" data-name="Trazado 873432" d="M28.954,3.158A3.158,3.158,0,1,0,32.112,0a3.158,3.158,0,0,0-3.158,3.158" transform="translate(92.572)" fill="#405f5a"/>
        <path id="Trazado_873433" data-name="Trazado 873433" d="M57.907,3.158A3.158,3.158,0,1,0,61.065,0a3.158,3.158,0,0,0-3.158,3.158" transform="translate(33.238)" fill="#405f5a"/>
        <path id="Trazado_873434" data-name="Trazado 873434" d="M86.86,3.158A3.158,3.158,0,1,0,90.018,0,3.158,3.158,0,0,0,86.86,3.158" transform="translate(-26.096)" fill="#405f5a"/>
        <path id="Trazado_873435" data-name="Trazado 873435" d="M115.813,3.158A3.159,3.159,0,1,0,118.971,0a3.159,3.159,0,0,0-3.158,3.158" transform="translate(-85.432)" fill="#405f5a"/>
        <path id="Trazado_873436" data-name="Trazado 873436" d="M144.767,3.158A3.158,3.158,0,1,0,147.925,0a3.158,3.158,0,0,0-3.158,3.158" transform="translate(-144.767)" fill="#405f5a"/>
        <path id="Trazado_873437" data-name="Trazado 873437" d="M0,35.073a3.158,3.158,0,1,0,3.158-3.158A3.159,3.159,0,0,0,0,35.073" transform="translate(151.909 1.574)" fill="#405f5a"/>
        <path id="Trazado_873438" data-name="Trazado 873438" d="M28.954,35.073a3.158,3.158,0,1,0,3.158-3.158,3.159,3.159,0,0,0-3.158,3.158" transform="translate(92.572 1.574)" fill="#405f5a"/>
        <path id="Trazado_873439" data-name="Trazado 873439" d="M57.907,35.073a3.158,3.158,0,1,0,3.158-3.158,3.159,3.159,0,0,0-3.158,3.158" transform="translate(33.238 1.574)" fill="#405f5a"/>
        <path id="Trazado_873440" data-name="Trazado 873440" d="M86.86,35.073a3.158,3.158,0,1,0,3.158-3.158,3.159,3.159,0,0,0-3.158,3.158" transform="translate(-26.096 1.574)" fill="#405f5a"/>
        <path id="Trazado_873441" data-name="Trazado 873441" d="M115.813,35.073a3.159,3.159,0,1,0,3.158-3.158,3.16,3.16,0,0,0-3.158,3.158" transform="translate(-85.432 1.574)" fill="#405f5a"/>
        <path id="Trazado_873442" data-name="Trazado 873442" d="M144.767,35.073a3.158,3.158,0,1,0,3.158-3.158,3.159,3.159,0,0,0-3.158,3.158" transform="translate(-144.767 1.574)" fill="#405f5a"/>
        <path id="Trazado_873443" data-name="Trazado 873443" d="M0,66.988A3.158,3.158,0,1,0,3.158,63.83,3.159,3.159,0,0,0,0,66.988" transform="translate(151.909 3.149)" fill="#405f5a"/>
        <path id="Trazado_873444" data-name="Trazado 873444" d="M28.954,66.988a3.158,3.158,0,1,0,3.158-3.158,3.159,3.159,0,0,0-3.158,3.158" transform="translate(92.572 3.149)" fill="#405f5a"/>
        <path id="Trazado_873445" data-name="Trazado 873445" d="M57.907,66.988a3.158,3.158,0,1,0,3.158-3.158,3.159,3.159,0,0,0-3.158,3.158" transform="translate(33.238 3.149)" fill="#405f5a"/>
        <path id="Trazado_873446" data-name="Trazado 873446" d="M86.86,66.988a3.158,3.158,0,1,0,3.158-3.158,3.159,3.159,0,0,0-3.158,3.158" transform="translate(-26.096 3.149)" fill="#405f5a"/>
        <path id="Trazado_873447" data-name="Trazado 873447" d="M115.813,66.988a3.159,3.159,0,1,0,3.158-3.158,3.16,3.16,0,0,0-3.158,3.158" transform="translate(-85.432 3.149)" fill="#405f5a"/>
        <path id="Trazado_873448" data-name="Trazado 873448" d="M144.767,66.988a3.158,3.158,0,1,0,3.158-3.158,3.159,3.159,0,0,0-3.158,3.158" transform="translate(-144.767 3.149)" fill="#405f5a"/>
        <path id="Trazado_873449" data-name="Trazado 873449" d="M0,98.9a3.158,3.158,0,1,0,3.158-3.158A3.159,3.159,0,0,0,0,98.9" transform="translate(151.909 4.723)" fill="#405f5a"/>
        <path id="Trazado_873450" data-name="Trazado 873450" d="M28.954,98.9a3.158,3.158,0,1,0,3.158-3.158A3.159,3.159,0,0,0,28.954,98.9" transform="translate(92.572 4.723)" fill="#405f5a"/>
        <path id="Trazado_873451" data-name="Trazado 873451" d="M57.907,98.9a3.158,3.158,0,1,0,3.158-3.158A3.159,3.159,0,0,0,57.907,98.9" transform="translate(33.238 4.723)" fill="#405f5a"/>
        <path id="Trazado_873452" data-name="Trazado 873452" d="M86.86,98.9a3.158,3.158,0,1,0,3.158-3.158A3.159,3.159,0,0,0,86.86,98.9" transform="translate(-26.096 4.723)" fill="#405f5a"/>
        <path id="Trazado_873453" data-name="Trazado 873453" d="M115.813,98.9a3.159,3.159,0,1,0,3.158-3.158,3.16,3.16,0,0,0-3.158,3.158" transform="translate(-85.432 4.723)" fill="#405f5a"/>
        <path id="Trazado_873454" data-name="Trazado 873454" d="M144.767,98.9a3.158,3.158,0,1,0,3.158-3.158,3.159,3.159,0,0,0-3.158,3.158" transform="translate(-144.767 4.723)" fill="#405f5a"/>
        <path id="Trazado_873455" data-name="Trazado 873455" d="M0,130.818a3.158,3.158,0,1,0,3.158-3.159A3.159,3.159,0,0,0,0,130.818" transform="translate(151.909 6.298)" fill="#405f5a"/>
        <path id="Trazado_873456" data-name="Trazado 873456" d="M28.954,130.818a3.158,3.158,0,1,0,3.158-3.159,3.159,3.159,0,0,0-3.158,3.159" transform="translate(92.572 6.298)" fill="#405f5a"/>
        <path id="Trazado_873457" data-name="Trazado 873457" d="M57.907,130.818a3.158,3.158,0,1,0,3.158-3.159,3.159,3.159,0,0,0-3.158,3.159" transform="translate(33.238 6.298)" fill="#405f5a"/>
        <path id="Trazado_873458" data-name="Trazado 873458" d="M86.86,130.818a3.158,3.158,0,1,0,3.158-3.159,3.159,3.159,0,0,0-3.158,3.159" transform="translate(-26.096 6.298)" fill="#405f5a"/>
        <path id="Trazado_873459" data-name="Trazado 873459" d="M115.813,130.818a3.159,3.159,0,1,0,3.158-3.159,3.16,3.16,0,0,0-3.158,3.159" transform="translate(-85.432 6.298)" fill="#405f5a"/>
        <path id="Trazado_873460" data-name="Trazado 873460" d="M144.767,130.818a3.158,3.158,0,1,0,3.158-3.159,3.159,3.159,0,0,0-3.158,3.159" transform="translate(-144.767 6.298)" fill="#405f5a"/>
      </g>
    </g>
    <g id="Grupo_1101444" data-name="Grupo 1101444" transform="translate(285 636.073)">
      <g id="Grupo_1101443" data-name="Grupo 1101443" clip-path="url(#clip-path-2)">
        <path id="Trazado_876590" data-name="Trazado 876590" d="M69.91,191.951c-1.214.383-2.642-.648-3.251-2.347L39.293,113.356l10.583-3.34,21.35,78.147c.475,1.742-.1,3.406-1.316,3.788" transform="translate(26.659 74.643)" fill="#bcb5c6"/>
        <path id="Trazado_876591" data-name="Trazado 876591" d="M22.021,191.951c1.214.383,2.642-.648,3.251-2.347l27.366-76.248-10.583-3.34-21.35,78.147c-.475,1.742.1,3.406,1.316,3.788" transform="translate(13.935 74.643)" fill="#bcb5c6"/>
        <path id="Trazado_876592" data-name="Trazado 876592" d="M67.889,37.962s1.526-6.6,5.071-9.587,7.733-4.908,6.987-2.232a42.934,42.934,0,0,1-3.213,7.036l6.412-1.67A55.388,55.388,0,0,1,90.369,28.8c3.038-.792,3.981,1.443,3.981,1.443s3.036-.791,4.352.106.368,2.8.368,2.8,4.352.107,2.7,3.431-10.3,8.884-14.485,10.8-13.6,3.129-13.6,3.129-8.46,1.8-5.791-12.547" transform="translate(45.708 16.872)" fill="#fc907e"/>
        <path id="Trazado_876593" data-name="Trazado 876593" d="M86.272,36.414a.425.425,0,0,1-.2-.05L75,30.346a.419.419,0,0,1,.4-.737L86.47,35.625a.42.42,0,0,1,.17.569.415.415,0,0,1-.368.22" transform="translate(50.735 20.055)"/>
        <path id="Trazado_876594" data-name="Trazado 876594" d="M68.9,39.493a.419.419,0,0,1-.1-.826c3.354-.851,5.51-2.231,6.41-4.1a4.9,4.9,0,0,0,.118-3.832.42.42,0,0,1,.764-.349,5.663,5.663,0,0,1-.118,4.53c-1.01,2.11-3.354,3.646-6.967,4.562a.358.358,0,0,1-.1.013" transform="translate(46.466 20.451)"/>
        <path id="Trazado_876595" data-name="Trazado 876595" d="M86.843,137.307l1.537,18.628H59.3V137.307Z" transform="translate(40.233 93.16)" fill="#fc907e"/>
        <path id="Trazado_876596" data-name="Trazado 876596" d="M113.028,105.991l12.978,13.451-22.518,18.4L91.7,123.421Z" transform="translate(62.217 71.913)" fill="#fc907e"/>
        <path id="Trazado_876597" data-name="Trazado 876597" d="M34.174,58.863S4.116,69.587,9.757,108.883C14.939,144.976,51.692,156.488,82.783,148s25.909-32.989,25.909-32.989Z" transform="translate(6.141 39.937)" fill="#eae6ef"/>
        <path id="Trazado_876598" data-name="Trazado 876598" d="M21.632,109.517a.421.421,0,0,1-.285-.111c-7.932-7.337-9.4-21.194-9.465-21.78a.42.42,0,0,1,.376-.458.4.4,0,0,1,.46.374c.013.141,1.5,14.129,9.2,21.246a.42.42,0,0,1-.285.728" transform="translate(8.06 59.138)" fill="#fff"/>
        <path id="Trazado_876599" data-name="Trazado 876599" d="M23.117,92.82c-1.153,3.711,7.548,9.713,19.435,13.409s22.46,3.683,23.613-.029S58.617,96.488,46.73,92.792s-22.46-3.683-23.613.029" transform="translate(15.615 61.083)" fill="#dcd7e0"/>
        <path id="Trazado_876600" data-name="Trazado 876600" d="M98.781,119.7v49.869H58.476L50.962,100.75l32.108-3.594Z" transform="translate(34.576 65.918)" fill="#ea366e"/>
        <path id="Trazado_876601" data-name="Trazado 876601" d="M62.094,159.882a.42.42,0,0,1-.418-.376L55.182,98.04a.42.42,0,1,1,.836-.087l6.494,61.466a.421.421,0,0,1-.374.462l-.044,0" transform="translate(37.438 66.204)" fill="#ffa233"/>
        <path id="Trazado_876602" data-name="Trazado 876602" d="M66.383,158.885a.421.421,0,0,1-.42-.4l-3.2-59a.419.419,0,0,1,.4-.441.424.424,0,0,1,.443.394l3.2,59a.42.42,0,0,1-.4.441l-.023,0" transform="translate(42.586 67.201)" fill="#ffa233"/>
        <path id="Trazado_876603" data-name="Trazado 876603" d="M70.132,158.483a.42.42,0,0,1-.42-.42v-58a.42.42,0,0,1,.839,0v58a.42.42,0,0,1-.42.42" transform="translate(47.298 67.603)" fill="#ffa233"/>
        <path id="Trazado_876604" data-name="Trazado 876604" d="M75.022,154.149a.424.424,0,0,1-.42-.443l2.681-47.281a.442.442,0,0,1,.441-.394.421.421,0,0,1,.4.443l-2.681,47.279a.421.421,0,0,1-.42.4" transform="translate(50.615 71.937)" fill="#ffa233"/>
        <path id="Trazado_876605" data-name="Trazado 876605" d="M162.93,124.9s-32.791-38.939-52.6-45.087-81.3-4.1-81.3-4.1-6.148,28.692,10.247,36.206,48.041,6.148,53.4,8.881,38.147,34.84,38.147,34.84Z" transform="translate(18.932 51.15)" fill="#f74d76"/>
        <path id="Trazado_876606" data-name="Trazado 876606" d="M126.87,137.573a.419.419,0,0,1-.307-.133c-.193-.206-19.449-20.719-30.07-25.775-6.615-3.149-19.214-4.57-31.4-5.945-7.755-.876-15.078-1.7-20.949-2.942C28.627,99.5,32.408,78.284,32.447,78.07a.41.41,0,0,1,.49-.334.417.417,0,0,1,.336.488c-.039.206-3.671,20.622,11.046,23.734,5.833,1.232,13.137,2.056,20.87,2.929,12.253,1.383,24.922,2.813,31.664,6.022,10.764,5.123,29.529,25.11,30.323,25.958a.423.423,0,0,1-.02.594.416.416,0,0,1-.287.112" transform="translate(21.721 52.736)" fill="#ffaf45"/>
        <path id="Trazado_876607" data-name="Trazado 876607" d="M129.675,131.022a.418.418,0,0,1-.339-.173c-.166-.228-16.879-22.913-35.921-29.137-12.845-4.2-28.286-5.722-38.5-6.727-5.381-.529-9.267-.911-11.095-1.479-6.778-2.1-5.521-14.861-5.465-15.4a.42.42,0,0,1,.836.086c-.013.128-1.245,12.617,4.878,14.515,1.744.542,5.8.94,10.929,1.445,10.254,1.009,25.751,2.533,38.687,6.763,19.3,6.311,36.166,29.211,36.332,29.442a.42.42,0,0,1-.337.666" transform="translate(25.935 52.736)" fill="#ffaf45"/>
        <path id="Trazado_876608" data-name="Trazado 876608" d="M133.292,125.276a.421.421,0,0,1-.354-.195c-.124-.195-12.673-19.63-32.1-28.977-13.913-6.7-30.073-7.269-39.73-7.614-4.134-.148-7.12-.253-8.528-.764-7.157-2.588-9.317-10.259-9.4-10.584a.419.419,0,0,1,.809-.22C44,77,46.124,84.5,52.863,86.94c1.284.463,4.369.572,8.273.712,9.722.346,25.993.927,40.064,7.7,19.65,9.453,32.321,29.086,32.447,29.284a.42.42,0,0,1-.128.579.432.432,0,0,1-.227.065" transform="translate(29.282 51.981)" fill="#ffaf45"/>
        <path id="Trazado_876609" data-name="Trazado 876609" d="M133.462,117.441a.42.42,0,0,1-.342-.176c-.154-.215-15.44-21.6-33.823-30.313s-45.765-9.492-46.039-9.5a.42.42,0,0,1,.01-.839c.287.007,27.829.775,46.391,9.579,18.581,8.812,33.991,30.37,34.144,30.585a.421.421,0,0,1-.1.586.427.427,0,0,1-.243.077" transform="translate(35.856 51.981)" fill="#ffaf45"/>
        <path id="Trazado_876610" data-name="Trazado 876610" d="M131.431,177.635a1.172,1.172,0,0,0,.958-1.386c-.534-3.164-2.437-12.008-7.442-15.761-6.152-4.612-19.041-6.457-23.727-9.532s-9.933-10.5-12.73-9.094-8.07,7.864-15.685,6.94-11.133-2.766-13.183-.921-3.223,27.675-2.343,29.212,11.607.117,12.54.366,3.572-5.9,5.329-4.978,3.9,3.808,6.491,5.133c2.417,1.237,42.111,1.051,49.792.022" transform="translate(38.662 96.131)" fill="#50447e"/>
        <path id="Trazado_876611" data-name="Trazado 876611" d="M171.207,117.608a1.173,1.173,0,0,0,.039-1.685c-2.187-2.348-8.637-8.689-14.883-9.072-7.674-.47-19.454,5.076-25.06,5.084s-14.069-3.308-15.632-.6-2.417,11-9.287,14.422-10.819,3.808-11.518,6.477,12.526,24.888,14.106,25.689,9.759-6.284,10.675-6.59-.262-6.892,1.714-7.088,5.353,1.036,8.245.718c2.7-.3,35.753-22.277,41.6-27.359" transform="translate(64.347 72.477)" fill="#50447e"/>
        <path id="Trazado_876612" data-name="Trazado 876612" d="M61.8,62.481,77.749,37.144l14.964.606s2.169,39.906-16.2,48.406C62,92.873,52.362,79.369,52.362,79.369Z" transform="translate(35.526 25.201)" fill="#fc907e"/>
        <path id="Trazado_876613" data-name="Trazado 876613" d="M21.666,78.169S30.54,50.33,42.531,44.311C57.552,36.77,72.473,41.6,87.162,52.883l2.926,32.75L86.66,89.069l.5,10.64L32.136,102.93,30.968,82.245Z" transform="translate(14.7 27.597)" fill="#80baff"/>
        <path id="Trazado_876614" data-name="Trazado 876614" d="M33.536,28.965s-3.4,4.774-1.2,8.062a9.961,9.961,0,0,0,6.19,3.9s-.73,3.223,3.1,5.062,5.086-3.359,5.086-3.359l-1.205-13.1-8.122-5.749Z" transform="translate(21.437 16.133)"/>
        <path id="Trazado_876615" data-name="Trazado 876615" d="M40.042,36.476l-.332,9.759s1.663,2.865,7.357,3.523c4.242.492,5.767-.42,5.767-.42l-.425-4.963-.42-4.839-10.23-2.618Z" transform="translate(26.942 24.748)" fill="#fc907e"/>
        <path id="Trazado_876616" data-name="Trazado 876616" d="M40.931,36.739a3.121,3.121,0,0,0,.25.952c2.018,4.948,7.951,6.2,10.4,6.507l-.421-4.841Z" transform="translate(27.771 24.927)"/>
        <path id="Trazado_876617" data-name="Trazado 876617" d="M57.509,26.634s4.7,12.409,2.454,19.138-8.414,5.348-12.068,3.844a12.325,12.325,0,0,1-5.269-3.871,5.251,5.251,0,0,1-5.7-2.341c-2.164-3.345-.549-6.986,1.477-7.738s4.315.8,4.315.8l-1.675-3.622s8.669-17.554,16.463-6.209" transform="translate(24.357 15.48)" fill="#fc907e"/>
        <path id="Trazado_876618" data-name="Trazado 876618" d="M48.477,36.678a.4.4,0,0,1-.146-.027.418.418,0,0,1-.247-.539c.812-2.184-.717-4.678-.732-4.7a.419.419,0,0,1,.712-.443c.072.116,1.762,2.874.806,5.438a.417.417,0,0,1-.393.274" transform="translate(32.085 20.875)"/>
        <path id="Trazado_876619" data-name="Trazado 876619" d="M40.9,36.17a.415.415,0,0,1-.321-.149l-3.1-3.681a.42.42,0,0,1,.643-.542l3.1,3.683a.418.418,0,0,1-.05.591.423.423,0,0,1-.27.1" transform="translate(25.362 21.474)"/>
        <path id="Trazado_876620" data-name="Trazado 876620" d="M37.6,34.1a.42.42,0,0,1-.039-.838l2.3-.217a.42.42,0,1,1,.077.836l-2.3.217-.039,0" transform="translate(25.225 22.416)"/>
        <path id="Trazado_876621" data-name="Trazado 876621" d="M44.695,34.608a.4.4,0,0,1,.089.01L49.677,35.7a.421.421,0,0,1,.24.671c-.06.074-1.48,1.833-3.239,1.17a4.555,4.555,0,0,1-2.372-2.35.425.425,0,0,1,.067-.43.42.42,0,0,1,.322-.149m4.033,1.739-3.174-.7a3.284,3.284,0,0,0,1.418,1.1,1.842,1.842,0,0,0,1.756-.4" transform="translate(30.039 23.481)"/>
        <path id="Trazado_876622" data-name="Trazado 876622" d="M45.105,32.666a.42.42,0,0,1-.418-.389L44.526,30a.419.419,0,1,1,.836-.059l.161,2.278a.418.418,0,0,1-.388.448l-.03,0" transform="translate(30.209 20.048)"/>
        <path id="Trazado_876623" data-name="Trazado 876623" d="M49.142,32.569a.421.421,0,0,1-.418-.383l-.2-2.274a.42.42,0,0,1,.379-.457.413.413,0,0,1,.457.381l.2,2.274a.419.419,0,0,1-.379.457l-.039,0" transform="translate(32.918 19.984)"/>
        <path id="Trazado_876624" data-name="Trazado 876624" d="M44.922,39.4a6.156,6.156,0,0,0,3.619-3.741,6.07,6.07,0,0,0-.807-4.894s4.978,1.574,7.508-.643,1.945-3.243,1.945-3.243l3.072,4.275s.44-5.2-1.464-7.795-4.708-.7-4.708-.7.17-4.015-4.78-4.173a5.124,5.124,0,0,0-5.583,4.176,8.419,8.419,0,0,0-8.392,2.026,8.645,8.645,0,0,0-2.514,7.864Z" transform="translate(22.156 12.543)"/>
        <path id="Trazado_876625" data-name="Trazado 876625" d="M97.637,122.164a.417.417,0,0,1-.309-.136c-.153-.166-15.465-16.721-20.323-17.809-4.955-1.111-25.553-2.927-25.76-2.944a.419.419,0,0,1,.072-.836c.851.074,20.86,1.838,25.87,2.961,5.111,1.145,20.122,17.369,20.758,18.06a.419.419,0,0,1-.309.7" transform="translate(34.509 68.145)" fill="#ffaf45"/>
        <path id="Trazado_876626" data-name="Trazado 876626" d="M66.707,106.243a.389.389,0,0,1-.106-.013.419.419,0,0,1-.312-.374c-.128-1.707-.426-7.347,1.1-8.245a1.11,1.11,0,0,1,1.24.107c1.182.779,1.25,2.454.208,4.978a22.661,22.661,0,0,1-1.778,3.359.42.42,0,0,1-.351.188m1.187-7.931a.145.145,0,0,0-.081.022c-.636.374-.866,3.234-.764,6.1a19.837,19.837,0,0,0,1.014-2.066c.592-1.438,1.093-3.293.1-3.946a.514.514,0,0,0-.27-.107" transform="translate(44.9 66.132)" fill="#ffaf45"/>
        <path id="Trazado_876627" data-name="Trazado 876627" d="M83.751,130.454a.42.42,0,0,1-.287-.727l32.114-29.974a.42.42,0,0,1,.574.613L84.038,130.341a.427.427,0,0,1-.287.112" transform="translate(56.538 67.603)" fill="#ffaf45"/>
        <path id="Trazado_876628" data-name="Trazado 876628" d="M94.708,135.036H55.6a.42.42,0,0,1,0-.839H94.708a.42.42,0,1,1,0,.839" transform="translate(37.438 91.05)" fill="#ffa233"/>
        <path id="Trazado_876629" data-name="Trazado 876629" d="M40.5,40.678S36.384,52.3,40.109,51.632,50.1,47.05,50.1,47.05s6.789,1.932,8.676,1.148S53.2,41.524,53.2,41.524s-1.65,11.34-12.7-.846" transform="translate(26.154 27.599)" fill="#b8dcff"/>
        <path id="Trazado_876630" data-name="Trazado 876630" d="M166.45,140.037l-5.957,16.023-20.1-12.736,4.238-11.4Z" transform="translate(95.25 89.507)" fill="#fc8165"/>
        <path id="Trazado_876631" data-name="Trazado 876631" d="M221.336,193.466c-1.214.383-2.642-.648-3.251-2.347l-27.366-76.248,10.583-3.34,21.35,78.147c.475,1.742-.1,3.406-1.316,3.788" transform="translate(129.398 75.671)" fill="#bcb5c6"/>
        <path id="Trazado_876632" data-name="Trazado 876632" d="M173.447,193.466c1.214.383,2.642-.648,3.251-2.347l27.366-76.248-10.583-3.34-21.35,78.147c-.475,1.742.1,3.406,1.316,3.788" transform="translate(116.674 75.671)" fill="#bcb5c6"/>
        <path id="Trazado_876633" data-name="Trazado 876633" d="M234.875,53.533s33.011,14.6,24.727,61.491c-6.044,34.211-39.954,45.356-69.576,37.266s-24.685-31.431-24.685-31.431Z" transform="translate(111.971 36.321)" fill="#eae6ef"/>
        <path id="Trazado_876634" data-name="Trazado 876634" d="M213.715,110.062a.42.42,0,0,1-.285-.728c7.327-6.776,8.745-20.095,8.758-20.229a.4.4,0,0,1,.46-.374.419.419,0,0,1,.376.458c-.055.559-1.46,13.767-9.023,20.763a.421.421,0,0,1-.285.111" transform="translate(144.716 60.199)" fill="#eac89f"/>
        <path id="Trazado_876635" data-name="Trazado 876635" d="M226.485,94.969c1.153,3.711-7.548,9.713-19.435,13.409s-22.46,3.683-23.613-.029,7.548-9.713,19.435-13.409,22.46-3.683,23.613.029" transform="translate(124.388 62.541)" fill="#dcd7e0"/>
        <path id="Trazado_876636" data-name="Trazado 876636" d="M112.119,153.436a1.082,1.082,0,0,1-.411-1.5c1.43-2.59,5.786-9.707,11.286-11.446,6.761-2.137,18.542.191,23.559-1.054s11.847-6.106,13.852-4.03,4.623,9.307,11.533,10.828,10.531.989,11.753,3.219-5.641,25.068-6.875,26.139-10.136-3.441-11.026-3.51-1.306-6.224-3.117-5.959-4.557,2.123-7.216,2.486c-2.481.339-36.968-11.936-43.338-15.175" transform="translate(75.692 91.526)" fill="#ea366e"/>
        <path id="Trazado_876637" data-name="Trazado 876637" d="M143.967,145.239a.42.42,0,0,1-.2-.052l-10.45-5.806,2.91,4.3a.42.42,0,0,1-.561.6l-9.6-5.678a.419.419,0,0,1,.426-.722l8,4.727-2.848-4.21a.42.42,0,0,1,.551-.6l9.324,5.18-4.946-4.9a.419.419,0,1,1,.589-.6l7.11,7.046a.42.42,0,0,1-.3.718" transform="translate(85.388 93.19)" fill="#fcad4f"/>
        <path id="Trazado_876638" data-name="Trazado 876638" d="M183.284,148.877l-6.138,15.249-20-12.659,4.542-11.283Z" transform="translate(106.618 95.112)" fill="#fc8165"/>
        <path id="Trazado_876639" data-name="Trazado 876639" d="M128.683,160.358a1.082,1.082,0,0,1-.373-1.509c1.5-2.551,6.041-9.549,11.59-11.14,6.815-1.955,18.529.685,23.578-.426s12.006-5.787,13.953-3.657,4.372,9.425,11.239,11.13,10.5,1.269,11.665,3.532-6.308,24.909-7.57,25.946-10.042-3.709-10.929-3.8-1.14-6.257-2.959-6.039-4.612,2-7.278,2.293c-2.489.272-36.638-12.918-42.917-16.327" transform="translate(86.946 97.074)" fill="#f74d76"/>
        <path id="Trazado_876640" data-name="Trazado 876640" d="M160.568,153.405a.4.4,0,0,1-.213-.059l-10.291-6.081,2.793,4.378a.419.419,0,0,1-.055.52.424.424,0,0,1-.522.06l-9.448-5.932a.418.418,0,0,1-.133-.579.423.423,0,0,1,.577-.133l7.87,4.94-2.734-4.283a.42.42,0,0,1,.567-.587l9.18,5.427-4.814-5.035a.42.42,0,0,1,.608-.579l6.919,7.234a.42.42,0,0,1-.3.71" transform="translate(96.774 98.605)" fill="#fcad4f"/>
        <path id="Trazado_876641" data-name="Trazado 876641" d="M220.265,60.65s-3.176-2.132-2.754,4.863-11.509,84.765-9.6,86.443,11.9,1.678,11.9,1.678-3.087,9,0,9.816,22.456-6.642,26.653-13.265S235.2,80.62,220.265,60.65" transform="translate(140.921 40.942)" fill="#8758e7"/>
        <path id="Trazado_876642" data-name="Trazado 876642" d="M220.246,39.543s-6.821-13.383-13.659-17.413-10.071-3.855-10.811-2.926,2.978,4.408,2.978,4.408-6.529-3.61-8.114-1.541,3.8,5.875,3.8,5.875-5.195-1.616-5.322.676,10.336,8.444,10.336,8.444-6.136-1.314-6.257.457,7.974,7.187,11.14,8.592a14.334,14.334,0,0,0,7.347,1.046Z" transform="translate(128.308 12.656)" fill="#fc6c54"/>
        <path id="Trazado_876643" data-name="Trazado 876643" d="M185.184,30.3S196.138,24,203.943,22.55s10.783-.178,11.159.95-4.307,3.122-4.307,3.122,7.372-1.158,8.152,1.328-5.578,4.223-5.578,4.223,5.435.258,4.77,2.456-12.6,4.4-12.6,4.4,6.215.864,5.725,2.571-9.134,3.963-12.516,3.213a33.547,33.547,0,0,1-7.689-3.265Z" transform="translate(125.643 14.86)" fill="#fc6c54"/>
        <path id="Trazado_876644" data-name="Trazado 876644" d="M209.561,42.088l-2.412-17.495s-29.41.841-40.309,13.072c-17.008,19.093,21.778,37.929,21.778,37.929L197.684,51.8Z" transform="translate(110.271 16.686)" fill="#ada4f7"/>
        <path id="Trazado_876645" data-name="Trazado 876645" d="M201.743,43.946l10.21-17.167s20.034,5.777,29.1,23.22c11.8,22.686-36.953,34.563-36.953,34.563L206.517,54.8Z" transform="translate(136.878 18.169)" fill="#ada4f7"/>
        <path id="Trazado_876646" data-name="Trazado 876646" d="M200.592,37.015a23.7,23.7,0,0,0-15.831,6.044c-7.266,6.534-10.794,60.14-10.437,60.847s4.654,2.362,23.5,3.725c20.352,1.474,28.155.634,28.96-.27s3.918-56.768-.384-61.875-13.44-8.154-25.807-8.47" transform="translate(118.258 25.108)" fill="#ada4f7"/>
        <path id="Trazado_876647" data-name="Trazado 876647" d="M216.166,229.252a3.086,3.086,0,0,1-3.087-3.087V76.171h6.173V226.165a3.086,3.086,0,0,1-3.087,3.087" transform="translate(144.569 51.68)" fill="#dcd7e0"/>
        <path id="Trazado_876648" data-name="Trazado 876648" d="M102.123,229.252a3.086,3.086,0,0,1-3.087-3.087V76.171h6.173V226.165a3.086,3.086,0,0,1-3.087,3.087" transform="translate(67.194 51.68)" fill="#dcd7e0"/>
        <path id="Trazado_876649" data-name="Trazado 876649" d="M123.653,77.473h57.209a3.317,3.317,0,0,0,0-6.633H123.653a3.317,3.317,0,1,0,0,6.633" transform="translate(81.645 48.063)" fill="#bcb5c6"/>
        <path id="Trazado_876650" data-name="Trazado 876650" d="M109.765,80.8h91.323a5.354,5.354,0,0,0,5.354-5.353V34.5a5.354,5.354,0,0,0-5.354-5.353H109.765a5.353,5.353,0,0,0-5.353,5.353V75.445a5.353,5.353,0,0,0,5.353,5.353" transform="translate(70.841 19.778)" fill="#bcb5c6"/>
        <rect id="Rectángulo_402349" data-name="Rectángulo 402349" width="15.044" height="43.995" transform="translate(218.746 82.46)" fill="#ccc5d3"/>
        <path id="Trazado_876651" data-name="Trazado 876651" d="M129.509,54.751h22.606a3.559,3.559,0,0,0,3.56-3.558v-.507a3.561,3.561,0,0,0-3.56-3.56H129.509a3.559,3.559,0,0,0-3.558,3.56v.507a3.558,3.558,0,0,0,3.558,3.558" transform="translate(85.455 31.974)" fill="#ccc5d3"/>
        <path id="Trazado_876652" data-name="Trazado 876652" d="M170.152,31.688H139.524a.42.42,0,0,1,0-.839h30.629a.42.42,0,0,1,0,.839" transform="translate(94.379 20.93)" fill="#fff"/>
        <path id="Trazado_876653" data-name="Trazado 876653" d="M181.866,40.087a4.649,4.649,0,0,1-2.675-.561,1.163,1.163,0,0,1-.465-.937,1.144,1.144,0,0,1,.465-.932c1.756-1.361,8.943.428,9.757.636a.42.42,0,0,1-.008.816,37.412,37.412,0,0,1-7.073.977m-.378-2.106a3.23,3.23,0,0,0-1.783.341.31.31,0,0,0-.141.269.33.33,0,0,0,.146.28c.883.695,4.339.334,7.174-.191a29.626,29.626,0,0,0-5.4-.7" transform="translate(121.261 25.206)" fill="#8758e7"/>
        <path id="Trazado_876654" data-name="Trazado 876654" d="M213.808,46c-2.867,0-8.542-2.959-9.27-3.345a.42.42,0,0,1,.173-.789c.848-.05,8.349-.426,10.318,1.554a1.623,1.623,0,0,1,.514,1.287,1.254,1.254,0,0,1-.648,1.068,2.242,2.242,0,0,1-1.086.225m-7.417-3.349c3.015,1.459,6.993,3.008,8.092,2.392a.421.421,0,0,0,.22-.389.792.792,0,0,0-.269-.641c-1.167-1.172-5.306-1.375-8.043-1.361" transform="translate(138.624 28.362)" fill="#8758e7"/>
        <path id="Trazado_876655" data-name="Trazado 876655" d="M105.057,64.412a8.418,8.418,0,1,0,8.418-8.418,8.417,8.417,0,0,0-8.418,8.418" transform="translate(71.279 37.991)" fill="#c5d6cd"/>
        <path id="Trazado_876656" data-name="Trazado 876656" d="M107.117,82.575l12.085-.149a1.248,1.248,0,0,0,1.256-1.1l1.63-17.629a1.226,1.226,0,0,0-1.284-1.3l-15.784.2a1.226,1.226,0,0,0-1.25,1.329l2.068,17.584a1.245,1.245,0,0,0,1.281,1.062" transform="translate(70.399 42.339)" fill="#bcb5c6"/>
        <path id="Trazado_876657" data-name="Trazado 876657" d="M191.047,40.124a.417.417,0,0,1-.393-.274l-5.43-14.667a.42.42,0,1,1,.787-.292l5.428,14.667a.418.418,0,0,1-.247.539.4.4,0,0,1-.146.027" transform="translate(125.653 16.701)" fill="#8758e7"/>
        <path id="Trazado_876658" data-name="Trazado 876658" d="M108.711,82.555,120.8,82.4a1.246,1.246,0,0,0,1.256-1.094l1.63-17.629a1.227,1.227,0,0,0-1.284-1.3l-15.784.2a1.228,1.228,0,0,0-1.252,1.329l2.068,17.584a1.248,1.248,0,0,0,1.282,1.062" transform="translate(71.48 42.325)" fill="#ccc5d3"/>
        <path id="Trazado_876659" data-name="Trazado 876659" d="M198.717,77.977s-35.79,30.34-38.774,37.987-21.632,53.857-21.632,53.857l29,13.065,44.107-92.135Z" transform="translate(93.84 52.906)" fill="#fca032"/>
        <path id="Trazado_876660" data-name="Trazado 876660" d="M239.233,74.443c.06-.769.859,21.641-.786,30.961-1.65,9.349-49.408,95.218-49.408,95.218L155.588,185.3,199.7,93.163,183.076,78.52Z" transform="translate(105.563 50.495)" fill="#ffaf45"/>
        <path id="Trazado_876661" data-name="Trazado 876661" d="M156.085,179.183a.409.409,0,0,1-.181-.042.421.421,0,0,1-.2-.561l43.415-89.923-8.193-6.679a.419.419,0,0,1,.53-.65l8.448,6.888a.419.419,0,0,1,.114.507l-43.556,90.222a.423.423,0,0,1-.379.237" transform="translate(105.615 55.116)" fill="#fff"/>
        <path id="Trazado_876662" data-name="Trazado 876662" d="M205.435,88.47c-7.061-.233-8.726-7.855-8.743-7.932a.42.42,0,0,1,.822-.171c.059.289,1.553,7.053,7.934,7.264a.42.42,0,0,1-.013.839" transform="translate(133.445 54.301)" fill="#fff"/>
        <path id="Trazado_876663" data-name="Trazado 876663" d="M173.331,114.549c-.974-.091-9.195-.932-10.4-3.171a1.36,1.36,0,0,1,.013-1.334,1.666,1.666,0,0,1,1.168-.854c2.746-.587,8.8,4.075,9.473,4.609a.423.423,0,0,1,.131.487.417.417,0,0,1-.389.264m-8.673-4.574a1.855,1.855,0,0,0-.371.035.816.816,0,0,0-.6.428.525.525,0,0,0-.017.544c.641,1.192,4.856,2.113,8.156,2.553-2.083-1.485-5.393-3.56-7.17-3.56" transform="translate(110.433 74.048)" fill="#fff"/>
        <path id="Trazado_876664" data-name="Trazado 876664" d="M203.182,32.677l-.757,9.69s-1.965,2.649-7.669,2.665c-4.25.013-5.658-1.057-5.658-1.057l.972-4.861.955-4.74,10.41-1.452Z" transform="translate(128.299 22.171)" fill="#fc8165"/>
        <path id="Trazado_876665" data-name="Trazado 876665" d="M201.043,32.823a3.2,3.2,0,0,1-.354.913c-2.548,4.67-8.555,5.25-11.011,5.279l.953-4.74Z" transform="translate(128.692 22.27)"/>
        <path id="Trazado_876666" data-name="Trazado 876666" d="M191.925,21.711s-6.034,11.751-4.559,18.656,7.726,6.225,11.511,5.145a12.264,12.264,0,0,0,5.64-3.241,5.228,5.228,0,0,0,5.9-1.682c2.511-3.068,1.319-6.848-.6-7.817s-4.357.307-4.357.307l2.06-3.4s-6.622-18.327-15.59-7.973" transform="translate(126.966 12.58)" fill="#fc8165"/>
        <path id="Trazado_876667" data-name="Trazado 876667" d="M189.979,31.947a.419.419,0,0,1-.406-.317c-.661-2.647,1.318-5.185,1.4-5.292a.419.419,0,1,1,.658.52c-.017.022-1.806,2.326-1.247,4.567a.421.421,0,0,1-.3.51.548.548,0,0,1-.1.012" transform="translate(128.529 17.762)"/>
        <path id="Trazado_876668" data-name="Trazado 876668" d="M198.35,32.289a.42.42,0,0,1-.289-.725l3.476-3.295a.423.423,0,0,1,.594.017.418.418,0,0,1-.017.593l-3.476,3.3a.425.425,0,0,1-.289.114" transform="translate(134.291 19.103)"/>
        <path id="Trazado_876669" data-name="Trazado 876669" d="M201.362,30.708a.37.37,0,0,1-.086-.008l-2.253-.472a.419.419,0,1,1,.171-.821l2.253.47a.42.42,0,0,1-.086.831" transform="translate(134.806 19.946)"/>
        <path id="Trazado_876670" data-name="Trazado 876670" d="M193.342,28.356a.433.433,0,0,1-.413-.5l.413-2.237a.42.42,0,0,1,.826.153l-.413,2.236a.42.42,0,0,1-.413.344" transform="translate(130.893 17.152)"/>
        <path id="Trazado_876671" data-name="Trazado 876671" d="M189.378,27.811a.339.339,0,0,1-.084-.008.419.419,0,0,1-.329-.5l.455-2.229a.422.422,0,0,1,.826.17l-.458,2.227a.419.419,0,0,1-.41.336" transform="translate(128.203 16.788)"/>
        <path id="Trazado_876672" data-name="Trazado 876672" d="M203.081,35.464s-3.152-2.4-2.768-5.75,1.17-4.168,1.17-4.168a31.686,31.686,0,0,1-6.917-1.618,9.553,9.553,0,0,1-2.867-1.574l-.943.992c-.963-.1-2.843-6.074-1.331-7.033s9.143,2.189,9.143,2.189,8.305-1.47,12.767,4.626-1.286,12.661-1.286,12.661-1.25-3.083-6.967-.324" transform="translate(128.135 10.944)"/>
        <path id="Trazado_876673" data-name="Trazado 876673" d="M137.674,137.355l35.938,15.932a1.728,1.728,0,0,0,2.281-.88l2.766-6.239a1.73,1.73,0,0,0-.88-2.283l-35.938-15.932a1.732,1.732,0,0,0-2.283.881l-2.764,6.237a1.73,1.73,0,0,0,.88,2.283" transform="translate(92.711 86.713)" fill="#6a4cd6"/>
        <path id="Trazado_876674" data-name="Trazado 876674" d="M154.195,144.255l34.045,19.655a1.728,1.728,0,0,0,2.362-.633l3.412-5.91a1.727,1.727,0,0,0-.633-2.362l-34.045-19.655a1.727,1.727,0,0,0-2.362.633l-3.412,5.908a1.73,1.73,0,0,0,.633,2.363" transform="translate(104.03 91.675)" fill="#8758e7"/>
        <path id="Trazado_876675" data-name="Trazado 876675" d="M194.513,40.524s-3.97,9.512-7.233,31.238-2.494,30.772-2.494,30.772h3.275s.89-13.785,3.12-31.129a165.942,165.942,0,0,1,7.031-30.881,7.579,7.579,0,0,0-3.7,0" transform="translate(125.319 27.326)" fill="#8758e7"/>
        <path id="Trazado_876676" data-name="Trazado 876676" d="M112.284,56.791s-4.1-2.83-5.034-1.707,2.85,2,2.85,2-4.451.876-3,1.49,4.787-1.066,4.787-1.066.415,1.608,1.642,1.539-.312-1.329-.312-1.329,2.728.42,3.5-.28-3.184-.505-3.184-.505,1.925-1.032.666-1.383-1.913,1.237-1.913,1.237" transform="translate(72.469 37.194)" fill="#f74d76"/>
        <path id="Trazado_876677" data-name="Trazado 876677" d="M191.161,38.246s-5.406,8.6-4.309,8.575,8.248-4.235,8.248-4.235,4.658,6.4,6.173,6.665,2.857-11.432,2.857-11.432a9.535,9.535,0,0,1-8.606,3.367c-5.841-.653-4.364-2.941-4.364-2.941" transform="translate(126.675 25.66)" fill="#8758e7"/>
        <path id="Trazado_876678" data-name="Trazado 876678" d="M319.149,82.588H91.721A3.89,3.89,0,0,1,87.83,78.7v-.374a3.89,3.89,0,0,1,3.891-3.889H319.149a3.888,3.888,0,0,1,3.889,3.889V78.7a3.888,3.888,0,0,1-3.889,3.889" transform="translate(59.591 50.503)" fill="#dcd7e0"/>
        <path id="Trazado_876679" data-name="Trazado 876679" d="M206.4,44.382a.414.414,0,0,1-.3-.128l-4.106-4.216a.419.419,0,1,1,.6-.586L206.7,43.67a.419.419,0,0,1-.3.712" transform="translate(136.964 26.681)" fill="#8758e7"/>
        <path id="Trazado_876680" data-name="Trazado 876680" d="M184.923,39.123a.419.419,0,0,1-.114-.822l3.993-1.138a.419.419,0,1,1,.228.806l-3.993,1.138a.384.384,0,0,1-.114.017" transform="translate(125.182 25.203)" fill="#8758e7"/>
        <path id="Trazado_876681" data-name="Trazado 876681" d="M176.7,57.362a.431.431,0,0,1-.413-.49l1.116-6.459a.411.411,0,0,1,.485-.342.421.421,0,0,1,.341.485l-1.116,6.459a.419.419,0,0,1-.413.347" transform="translate(119.603 33.967)" fill="#8758e7"/>
        <path id="Trazado_876682" data-name="Trazado 876682" d="M202.8,44.371s-3.292-3.352-2.5-4.505,3.8-4.29,3.8-4.29.067-7.644,1.249-8.958,7.666.586,7.666.586Z" transform="translate(135.817 17.745)" fill="#ada4f7"/>
        <path id="Trazado_876683" data-name="Trazado 876683" d="M202.727,42.238a.415.415,0,0,1-.215-.059.422.422,0,0,1-.146-.576l8.844-14.87a.419.419,0,1,1,.72.43l-8.842,14.87a.418.418,0,0,1-.361.2" transform="translate(137.261 17.999)" fill="#8758e7"/>
        <path id="Trazado_876684" data-name="Trazado 876684" d="M53.337,30.9a2.52,2.52,0,0,1-.462-2.294,2.356,2.356,0,0,1,1.739-1.527,4.6,4.6,0,0,1,2.85.069,4.8,4.8,0,0,1,2.352,1.684,2.5,2.5,0,0,1,.559,2.3,2.356,2.356,0,0,1-1.685,1.573,4.615,4.615,0,0,1-2.9-.112,4.763,4.763,0,0,1-2.449-1.69m4.126-9.812L63.5.416q.184-.6.97-.334L67.193,1c.524.175.723.465.6.864l-6.7,20.451q-.186.6-.972.334l-2.056-.692q-.786-.264-.6-.864" transform="translate(35.802 0)" fill="#dcd7e0"/>
        <path id="Trazado_876685" data-name="Trazado 876685" d="M58.3,28.223a1.94,1.94,0,0,1,.121-1.747,1.567,1.567,0,0,1,1.5-.671,3.362,3.362,0,0,1,1.96.733A3.877,3.877,0,0,1,63.181,28.3a1.945,1.945,0,0,1-.055,1.776,1.572,1.572,0,0,1-1.469.715,3.378,3.378,0,0,1-1.989-.777A3.838,3.838,0,0,1,58.3,28.223m4.742-6.007,8.152-13.3q.244-.383.737-.005l1.709,1.308c.329.252.411.505.25.76l-8.57,12.976q-.244.385-.737.007l-1.291-.989q-.493-.378-.25-.76" transform="translate(39.453 5.921)" fill="#dcd7e0"/>
        <path id="Trazado_876686" data-name="Trazado 876686" d="M33.138,33.809s-3.75-5.64-8.12-7.191-8.963-1.873-7.323.369a42.867,42.867,0,0,0,5.48,5.457l-6.59.693a55.265,55.265,0,0,0-7.714.007C5.752,33.472,5.654,35.9,5.654,35.9s-3.12.329-4.035,1.631.638,2.748.638,2.748S-1.778,41.906.943,44.435s12.765,4.691,17.36,5.012,13.829-1.856,13.829-1.856,8.552-1.291,1.005-13.782" transform="translate(0 17.22)" fill="#fc907e"/>
        <path id="Trazado_876687" data-name="Trazado 876687" d="M7.114,40.428a.419.419,0,0,1-.317-.693l8.248-9.529a.42.42,0,0,1,.636.549l-8.25,9.529a.417.417,0,0,1-.317.144" transform="translate(4.542 20.395)"/>
        <path id="Trazado_876688" data-name="Trazado 876688" d="M21.618,36.351c-2.642,0-4.654-.651-6-1.944a5.658,5.658,0,0,1-1.705-4.2.422.422,0,0,1,.446-.388.417.417,0,0,1,.389.446,4.912,4.912,0,0,0,1.46,3.545c1.5,1.432,4,1.964,7.442,1.581a.412.412,0,0,1,.462.369.418.418,0,0,1-.369.465,19.5,19.5,0,0,1-2.123.124" transform="translate(9.434 20.232)"/>
        <path id="Trazado_876689" data-name="Trazado 876689" d="M19.359,68.824S29.089,81.8,39.9,75.645,41.679,55.4,41.679,55.4Z" transform="translate(13.135 37.585)" fill="#80baff"/>
        <path id="Trazado_876690" data-name="Trazado 876690" d="M36.579,52.376l-8.515-16.85-16,4.367s.158,39.041,18.524,47.541a12.077,12.077,0,0,0,15.573-4.562c3-4.913,1.056-11.456-1.386-16.664a83.87,83.87,0,0,0-8.191-13.832" transform="translate(8.182 24.104)" fill="#fc907e"/>
        <path id="Trazado_876691" data-name="Trazado 876691" d="M28.146,77.173a.419.419,0,0,1-.05-.836c5.091-.621,8.861-2.607,11.2-5.9,4.1-5.779,2.437-13.71,2.42-13.789a.421.421,0,0,1,.319-.5.416.416,0,0,1,.5.321c.074.339,1.761,8.374-2.556,14.453-2.484,3.5-6.449,5.6-11.785,6.251a.255.255,0,0,1-.05,0" transform="translate(18.812 38.087)" fill="#fff"/>
        <path id="Trazado_876692" data-name="Trazado 876692" d="M60.906,74.243a.42.42,0,0,1-.418-.384L59.626,63.6a.419.419,0,0,1,.836-.07l.863,10.257a.419.419,0,0,1-.383.453l-.035,0" transform="translate(40.454 42.844)" fill="#fff"/>
        <path id="Trazado_876693" data-name="Trazado 876693" d="M194.419,30.489a.42.42,0,0,1,.267.744c-.1.079-2.377,1.949-4.09,1.412a.42.42,0,0,1,.248-.8c1.041.324,2.746-.8,3.31-1.257a.416.416,0,0,1,.265-.1" transform="translate(129.114 20.686)"/>
      </g>
    </g>
    <g id="Grupo_1101457" data-name="Grupo 1101457" transform="translate(303.282 838.582)">
      <g id="Grupo_1099433" data-name="Grupo 1099433" clip-path="url(#clip-path-3)">
        <path id="Trazado_873461" data-name="Trazado 873461" d="M25,29.944,48.059,6.883,69.771,28.6,91.606,6.761l22.816,22.816,22.57-22.57L157.381,27.4l3.38-3.38L136.992.246l-22.57,22.569L91.606,0,69.771,21.833,48.059.122,25,23.184,3.382,1.568,0,4.947Z" transform="translate(-13.983 -15.18)" fill="#2436b1"/>
        <path id="Trazado_873462" data-name="Trazado 873462" d="M25,46.74l23.062-23.06,21.711,21.71L91.606,23.556l22.816,22.816,22.57-22.57,20.389,20.39,3.38-3.382L136.992,17.041l-22.57,22.57L91.606,16.8,69.771,38.63,48.059,16.919,25,39.979,3.382,18.363,0,21.742Z" transform="translate(-13.983 -8.669)" fill="#2436b1"/>
        <path id="Trazado_873463" data-name="Trazado 873463" d="M25,63.535l23.062-23.06L69.771,62.186,91.606,40.353l22.816,22.815,22.57-22.57,20.389,20.39,3.38-3.382L136.992,33.836l-22.57,22.57L91.606,33.59,69.771,55.425,48.059,33.714,25,56.774,3.382,35.158,0,38.539Z" transform="translate(-13.983 -2.158)" fill="#2436b1"/>
        <path id="Trazado_873464" data-name="Trazado 873464" d="M25,80.331,48.059,57.269,69.771,78.981,91.606,57.147l22.816,22.816,22.57-22.572,20.389,20.39,3.38-3.38L136.992,50.632,114.422,73.2,91.606,50.387,69.771,72.221,48.059,50.509,25,73.57,3.382,51.953,0,55.334Z" transform="translate(-13.983 4.353)" fill="#2436b1"/>
        <path id="Trazado_873465" data-name="Trazado 873465" d="M25,97.126,48.059,74.065,69.771,95.776,91.606,73.942l22.816,22.816,22.57-22.57,20.389,20.39,3.38-3.38L136.992,67.427,114.422,90,91.606,67.182,69.771,89.017,48.059,67.305,25,90.367,3.382,68.75,0,72.13Z" transform="translate(-13.983 10.864)" fill="#2436b1"/>
        <path id="Trazado_873466" data-name="Trazado 873466" d="M25,113.921l23.062-23.06,21.711,21.711L91.606,90.739l22.816,22.815,22.57-22.57,20.389,20.39,3.38-3.382L136.992,84.223l-22.57,22.57L91.606,83.977,69.771,105.812,48.059,84.1,25,107.161,3.382,85.545,0,88.925Z" transform="translate(-13.983 17.375)" fill="#2436b1"/>
      </g>
    </g>
  </g>
</svg>
