<svg xmlns="http://www.w3.org/2000/svg" width="190" height="186.482" viewBox="0 0 190 186.482">
  <g id="_20125870_6213174" data-name="20125870_6213174" transform="translate(-13.29 -16.191)">
    <g id="BACKGROUND" transform="translate(16.639 26.483)">
      <path id="Trazado_874267" data-name="Trazado 874267" d="M41.713,170.159c-4.18-17.949-12.429-34.723-17-52.577s-4.977-38.138,5.479-53.313c7.848-11.39,20.982-18.409,34.566-21.014s27.648-1.173,41.189,1.65c7.648,1.594,15.269,3.636,23.078,3.877,15.394.474,31.416-5.991,45.783-.441a29.807,29.807,0,0,1,18.568,27.593c-.118,6.748-2.578,13.306-2.553,20.054.029,7.977,3.494,15.468,6.064,23.019a106.723,106.723,0,0,1,5.578,38.888c-.337,7.8-1.569,15.679-4.839,22.771s-8.744,13.372-15.9,16.5c-4.505,1.973-9.463,2.636-14.359,3.1-29.39,2.79-58.991-.843-88.509-.393q-13.626.208-27.2,1.576c-2.555.258-9.987,1.8-12.051-.2-1.789-1.733,1.846-6.423,2.483-8.492C44.33,185.471,43.413,177.458,41.713,170.159Z" transform="translate(-21.651 -41.888)" fill="#8edad9" opacity="0.26"/>
    </g>
    <g id="OBJECTS" transform="translate(13.29 16.191)">
      <g id="Grupo_1099964" data-name="Grupo 1099964" transform="translate(107.511 19.9)">
        <path id="Trazado_874268" data-name="Trazado 874268" d="M389.807,196.325c-.168,2.3-.529,6.521-5.207,9.388-3.813,2.335-10.5,3.765-22.305,2.515-9.084-.961-14.215-2.291-17.07-3.757-5.411-2.772-2.676-6.02-3.18-8.147-.773-3.244-3.709-2.315-2.936-7.262s3.557-4.794,3.248-7.422,1.39-3.244,1.234-5.72-1.7-2.627,1.081-5.872-.152-4.33.621-7.422,4.482-2.471,5.411-5.563-.312-5.255,3.244-8.347,12.212-4.017,16.538,1.854c0,0,8.912-3.665,9.741,2.167s1.081,7.418,2.471,8.964-.617,7.266.156,9.428,5.563,4.173,4.947,7.574-3.092,2.936-1.858,5.72,1.858,2.471,1.394,5.72S390.115,192.151,389.807,196.325Z" transform="translate(-316.043 -114.072)" fill="#f7a43c"/>
        <path id="Trazado_874269" data-name="Trazado 874269" d="M386.9,184.8c1.39,1.546-.617,7.266.156,9.428s5.563,4.174,4.947,7.574-3.092,2.936-1.858,5.72,1.858,2.471,1.394,5.72,2.78,2.007,2.471,6.18c-.168,2.3-.529,6.521-5.207,9.388-3.813,2.335-10.5,3.765-22.305,2.515-9.084-.961-14.215-2.291-17.071-3.757-5.411-2.772-2.676-6.02-3.18-8.147" transform="translate(-320.249 -137.164)" fill="none" stroke="#000" stroke-linecap="round" stroke-linejoin="round" stroke-miterlimit="10" stroke-width="1"/>
        <path id="Trazado_874270" data-name="Trazado 874270" d="M394.109,232.985a2.574,2.574,0,0,1-.344.981c-3.813,2.335-10.5,3.765-22.305,2.515-9.084-.961-14.215-2.291-17.071-3.757a9.373,9.373,0,0,0,1.542-7.85c-1.234-6.172-3.348-10.225.7-14.107s2.471-6.613,4.586-10.842,4.5-7.053,8.816-6.436,12.7,2.379,14.018,6.965-1.85,4.934-.529,7.318,5.2,3.172,5.2,7.406-3.264,5.463-.352,8.816S394.725,228.134,394.109,232.985Z" transform="translate(-325.207 -142.325)" fill="#f7a43c" opacity="0.38"/>
        <path id="Trazado_874271" data-name="Trazado 874271" d="M399.236,230.663c-.617,3.4-3.557,9.276-6.028,9.276s-2.936-8.347-3.248-12.985c-.833-2.4-.753-6.4-.613-8.908.04-.721.088-1.314.12-1.71.02-.272.032-.453.032-.513a18.187,18.187,0,0,0,6.489-1.7c0,.352-.008.689,0,1.009a16.066,16.066,0,0,0,.733,5.2c.957,2.643,2.515,2.291,2.515,2.291A31.55,31.55,0,0,1,399.236,230.663Z" transform="translate(-346.184 -154.747)" fill="#efd1bd"/>
        <path id="Trazado_874272" data-name="Trazado 874272" d="M376.735,346.684l1.082,35.86,10.665.309-2.164-18.7h8.5l.155,19.012,11.129-.155s4.173-24.577-1.7-37.715C395.129,344.056,378.435,344.056,376.735,346.684Z" transform="translate(-338.676 -232.898)" fill="#ee59c0"/>
        <path id="Trazado_874273" data-name="Trazado 874273" d="M385,236s4.328,6.956,4.019,14.375c2.319-7.729,5.808-16.261,5.808-16.261L400.764,236l-1.236,43.434-17,1.7.464-43.434Z" transform="translate(-342.147 -166.73)" fill="#fff"/>
        <path id="Trazado_874274" data-name="Trazado 874274" d="M383.682,237.7l2.009-1.7s4.328,6.956,4.019,14.375c2.319-7.729,5.808-16.261,5.808-16.261L401.458,236" transform="translate(-342.841 -166.73)" fill="none" stroke="#000" stroke-linecap="round" stroke-linejoin="round" stroke-miterlimit="10" stroke-width="1"/>
        <path id="Trazado_874275" data-name="Trazado 874275" d="M400.763,238.822l-1.236,43.434-17,1.7.464-43.434" transform="translate(-342.147 -169.552)" fill="none" stroke="#000" stroke-linecap="round" stroke-linejoin="round" stroke-miterlimit="10" stroke-width="1"/>
        <g id="Grupo_1099963" data-name="Grupo 1099963" transform="translate(3.9)">
          <path id="Trazado_874276" data-name="Trazado 874276" d="M361.266,112.6c0,8.587-6.276,15.821-14.828,18.028a10.024,10.024,0,0,0,1.41,5.015c-6.124.561-7.49-3.525-7.7-4.342" transform="translate(-320.644 -93.882)" fill="#fff"/>
          <path id="Trazado_874277" data-name="Trazado 874277" d="M361.266,112.6c0,8.587-6.276,15.821-14.828,18.028a10.024,10.024,0,0,0,1.41,5.015c-6.124.561-7.49-3.525-7.7-4.342" transform="translate(-320.644 -93.882)" fill="none" stroke="#000" stroke-linecap="round" stroke-linejoin="round" stroke-miterlimit="10" stroke-width="1"/>
          <path id="Trazado_874278" data-name="Trazado 874278" d="M310.956,103.288c-10.846-.389-19.506-8.611-19.506-18.7,0-10.334,9.092-18.713,20.311-18.713s20.311,8.379,20.311,18.713" transform="translate(-291.45 -65.875)" fill="#fff"/>
          <path id="Trazado_874279" data-name="Trazado 874279" d="M324.232,98.756s.219-3.071-3.51-4.606-4.387-7.677-1.316-10.09,8.335-4.387,13.819-1.1,3.51,8.116,1.1,10.529-3.51,2.632-3.51,5.265A14.642,14.642,0,0,1,324.232,98.756Z" transform="translate(-307.043 -75.078)" fill="#f7e869"/>
          <path id="Trazado_874280" data-name="Trazado 874280" d="M329.9,106.848a5.977,5.977,0,0,0-.729-6.791c-1.061-1.174-2.617-1.943-3.3-3.372a3.4,3.4,0,1,1,6.443-1.85c.1.906-.427,2.041-1.337,1.988A1.486,1.486,0,0,1,329.852,96a2.844,2.844,0,0,1,.695-3.438,3.373,3.373,0,0,1,3.575-.374,4.164,4.164,0,0,1,2.172,2.955,1.7,1.7,0,0,1,0,.782,1.258,1.258,0,0,1-2.173.158,1.792,1.792,0,0,1,.747-2.352,3.148,3.148,0,0,1,2.661-.058,1.8,1.8,0,0,1,.9.62,2.033,2.033,0,0,1-.111,1.9c-.827,1.883-2.081,3.551-2.959,5.411a7.39,7.39,0,0,0-.544,5.959" transform="translate(-311.912 -81.441)" fill="none" stroke="#000" stroke-miterlimit="10" stroke-width="1"/>
          <path id="Trazado_874281" data-name="Trazado 874281" d="M330.616,128.355c-.458-.6-.257-1.674.479-1.831a.832.832,0,0,1-.912-.819,1.076,1.076,0,0,1,.844-.984.768.768,0,0,1-.907-.8.8.8,0,0,1,1.064-.609,1.463,1.463,0,0,1-1.135-1.679A2.287,2.287,0,0,1,331.472,120a5.58,5.58,0,0,1,2.224-.331,26.458,26.458,0,0,1,6.64.958,1.94,1.94,0,0,1-1.306,2.32.911.911,0,0,1,.21,1.73c.373-.286.964.163.918.631a1.123,1.123,0,0,1-.972.884c.64-.055.977.874.639,1.421a2.464,2.464,0,0,1-1.646.9C336.48,128.891,331.916,130.05,330.616,128.355Z" transform="translate(-314.579 -98.121)" fill="#141412"/>
          <path id="Trazado_874282" data-name="Trazado 874282" d="M335.463,137.3a5.5,5.5,0,0,0,4.218-.274" transform="translate(-317.835 -108.526)" fill="none" stroke="#afafaf" stroke-linecap="round" stroke-linejoin="round" stroke-miterlimit="10" stroke-width="1"/>
          <path id="Trazado_874283" data-name="Trazado 874283" d="M335.424,133.541a13.687,13.687,0,0,0,4.176.088" transform="translate(-317.811 -106.439)" fill="none" stroke="#afafaf" stroke-linecap="round" stroke-linejoin="round" stroke-miterlimit="10" stroke-width="1"/>
          <path id="Trazado_874284" data-name="Trazado 874284" d="M336.219,128.825a12.891,12.891,0,0,0,4.319.265" transform="translate(-318.288 -103.612)" fill="none" stroke="#afafaf" stroke-linecap="round" stroke-linejoin="round" stroke-miterlimit="10" stroke-width="1"/>
        </g>
        <path id="Trazado_874285" data-name="Trazado 874285" d="M297.826,154.74l-4.173,2.163a22.06,22.06,0,0,0-1.923-4.462c-.332-.621-.721-1.3-1.17-2.031-4.947-.617-9.276-7.882-8.812-9.12.441-1.166,5.427,3.044,5.98,3.513-.525-.533-5.171-5.287-4.59-6.6.6-1.354,5.728,4.45,6.016,4.774-.248-.32-4.458-5.736-4.005-6.785s4.983,5.043,5.243,5.4c-.172-.308-3.052-5.435-2.151-6.785.925-1.394,6.028,7.882,6.028,7.882s1.39-5.1,2.319-4.638-.621,9.272-.621,9.272l1.366,5.455Z" transform="translate(-281.714 -107.109)" fill="#efd1bd"/>
        <path id="Trazado_874286" data-name="Trazado 874286" d="M312.816,181.354l-4.174,2.163a22.061,22.061,0,0,0-1.923-4.462,15.051,15.051,0,0,0,5.6.332Z" transform="translate(-296.704 -133.723)" fill="#db8b72" opacity="0.38"/>
        <path id="Trazado_874287" data-name="Trazado 874287" d="M296.587,138.043c-.927-.464-2.319,4.637-2.319,4.637s-5.1-9.274-6.028-7.883,2.164,6.8,2.164,6.8-4.792-6.492-5.255-5.41,4.019,6.8,4.019,6.8-5.41-6.183-6.028-4.792,4.637,6.646,4.637,6.646-5.565-4.792-6.028-3.555,3.864,8.5,8.81,9.12a26.1,26.1,0,0,1,3.091,6.492" transform="translate(-281.714 -107.107)" fill="none" stroke="#000" stroke-linecap="round" stroke-linejoin="round" stroke-miterlimit="10" stroke-width="1"/>
        <path id="Trazado_874288" data-name="Trazado 874288" d="M343.285,265.486c-2.475,2.936-12.212.308-12.212.308s4.173-30.761,2.163-34.161-1.39-5.563,0-10.358a16.8,16.8,0,0,0,.837-5.179.006.006,0,0,1,0-.008c-.076-1.69-.7-2.72-1.919-3-23.647-5.563-24.885-29.058-24.885-29.058s.629-.385,1.562-.893a22.874,22.874,0,0,1,5.239-2.2c4.983,26.215,19.522,24.2,23.827,22.974a10.593,10.593,0,0,0,1.214-.409,33.635,33.635,0,0,1,1.7,5.876c-.933,8.323-.28,22.714.6,34.938C342.132,254.34,343.009,262.911,343.285,265.486Z" transform="translate(-297.034 -134.85)" fill="#eea4f3"/>
        <path id="Trazado_874289" data-name="Trazado 874289" d="M383.056,278.089a69.319,69.319,0,0,1-5.083-9.124c-1.546-3.865,1.394-5.411,1.394-5.411l-2.627-.465,2.8-25.405a10.6,10.6,0,0,0,1.214-.409,33.637,33.637,0,0,1,1.7,5.876C381.522,251.474,382.175,265.865,383.056,278.089Z" transform="translate(-338.679 -168.624)" fill="#ee59c0"/>
        <path id="Trazado_874290" data-name="Trazado 874290" d="M383.056,278.225a69.318,69.318,0,0,1-5.083-9.124c-1.546-3.865,1.394-5.411,1.394-5.411l-2.627-.465,2.8-25.405c.442-.124.777-.241.982-.317" transform="translate(-338.679 -168.761)" fill="none" stroke="#000" stroke-linecap="round" stroke-linejoin="round" stroke-miterlimit="10" stroke-width="1"/>
        <path id="Trazado_874291" data-name="Trazado 874291" d="M421.29,296.787s-4.21-10.2-7.177-17.827c-1.137-2.912-2.091-5.447-2.559-6.9-1.7-5.259,1.834-37.854,2.471-37.87a11.266,11.266,0,0,1,1.746.084,12.087,12.087,0,0,1,8.611,5.944c1.546,2.471-2.936,24.576-3.244,27.2s6.18,12.829,10.045,19.63C431.648,296.479,421.29,296.787,421.29,296.787Z" transform="translate(-359.274 -166.772)" fill="#eea4f3"/>
        <path id="Trazado_874292" data-name="Trazado 874292" d="M415.727,263.091s2.784.773,2.784,2.936c0,1.662-3,9.412-4.4,12.933-1.138-2.912-2.091-5.447-2.559-6.9-1.7-5.259,1.834-37.854,2.471-37.87a11.27,11.27,0,0,1,1.746.084c.8,5.359,3.717,25.233,3.048,26.038A32.116,32.116,0,0,1,415.727,263.091Z" transform="translate(-359.274 -166.772)" fill="#ee59c0"/>
        <path id="Trazado_874293" data-name="Trazado 874293" d="M420.288,234.4c.8,5.359,3.717,25.233,3.048,26.038a32.119,32.119,0,0,1-3.092,2.78s2.784.773,2.784,2.936c0,1.662-3,9.412-4.4,12.933" transform="translate(-363.791 -166.904)" fill="none" stroke="#000" stroke-linecap="round" stroke-linejoin="round" stroke-miterlimit="10" stroke-width="1"/>
        <path id="Trazado_874294" data-name="Trazado 874294" d="M431.653,327.893s-.116.14-.3.377c-.164.2-.384.481-.637.8-.513.669-1.158,1.542-1.686,2.375,2.011,3.092-1.081,6.649-2.471,10.049s-1.39,5.1-3.092,5.1c-1.466,0,.164-5.607.645-7.173-.489,1.478-2.239,6.533-3.429,6.4-1.3-.14.925-6.8,1.206-7.642-.344.841-3.136,7.586-4.294,6.717-1.19-.893,2.319-7.181,2.607-7.7-.348.509-4.959,7.19-5.856,6-.913-1.218,5.976-9.188,6.18-9.424-.2.064-5.728,1.995-6.489,1.386s3.557-2.78,6.336-4.174a8.609,8.609,0,0,1,5.1-.925l.793-1.29,1.678-2.732,2.575,1.29a0,0,0,0,1,0,0Z" transform="translate(-360.981 -221.834)" fill="#efd1bd"/>
        <path id="Trazado_874295" data-name="Trazado 874295" d="M449.793,328.27c-.164.2-.384.481-.637.8a10.414,10.414,0,0,0-4.446-.3l1.678-2.732,2.575,1.29a0,0,0,0,1,0,0A3.8,3.8,0,0,1,449.793,328.27Z" transform="translate(-379.425 -221.834)" fill="#db8b72" opacity="0.38"/>
        <path id="Trazado_874296" data-name="Trazado 874296" d="M414.169,346.726c.773.618,6.492-1.391,6.492-1.391s-7.11,8.192-6.183,9.429,5.874-6.028,5.874-6.028-3.864,6.8-2.627,7.729,4.328-6.8,4.328-6.8-2.628,7.574-1.236,7.729,3.555-6.8,3.555-6.8-2.473,7.574-.773,7.574" transform="translate(-361.117 -233.403)" fill="none" stroke="#000" stroke-linecap="round" stroke-linejoin="round" stroke-miterlimit="10" stroke-width="1"/>
        <path id="Trazado_874297" data-name="Trazado 874297" d="M388.74,172.171s-4.946-1.855-3.091-9.12c-7.265-2.319-14.53-.155-15.921,8.965s2.164,12.984,8.81,13.139a10.983,10.983,0,0,0,9.583-4.946s5.719,2.473,7.265-1.7S394.3,169.08,388.74,172.171Z" transform="translate(-334.297 -123.614)" fill="#efd1bd"/>
        <path id="Trazado_874298" data-name="Trazado 874298" d="M420.73,197.686a5.337,5.337,0,0,1,3.091-2.473" transform="translate(-365.05 -143.41)" fill="none" stroke="#000" stroke-linecap="round" stroke-linejoin="round" stroke-miterlimit="10" stroke-width="2"/>
        <path id="Trazado_874299" data-name="Trazado 874299" d="M377.493,175.833a2.466,2.466,0,0,1,3.288-.35" transform="translate(-339.131 -131.299)" fill="none" stroke="#000" stroke-linecap="round" stroke-linejoin="round" stroke-miterlimit="10" stroke-width="2"/>
        <path id="Trazado_874300" data-name="Trazado 874300" d="M396.066,175.168a2.828,2.828,0,0,1,3.486.829" transform="translate(-350.265 -131.22)" fill="none" stroke="#000" stroke-linecap="round" stroke-linejoin="round" stroke-miterlimit="10" stroke-width="2"/>
        <path id="Trazado_874301" data-name="Trazado 874301" d="M381.949,189.218a5.4,5.4,0,0,1-2.491,2.254c-.246.109-.529.226-.623.479a.638.638,0,0,0,.322.722,1.864,1.864,0,0,0,.829.191" transform="translate(-339.918 -139.816)" fill="none" stroke="#000" stroke-linecap="round" stroke-linejoin="round" stroke-miterlimit="10" stroke-width="2"/>
        <path id="Trazado_874302" data-name="Trazado 874302" d="M394.141,187.343c0,.768-.311,1.391-.7,1.391s-.7-.623-.7-1.391.311-1.391.7-1.391S394.141,186.575,394.141,187.343Z" transform="translate(-348.277 -137.858)"/>
        <path id="Trazado_874303" data-name="Trazado 874303" d="M379.669,186.185c0,.768-.311,1.391-.7,1.391s-.7-.623-.7-1.391.312-1.391.7-1.391S379.669,185.417,379.669,186.185Z" transform="translate(-339.601 -137.164)"/>
        <path id="Trazado_874304" data-name="Trazado 874304" d="M390.315,200.238c-.547,1.468-1.615,3.3-3.562,3.53a3.931,3.931,0,0,1-3.837-2.392,7.448,7.448,0,0,1-.63-1.49c.747-.209,8.541-1.5,8.541-1.5A10.121,10.121,0,0,1,390.315,200.238Z" transform="translate(-342.004 -145.31)" fill="#141412"/>
        <path id="Trazado_874305" data-name="Trazado 874305" d="M390.316,200.239a28.791,28.791,0,0,1-7.4,1.138,7.448,7.448,0,0,1-.63-1.49c.747-.209,8.541-1.5,8.541-1.5A10.146,10.146,0,0,1,390.316,200.239Z" transform="translate(-342.005 -145.31)" fill="#fff"/>
        <path id="Trazado_874306" data-name="Trazado 874306" d="M334.105,219.016a1.507,1.507,0,0,1-.032.364c-.076-1.69-.7-2.72-1.919-3-23.647-5.563-24.885-29.058-24.885-29.058s.629-.385,1.562-.893c.581,4.634,3.7,22.662,17.427,26.419C332.255,214.342,334.017,215.4,334.105,219.016Z" transform="translate(-297.034 -138.141)" fill="#eea4f3" opacity="0.38"/>
        <path id="Trazado_874307" data-name="Trazado 874307" d="M444.595,281.164c-.909-.4-1.782-.857-2.547-1.282-1.586-.881-2.712-1.654-2.712-1.654s4.638-5.876,2.784-12.52a35.05,35.05,0,0,0-3.709-8.848,20.327,20.327,0,0,0-3.4-4.294,25.972,25.972,0,0,1,2.627-6.8s8.5,9.585,10.2,16.542S447.222,276.526,444.595,281.164Z" transform="translate(-373.611 -173.714)" fill="#eea4f3"/>
        <path id="Trazado_874308" data-name="Trazado 874308" d="M444.595,291.343c-.909-.4-1.782-.857-2.547-1.282-1.586-.881-2.712-1.654-2.712-1.654s4.638-5.876,2.784-12.521a35.05,35.05,0,0,0-3.709-8.848,20.328,20.328,0,0,0-3.4-4.294" transform="translate(-373.611 -183.893)" fill="none" stroke="#000" stroke-linecap="round" stroke-linejoin="round" stroke-miterlimit="10" stroke-width="1"/>
        <path id="Trazado_874309" data-name="Trazado 874309" d="M447.137,296.487c-1.586-.881-2.712-1.654-2.712-1.654s4.638-5.876,2.784-12.521a35.048,35.048,0,0,0-3.709-8.848C445.1,274.346,452.183,279.341,447.137,296.487Z" transform="translate(-378.7 -190.319)" fill="#eea4f3" opacity="0.38"/>
        <path id="Trazado_874310" data-name="Trazado 874310" d="M389.48,219.557c2.047,1.943,5.423,2.275,7.374,2.287a16.066,16.066,0,0,1-.733-5.2,12.657,12.657,0,0,1-6.521,1.2Z" transform="translate(-346.317 -156.257)" fill="#db8b72" opacity="0.38"/>
        <circle id="Elipse_11521" data-name="Elipse 11521" cx="1.19" cy="1.19" r="1.19" transform="translate(47.387 49.135)" fill="#db8b72" opacity="0.38"/>
        <circle id="Elipse_11522" data-name="Elipse 11522" cx="1.19" cy="1.19" r="1.19" transform="translate(35.794 49.619)" fill="#db8b72" opacity="0.38"/>
        <path id="Trazado_874311" data-name="Trazado 874311" d="M306.175,155.752s-1.5.793-.97,4.056" transform="translate(-295.729 -119.754)" fill="none" stroke="#000" stroke-linecap="round" stroke-linejoin="round" stroke-miterlimit="10" stroke-width="1"/>
        <path id="Trazado_874312" data-name="Trazado 874312" d="M409.335,164.34s-2.019,6.6,3.091,9.12" transform="translate(-357.983 -124.902)" fill="none" stroke="#000" stroke-linecap="round" stroke-linejoin="round" stroke-miterlimit="10" stroke-width="1"/>
        <path id="Trazado_874313" data-name="Trazado 874313" d="M314.071,180.935a58.366,58.366,0,0,0-6.8,3.092,38.951,38.951,0,0,0,9.38,20.676c8.9,9.786,18.514,6,17.368,11.814" transform="translate(-297.034 -134.85)" fill="none" stroke="#000" stroke-linecap="round" stroke-linejoin="round" stroke-miterlimit="10" stroke-width="1"/>
        <line id="Línea_564" data-name="Línea 564" x2="0.155" y2="19.012" transform="translate(56.143 131.253)" fill="none" stroke="#000" stroke-linecap="round" stroke-linejoin="round" stroke-miterlimit="10" stroke-width="1"/>
        <path id="Trazado_874314" data-name="Trazado 874314" d="M385.688,239.911c.464-.155,3.246,1.236,3.864.155s-3.4-6.956-3.71-9.893-3.045.505-2.3,2.571S385.688,239.911,385.688,239.911Z" transform="translate(-342.682 -163.686)" fill="#fff"/>
        <path id="Trazado_874315" data-name="Trazado 874315" d="M406.144,229.557c-.466-.148-.927,7.883-2.009,9.738,1.391,2.473,2.319,3.555,3.555,2.319s2.628-4.946,2.628-7.883S409.545,230.639,406.144,229.557Z" transform="translate(-355.102 -163.997)" fill="#fff"/>
      </g>
      <g id="Grupo_1099965" data-name="Grupo 1099965" transform="translate(64.879 80.199)">
        <path id="Trazado_874316" data-name="Trazado 874316" d="M314.457,281.328c1.538,23.912-4.165,38.607-11.407,38.607s-10.31-8.115-10.31-8.115.012-.016.04-.048a56.163,56.163,0,0,1,5.007-5.435c9.212,18.2,9.873-27.2,9.873-27.2s-5.047-7.678-4.39-9.212,3.292.437,5.483,4.386c-.216-3.292,2.415-9,4.39-9.212,1.874-.208-1.39,7.29-1.722,8.051.332-.653,3.128-6.048,4.574-5.639,1.47.421-2.287,6.669-2.607,7.2.36-.5,4.41-6.076,5.459-5.447,1.1.661-3.072,7.021-3.072,7.021s4.169-5.047,5.483-4.169a.426.426,0,0,1,.044.036C322.459,273.173,317.709,280.463,314.457,281.328Z" transform="translate(-245.691 -245.6)" fill="#db8b72"/>
        <path id="Trazado_874317" data-name="Trazado 874317" d="M314.457,291.891c1.538,23.912-4.165,38.607-11.407,38.607s-10.31-8.115-10.31-8.115.012-.016.04-.048l2.023-.809s3.881,7.67,8.728,5.467,9.436-11.2,8.111-34.121c3.629-3.3,8.287-5.724,9.661-10.157C322.459,283.736,317.709,291.026,314.457,291.891Z" transform="translate(-245.691 -256.164)" fill="#db8b72" opacity="0.22"/>
        <path id="Trazado_874318" data-name="Trazado 874318" d="M254.493,364.525l-28.514-.22a108.328,108.328,0,0,1-5.063-29.283,69.149,69.149,0,0,1,1.991-19.193c5.047-2.195,20.4-3.949,22.153-3.292s7.678,28.3.661,29.615c1,3.561,4.4,11.94,6.665,17.371C253.6,362.454,254.493,364.525,254.493,364.525Z" transform="translate(-202.618 -273.957)" fill="#f7a43c"/>
        <path id="Trazado_874319" data-name="Trazado 874319" d="M254.536,395.582l-28.514-.22a108.329,108.329,0,0,1-5.063-29.283l1.63-1.874s3.721,25.966,29.839,26.375C253.647,393.512,254.536,395.582,254.536,395.582Z" transform="translate(-202.661 -305.014)" fill="#f7a43c" opacity="0.48"/>
        <path id="Trazado_874320" data-name="Trazado 874320" d="M235.8,241.934s-3.71,2.627-2.319,4.328a2.767,2.767,0,0,0,3.4.618,6.67,6.67,0,0,0,6.956,3.864c5.1-.618,5.1-3.555,5.1-3.555s1.855,2.319,3.555,1.236,1.7-3.555,1.7-3.555,1.855,1.391,2.782-.155-1.7-4.482-1.7-4.482,6.338-1.082,7.11-6.8,0-10.047-3.4-12.365-11.593-4.792-16.23-4.637-11.284-.773-8.656,9.893c1.855-1.082,11.438-4.174,15.3,2.009a26.122,26.122,0,0,1,3.864,12.52l-4.019-.155-5.255,4.483Z" transform="translate(-209.979 -216.424)"/>
        <path id="Trazado_874321" data-name="Trazado 874321" d="M252.642,309.554c-2.163.465-9.052-10.4-9.052-10.4s3.957,1.15,4.214-8.611c.016-.553.02-1.142.008-1.77-.008-.485-.024-.989-.048-1.518a12.43,12.43,0,0,1,5.411-.156s-.016.208-.032.569a27.876,27.876,0,0,0,.148,4.394c.3,2.519,1.117,5.083,3.132,5.239C256.884,303.017,254.809,309.089,252.642,309.554Z" transform="translate(-216.227 -258.65)" fill="#db8b72"/>
        <path id="Trazado_874322" data-name="Trazado 874322" d="M279.838,312.561s4.387-1.755,7.239,7.9,4.387,12.942,4.387,12.942-3.51,8.555-8.555,8.993C280.715,336.471,277.206,314.1,279.838,312.561Z" transform="translate(-237.394 -273.981)" fill="#f7a43c"/>
        <path id="Trazado_874323" data-name="Trazado 874323" d="M337.019,272.116c-1.316-.878-5.484,4.168-5.484,4.168s4.168-6.361,3.071-7.019-5.484,5.484-5.484,5.484,4.168-6.8,2.632-7.239-4.606,5.7-4.606,5.7,3.729-8.335,1.755-8.116-4.606,5.923-4.387,9.213c-2.194-3.948-4.826-5.923-5.484-4.387" transform="translate(-261.452 -245.599)" fill="none" stroke="#000" stroke-linecap="round" stroke-linejoin="round" stroke-miterlimit="10" stroke-width="1"/>
        <line id="Línea_565" data-name="Línea 565" y1="6.361" x2="6.361" transform="translate(46.393 56.568)" fill="none" stroke="#fcf9f4" stroke-linecap="round" stroke-linejoin="round" stroke-miterlimit="10" stroke-width="2"/>
        <path id="Trazado_874324" data-name="Trazado 874324" d="M325.4,322.384a21.243,21.243,0,0,0,10.178,3.315" transform="translate(-265.268 -279.944)" fill="none" stroke="#000" stroke-linecap="round" stroke-linejoin="round" stroke-miterlimit="10" stroke-width="1"/>
        <path id="Trazado_874325" data-name="Trazado 874325" d="M326.448,315.225a14.53,14.53,0,0,0,8.877,3.575" transform="translate(-265.898 -275.652)" fill="none" stroke="#000" stroke-linecap="round" stroke-linejoin="round" stroke-miterlimit="10" stroke-width="1"/>
        <path id="Trazado_874326" data-name="Trazado 874326" d="M326.736,307.226a19.214,19.214,0,0,0,8.516,3.883" transform="translate(-266.071 -270.857)" fill="none" stroke="#000" stroke-linecap="round" stroke-linejoin="round" stroke-miterlimit="10" stroke-width="1"/>
        <path id="Trazado_874327" data-name="Trazado 874327" d="M322.814,334.475a7,7,0,0,0,3.926.226,2.955,2.955,0,0,0,1.667-.9,1.4,1.4,0,0,0,.065-1.769,1.3,1.3,0,0,0-1.7-.064,1.92,1.92,0,0,0-.638,1.678,2.525,2.525,0,0,0,5.036-.077,1.008,1.008,0,0,0-.354-.935c-.577-.366-1.257.42-1.269,1.1a2.746,2.746,0,0,0,2.47,2.589,3.852,3.852,0,0,0,3.376-1.64" transform="translate(-263.72 -285.518)" fill="none" stroke="#000" stroke-linecap="round" stroke-linejoin="round" stroke-miterlimit="10" stroke-width="1"/>
        <path id="Trazado_874328" data-name="Trazado 874328" d="M254.192,322.471l-2.007-2.011.12,2.307.02.4.012.228-.316-.14-2.776-1.254L246,324.169,244.919,320s-3.709,2.627-3.865,2.163-3.244-10.358-3.244-10.358a6.948,6.948,0,0,1,1.434-1.186c1.722-1.246,4.382-2.984,4.382-2.984s.212,9.581,5.311,13.754c2.319-2.936,3.2-9.4,1.654-14.195a21.1,21.1,0,0,0,4.614,2.223Z" transform="translate(-212.762 -270.839)" fill="#fff"/>
        <path id="Trazado_874329" data-name="Trazado 874329" d="M254.849,312.432c.224.082.355.127.355.127l-1.014,13.052-2.009-2.009.155,2.937-3.091-1.391L246,327.311l-1.082-4.173s-3.71,2.628-3.864,2.164-3.246-10.356-3.246-10.356" transform="translate(-212.76 -273.978)" fill="none" stroke="#000" stroke-linecap="round" stroke-linejoin="round" stroke-miterlimit="10" stroke-width="1"/>
        <path id="Trazado_874330" data-name="Trazado 874330" d="M231.751,236.887s-5.143,7.166-3.133,13.658,12.984,11.9,18.7,2.937c4.019,1.082,8.965,0,8.656-5.255s-5.1-5.1-6.338-2.473C249.485,240.5,245.857,233.361,231.751,236.887Z" transform="translate(-206.973 -228.127)" fill="#db8b72"/>
        <path id="Trazado_874331" data-name="Trazado 874331" d="M282.947,268.986a4.164,4.164,0,0,1,4.343-3.03" transform="translate(-239.821 -246.105)" fill="none" stroke="#000" stroke-linecap="round" stroke-linejoin="round" stroke-miterlimit="10" stroke-width="2"/>
        <path id="Trazado_874332" data-name="Trazado 874332" d="M243.256,257.889a3.115,3.115,0,0,0-1.249.843,1.071,1.071,0,0,0,0,1.387" transform="translate(-215.126 -241.281)" fill="none" stroke="#000" stroke-linecap="round" stroke-linejoin="round" stroke-miterlimit="10" stroke-width="2"/>
        <path id="Trazado_874333" data-name="Trazado 874333" d="M238.37,244.637a1.734,1.734,0,0,1,2.682-.118" transform="translate(-213.098 -232.919)" fill="none" stroke="#000" stroke-linecap="round" stroke-linejoin="round" stroke-miterlimit="10" stroke-width="2"/>
        <path id="Trazado_874334" data-name="Trazado 874334" d="M252.855,246.5a1.612,1.612,0,0,1,2.76.625" transform="translate(-221.781 -234.125)" fill="none" stroke="#000" stroke-linecap="round" stroke-linejoin="round" stroke-miterlimit="10" stroke-width="2"/>
        <path id="Trazado_874335" data-name="Trazado 874335" d="M239.72,227.634a3.594,3.594,0,0,0,1.079,4.171" transform="translate(-213.743 -223.144)" fill="none" stroke="#873700" stroke-linecap="round" stroke-linejoin="round" stroke-miterlimit="10" stroke-width="2"/>
        <path id="Trazado_874336" data-name="Trazado 874336" d="M246.886,227.206a3.535,3.535,0,0,0,.633,3.9" transform="translate(-218.008 -222.887)" fill="none" stroke="#873700" stroke-linecap="round" stroke-linejoin="round" stroke-miterlimit="10" stroke-width="2"/>
        <path id="Trazado_874337" data-name="Trazado 874337" d="M252.6,227.665a3.263,3.263,0,0,0,1.311,3.932" transform="translate(-221.497 -223.163)" fill="none" stroke="#873700" stroke-linecap="round" stroke-linejoin="round" stroke-miterlimit="10" stroke-width="2"/>
        <path id="Trazado_874338" data-name="Trazado 874338" d="M258.837,229.164a3.152,3.152,0,0,0,1.085,3.264" transform="translate(-225.304 -224.061)" fill="none" stroke="#873700" stroke-linecap="round" stroke-linejoin="round" stroke-miterlimit="10" stroke-width="2"/>
        <path id="Trazado_874339" data-name="Trazado 874339" d="M264.638,230.781a2.688,2.688,0,0,0,1.635,3.566" transform="translate(-228.717 -225.031)" fill="none" stroke="#873700" stroke-linecap="round" stroke-linejoin="round" stroke-miterlimit="10" stroke-width="2"/>
        <path id="Trazado_874340" data-name="Trazado 874340" d="M290.65,240.53a3.047,3.047,0,0,1,2.212,4.437" transform="translate(-244.438 -230.875)" fill="none" stroke="#000" stroke-miterlimit="10" stroke-width="1"/>
        <path id="Trazado_874341" data-name="Trazado 874341" d="M288.023,243.346a2.916,2.916,0,0,1,1.561,3.3" transform="translate(-242.864 -232.563)" fill="none" stroke="#000" stroke-miterlimit="10" stroke-width="1"/>
        <path id="Trazado_874342" data-name="Trazado 874342" d="M250.152,273.574c-3.865,1.158-5.155.064-6.192-2.483a17.191,17.191,0,0,0,9.428-3.176C253.441,269.966,252.956,272.733,250.152,273.574Z" transform="translate(-216.449 -247.291)"/>
        <path id="Trazado_874343" data-name="Trazado 874343" d="M240.932,250.633c0,.768-.312,1.391-.7,1.391s-.7-.623-.7-1.391.311-1.391.7-1.391S240.932,249.865,240.932,250.633Z" transform="translate(-213.8 -236.097)"/>
        <path id="Trazado_874344" data-name="Trazado 874344" d="M254.825,253.334c0,.768-.311,1.391-.7,1.391s-.7-.623-.7-1.391.311-1.391.7-1.391S254.825,252.566,254.825,253.334Z" transform="translate(-222.128 -237.717)"/>
        <path id="Trazado_874345" data-name="Trazado 874345" d="M270.432,236.892s-4.946,7.729,3.71,9.429C276.151,244.775,270.432,236.892,270.432,236.892Z" transform="translate(-231.475 -228.694)"/>
        <path id="Trazado_874346" data-name="Trazado 874346" d="M252.477,264.354a17.191,17.191,0,0,1-9.428,3.176c-.208-.509-.4-1.073-.609-1.69l9.737-3.865A11.994,11.994,0,0,1,252.477,264.354Z" transform="translate(-215.538 -243.73)" fill="#fff"/>
        <path id="Trazado_874347" data-name="Trazado 874347" d="M285.95,351.448c.691,6.837.293,13.483-3.063,14.113,1.536,5.484,8.774,22.374,8.774,22.374" transform="translate(-239.785 -297.367)" fill="none" stroke="#000" stroke-linecap="round" stroke-linejoin="round" stroke-miterlimit="10" stroke-width="1"/>
        <path id="Trazado_874348" data-name="Trazado 874348" d="M227.589,383.757c-.877,1.1-1.754,2.852-3.509,1.754.28.749-.036,1.1-.661,1.186a8.22,8.22,0,0,1-3.509-.745c-2.195-.877-4.606-3.072-6.36-1.318s-6.581,3.072-9.653.441c-3.288,2.411-16.013,6.36-24.568-1.1-8.059-7.025-2.491-19.305,2.764-25.289.324-.368.649-.717.965-1.033,1.29,1.145,3.8,3.6,5.383,5.171.837.829,1.418,1.41,1.418,1.41s-8.115,14.038.441,16.233c5.431,1.394,13.43-.044,19.894-.945,3.713-.513,6.921-.853,8.84-.372C224.3,380.469,228.246,382.223,227.589,383.757Z" transform="translate(-175.273 -301.088)" fill="#db8b72"/>
        <path id="Trazado_874349" data-name="Trazado 874349" d="M223.419,388.244a8.22,8.22,0,0,1-3.509-.745c-2.195-.877-4.606-3.072-6.36-1.318s-6.581,3.072-9.653.441c-3.288,2.411-16.013,6.36-24.568-1.1-8.059-7.025-2.491-19.305,2.764-25.289l2.619,1.414s-8.639,16.309-1.762,21.512,20.627,1.146,20.627,1.146,1.943,2.467,4.322,1.322C210.174,384.535,215.909,382.633,223.419,388.244Z" transform="translate(-175.273 -302.635)" fill="#db8b72" opacity="0.22"/>
        <path id="Trazado_874350" data-name="Trazado 874350" d="M183.061,357.657c-5.484,5.484-12.284,18.864-3.729,26.323s21.277,3.51,24.568,1.1c3.071,2.632,7.9,1.316,9.652-.439s4.168.439,6.361,1.316,4.826,1.316,4.168-.439c1.755,1.1,2.632-.658,3.51-1.755,0,0-2.5-2.938-8.669-4.26" transform="translate(-175.275 -301.089)" fill="none" stroke="#000" stroke-linecap="round" stroke-linejoin="round" stroke-miterlimit="10" stroke-width="1"/>
        <path id="Trazado_874351" data-name="Trazado 874351" d="M205.69,331.923l-8.116,10.31s-10.529-7.019-10.529-7.677,12.5-15.136,17.768-16.452S205.69,331.923,205.69,331.923Z" transform="translate(-182.33 -277.329)" fill="#f7a43c"/>
        <line id="Línea_566" data-name="Línea 566" x1="8.116" y2="10.31" transform="translate(15.244 54.594)" fill="none" stroke="#000" stroke-linecap="round" stroke-linejoin="round" stroke-miterlimit="10" stroke-width="1"/>
        <path id="Trazado_874352" data-name="Trazado 874352" d="M194.165,348.894s7.239,6.361,9.432,9.432" transform="translate(-186.598 -295.836)" fill="none" stroke="#fcf9f4" stroke-linecap="round" stroke-linejoin="round" stroke-miterlimit="10" stroke-width="2"/>
        <path id="Trazado_874353" data-name="Trazado 874353" d="M285.313,421.637a21.7,21.7,0,0,0-7.893-3.723" transform="translate(-236.507 -337.212)" fill="none" stroke="#000" stroke-linecap="round" stroke-linejoin="round" stroke-miterlimit="10" stroke-width="1"/>
        <path id="Trazado_874354" data-name="Trazado 874354" d="M289.978,419.329a17.824,17.824,0,0,0-8.816-4.5" transform="translate(-238.751 -335.365)" fill="none" stroke="#000" stroke-linecap="round" stroke-linejoin="round" stroke-miterlimit="10" stroke-width="1"/>
        <path id="Trazado_874355" data-name="Trazado 874355" d="M334.211,295.552s1.851-1.675,5.378.088" transform="translate(-270.552 -263.428)" fill="none" stroke="#000" stroke-linecap="round" stroke-linejoin="round" stroke-miterlimit="10" stroke-width="1"/>
        <path id="Trazado_874356" data-name="Trazado 874356" d="M261.021,279.729a10.248,10.248,0,0,1-10.015,4.963" transform="translate(-220.673 -254.373)" fill="none" stroke="#000" stroke-linecap="round" stroke-linejoin="round" stroke-miterlimit="10" stroke-width="1"/>
        <path id="Trazado_874357" data-name="Trazado 874357" d="M265.4,255.511a1.146,1.146,0,1,1-1.146-1.146A1.146,1.146,0,0,1,265.4,255.511Z" transform="translate(-227.929 -239.168)" fill="#db8b72" opacity="0.38"/>
        <path id="Trazado_874358" data-name="Trazado 874358" d="M233.707,258.813a1.146,1.146,0,1,1-1.146-1.146A1.146,1.146,0,0,1,233.707,258.813Z" transform="translate(-208.929 -241.148)" fill="#db8b72" opacity="0.38"/>
        <path id="Trazado_874359" data-name="Trazado 874359" d="M254.11,291.741c.016-.553.02-1.142.008-1.77a9.924,9.924,0,0,0,5.331-1.105,27.88,27.88,0,0,0,.148,4.394C257.17,293.123,255.256,292.642,254.11,291.741Z" transform="translate(-222.534 -259.85)" fill="#db8b72" opacity="0.38"/>
        <path id="Trazado_874360" data-name="Trazado 874360" d="M252.706,328.189l-.38.108-.3.088-2.776-1.254L246,329.295l-1.081-4.17s-3.709,2.627-3.865,2.163-3.244-10.358-3.244-10.358a6.949,6.949,0,0,1,1.434-1.186c-.144,2.267-.1,9.292,5.968,8.479.7,1.41,1.666,3.04,4.318,2.2a8.558,8.558,0,0,1,2.776,1.466C252.553,328.069,252.706,328.189,252.706,328.189Z" transform="translate(-212.762 -275.964)" fill="#afafaf" opacity="0.3"/>
      </g>
      <g id="Grupo_1099966" data-name="Grupo 1099966" transform="translate(32.066 19.837)">
        <path id="Trazado_874361" data-name="Trazado 874361" d="M190.327,65.719a10.136,10.136,0,0,1,5,3.721,30.174,30.174,0,0,1,3.094,5.519" transform="translate(-151.485 -65.719)" fill="none" stroke="#56b2ad" stroke-linecap="round" stroke-linejoin="round" stroke-miterlimit="10" stroke-width="3"/>
        <path id="Trazado_874362" data-name="Trazado 874362" d="M204.114,67.24a10.62,10.62,0,0,1,4.954,6.874" transform="translate(-159.75 -66.631)" fill="none" stroke="#56b2ad" stroke-linecap="round" stroke-linejoin="round" stroke-miterlimit="10" stroke-width="3"/>
        <path id="Trazado_874363" data-name="Trazado 874363" d="M102.116,111.453a35.046,35.046,0,0,1,.927-8.984" transform="translate(-98.598 -87.75)" fill="none" stroke="#56b2ad" stroke-linecap="round" stroke-linejoin="round" stroke-miterlimit="10" stroke-width="3"/>
        <path id="Trazado_874364" data-name="Trazado 874364" d="M93.391,102.519a17.565,17.565,0,0,1,3.442-11.658" transform="translate(-93.35 -80.791)" fill="none" stroke="#56b2ad" stroke-linecap="round" stroke-linejoin="round" stroke-miterlimit="10" stroke-width="3"/>
        <path id="Trazado_874365" data-name="Trazado 874365" d="M246.073,98.9a18.644,18.644,0,0,1,5.5,1.946,8.483,8.483,0,0,1,3.8,4.3" transform="translate(-184.903 -85.613)" fill="none" stroke="#56b2ad" stroke-linecap="round" stroke-linejoin="round" stroke-miterlimit="10" stroke-width="3"/>
        <path id="Trazado_874366" data-name="Trazado 874366" d="M258.8,97.382a7.927,7.927,0,0,1,6.422,4.41" transform="translate(-192.533 -84.7)" fill="none" stroke="#56b2ad" stroke-linecap="round" stroke-linejoin="round" stroke-miterlimit="10" stroke-width="3"/>
        <path id="Trazado_874367" data-name="Trazado 874367" d="M162.844,179.715a12.816,12.816,0,0,0,3.811,4.753" transform="translate(-135.01 -134.056)" fill="none" stroke="#56b2ad" stroke-linecap="round" stroke-linejoin="round" stroke-miterlimit="10" stroke-width="3"/>
        <path id="Trazado_874368" data-name="Trazado 874368" d="M159.25,182.928a7.242,7.242,0,0,0,3.856,5.132" transform="translate(-132.855 -135.983)" fill="none" stroke="#56b2ad" stroke-linecap="round" stroke-linejoin="round" stroke-miterlimit="10" stroke-width="3"/>
      </g>
      <g id="Grupo_1099967" data-name="Grupo 1099967" transform="translate(1.383 20.789)">
        <path id="Trazado_874369" data-name="Trazado 874369" d="M154.186,299.772a4.663,4.663,0,0,0,3.729-3.729c.658-3.29,0-8.335,1.755-8.774s1.755,7.458,1.755,7.458,5.7-11.406,7.458-10.529-3.29,11.187-3.29,11.187,5.484-9.432,6.8-8.335-4.387,10.748-4.387,10.748,5.484-8.335,6.8-7.239-4.606,9.871-4.606,9.871,5.045-6.361,6.142-5.265-6.8,14.916-20.839,11.845C155.283,305.037,154.186,299.772,154.186,299.772Z" transform="translate(-99.136 -197.614)" fill="#efd1bd"/>
        <path id="Trazado_874370" data-name="Trazado 874370" d="M167.878,287.268c1.755-.439,1.755,7.458,1.755,7.458s5.7-11.406,7.458-10.529-3.29,11.187-3.29,11.187,5.484-9.432,6.8-8.335-4.387,10.748-4.387,10.748,5.484-8.335,6.8-7.239-4.606,9.871-4.606,9.871,5.045-6.361,6.142-5.265" transform="translate(-107.344 -197.613)" fill="none" stroke="#000" stroke-linecap="round" stroke-linejoin="round" stroke-miterlimit="10" stroke-width="1"/>
        <path id="Trazado_874371" data-name="Trazado 874371" d="M51.773,149.133s6.142-17.11,10.09-17.768,4.387,3.51,4.387,3.51,1.316-3.071,2.413-3.071,1.974,3.29,1.974,3.29.219-2.194,1.755-1.755,1.316,2.632,1.316,2.632.658-3.29,2.413-2.632.878,3.51.878,3.51,1.536-2.852,2.632-2.194,0,3.29,0,3.29,1.316-2.852,1.974-2.413-3.51,17.987-3.51,17.987L77,145.185l-6.361-3.948-5.7.439-1.974,1.1-6.581,6.8Z" transform="translate(-37.742 -105.982)" fill="#9e9e9c"/>
        <path id="Trazado_874372" data-name="Trazado 874372" d="M31.011,400.3c-.219-.658-3.29-8.335-2.852-13.819,7.019-5.484,12.284-9.871,18.426-10.748s23.032-2.194,23.032-2.194l1.316,26.542-15.4.189-.613-9.4-4.168,1.316.658,7.458Z" transform="translate(-23.561 -251.2)"/>
        <path id="Trazado_874373" data-name="Trazado 874373" d="M34.248,289.95l33.561-1.536s-2.632-61.419-3.948-62.735-5.7-.439-5.7-.439.219,7.677-2.194,10.091a71.632,71.632,0,0,1-8.335-9.213L44.777,227Z" transform="translate(-27.237 -162.127)" fill="#fff"/>
        <path id="Trazado_874374" data-name="Trazado 874374" d="M40.741,301.433a4.342,4.342,0,0,1-.537,1.778c-6.36,6.8-23.03-3.072-23.03-3.072-1.538-12.721,1.314-54.62,4.165-62.078.084-.22.176-.441.272-.657,3.208-6.993,13.33-10.089,13.33-10.089s3.949,4.606,4.165,6.14,1.1,32.9.441,37.509C38.963,275.054,41.666,294.9,40.741,301.433Z" transform="translate(-16.743 -163.543)" fill="#56b2ad"/>
        <path id="Trazado_874375" data-name="Trazado 874375" d="M21.341,254.148c-2.852,7.458-5.7,49.355-4.168,62.077,0,0,16.671,9.871,23.032,3.071" transform="translate(-16.743 -179.629)" fill="none" stroke="#000" stroke-linecap="round" stroke-linejoin="round" stroke-miterlimit="10" stroke-width="1"/>
        <path id="Trazado_874376" data-name="Trazado 874376" d="M116.087,223.853l.24,6c.008.116.012.224.016.328l1.67,41.595.048,1.21s-9,6.36-11.848,6.36c-.212-1.478-.389-5.195-.541-10.233-.633-21.164-.773-65.663-.773-65.663s5.483,1.1,8.335,5.263,16.013,5.924,24.128-19.742c1.89.144,5.031.677,6.937,1.017.969.176,1.618.3,1.618.3S146.575,217.713,116.087,223.853Z" transform="translate(-69.59 -140.559)" fill="#56b2ad"/>
        <path id="Trazado_874377" data-name="Trazado 874377" d="M118.053,276.055l1.974,49.135s-8.993,6.361-11.845,6.361" transform="translate(-71.558 -192.761)" fill="none" stroke="#000" stroke-linecap="round" stroke-linejoin="round" stroke-miterlimit="10" stroke-width="1"/>
        <path id="Trazado_874378" data-name="Trazado 874378" d="M81.347,248.234a6.644,6.644,0,0,0,1.755,3.948c-1.1,4.826-1.755,39.923-1.755,39.923l4.168,4.168,2.632-3.948s-1.755-34.877-3.29-39.923a7.792,7.792,0,0,0,.878-4.826Z" transform="translate(-55.471 -175.689)" fill="#ee59c0"/>
        <path id="Trazado_874379" data-name="Trazado 874379" d="M81.347,249.219a6.644,6.644,0,0,0,1.755,3.948c-1.1,4.826-1.755,39.923-1.755,39.923l4.168,4.168" transform="translate(-55.471 -176.674)" fill="none" stroke="#000" stroke-linecap="round" stroke-linejoin="round" stroke-miterlimit="10" stroke-width="1"/>
        <path id="Trazado_874380" data-name="Trazado 874380" d="M53.146,228.629s-2.852,19.742-.439,21.277-2.852,11.845-.658,17.329,8.774,14.039,8.774,14.039l-.878-47.819-4.168-6.142Z" transform="translate(-37.579 -163.542)" fill="#8edad9"/>
        <path id="Trazado_874381" data-name="Trazado 874381" d="M105.336,281.277l-.439-56.155,2.413.878s5.923,17.768,4.387,19.523-5.7,2.852-3.729,4.826S114.329,252.761,105.336,281.277Z" transform="translate(-69.589 -162.228)" fill="#8edad9"/>
        <path id="Trazado_874382" data-name="Trazado 874382" d="M67.655,216.7s1.974-1.1,1.1-7.458a46.415,46.415,0,0,1,9.213,1.755l.219,7.239s.658,6.142-3.071,6.361S67.655,216.7,67.655,216.7Z" transform="translate(-47.263 -152.707)" fill="#efd1bd"/>
        <path id="Trazado_874383" data-name="Trazado 874383" d="M60.5,158.927s-1.316,13.161.878,14.258,10.09,8.774,17.768,2.852c2.852-4.168,4.025-11.443,3.806-18.024-2.194-2.632-6-7.421-15.212-3.254C66.858,157.611,60.5,158.927,60.5,158.927Z" transform="translate(-42.737 -119.066)" fill="#efd1bd"/>
        <path id="Trazado_874384" data-name="Trazado 874384" d="M51.669,181.369s-8.335,2.852-8.116-4.387,7.9-2.413,7.9-2.413Z" transform="translate(-32.812 -130.979)" fill="#efd1bd"/>
        <path id="Trazado_874385" data-name="Trazado 874385" d="M50.678,181.309a6.27,6.27,0,0,1,4.168,3.29" transform="translate(-37.086 -135.964)" fill="none" stroke="#000" stroke-miterlimit="10" stroke-width="1"/>
        <path id="Trazado_874386" data-name="Trazado 874386" d="M59.988,166.205s7.239-.658,7.677-8.993a21.355,21.355,0,0,0-7.239,3.071Z" transform="translate(-42.667 -121.518)" fill="#9e9e9c"/>
        <path id="Trazado_874387" data-name="Trazado 874387" d="M62.241,173.081A24.075,24.075,0,0,0,64,180.1c1.083,2.254,5.484.878,9.213,1.536s5.919,2.712,6.361.878c1.669-6.927,2.852-6.361,2.852-6.361s-1.1,11.407-3.071,12.942-6.8,3.729-14.039.658-8.116-6.361-6.142-15.136C61.363,172.861,62.241,173.081,62.241,173.081Z" transform="translate(-41.63 -131.026)" fill="#9e9e9c"/>
        <path id="Trazado_874388" data-name="Trazado 874388" d="M149.711,87.368a19.353,19.353,0,0,1-19.426,19.273,18.975,18.975,0,0,1-2.091-.112c-2.355.929-7.322,2.688-10.73,2.523a8.671,8.671,0,0,0,3.721-4.654,19.319,19.319,0,1,1,28.526-17.03Z" transform="translate(-73.163 -68.095)" fill="#fff"/>
        <path id="Trazado_874389" data-name="Trazado 874389" d="M159.6,116.215a19.353,19.353,0,0,1-19.426,19.273,18.977,18.977,0,0,1-2.091-.112c-2.355.929-7.322,2.688-10.73,2.523a8.671,8.671,0,0,0,3.721-4.654" transform="translate(-83.049 -96.942)" fill="none" stroke="#000" stroke-linecap="round" stroke-linejoin="round" stroke-miterlimit="10" stroke-width="1"/>
        <path id="Trazado_874390" data-name="Trazado 874390" d="M98.107,182.657a2.81,2.81,0,0,1,.678,3.263" transform="translate(-65.518 -136.772)" fill="none" stroke="#000" stroke-miterlimit="10" stroke-width="1"/>
        <path id="Trazado_874391" data-name="Trazado 874391" d="M83.409,171.175a2,2,0,0,1,3.526.487" transform="translate(-56.707 -129.375)" fill="none" stroke="#000" stroke-miterlimit="10" stroke-width="1"/>
        <path id="Trazado_874392" data-name="Trazado 874392" d="M105.157,173.458a1.307,1.307,0,0,1,2.535.185" transform="translate(-69.745 -130.712)" fill="none" stroke="#000" stroke-miterlimit="10" stroke-width="1"/>
        <path id="Trazado_874393" data-name="Trazado 874393" d="M65.75,147.392a30.91,30.91,0,0,0,2.615-4.649" transform="translate(-46.121 -112.844)" fill="none" stroke="#000" stroke-miterlimit="10" stroke-width="1"/>
        <path id="Trazado_874394" data-name="Trazado 874394" d="M71.124,147.586q1.306-1.807,2.436-3.733" transform="translate(-49.343 -113.51)" fill="none" stroke="#000" stroke-miterlimit="10" stroke-width="1"/>
        <path id="Trazado_874395" data-name="Trazado 874395" d="M85.882,201.8c-1.794,2.327-3.529,1.694-5.487,1.174-1.466-.389-1.758-2.259-1.774-3.585A12.215,12.215,0,0,0,85.882,201.8Z" transform="translate(-53.836 -146.8)"/>
        <path id="Trazado_874396" data-name="Trazado 874396" d="M86.886,198.148a10.369,10.369,0,0,1-1.005,1.61,12.215,12.215,0,0,1-7.262-2.411,9.96,9.96,0,0,1,.076-1.362S83.333,198.148,86.886,198.148Z" transform="translate(-53.836 -144.761)" fill="#fff"/>
        <path id="Trazado_874397" data-name="Trazado 874397" d="M89.46,180.4c0,.768-.312,1.391-.7,1.391s-.7-.623-.7-1.391.312-1.391.7-1.391S89.46,179.628,89.46,180.4Z" transform="translate(-59.501 -134.582)"/>
        <path id="Trazado_874398" data-name="Trazado 874398" d="M105.861,183.1c0,.768-.312,1.391-.7,1.391s-.7-.623-.7-1.391.311-1.391.7-1.391S105.861,182.329,105.861,183.1Z" transform="translate(-69.333 -136.202)"/>
        <path id="Trazado_874399" data-name="Trazado 874399" d="M143.864,135.93c-.457-.6-.256-1.674.479-1.831a.832.832,0,0,1-.912-.819,1.077,1.077,0,0,1,.845-.984.768.768,0,0,1-.907-.8.8.8,0,0,1,1.064-.609,1.463,1.463,0,0,1-1.135-1.679,2.287,2.287,0,0,1,1.422-1.638,5.58,5.58,0,0,1,2.224-.331,26.441,26.441,0,0,1,6.64.958,1.94,1.94,0,0,1-1.306,2.32.911.911,0,0,1,.21,1.73c.373-.286.964.163.918.631a1.124,1.124,0,0,1-.972.884c.64-.055.977.874.639,1.421a2.464,2.464,0,0,1-1.646.9C149.728,136.466,145.164,137.625,143.864,135.93Z" transform="translate(-92.598 -103.551)" fill="#141412"/>
        <path id="Trazado_874400" data-name="Trazado 874400" d="M148.71,144.871a5.5,5.5,0,0,0,4.218-.274" transform="translate(-95.853 -113.956)" fill="none" stroke="#afafaf" stroke-linecap="round" stroke-linejoin="round" stroke-miterlimit="10" stroke-width="1"/>
        <path id="Trazado_874401" data-name="Trazado 874401" d="M148.671,141.116a13.687,13.687,0,0,0,4.176.088" transform="translate(-95.83 -111.869)" fill="none" stroke="#afafaf" stroke-linecap="round" stroke-linejoin="round" stroke-miterlimit="10" stroke-width="1"/>
        <path id="Trazado_874402" data-name="Trazado 874402" d="M149.467,136.4a12.892,12.892,0,0,0,4.319.265" transform="translate(-96.307 -109.042)" fill="none" stroke="#afafaf" stroke-linecap="round" stroke-linejoin="round" stroke-miterlimit="10" stroke-width="1"/>
        <path id="Trazado_874403" data-name="Trazado 874403" d="M147.572,101.068c-2.415,2.411-3.513,2.631-3.513,5.263a12.723,12.723,0,0,1-4.494.324,15.27,15.27,0,0,1-2.087-.324s.22-3.072-3.509-4.606-4.386-7.678-1.314-10.089a11.921,11.921,0,0,1,13.426-1.326c.132.076.26.148.393.228C151.958,93.831,149.983,98.653,147.572,101.068Z" transform="translate(-85.063 -80.509)" fill="#f7e869"/>
        <path id="Trazado_874404" data-name="Trazado 874404" d="M143.146,113.3a5.2,5.2,0,0,0-.729-6.281c-1.061-1.086-2.616-1.8-3.3-3.119a3.218,3.218,0,0,1,2.13-4.37,3.547,3.547,0,0,1,4.312,2.66c.1.838-.426,1.888-1.336,1.839a1.481,1.481,0,0,1-1.128-.764,2.5,2.5,0,0,1,.695-3.18,3.6,3.6,0,0,1,3.575-.346,3.892,3.892,0,0,1,2.172,2.733,1.462,1.462,0,0,1,0,.724c-.252.816-1.691.868-2.173.146a1.6,1.6,0,0,1,.747-2.175,3.382,3.382,0,0,1,2.661-.054,1.8,1.8,0,0,1,.9.574,1.757,1.757,0,0,1-.111,1.754c-.827,1.742-2.081,3.284-2.959,5a6.38,6.38,0,0,0-.544,5.512" transform="translate(-89.931 -86.872)" fill="none" stroke="#000" stroke-miterlimit="10" stroke-width="1"/>
        <path id="Trazado_874405" data-name="Trazado 874405" d="M148.709,318.664c.658,0,3.29-.439,3.29-.439l1.1,11.187-4.387.219Z" transform="translate(-95.853 -218.041)" fill="#fff"/>
        <path id="Trazado_874406" data-name="Trazado 874406" d="M35.948,239.878s3.729-1.1,10.31,12.722,20.839,18.206,34,17.987c-.658,3.51,0,12.5,0,12.5s-36.193,6.362-46.722-24.568C30.464,249.749,32.219,240.317,35.948,239.878Z" transform="translate(-25.866 -171.062)" fill="#56b2ad"/>
        <path id="Trazado_874407" data-name="Trazado 874407" d="M82.613,298.525c-.658,3.51,0,12.5,0,12.5S46.42,317.389,35.891,286.46" transform="translate(-28.222 -198.999)" fill="none" stroke="#000" stroke-linecap="round" stroke-linejoin="round" stroke-miterlimit="10" stroke-width="1"/>
        <path id="Trazado_874408" data-name="Trazado 874408" d="M76.99,219.759l-1.362,12.088-.172,1.51-3.729-2.191-4.606,1.754L60.54,222.831l1.021-1.874,1.61-2.952a45.213,45.213,0,0,1,8.335,10.089c2.411-2.852,2.411-10.089,2.411-10.089Z" transform="translate(-42.998 -157.962)" fill="#fff"/>
        <path id="Trazado_874409" data-name="Trazado 874409" d="M60.536,225.455l6.58,10.09,4.606-1.755,3.729,2.194,1.535-13.6" transform="translate(-42.996 -160.587)" fill="none" stroke="#000" stroke-linecap="round" stroke-linejoin="round" stroke-miterlimit="10" stroke-width="1"/>
        <path id="Trazado_874410" data-name="Trazado 874410" d="M40.741,316.533a4.342,4.342,0,0,1-.537,1.778c-6.36,6.8-23.03-3.072-23.03-3.072-1.538-12.721,1.314-54.62,4.165-62.078.084-.22.176-.441.272-.657C20.515,267.284,19.277,309.865,40.741,316.533Z" transform="translate(-16.743 -178.644)" fill="#56b2ad" opacity="0.48"/>
        <path id="Trazado_874411" data-name="Trazado 874411" d="M119.218,392.938s-9,6.36-11.848,6.36c-.212-1.478-.389-5.195-.541-10.233,1.818,2.3,5.383,4.278,12.34,2.664Z" transform="translate(-70.747 -260.508)" fill="#56b2ad" opacity="0.48"/>
        <path id="Trazado_874412" data-name="Trazado 874412" d="M75.628,236.265l-.172,1.51-3.729-2.191-4.606,1.754L60.54,227.249l1.021-1.874c1.246,2.924,5.255,11.111,10.221,8.627A16.68,16.68,0,0,1,75.628,236.265Z" transform="translate(-42.998 -162.38)" fill="#afafaf" opacity="0.3"/>
        <path id="Trazado_874413" data-name="Trazado 874413" d="M160.827,103.323c-2.415,2.411-3.513,2.631-3.513,5.263a12.723,12.723,0,0,1-4.494.324,6.224,6.224,0,0,1,2.147-4.438c2.736-2.451,3.921-8.627,4.37-11.908.132.076.26.148.393.228C165.212,96.086,163.238,100.908,160.827,103.323Z" transform="translate(-98.317 -82.764)" fill="#f7a43c" opacity="0.48"/>
        <path id="Trazado_874414" data-name="Trazado 874414" d="M132.422,225.376l.24,6c-.092-1.927-.264-5.451-.513-10.662,19.121.164,26.519-21.725,28.486-29.2.969.176,1.618.3,1.618.3S162.911,219.236,132.422,225.376Z" transform="translate(-85.926 -142.082)" fill="#56b2ad" opacity="0.48"/>
      </g>
      <g id="Grupo_1099968" data-name="Grupo 1099968" transform="translate(94.381 143.566)">
        <path id="Trazado_874415" data-name="Trazado 874415" d="M363.717,376.962l-11.675,21.633a1.584,1.584,0,0,1-1.39.829H329.44l13.382-24.789h19.506A1.577,1.577,0,0,1,363.717,376.962Z" transform="translate(-297.194 -374.635)" fill="#f7e869" stroke="#000" stroke-miterlimit="10" stroke-width="1"/>
        <path id="Trazado_874416" data-name="Trazado 874416" d="M294.558,374.634h-2.632l-12.065,23.032-30.929.658.219,1.1h32.026Z" transform="translate(-248.932 -374.634)" fill="#f7e869" stroke="#000" stroke-miterlimit="10" stroke-width="1"/>
        <path id="Trazado_874417" data-name="Trazado 874417" d="M375.9,401.953c-.441,1.7-1.655,2.857-2.71,2.583s-1.553-1.874-1.111-3.575,1.655-2.857,2.71-2.583S376.337,400.252,375.9,401.953Z" transform="translate(-322.656 -388.844)" fill="none" stroke="#f7a43c" stroke-miterlimit="10" stroke-width="1"/>
        <path id="Trazado_874418" data-name="Trazado 874418" d="M372.05,376.962l-11.675,21.633a1.584,1.584,0,0,1-1.39.829H343.34c17.155-5.127,23.651-17.547,26.034-24.789h1.286A1.577,1.577,0,0,1,372.05,376.962Z" transform="translate(-305.527 -374.635)" fill="#f7a43c" opacity="0.48"/>
      </g>
      <g id="Grupo_1099970" data-name="Grupo 1099970" transform="translate(62.05 35)">
        <path id="Trazado_874419" data-name="Trazado 874419" d="M191.581,142.082a54.042,54.042,0,0,0,.4,6.449c-4.226-1.105-5.523-5.287-5.836-6.613-10.173-1.478-17.94-9.444-17.94-19.045,0-10.658,9.565-19.3,21.364-19.3s21.36,8.639,21.36,19.3C210.934,132.914,202.435,141.169,191.581,142.082Z" transform="translate(-168.21 -103.575)" fill="#fff"/>
        <path id="Trazado_874420" data-name="Trazado 874420" d="M237.785,151.755c0,10.041-8.5,18.3-19.354,19.209a54.049,54.049,0,0,0,.4,6.449c-4.226-1.105-5.523-5.287-5.836-6.613" transform="translate(-195.06 -132.458)" fill="none" stroke="#000" stroke-linecap="round" stroke-linejoin="round" stroke-miterlimit="10" stroke-width="1"/>
        <g id="Grupo_1099969" data-name="Grupo 1099969" transform="translate(8.639 7.659)">
          <circle id="Elipse_11523" data-name="Elipse 11523" cx="12.067" cy="12.067" r="12.067" transform="translate(0.836 1.045)" fill="#eea4f3"/>
          <circle id="Elipse_11524" data-name="Elipse 11524" cx="12.067" cy="12.067" r="12.067" fill="#ee59c0"/>
          <circle id="Elipse_11525" data-name="Elipse 11525" cx="8.518" cy="8.518" r="8.518" transform="translate(3.549 3.549)" fill="#fff"/>
          <circle id="Elipse_11526" data-name="Elipse 11526" cx="4.609" cy="4.609" r="4.609" transform="translate(7.457 7.457)" fill="#ee59c0"/>
          <circle id="Elipse_11527" data-name="Elipse 11527" cx="1.971" cy="1.971" r="1.971" transform="translate(10.096 10.096)" fill="#fff"/>
        </g>
      </g>
      <g id="Grupo_1099980" data-name="Grupo 1099980">
        <g id="Grupo_1099971" data-name="Grupo 1099971" transform="translate(41.959 31.887)">
          <path id="Trazado_874421" data-name="Trazado 874421" d="M118.048,119.162l3.727-.249" transform="translate(-118.048 -109.657)" fill="none" stroke="#141412" stroke-linecap="round" stroke-linejoin="round" stroke-miterlimit="10" stroke-width="3"/>
          <path id="Trazado_874422" data-name="Trazado 874422" d="M121.869,125.345a9.388,9.388,0,0,1,2.2-1.529" transform="translate(-120.339 -112.596)" fill="none" stroke="#141412" stroke-linecap="round" stroke-linejoin="round" stroke-miterlimit="10" stroke-width="3"/>
          <path id="Trazado_874423" data-name="Trazado 874423" d="M126.816,131.044a3.527,3.527,0,0,0,1.959-1.775" transform="translate(-123.304 -115.865)" fill="none" stroke="#141412" stroke-linecap="round" stroke-linejoin="round" stroke-miterlimit="10" stroke-width="3"/>
          <path id="Trazado_874424" data-name="Trazado 874424" d="M187.008,97.122,189.2,95.8" transform="translate(-159.388 -95.803)" fill="none" stroke="#141412" stroke-linecap="round" stroke-linejoin="round" stroke-miterlimit="10" stroke-width="3"/>
          <path id="Trazado_874425" data-name="Trazado 874425" d="M188.142,104.2a3.944,3.944,0,0,0,2.183-.694" transform="translate(-160.067 -100.42)" fill="none" stroke="#141412" stroke-linecap="round" stroke-linejoin="round" stroke-miterlimit="10" stroke-width="3"/>
          <path id="Trazado_874426" data-name="Trazado 874426" d="M255.157,139.708l2.341-.7" transform="translate(-200.241 -121.705)" fill="none" stroke="#141412" stroke-linecap="round" stroke-linejoin="round" stroke-miterlimit="10" stroke-width="3"/>
          <path id="Trazado_874427" data-name="Trazado 874427" d="M257.5,148.107a2.358,2.358,0,0,0,1.709.046" transform="translate(-201.644 -127.158)" fill="none" stroke="#141412" stroke-linecap="round" stroke-linejoin="round" stroke-miterlimit="10" stroke-width="3"/>
          <path id="Trazado_874428" data-name="Trazado 874428" d="M255.97,155.047a1.955,1.955,0,0,0,1.817.387" transform="translate(-200.728 -131.318)" fill="none" stroke="#141412" stroke-linecap="round" stroke-linejoin="round" stroke-miterlimit="10" stroke-width="3"/>
          <path id="Trazado_874429" data-name="Trazado 874429" d="M183.005,168.663a3.409,3.409,0,0,0,1.237-1.236" transform="translate(-156.988 -138.74)" fill="none" stroke="#141412" stroke-linecap="round" stroke-linejoin="round" stroke-miterlimit="10" stroke-width="3"/>
          <path id="Trazado_874430" data-name="Trazado 874430" d="M187.985,173.968l.606-1.55" transform="translate(-159.973 -141.732)" fill="none" stroke="#141412" stroke-linecap="round" stroke-linejoin="round" stroke-miterlimit="10" stroke-width="3"/>
          <path id="Trazado_874431" data-name="Trazado 874431" d="M191.52,178.244a3.531,3.531,0,0,0,1.066-1.56" transform="translate(-162.092 -144.289)" fill="none" stroke="#141412" stroke-linecap="round" stroke-linejoin="round" stroke-miterlimit="10" stroke-width="3"/>
          <path id="Trazado_874432" data-name="Trazado 874432" d="M304.955,99.889l2.467.492" transform="translate(-230.094 -98.252)" fill="none" stroke="#141412" stroke-linecap="round" stroke-linejoin="round" stroke-miterlimit="10" stroke-width="3"/>
          <path id="Trazado_874433" data-name="Trazado 874433" d="M306.531,107.8a11.055,11.055,0,0,0,2.31-1.719" transform="translate(-231.038 -101.963)" fill="none" stroke="#141412" stroke-linecap="round" stroke-linejoin="round" stroke-miterlimit="10" stroke-width="3"/>
          <path id="Trazado_874434" data-name="Trazado 874434" d="M309.282,115.71a11.756,11.756,0,0,0,2.245-1.648" transform="translate(-232.687 -106.749)" fill="none" stroke="#141412" stroke-linecap="round" stroke-linejoin="round" stroke-miterlimit="10" stroke-width="3"/>
          <path id="Trazado_874435" data-name="Trazado 874435" d="M366.321,121.5l2.009,1.855" transform="translate(-266.881 -111.206)" fill="none" stroke="#141412" stroke-linecap="round" stroke-linejoin="round" stroke-miterlimit="10" stroke-width="3"/>
          <path id="Trazado_874436" data-name="Trazado 874436" d="M370.588,116.845a2.688,2.688,0,0,0,2,.8" transform="translate(-269.439 -108.417)" fill="none" stroke="#141412" stroke-linecap="round" stroke-linejoin="round" stroke-miterlimit="10" stroke-width="3"/>
          <path id="Trazado_874437" data-name="Trazado 874437" d="M372.877,110.084a11.755,11.755,0,0,0,2.783-.143" transform="translate(-270.811 -104.278)" fill="none" stroke="#141412" stroke-linecap="round" stroke-linejoin="round" stroke-miterlimit="10" stroke-width="3"/>
        </g>
        <g id="Grupo_1099979" data-name="Grupo 1099979">
          <g id="Grupo_1099976" data-name="Grupo 1099976" transform="translate(5.915 9.158)">
            <g id="Grupo_1099972" data-name="Grupo 1099972" transform="translate(167.434 6.982)">
              <path id="Trazado_874438" data-name="Trazado 874438" d="M446.092,56.489c1.393.235,2.368,1.476,3.112,2.676A29.634,29.634,0,0,1,453.48,77.5" transform="translate(-446.092 -56.489)" fill="none" stroke="#56b2ad" stroke-linecap="round" stroke-linejoin="round" stroke-miterlimit="10" stroke-width="3"/>
              <path id="Trazado_874439" data-name="Trazado 874439" d="M464.761,62.434a26.427,26.427,0,0,1,4.15,15.148" transform="translate(-457.284 -60.053)" fill="none" stroke="#56b2ad" stroke-linecap="round" stroke-linejoin="round" stroke-miterlimit="10" stroke-width="3"/>
              <path id="Trazado_874440" data-name="Trazado 874440" d="M476.777,67.343a3.469,3.469,0,0,1,1.487,2.374A27.712,27.712,0,0,1,479.2,76.8" transform="translate(-464.487 -62.996)" fill="none" stroke="#56b2ad" stroke-linecap="round" stroke-linejoin="round" stroke-miterlimit="10" stroke-width="3"/>
            </g>
            <g id="Grupo_1099973" data-name="Grupo 1099973">
              <path id="Trazado_874441" data-name="Trazado 874441" d="M28.059,65.888a31.257,31.257,0,0,1,10.211-10.6A86.494,86.494,0,0,1,51.436,48.45" transform="translate(-28.059 -44.688)" fill="none" stroke="#56b2ad" stroke-linecap="round" stroke-linejoin="round" stroke-miterlimit="10" stroke-width="3"/>
              <path id="Trazado_874442" data-name="Trazado 874442" d="M38.514,53.386A47.835,47.835,0,0,1,53.467,45.96" transform="translate(-34.326 -43.195)" fill="none" stroke="#56b2ad" stroke-linecap="round" stroke-linejoin="round" stroke-miterlimit="10" stroke-width="3"/>
              <path id="Trazado_874443" data-name="Trazado 874443" d="M42.4,44.006a34.176,34.176,0,0,1,12.1-4.949" transform="translate(-36.655 -39.057)" fill="none" stroke="#56b2ad" stroke-linecap="round" stroke-linejoin="round" stroke-miterlimit="10" stroke-width="3"/>
            </g>
            <g id="Grupo_1099974" data-name="Grupo 1099974" transform="translate(174.327 51.71)">
              <path id="Trazado_874444" data-name="Trazado 874444" d="M463.413,168.161a22.566,22.566,0,0,0,3.1,13.811" transform="translate(-463.302 -168.161)" fill="none" stroke="#56b2ad" stroke-linecap="round" stroke-linejoin="round" stroke-miterlimit="10" stroke-width="3"/>
              <path id="Trazado_874445" data-name="Trazado 874445" d="M471.468,175.835A17.32,17.32,0,0,0,474,185.064" transform="translate(-468.197 -172.761)" fill="none" stroke="#56b2ad" stroke-linecap="round" stroke-linejoin="round" stroke-miterlimit="10" stroke-width="3"/>
            </g>
            <g id="Grupo_1099975" data-name="Grupo 1099975" transform="translate(20.685 171.045)">
              <path id="Trazado_874446" data-name="Trazado 874446" d="M361.75,466.105l18.425.885" transform="translate(-248.783 -466.105)" fill="none" stroke="#56b2ad" stroke-linecap="round" stroke-linejoin="round" stroke-miterlimit="10" stroke-width="3"/>
              <path id="Trazado_874447" data-name="Trazado 874447" d="M368.847,476.836q7.672.479,15.364.481" transform="translate(-253.037 -472.538)" fill="none" stroke="#56b2ad" stroke-linecap="round" stroke-linejoin="round" stroke-miterlimit="10" stroke-width="3"/>
              <path id="Trazado_874448" data-name="Trazado 874448" d="M79.7,467.712l9.873-.393" transform="translate(-79.704 -466.833)" fill="none" stroke="#56b2ad" stroke-linecap="round" stroke-linejoin="round" stroke-miterlimit="10" stroke-width="3"/>
              <path id="Trazado_874449" data-name="Trazado 874449" d="M80.236,476.788a51.259,51.259,0,0,0,8.776-.129" transform="translate(-80.023 -472.432)" fill="none" stroke="#56b2ad" stroke-linecap="round" stroke-linejoin="round" stroke-miterlimit="10" stroke-width="3"/>
            </g>
          </g>
          <g id="Grupo_1099977" data-name="Grupo 1099977" transform="translate(1.17)">
            <path id="Trazado_874450" data-name="Trazado 874450" d="M403.4,31.533h0a5.623,5.623,0,0,0-5.623-5.623h0a5.623,5.623,0,0,0,5.623-5.623h0a5.623,5.623,0,0,0,5.623,5.623h0A5.623,5.623,0,0,0,403.4,31.533Z" transform="translate(-244.951 -18.647)" fill="#eea4f3"/>
            <path id="Trazado_874451" data-name="Trazado 874451" d="M60.247,90.805h0a5.623,5.623,0,0,0-5.623-5.623h0a5.623,5.623,0,0,0,5.623-5.623h0a5.623,5.623,0,0,0,5.623,5.623h0A5.623,5.623,0,0,0,60.247,90.805Z" transform="translate(-39.239 -54.179)" fill="#eea4f3"/>
            <path id="Trazado_874452" data-name="Trazado 874452" d="M474.875,134.9h0a3.2,3.2,0,0,0-3.2-3.2h0a3.2,3.2,0,0,0,3.2-3.2h0a3.2,3.2,0,0,0,3.2,3.2h0A3.2,3.2,0,0,0,474.875,134.9Z" transform="translate(-289.248 -83.515)" fill="#eea4f3"/>
            <path id="Trazado_874453" data-name="Trazado 874453" d="M92.725,22.6h0a3.2,3.2,0,0,0-3.2-3.2h0a3.2,3.2,0,0,0,3.2-3.2h0a3.2,3.2,0,0,0,3.2,3.2h0A3.2,3.2,0,0,0,92.725,22.6Z" transform="translate(-60.159 -16.191)" fill="#eea4f3"/>
            <path id="Trazado_874454" data-name="Trazado 874454" d="M52.171,109.945h0a3.2,3.2,0,0,0-3.2-3.2h0a3.2,3.2,0,0,0,3.2-3.2h0a3.2,3.2,0,0,0,3.2,3.2h0A3.2,3.2,0,0,0,52.171,109.945Z" transform="translate(-35.848 -68.554)" fill="#eea4f3"/>
            <path id="Trazado_874455" data-name="Trazado 874455" d="M19.415,222.25h0a3.2,3.2,0,0,0-3.2-3.2h0a3.2,3.2,0,0,0,3.2-3.2h0a3.2,3.2,0,0,0,3.2,3.2h0A3.2,3.2,0,0,0,19.415,222.25Z" transform="translate(-16.212 -135.878)" fill="#eea4f3"/>
            <path id="Trazado_874456" data-name="Trazado 874456" d="M472.535,368.091h0a3.2,3.2,0,0,0-3.2-3.2h0a3.2,3.2,0,0,0,3.2-3.2h0a3.2,3.2,0,0,0,3.2,3.2h0A3.2,3.2,0,0,0,472.535,368.091Z" transform="translate(-287.845 -223.306)" fill="#eea4f3"/>
          </g>
          <g id="Grupo_1099978" data-name="Grupo 1099978" transform="translate(0 1.641)">
            <circle id="Elipse_11528" data-name="Elipse 11528" cx="2.186" cy="2.186" r="2.186" transform="translate(46.231 6.56)" fill="#fff"/>
            <path id="Trazado_874457" data-name="Trazado 874457" d="M440.367,22.474a2.186,2.186,0,1,1-2.186-2.186A2.186,2.186,0,0,1,440.367,22.474Z" transform="translate(-266.689 -20.288)" fill="#fff"/>
            <path id="Trazado_874458" data-name="Trazado 874458" d="M480.922,325.854a2.186,2.186,0,1,1-2.186-2.186A2.186,2.186,0,0,1,480.922,325.854Z" transform="translate(-291.001 -202.156)" fill="#fff"/>
            <path id="Trazado_874459" data-name="Trazado 874459" d="M21.563,151.157a2.186,2.186,0,1,1-2.186-2.186A2.186,2.186,0,0,1,21.563,151.157Z" transform="translate(-15.628 -97.43)" fill="#fff"/>
            <circle id="Elipse_11529" data-name="Elipse 11529" cx="2.186" cy="2.186" r="2.186" transform="translate(0 41.233)" fill="#fff"/>
            <path id="Trazado_874460" data-name="Trazado 874460" d="M477.8,227.587a2.186,2.186,0,1,1-2.187-2.186A2.186,2.186,0,0,1,477.8,227.587Z" transform="translate(-289.131 -143.248)" fill="#fff"/>
            <path id="Trazado_874461" data-name="Trazado 874461" d="M99.552,65.368a2.186,2.186,0,1,1-2.186-2.186A2.186,2.186,0,0,1,99.552,65.368Z" transform="translate(-62.38 -46.002)" fill="#fff"/>
          </g>
        </g>
      </g>
      <rect id="Rectángulo_401399" data-name="Rectángulo 401399" width="176.361" height="5.484" transform="translate(6.628 168.354)" fill="#56b2ad"/>
    </g>
  </g>
</svg>
