<svg xmlns="http://www.w3.org/2000/svg" width="82" height="82" viewBox="0 0 82 82">
  <g id="Grupo_1100733" data-name="Grupo 1100733" transform="translate(-948.333 -441.999)">
    <circle id="Elipse_11497" data-name="Elipse 11497" cx="41" cy="41" r="41" transform="translate(948.333 441.999)" fill="#ff9b6a"/>
    <g id="Grupo_1100725" data-name="Grupo 1100725" transform="translate(958.66 454.548)">
      <path id="Trazado_875343" data-name="Trazado 875343" d="M7.77,32.434h1.1a22.4,22.4,0,0,0,2.4,5.49l-.87.87a3.77,3.77,0,0,0,0,5.331l2.816,2.816a3.77,3.77,0,0,0,5.331,0l1-1c.515.291,1.042.553,1.575.8-.028-.323-.056-.581-.066-.666a5.689,5.689,0,0,0-.578-1.66c-.408-.229-.81-.466-1.2-.72l-1.987,1.987a1.991,1.991,0,0,1-2.816,0l-2.817-2.817a1.992,1.992,0,0,1,0-2.817l1.891-1.891a20.785,20.785,0,0,1-3.3-7.5H7.77a1.992,1.992,0,0,1-1.992-1.992V24.681A1.992,1.992,0,0,1,7.77,22.69h2.305a20.768,20.768,0,0,1,3.075-7.906l-1.489-1.489a1.992,1.992,0,0,1,0-2.817l2.817-2.817a1.992,1.992,0,0,1,2.816,0l1.393,1.393a20.779,20.779,0,0,1,8-3.4V3.77a1.992,1.992,0,0,1,1.992-1.992h3.983A1.992,1.992,0,0,1,34.656,3.77V5.653a20.779,20.779,0,0,1,8,3.4l1.393-1.393a1.992,1.992,0,0,1,2.816,0l2.817,2.817a1.992,1.992,0,0,1,0,2.817L48.2,14.783a20.768,20.768,0,0,1,3.076,7.906h2.3a1.992,1.992,0,0,1,1.992,1.992v3.983a1.992,1.992,0,0,1-1.992,1.992H51.091a20.785,20.785,0,0,1-3.3,7.5l1.891,1.891a1.992,1.992,0,0,1,0,2.817l-2.817,2.817a1.991,1.991,0,0,1-2.816,0l-.669-.669a4.754,4.754,0,0,1-1.319,1.2l.73.73a3.77,3.77,0,0,0,5.331,0l2.816-2.816a3.77,3.77,0,0,0,0-5.331l-.87-.87a22.405,22.405,0,0,0,2.4-5.49h1.1a3.774,3.774,0,0,0,3.77-3.77V24.681a3.774,3.774,0,0,0-3.77-3.77h-.851a22.371,22.371,0,0,0-2.286-5.857l.5-.5a3.77,3.77,0,0,0,0-5.331L48.125,6.4a3.77,3.77,0,0,0-5.331,0l-.372.372a22.363,22.363,0,0,0-5.988-2.542V3.77A3.774,3.774,0,0,0,32.664,0H28.681a3.774,3.774,0,0,0-3.77,3.77v.464a22.363,22.363,0,0,0-5.988,2.542L18.552,6.4a3.77,3.77,0,0,0-5.331,0L10.4,9.22a3.77,3.77,0,0,0,0,5.331l.5.5a22.37,22.37,0,0,0-2.286,5.857H7.77A3.774,3.774,0,0,0,4,24.681v3.983a3.774,3.774,0,0,0,3.77,3.77Z" fill="#2436b1"/>
      <path id="Trazado_875344" data-name="Trazado 875344" d="M59.077,57.635a2.264,2.264,0,0,0,1.25-1.58,2.761,2.761,0,0,0-.634-2.214,8.518,8.518,0,0,1-1.356-2.529,7.828,7.828,0,0,1-.224-1.922c-.018-.458-.036-.932-.094-1.429a12.651,12.651,0,0,0-6.9-9.632A13.277,13.277,0,0,0,45.292,37a13.987,13.987,0,0,0-14,13.487c-.179,4.445,2.1,7.795,3.932,10.486l.188.275c1.135,1.662,2.309,3.381,2.565,5.152a20.328,20.328,0,0,1,.142,2.152A1.778,1.778,0,0,0,39.9,70.341H51.138a1.778,1.778,0,0,0,1.778-1.778V66.872a1.083,1.083,0,0,1,1.1-1.088h.112a3.407,3.407,0,0,0,3.1-1.452,3.8,3.8,0,0,0,.41-2.735l0-.019a2.2,2.2,0,0,0,.727-.907,2.164,2.164,0,0,0,.128-1.273,1.96,1.96,0,0,0,.173-.28,2.028,2.028,0,0,0,.16-1.381l.086-.032Q59,57.674,59.077,57.635Zm-.782-1.6c-.269.1-.536.2-.8.3a1.352,1.352,0,0,0-.616.364.9.9,0,0,0,.037.988c.088.169.374.662.014.713-.216.149-.431.3-.65.444-.031.02-.031.126,0,.16.079.092.156.186.227.284a2.171,2.171,0,0,1,.2.306.424.424,0,0,1-.3.636.653.653,0,0,0-.672.79c.065.281.119.564.162.848a2.179,2.179,0,0,1-.15,1.5,1.844,1.844,0,0,1-1.607.633h-.113a2.867,2.867,0,0,0-2.879,2.866v1.691H46.273V63.228h.889a.889.889,0,1,0,0-1.778H43.606a.889.889,0,1,0,0,1.778h.889v5.335H39.9a21.986,21.986,0,0,0-.159-2.409c-.329-2.294-1.781-4.328-3.044-6.181-1.949-2.864-3.775-5.682-3.625-9.414A12.231,12.231,0,0,1,41.415,39.4a12.408,12.408,0,0,1,3.877-.626,11.423,11.423,0,0,1,5.041,1.147,10.854,10.854,0,0,1,5.919,8.24,19.891,19.891,0,0,0,.385,3.67,10.41,10.41,0,0,0,1.657,3.105s.672.768,0,1.1Z" transform="translate(-15.156 -20.552)" fill="#2436b1"/>
      <path id="Trazado_875345" data-name="Trazado 875345" d="M61.558,116.889a.889.889,0,0,0-.889-.889h-9.78a.889.889,0,1,0,0,1.778h9.78a.889.889,0,0,0,.889-.889Z" transform="translate(-25.551 -64.432)" fill="#2436b1"/>
      <path id="Trazado_875346" data-name="Trazado 875346" d="M54.889,124a.889.889,0,1,0,0,1.778h6.224a.889.889,0,1,0,0-1.778Z" transform="translate(-27.772 -68.876)" fill="#2436b1"/>
      <path id="Trazado_875347" data-name="Trazado 875347" d="M57.984,52.452q-.089-.252-.2-.5a2.387,2.387,0,0,0-.425-2.794l-.855-.855a2.387,2.387,0,0,0-2.705-.47q-.306-.145-.623-.263A2.387,2.387,0,0,0,50.94,46H49.73a2.387,2.387,0,0,0-2.241,1.574q-.317.118-.623.263a2.387,2.387,0,0,0-2.705.47l-.855.855a2.386,2.386,0,0,0-.425,2.794q-.106.245-.2.5A2.387,2.387,0,0,0,41,54.731V55.94a2.387,2.387,0,0,0,1.813,2.314q.068.166.143.33a2.385,2.385,0,0,0,.351,2.926l.855.855a2.385,2.385,0,0,0,3,.3q.114.049.23.093a2.387,2.387,0,0,0,2.336,1.913H50.94a2.387,2.387,0,0,0,2.336-1.913q.116-.045.23-.093a2.385,2.385,0,0,0,3-.3l.855-.855a2.385,2.385,0,0,0,.351-2.926q.075-.163.143-.33A2.387,2.387,0,0,0,59.67,55.94V54.731A2.387,2.387,0,0,0,57.984,52.452Zm-.092,3.488a.6.6,0,0,1-.6.6h-.754a6.31,6.31,0,0,1-1,2.278l.574.574a.6.6,0,0,1,0,.855l-.855.855a.6.6,0,0,1-.855,0l-.6-.6a6.306,6.306,0,0,1-2.249.911v.874a.6.6,0,0,1-.6.6H49.73a.6.6,0,0,1-.6-.6v-.874a6.306,6.306,0,0,1-2.249-.911l-.6.6a.6.6,0,0,1-.855,0l-.855-.855a.6.6,0,0,1,0-.855l.574-.574a6.31,6.31,0,0,1-1-2.278h-.754a.6.6,0,0,1-.6-.6V54.731a.6.6,0,0,1,.6-.6h.7a6.3,6.3,0,0,1,.934-2.4l-.452-.452a.6.6,0,0,1,0-.855l.855-.855a.6.6,0,0,1,.855,0l.423.423a6.308,6.308,0,0,1,2.429-1.033v-.572a.6.6,0,0,1,.6-.6H50.94a.6.6,0,0,1,.6.6v.572a6.308,6.308,0,0,1,2.429,1.033l.423-.423a.6.6,0,0,1,.855,0l.855.855a.6.6,0,0,1,0,.855l-.452.452a6.3,6.3,0,0,1,.934,2.4h.7a.6.6,0,0,1,.6.6Z" transform="translate(-20.551 -25.551)" fill="#2436b1"/>
      <path id="Trazado_875348" data-name="Trazado 875348" d="M55.89,56a4.89,4.89,0,1,0,4.89,4.89A4.89,4.89,0,0,0,55.89,56Zm0,8A3.112,3.112,0,1,1,59,60.89,3.112,3.112,0,0,1,55.89,64Z" transform="translate(-26.106 -31.105)" fill="#2436b1"/>
    </g>
  </g>
</svg>
