<svg xmlns="http://www.w3.org/2000/svg" xmlns:xlink="http://www.w3.org/1999/xlink" width="402" height="404" viewBox="0 0 402 404">
  <defs>
    <clipPath id="clip-path">
      <rect id="Rectángulo_401258" data-name="Rectángulo 401258" width="158.226" height="140.275" fill="#405f5a"/>
    </clipPath>
    <clipPath id="clip-path-2">
      <rect id="Rectángulo_402351" data-name="Rectángulo 402351" width="400" height="246.248" fill="none"/>
    </clipPath>
    <clipPath id="clip-path-3">
      <path id="Trazado_873467" data-name="Trazado 873467" d="M140.067,72.316A61.377,61.377,0,1,1,78.689,10.939a61.378,61.378,0,0,1,61.378,61.377" transform="translate(-17.313 -10.939)" fill="#2436b1"/>
    </clipPath>
  </defs>
  <g id="Grupo_1101458" data-name="Grupo 1101458" transform="translate(-283.333 -569)">
    <rect id="Rectángulo_401253" data-name="Rectángulo 401253" width="402" height="404" rx="10" transform="translate(283.333 569)" fill="#d2d6ef"/>
    <g id="Grupo_1099438" data-name="Grupo 1099438" transform="translate(303.282 594.934)">
      <g id="Grupo_1099431" data-name="Grupo 1099431" clip-path="url(#clip-path)">
        <path id="Trazado_873431" data-name="Trazado 873431" d="M0,3.158A3.158,3.158,0,1,0,3.158,0,3.158,3.158,0,0,0,0,3.158" transform="translate(151.909)" fill="#405f5a"/>
        <path id="Trazado_873432" data-name="Trazado 873432" d="M28.954,3.158A3.158,3.158,0,1,0,32.112,0a3.158,3.158,0,0,0-3.158,3.158" transform="translate(92.572)" fill="#405f5a"/>
        <path id="Trazado_873433" data-name="Trazado 873433" d="M57.907,3.158A3.158,3.158,0,1,0,61.065,0a3.158,3.158,0,0,0-3.158,3.158" transform="translate(33.238)" fill="#405f5a"/>
        <path id="Trazado_873434" data-name="Trazado 873434" d="M86.86,3.158A3.158,3.158,0,1,0,90.018,0,3.158,3.158,0,0,0,86.86,3.158" transform="translate(-26.096)" fill="#405f5a"/>
        <path id="Trazado_873435" data-name="Trazado 873435" d="M115.813,3.158A3.159,3.159,0,1,0,118.971,0a3.159,3.159,0,0,0-3.158,3.158" transform="translate(-85.432)" fill="#405f5a"/>
        <path id="Trazado_873436" data-name="Trazado 873436" d="M144.767,3.158A3.158,3.158,0,1,0,147.925,0a3.158,3.158,0,0,0-3.158,3.158" transform="translate(-144.767)" fill="#405f5a"/>
        <path id="Trazado_873437" data-name="Trazado 873437" d="M0,35.073a3.158,3.158,0,1,0,3.158-3.158A3.159,3.159,0,0,0,0,35.073" transform="translate(151.909 1.574)" fill="#405f5a"/>
        <path id="Trazado_873438" data-name="Trazado 873438" d="M28.954,35.073a3.158,3.158,0,1,0,3.158-3.158,3.159,3.159,0,0,0-3.158,3.158" transform="translate(92.572 1.574)" fill="#405f5a"/>
        <path id="Trazado_873439" data-name="Trazado 873439" d="M57.907,35.073a3.158,3.158,0,1,0,3.158-3.158,3.159,3.159,0,0,0-3.158,3.158" transform="translate(33.238 1.574)" fill="#405f5a"/>
        <path id="Trazado_873440" data-name="Trazado 873440" d="M86.86,35.073a3.158,3.158,0,1,0,3.158-3.158,3.159,3.159,0,0,0-3.158,3.158" transform="translate(-26.096 1.574)" fill="#405f5a"/>
        <path id="Trazado_873441" data-name="Trazado 873441" d="M115.813,35.073a3.159,3.159,0,1,0,3.158-3.158,3.16,3.16,0,0,0-3.158,3.158" transform="translate(-85.432 1.574)" fill="#405f5a"/>
        <path id="Trazado_873442" data-name="Trazado 873442" d="M144.767,35.073a3.158,3.158,0,1,0,3.158-3.158,3.159,3.159,0,0,0-3.158,3.158" transform="translate(-144.767 1.574)" fill="#405f5a"/>
        <path id="Trazado_873443" data-name="Trazado 873443" d="M0,66.988A3.158,3.158,0,1,0,3.158,63.83,3.159,3.159,0,0,0,0,66.988" transform="translate(151.909 3.149)" fill="#405f5a"/>
        <path id="Trazado_873444" data-name="Trazado 873444" d="M28.954,66.988a3.158,3.158,0,1,0,3.158-3.158,3.159,3.159,0,0,0-3.158,3.158" transform="translate(92.572 3.149)" fill="#405f5a"/>
        <path id="Trazado_873445" data-name="Trazado 873445" d="M57.907,66.988a3.158,3.158,0,1,0,3.158-3.158,3.159,3.159,0,0,0-3.158,3.158" transform="translate(33.238 3.149)" fill="#405f5a"/>
        <path id="Trazado_873446" data-name="Trazado 873446" d="M86.86,66.988a3.158,3.158,0,1,0,3.158-3.158,3.159,3.159,0,0,0-3.158,3.158" transform="translate(-26.096 3.149)" fill="#405f5a"/>
        <path id="Trazado_873447" data-name="Trazado 873447" d="M115.813,66.988a3.159,3.159,0,1,0,3.158-3.158,3.16,3.16,0,0,0-3.158,3.158" transform="translate(-85.432 3.149)" fill="#405f5a"/>
        <path id="Trazado_873448" data-name="Trazado 873448" d="M144.767,66.988a3.158,3.158,0,1,0,3.158-3.158,3.159,3.159,0,0,0-3.158,3.158" transform="translate(-144.767 3.149)" fill="#405f5a"/>
        <path id="Trazado_873449" data-name="Trazado 873449" d="M0,98.9a3.158,3.158,0,1,0,3.158-3.158A3.159,3.159,0,0,0,0,98.9" transform="translate(151.909 4.723)" fill="#405f5a"/>
        <path id="Trazado_873450" data-name="Trazado 873450" d="M28.954,98.9a3.158,3.158,0,1,0,3.158-3.158A3.159,3.159,0,0,0,28.954,98.9" transform="translate(92.572 4.723)" fill="#405f5a"/>
        <path id="Trazado_873451" data-name="Trazado 873451" d="M57.907,98.9a3.158,3.158,0,1,0,3.158-3.158A3.159,3.159,0,0,0,57.907,98.9" transform="translate(33.238 4.723)" fill="#405f5a"/>
        <path id="Trazado_873452" data-name="Trazado 873452" d="M86.86,98.9a3.158,3.158,0,1,0,3.158-3.158A3.159,3.159,0,0,0,86.86,98.9" transform="translate(-26.096 4.723)" fill="#405f5a"/>
        <path id="Trazado_873453" data-name="Trazado 873453" d="M115.813,98.9a3.159,3.159,0,1,0,3.158-3.158,3.16,3.16,0,0,0-3.158,3.158" transform="translate(-85.432 4.723)" fill="#405f5a"/>
        <path id="Trazado_873454" data-name="Trazado 873454" d="M144.767,98.9a3.158,3.158,0,1,0,3.158-3.158,3.159,3.159,0,0,0-3.158,3.158" transform="translate(-144.767 4.723)" fill="#405f5a"/>
        <path id="Trazado_873455" data-name="Trazado 873455" d="M0,130.818a3.158,3.158,0,1,0,3.158-3.159A3.159,3.159,0,0,0,0,130.818" transform="translate(151.909 6.298)" fill="#405f5a"/>
        <path id="Trazado_873456" data-name="Trazado 873456" d="M28.954,130.818a3.158,3.158,0,1,0,3.158-3.159,3.159,3.159,0,0,0-3.158,3.159" transform="translate(92.572 6.298)" fill="#405f5a"/>
        <path id="Trazado_873457" data-name="Trazado 873457" d="M57.907,130.818a3.158,3.158,0,1,0,3.158-3.159,3.159,3.159,0,0,0-3.158,3.159" transform="translate(33.238 6.298)" fill="#405f5a"/>
        <path id="Trazado_873458" data-name="Trazado 873458" d="M86.86,130.818a3.158,3.158,0,1,0,3.158-3.159,3.159,3.159,0,0,0-3.158,3.159" transform="translate(-26.096 6.298)" fill="#405f5a"/>
        <path id="Trazado_873459" data-name="Trazado 873459" d="M115.813,130.818a3.159,3.159,0,1,0,3.158-3.159,3.16,3.16,0,0,0-3.158,3.159" transform="translate(-85.432 6.298)" fill="#405f5a"/>
        <path id="Trazado_873460" data-name="Trazado 873460" d="M144.767,130.818a3.158,3.158,0,1,0,3.158-3.159,3.159,3.159,0,0,0-3.158,3.159" transform="translate(-144.767 6.298)" fill="#405f5a"/>
      </g>
    </g>
    <g id="Grupo_1101446" data-name="Grupo 1101446" transform="translate(285 658.668)">
      <g id="Grupo_1101445" data-name="Grupo 1101445" clip-path="url(#clip-path-2)">
        <path id="Trazado_876694" data-name="Trazado 876694" d="M181.036,53.406s-4-5.411-8.415-6.735-8.991-1.416-7.253.727a42.66,42.66,0,0,0,5.711,5.146l-6.505,1.012a55.039,55.039,0,0,0-7.656.389c-3.082.48-3.057,2.891-3.057,2.891s-3.082.48-3.926,1.818.771,2.7.771,2.7-3.925,1.818-1.1,4.193,12.905,4.025,17.479,4.117,13.636-2.527,13.636-2.527,8.425-1.7.317-13.728" transform="translate(99.254 30.544)" fill="#fc907e"/>
        <path id="Trazado_876695" data-name="Trazado 876695" d="M155.7,61.078a.424.424,0,0,1-.257-.088.417.417,0,0,1-.072-.585l7.716-9.865a.417.417,0,0,1,.657.514l-7.716,9.865a.418.418,0,0,1-.329.16" transform="translate(103.73 33.655)"/>
        <path id="Trazado_876696" data-name="Trazado 876696" d="M169.407,56.17a7.862,7.862,0,0,1-5.313-1.653,5.633,5.633,0,0,1-1.9-4.082.39.39,0,0,1,.424-.41.421.421,0,0,1,.41.425,4.876,4.876,0,0,0,1.623,3.446c1.558,1.348,4.07,1.753,7.464,1.2a.424.424,0,0,1,.479.345.42.42,0,0,1-.345.48,18.033,18.033,0,0,1-2.842.247" transform="translate(108.347 33.416)"/>
        <path id="Trazado_876697" data-name="Trazado 876697" d="M199.923,71.621,176.746,53.653,161.962,66.236s13.8,32.3,33.911,32.786c15.891.384,19.336-15.739,19.336-15.739Z" transform="translate(108.192 35.841)" fill="#8758e7"/>
        <path id="Trazado_876698" data-name="Trazado 876698" d="M206.23,29.775s14.218,27.761-8.193,28.782,8.193-28.782,8.193-28.782" transform="translate(126.81 19.89)"/>
        <path id="Trazado_876699" data-name="Trazado 876699" d="M261.578,73.368c1.631-1.3,35.865-6.223,34.553,41.675s-54.9,75.352-113.715,65.021-3.139-79.024-3.139-79.024Z" transform="translate(103.833 48.485)" fill="#e2dde8"/>
        <path id="Trazado_876700" data-name="Trazado 876700" d="M156.912,118.071l1.011,11.252h21.614V116.579Z" transform="translate(104.818 77.876)" fill="#fc907e"/>
        <path id="Trazado_876701" data-name="Trazado 876701" d="M180.025,123.27l2.183,11.284L206,128.912l-4.157-12.333Z" transform="translate(120.258 77.876)" fill="#fc907e"/>
        <path id="Trazado_876702" data-name="Trazado 876702" d="M171.993,99.652s3.193-41.924,18.31-47.17c21.863-7.589,37.77.2,37.77.2l-1.049,53.833Z" transform="translate(114.893 32.839)" fill="#8758e7"/>
        <path id="Trazado_876703" data-name="Trazado 876703" d="M194.661,78.95s-31.258-7.606-39.829,5.6,3.414,63.611,3.414,63.611h28.782Z" transform="translate(101.365 51.283)" fill="#9691f2"/>
        <path id="Trazado_876704" data-name="Trazado 876704" d="M155.809,122.871a.416.416,0,0,1-.375-.6c.092-.185,2.233-4.515,4.437-5.258a1.857,1.857,0,0,1,1.473.078,8.319,8.319,0,0,1,3.338,3.6c1.066-1.613,3.825-5.438,6.083-5.438s3.9,3.743,4.53,5.449c1.063-1.409,3.563-4.352,5.411-3.628,2.205.874,2.912,4.117,2.941,4.253a.417.417,0,0,1-.816.173c-.007-.03-.644-2.942-2.432-3.651-1.244-.492-3.663,2.182-4.892,3.985a.408.408,0,0,1-.407.177.416.416,0,0,1-.337-.289c-.49-1.566-2.165-5.636-4-5.636-1.893,0-4.817,4.1-5.785,5.688a.406.406,0,0,1-.392.2.415.415,0,0,1-.352-.264,8.23,8.23,0,0,0-3.268-3.873,1.024,1.024,0,0,0-.832-.033c-1.555.522-3.381,3.666-3.951,4.834a.421.421,0,0,1-.375.234" transform="translate(103.803 76.991)" fill="#714dd6"/>
        <path id="Trazado_876705" data-name="Trazado 876705" d="M253.9,90.171s7.868,24.156-5.176,29.025-40.1,5.019-40.1,5.019l12.2,21.526L181.6,157.364s-32.58-58.827-12.75-74.507,61.57,7.151,61.57,7.151Z" transform="translate(108.515 51.676)" fill="#ada4f7"/>
        <path id="Trazado_876706" data-name="Trazado 876706" d="M170.858,120.59s-7.481,8.827-9.219,9.666-19.876,6.946-23.354,10.35-3.726,10.1-2.734,10.729,60.654,0,60.654,0l.625-28.768Z" transform="translate(90.211 80.555)" fill="#fca032"/>
        <path id="Trazado_876707" data-name="Trazado 876707" d="M189.758,127.685s-3.046,11.826-5.5,13.071-13.009,7.868-18.745,13.883c-4.807,5.042,0,7.938,0,7.938h33.238l28.573-20.99-10.207-21.833Z" transform="translate(109.137 79.997)" fill="#ffaf45"/>
        <path id="Trazado_876708" data-name="Trazado 876708" d="M157.358,124.222s8.32,9.538,6.417,10.312-17.969-1.685-17.554-3.4,9.211-7.047,11.137-6.907" transform="translate(97.672 82.98)" fill="#734ddb"/>
        <path id="Trazado_876709" data-name="Trazado 876709" d="M180.835,128.8s10.664,6.816,9.056,8.093-17.719,3.433-17.8,1.666,6.861-9.353,8.749-9.76" transform="translate(114.955 86.04)" fill="#8758e7"/>
        <path id="Trazado_876710" data-name="Trazado 876710" d="M199.841,43.993l.614,8.557s-1.573,2.629-7.214,3.586c-4.2.712-5.748.013-5.748.013l.279-4.39.279-4.282,10.1-2.982Z" transform="translate(125.247 29.388)" fill="#fc907e"/>
        <path id="Trazado_876711" data-name="Trazado 876711" d="M198.076,44.309a3.228,3.228,0,0,1-.2.961c-1.761,5.039-7.84,7.249-10.267,7.676l.4-5.506Z" transform="translate(125.324 29.599)"/>
        <path id="Trazado_876712" data-name="Trazado 876712" d="M186.353,34.666s-4.062,12.615-1.475,19.21,8.662,4.906,12.23,3.219a12.313,12.313,0,0,0,5.057-4.127,5.243,5.243,0,0,0,5.563-2.624c1.988-3.448.192-7-1.866-7.643s-4.262,1.016-4.262,1.016l1.485-3.7s-9.538-17.065-16.732-5.356" transform="translate(122.924 20.415)" fill="#fc907e"/>
        <path id="Trazado_876713" data-name="Trazado 876713" d="M186.961,44.586a.415.415,0,0,1-.382-.252c-1.083-2.509.46-5.343.527-5.463a.417.417,0,0,1,.729.4c-.013.027-1.409,2.6-.49,4.729a.419.419,0,0,1-.384.582" transform="translate(124.38 25.822)"/>
        <path id="Trazado_876714" data-name="Trazado 876714" d="M195.373,43.7a.417.417,0,0,1-.332-.669l2.906-3.828a.417.417,0,1,1,.664.505l-2.906,3.826a.415.415,0,0,1-.332.165" transform="translate(130.232 26.076)"/>
        <path id="Trazado_876715" data-name="Trazado 876715" d="M198.318,41.421l-2.324-.1a.416.416,0,0,1-.4-.434.407.407,0,0,1,.434-.4l2.307.1a.417.417,0,0,1-.018.834" transform="translate(130.659 27.046)"/>
        <path id="Trazado_876716" data-name="Trazado 876716" d="M187.113,87.627a.415.415,0,0,1-.334-.167,44.548,44.548,0,0,1-5-9.191c-3.4-8.43-.155-20.562-.017-21.072a.417.417,0,1,1,.806.219c-.033.123-3.308,12.375-.015,20.54a43.617,43.617,0,0,0,4.889,9,.418.418,0,0,1-.334.667" transform="translate(120.401 38.003)" fill="#fff"/>
        <path id="Trazado_876717" data-name="Trazado 876717" d="M192.312,42.513a.413.413,0,0,1,.287.113.408.408,0,0,1,.122.384c-.018.1-.479,2.3-2.344,2.512a4.565,4.565,0,0,1-3.176-1.006.417.417,0,0,1-.135-.409.425.425,0,0,1,.3-.312l4.841-1.271a.562.562,0,0,1,.105-.012m-2.34,2.2a2.766,2.766,0,0,0,.31-.018,1.845,1.845,0,0,0,1.384-1.164l-3.153.827a3.431,3.431,0,0,0,1.458.355" transform="translate(124.955 28.399)"/>
        <path id="Trazado_876718" data-name="Trazado 876718" d="M188.565,36.142a.417.417,0,0,1,.252-.792,17.4,17.4,0,0,1,3.136.982.419.419,0,0,1,.163.569.431.431,0,0,1-.567.163,15.1,15.1,0,0,0-2.909-.9.5.5,0,0,1-.075-.025" transform="translate(125.793 23.608)"/>
        <path id="Trazado_876719" data-name="Trazado 876719" d="M187.077,36.375a.4.4,0,0,1-.163.067,3.2,3.2,0,0,0-1.476.584A.407.407,0,0,1,184.85,37a.415.415,0,0,1,.015-.584,3.768,3.768,0,0,1,1.9-.8.417.417,0,0,1,.31.754" transform="translate(123.406 23.791)"/>
        <path id="Trazado_876720" data-name="Trazado 876720" d="M186.126,40.9a.423.423,0,0,1-.417-.434l.082-2.1-.841-.839a.416.416,0,1,1,.589-.589l.971.967a.417.417,0,0,1,.122.312l-.088,2.279a.416.416,0,0,1-.417.4" transform="translate(123.466 24.596)"/>
        <path id="Trazado_876721" data-name="Trazado 876721" d="M190.349,40.848a.42.42,0,0,1-.417-.425l.04-2.073-1.224-.972a.417.417,0,0,1,.517-.656l1.388,1.1a.426.426,0,0,1,.158.337l-.045,2.28a.417.417,0,0,1-.417.409" transform="translate(125.979 24.47)"/>
        <path id="Trazado_876722" data-name="Trazado 876722" d="M200.771,45.893s-5.928-1.3-8.153-5.514-1.927-6.11-1.927-6.11-3.1,1.471-4.337,3.621a14.359,14.359,0,0,0-1.513,3.324s-.589-4.891.043-6.32,4.113-9.448,15.536-7.479c17.322,2.986,9.042,16.558.35,18.478" transform="translate(123.309 18.107)"/>
        <path id="Trazado_876723" data-name="Trazado 876723" d="M207.583,71.558s-.532-.234-2.8-1.043c-2.143-.766-9.866-.178-9.866-.178a64.906,64.906,0,0,0-12.317,3.2c-5.6,2.21-4.837,4.732-4.837,4.732s-3.6,1.893-2.268,3.484,7.067.622,7.067.622-7.3,2.058-4.519,3.9,12.093-1.156,12.093-1.156,13.8,6.375,18.859,1.908-1.416-15.469-1.416-15.469" transform="translate(117.036 46.842)" fill="#fc907e"/>
        <path id="Trazado_876724" data-name="Trazado 876724" d="M195.161,82.267l-5.631,22.526s36.67,28.832,51.987,6.225-13.179-56.485-25.16-59.67-5.928,33.228-5.928,33.228Z" transform="translate(126.608 34.17)" fill="#8758e7"/>
        <path id="Trazado_876725" data-name="Trazado 876725" d="M193.814,110.184a.43.43,0,0,1-.215-.058c-.922-.552-9.021-5.493-8.977-8.849a2.147,2.147,0,0,1,1.251-1.88,2.792,2.792,0,0,1,2.594-.167c3.526,1.528,5.663,10.075,5.751,10.437a.417.417,0,0,1-.4.517m-6.475-10.362a2.146,2.146,0,0,0-1.056.3,1.35,1.35,0,0,0-.827,1.164c-.028,2.173,4.906,5.79,7.675,7.563-.672-2.3-2.509-7.778-5-8.855a1.992,1.992,0,0,0-.8-.173" transform="translate(123.329 66.124)" fill="#8758e7"/>
        <path id="Trazado_876726" data-name="Trazado 876726" d="M189.7,92.689a.417.417,0,0,1-.018-.834c.033,0,3.4-.175,4.479-1.708,1.473-2.105-1.488-4.352-1.616-4.445a.419.419,0,0,1,.108-.727c.038-.013,3.821-1.4,5-4.3.691-1.688-1.923-4.911-2.989-6.01a.416.416,0,0,1-.077-.469A.4.4,0,0,1,195,73.96c.947.078,3.563.053,4.2-1.027.312-.529.122-1.319-.564-2.347a.416.416,0,0,1-.025-.422.422.422,0,0,1,.357-.227c.647-.022,16-.505,23.938,2.562a.418.418,0,0,1-.3.779c-6.826-2.639-19.734-2.592-22.9-2.522a2.6,2.6,0,0,1,.209,2.6c-.724,1.226-2.739,1.451-3.987,1.468,1.168,1.361,3.291,4.215,2.494,6.167-1.019,2.494-3.616,3.935-4.842,4.5,1.236,1.144,2.6,3.214,1.258,5.137-1.309,1.87-4.971,2.055-5.126,2.063Z" transform="translate(126.44 46.692)" fill="#fff"/>
        <path id="Trazado_876727" data-name="Trazado 876727" d="M202.392,72.5a.417.417,0,0,1-.229-.766c.862-.564,8.505-5.449,11.252-3.5a.944.944,0,0,1,.485,1.021c-.429,1.693-8.157,2.829-11.459,3.238l-.05,0m9.309-3.9c-1.982,0-5.164,1.535-7.379,2.8,4.754-.707,8.592-1.711,8.77-2.347-.008,0-.05-.055-.16-.133A2.1,2.1,0,0,0,211.7,68.6" transform="translate(134.921 45.276)" fill="#fff"/>
        <path id="Trazado_876728" data-name="Trazado 876728" d="M194.69,57.263c-1.565,0-2.5-1.59-2.892-2.455-.867.652-2.782,1.912-4.153,1.8a1.033,1.033,0,0,1-.907-.564c-.492-1.006.737-3,.989-3.384a.4.4,0,0,1,.4-.187c.085.005,8.7.924,12.6-3.463a.406.406,0,0,1,.422-.125.417.417,0,0,1,.3.322c.145.751.8,4.53-.62,5.253-1.021.52-2.152-.279-2.816-.892-.33,1.183-1.159,3.334-2.876,3.653a2.628,2.628,0,0,1-.445.04m-2.714-3.543a.393.393,0,0,1,.115.017.41.41,0,0,1,.28.27c.01.027.9,2.721,2.612,2.394,1.471-.272,2.222-2.794,2.387-3.745a.418.418,0,0,1,.732-.2c.374.449,1.61,1.64,2.344,1.259.479-.244.535-1.9.314-3.553-3.985,3.673-11,3.291-12.467,3.163-.544.9-.977,2-.807,2.349.013.025.042.087.229.1,1.191.108,3.3-1.383,3.995-1.963a.417.417,0,0,1,.267-.1" transform="translate(124.665 32.647)" fill="#fff"/>
        <path id="Trazado_876729" data-name="Trazado 876729" d="M200.974,91.663h-46.8L140.814,61.432h44.949a2.834,2.834,0,0,1,2.592,1.688Z" transform="translate(94.065 41.037)" fill="#e2dde8"/>
        <path id="Trazado_876730" data-name="Trazado 876730" d="M198.042,91.663h-46.8l-11.928-26.98a2.315,2.315,0,0,1,2.117-3.251h43.241Z" transform="translate(92.932 41.037)" fill="#f74d76"/>
        <path id="Trazado_876731" data-name="Trazado 876731" d="M213.511,83.374h-66.07a1.909,1.909,0,1,1,0-3.818h66.07a1.909,1.909,0,0,1,0,3.818" transform="translate(97.216 53.144)" fill="#50447e"/>
        <path id="Trazado_876732" data-name="Trazado 876732" d="M176.908,77.394a.418.418,0,0,1-.21-.779,54.838,54.838,0,0,1,11.016-4.544.417.417,0,0,1,.229.8,53.745,53.745,0,0,0-10.827,4.465.422.422,0,0,1-.207.055" transform="translate(117.897 48.133)"/>
        <path id="Trazado_876733" data-name="Trazado 876733" d="M179.37,79.153a.417.417,0,0,1-.232-.764c.168-.112,4.178-2.762,7.946-3.087a.412.412,0,0,1,.452.38.416.416,0,0,1-.38.45c-3.558.307-7.514,2.924-7.554,2.951a.424.424,0,0,1-.232.07" transform="translate(119.542 50.299)"/>
        <path id="Trazado_876734" data-name="Trazado 876734" d="M216.96,134.211a.418.418,0,0,1-.214-.776,57.07,57.07,0,0,0,21.687-23.3.418.418,0,1,1,.766.334,57.971,57.971,0,0,1-22.026,23.684.429.429,0,0,1-.214.058" transform="translate(144.652 73.404)" fill="#fff"/>
        <path id="Trazado_876735" data-name="Trazado 876735" d="M196.761,35.561s7.623-16.271,14.285-9S202.864,43.5,202.864,43.5Z" transform="translate(131.438 16.494)"/>
        <path id="Trazado_876736" data-name="Trazado 876736" d="M34.054,71.926C32.448,70.643-1.256,65.8.035,112.956s54.048,74.185,111.953,64.013,3.091-77.8,3.091-77.8Z" transform="translate(0 47.53)" fill="#e2dde8"/>
        <path id="Trazado_876737" data-name="Trazado 876737" d="M31.442,131.835a.429.429,0,0,1-.214-.058,57.08,57.08,0,0,1-21.687-23.32.417.417,0,1,1,.766-.332,56.21,56.21,0,0,0,21.349,22.935.418.418,0,0,1-.213.776" transform="translate(6.35 72.061)" fill="#fff"/>
        <path id="Trazado_876738" data-name="Trazado 876738" d="M74.346,54.88s5.278.387,3.6,7.85-6.49-1.816-6.49-1.816Z" transform="translate(47.732 36.66)" fill="#fc8165"/>
        <path id="Trazado_876739" data-name="Trazado 876739" d="M129.331,156.553c-1.026.587-60.517-2.5-61.855-3.723-.477-.439-.45-3.266-.067-7.294.691-7.331,4.834-19.849,7.126-27.571,0,0,20.822,1.4,22.677,2.584,1.871,1.194,21.926,18.121,21.926,18.121s7.651,2.912,10.4,7.439a9.858,9.858,0,0,1,1.351,4.06c.345,3.194-.836,5.986-1.553,6.383" transform="translate(44.837 78.802)" fill="#8758e7"/>
        <path id="Trazado_876740" data-name="Trazado 876740" d="M129.331,145.511c-1.026.587-60.517-2.5-61.855-3.723-.477-.439-.45-3.266-.067-7.294l63.474,4.634c.345,3.194-.836,5.986-1.553,6.383" transform="translate(44.837 89.843)" fill="#50447e"/>
        <path id="Trazado_876741" data-name="Trazado 876741" d="M101.313,130.353c-.033,0-17.411-1.393-17.411-1.393a.416.416,0,0,1-.2-.764l8.534-5.576a.416.416,0,1,1,.455.7l-7.511,4.911,16.161,1.293a.417.417,0,0,1-.033.832" transform="translate(55.79 81.865)" fill="#50447e"/>
        <path id="Trazado_876742" data-name="Trazado 876742" d="M76.285,92.008s33.028-23.357,61.535-16.186S124.7,152.315,124.7,152.315l-41.437.093L87.3,132.548l-49.745-.1L59.5,101.371Z" transform="translate(25.085 49.736)" fill="#ea366e"/>
        <path id="Trazado_876743" data-name="Trazado 876743" d="M83.847,91.821a.423.423,0,0,1-.224-.065.418.418,0,0,1-.13-.575,51.833,51.833,0,0,1,8.747-10.155.417.417,0,1,1,.54.636A50.828,50.828,0,0,0,84.2,91.627a.416.416,0,0,1-.352.193" transform="translate(55.732 54.06)" fill="#fff"/>
        <path id="Trazado_876744" data-name="Trazado 876744" d="M61.735,65.215l28.358,8.557s.285,19.17-17.723,24.406-20.1-16.6-20.1-16.6Z" transform="translate(34.918 43.564)" fill="#ffaf45"/>
        <path id="Trazado_876745" data-name="Trazado 876745" d="M67.138,68.828s-.881,10.77,7.7,9.746,8.053-13.346,8.053-13.346Z" transform="translate(44.832 43.573)" fill="#fc8165"/>
        <path id="Trazado_876746" data-name="Trazado 876746" d="M30.261,133.969S13.733,74.3,27.649,57.878s46.226-2.739,46.226-2.739L89.334,109.9Z" transform="translate(14.747 33.264)" fill="#ffaf45"/>
        <path id="Trazado_876747" data-name="Trazado 876747" d="M41.573,80.75s8.353-13.234,12.41-14.74,13.858.477,13.859,1.651-9.077,2.6-9.077,2.6,5.1,8.921,5.186,10.924-4.522,7.843-5.533,8.425-3.55-2.672-3.55-2.672a14.936,14.936,0,0,1-6.755,4.437c-3.952,1.046-8.485-4.947-8.485-4.947Z" transform="translate(26.472 43.732)" fill="#fc8165"/>
        <path id="Trazado_876748" data-name="Trazado 876748" d="M48.427,71.188a.434.434,0,0,1-.072-.861l5.449-.914a.441.441,0,0,1,.5.354.436.436,0,0,1-.357.5l-5.446.916a.546.546,0,0,1-.073.007" transform="translate(32.061 46.365)"/>
        <path id="Trazado_876749" data-name="Trazado 876749" d="M32.624,44.574l.26,10.645s1.995,3.012,8.235,3.366c4.647.264,5.868-1.351,5.868-1.351l-.4-4.849-.766-5.243-11.306-2.2Z" transform="translate(21.793 29.776)" fill="#fc8165"/>
        <path id="Trazado_876750" data-name="Trazado 876750" d="M33.868,45.34a3.306,3.306,0,0,0,.334.977c2.5,5.047,8.974,6.01,11.633,6.183l-.771-5.027Z" transform="translate(22.624 30.288)"/>
        <path id="Trazado_876751" data-name="Trazado 876751" d="M50.091,34.087s5.668,12.66,3.73,19.819S45.369,60,41.464,58.653a12.89,12.89,0,0,1-5.733-3.716,5.489,5.489,0,0,1-6.088-2.093c-2.462-3.359-1-7.256,1.069-8.165s4.55.569,4.55.569l-1.968-3.676s7.973-18.845,16.8-7.484" transform="translate(18.941 20.337)" fill="#fc8165"/>
        <path id="Trazado_876752" data-name="Trazado 876752" d="M41.734,44.755a.44.44,0,0,1-.122-.018.416.416,0,0,1-.277-.52c.714-2.33-1.036-4.856-1.054-4.881a.417.417,0,1,1,.681-.482c.082.117,2.007,2.881,1.171,5.606a.417.417,0,0,1-.4.3" transform="translate(26.857 25.837)"/>
        <path id="Trazado_876753" data-name="Trazado 876753" d="M33.733,44.7a.42.42,0,0,1-.3-.13L29.97,40.916a.417.417,0,1,1,.605-.572l3.461,3.65a.417.417,0,0,1-.3.7" transform="translate(19.944 26.862)"/>
        <path id="Trazado_876754" data-name="Trazado 876754" d="M30.154,42.8a.417.417,0,0,1-.063-.829l2.389-.369a.417.417,0,1,1,.127.824l-2.387.369a.427.427,0,0,1-.065.005" transform="translate(19.865 27.788)"/>
        <path id="Trazado_876755" data-name="Trazado 876755" d="M36.5,48.354a1.585,1.585,0,0,0,2.263-.636c.949-1.495-1.146-5.9-1.146-5.9s3.938.886,6.367-.422S47.6,36.507,47.6,36.507s1.8,3.726,7.167,2.072,6.375-8.967.637-10.447S46.542,29.2,46.542,29.2s-.739-5.306-7.825-2.669c-6.454,2.4-7.528,10.5-7.528,10.5a5.109,5.109,0,0,0-4.615,4.412c-.737,4.22,4.207,7.263,4.207,7.263a6.752,6.752,0,0,1,5.721-.347" transform="translate(17.702 17.231)"/>
        <path id="Trazado_876756" data-name="Trazado 876756" d="M74.313,80.035c-2.479,0-5.178-4.077-5.516-4.6a.417.417,0,0,1,.7-.449c.927,1.443,3.711,4.981,5.424,4.065,1.836-.981,2.7-5.348,2.879-6.947a.409.409,0,0,1,.46-.367.415.415,0,0,1,.369.459c-.028.252-.717,6.205-3.314,7.593a2.107,2.107,0,0,1-1,.25" transform="translate(45.913 47.917)" fill="#8758e7"/>
        <path id="Trazado_876757" data-name="Trazado 876757" d="M37.951,40.769a.417.417,0,0,1-.412-.364l-.309-2.369a.418.418,0,0,1,.36-.467.431.431,0,0,1,.467.36l.309,2.369a.419.419,0,0,1-.36.467c-.018,0-.037,0-.055,0" transform="translate(24.868 25.096)"/>
        <path id="Trazado_876758" data-name="Trazado 876758" d="M63.348,92.6a.417.417,0,0,1-.414-.375c-.769-7.785-4.517-18.57-4.555-18.68a.417.417,0,0,1,.787-.274c.038.108,3.82,10.987,4.6,18.872a.418.418,0,0,1-.375.455l-.042,0" transform="translate(38.982 48.759)" fill="#8758e7"/>
        <path id="Trazado_876759" data-name="Trazado 876759" d="M42.184,40.418a.417.417,0,0,1-.412-.355L41.42,37.7a.417.417,0,1,1,.824-.123l.352,2.362a.414.414,0,0,1-.349.474.405.405,0,0,1-.063.005" transform="translate(27.666 24.865)"/>
        <path id="Trazado_876760" data-name="Trazado 876760" d="M36.5,37.353a.425.425,0,0,1-.19-.045.418.418,0,0,1-.182-.562,1.5,1.5,0,0,1,1-.817,3.238,3.238,0,0,1,2.248.674.417.417,0,0,1-.5.667,2.488,2.488,0,0,0-1.563-.527.658.658,0,0,0-.442.384.42.42,0,0,1-.372.227" transform="translate(24.103 23.975)"/>
        <path id="Trazado_876761" data-name="Trazado 876761" d="M47.088,95.568l32.276,6.238a2.892,2.892,0,0,0,3.388-2.29l8.9-46.049a2.891,2.891,0,0,0-2.29-3.386L57.085,43.843a2.891,2.891,0,0,0-3.388,2.29L44.8,92.181a2.891,2.891,0,0,0,2.29,3.388" transform="translate(29.89 29.252)" fill="#8758e7"/>
        <path id="Trazado_876762" data-name="Trazado 876762" d="M48.433,95.828l32.276,6.238a2.892,2.892,0,0,0,3.388-2.29L93,53.728a2.889,2.889,0,0,0-2.289-3.386L58.43,44.1a2.891,2.891,0,0,0-3.388,2.29l-8.9,46.047a2.891,2.891,0,0,0,2.29,3.388" transform="translate(30.789 29.426)" fill="#ada4f7"/>
        <path id="Trazado_876763" data-name="Trazado 876763" d="M71.693,55.414a8.137,8.137,0,0,1-1.571-.153l-8.08-1.573a7.39,7.39,0,0,1-3.848-1.96,3.721,3.721,0,0,1-1.188-3.323l.656-3.376a.409.409,0,0,1,.49-.329.418.418,0,0,1,.33.489l-.657,3.374a2.915,2.915,0,0,0,.964,2.579A6.546,6.546,0,0,0,62.2,52.871l8.08,1.573c2.771.535,5.316-.517,5.673-2.349l.657-3.376a.417.417,0,0,1,.819.16l-.657,3.374c-.372,1.907-2.51,3.161-5.079,3.161" transform="translate(38.042 29.853)" fill="#fff"/>
        <path id="Trazado_876764" data-name="Trazado 876764" d="M40.886,37.138a.416.416,0,0,1-.344-.652A2.289,2.289,0,0,1,43.56,35.5a.417.417,0,0,1-.4.731c-.11-.057-1.081-.52-1.927.722a.418.418,0,0,1-.345.182" transform="translate(27.034 23.559)"/>
        <path id="Trazado_876765" data-name="Trazado 876765" d="M79.962,66.4s7.534-.864,5.216-4.33-15.944-5.122-17.4-1.054S79.962,66.4,79.962,66.4" transform="translate(45.204 39.166)" fill="#fc8165"/>
        <path id="Trazado_876766" data-name="Trazado 876766" d="M79.473,70.132s7.534-.864,5.216-4.33-15.946-5.122-17.4-1.054,12.183,5.384,12.183,5.384" transform="translate(44.877 41.658)" fill="#fc8165"/>
        <path id="Trazado_876767" data-name="Trazado 876767" d="M75.206,73.065a9.517,9.517,0,0,0,5.017.342c1.488-.327,2.789-1.074,2.038-2.759-1.5-3.371-13.132-6.872-15.012-3.543-1.4,2.48,4.74,4.892,7.956,5.96" transform="translate(44.787 43.929)" fill="#fc8165"/>
        <path id="Trazado_876768" data-name="Trazado 876768" d="M79.242,63.382l-8.78-.656a.417.417,0,0,1-.385-.447.406.406,0,0,1,.447-.385l8.749.656a.417.417,0,0,1-.03.832" transform="translate(46.811 41.343)"/>
        <path id="Trazado_876769" data-name="Trazado 876769" d="M78.393,67.511l-8.78-.656a.414.414,0,0,1-.385-.445.4.4,0,0,1,.447-.385l8.749.654a.417.417,0,0,1-.03.832" transform="translate(46.244 44.101)"/>
        <path id="Trazado_876770" data-name="Trazado 876770" d="M35.585,103.562a.457.457,0,0,1-.442-.34L33.67,97.679a.458.458,0,0,1,.886-.235l1.471,5.543a.457.457,0,0,1-.325.56.468.468,0,0,1-.117.015" transform="translate(22.482 64.867)" fill="#534579"/>
        <path id="Trazado_876771" data-name="Trazado 876771" d="M61.111,95.364a.458.458,0,0,1-.457-.447l-.155-5.9a.458.458,0,0,1,.445-.469.47.47,0,0,1,.47.447l.153,5.9a.457.457,0,0,1-.445.469Z" transform="translate(40.414 59.15)" fill="#534579"/>
        <path id="Trazado_876772" data-name="Trazado 876772" d="M58.133,97.707a.456.456,0,0,1-.457-.455L57.661,91a.458.458,0,1,1,.916,0l.013,6.257a.456.456,0,0,1-.455.459Z" transform="translate(38.518 60.478)" fill="#534579"/>
        <path id="Trazado_876773" data-name="Trazado 876773" d="M102.95,116.387,66.36,115.64a.418.418,0,0,1-.41-.425.43.43,0,0,1,.425-.409l36.583.747a.417.417,0,0,1-.008.834" transform="translate(44.055 76.692)" fill="#ffa4be"/>
        <path id="Trazado_876774" data-name="Trazado 876774" d="M163.563,131.467c-.479,1.079-50.237,33.834-52.042,33.635-.646-.07-2.3-2.364-4.375-5.836-3.786-6.315-7.861-18.855-10.589-26.435,0,0,17.6-11.2,19.8-11.351s28.4,1.616,28.4,1.616,7.89-2.187,12.782-.165a9.893,9.893,0,0,1,3.493,2.472c2.17,2.369,2.872,5.318,2.53,6.063" transform="translate(64.501 81.144)" fill="#8758e7"/>
        <path id="Trazado_876775" data-name="Trazado 876775" d="M159.322,129.892c-.479,1.079-50.237,33.834-52.042,33.635-.646-.07-2.3-2.364-4.375-5.836l53.887-33.862c2.17,2.369,2.872,5.318,2.53,6.063" transform="translate(68.741 82.719)" fill="#50447e"/>
        <path id="Trazado_876776" data-name="Trazado 876776" d="M112.384,132.111a.417.417,0,0,1-.39-.564L115.565,122a.418.418,0,0,1,.782.294l-3.146,8.4,13.788-8.529a.418.418,0,0,1,.439.711L112.6,132.049a.429.429,0,0,1-.219.062" transform="translate(74.795 81.316)" fill="#50447e"/>
        <path id="Trazado_876777" data-name="Trazado 876777" d="M26.983,112.9S98.2,76.68,113.9,81.843c20.612,6.775,57.96,62.667,57.96,62.667L139.12,176.194s-33.9-45.755-39.332-45.151c-6.275.7-41.592,15.554-54.157,11.514S26.983,112.9,26.983,112.9" transform="translate(18.025 54.335)" fill="#f74d76"/>
        <path id="Trazado_876778" data-name="Trazado 876778" d="M71.5,116a.426.426,0,0,1-.143-.025.413.413,0,0,1-.272-.364c-.02-.3-.452-7.416,2.26-10.1a3.457,3.457,0,0,1,2.791-1.011,1.9,1.9,0,0,1,1.84,1.116C79,108.322,72.542,115.1,71.8,115.868a.414.414,0,0,1-.3.127m4.317-10.677a2.574,2.574,0,0,0-1.887.784c-1.883,1.861-2.062,6.435-2.043,8.46,2.6-2.819,5.888-7.124,5.309-8.654-.048-.125-.2-.509-1.124-.58q-.13-.01-.255-.01" transform="translate(47.461 69.798)" fill="#fff"/>
        <path id="Trazado_876779" data-name="Trazado 876779" d="M46.368,51.4S-2.807,72.673,5.735,109.391C13.873,144.38,70,113.82,70,113.82L67.225,86.358l-26.189,2.8Z" transform="translate(3.165 34.334)" fill="#ffaf45"/>
        <path id="Trazado_876780" data-name="Trazado 876780" d="M57.7,96.316a3.338,3.338,0,0,1-3.146-1.483c-1.046-1.935.6-7.149,1.266-9.071-1.481.177-4.932.454-6.807-.619-2.3-1.318,1.353-9.668,2.649-12.443-3.109-.15-17.4-.636-30.181,2a.426.426,0,0,1-.492-.324.415.415,0,0,1,.324-.494c14.475-2.989,30.856-2,31.018-1.988a.415.415,0,0,1,.334.205.423.423,0,0,1,.017.392c-2.5,5.2-4.45,11.236-3.253,11.923,2.118,1.213,6.9.427,6.947.422a.415.415,0,0,1,.459.555c-.729,1.963-2.429,7.409-1.548,9.039.987,1.826,4.67.716,4.705.7a.424.424,0,0,1,.522.275.419.419,0,0,1-.275.524,9.622,9.622,0,0,1-2.539.379" transform="translate(14.012 47.919)" fill="#8758e7"/>
        <path id="Trazado_876781" data-name="Trazado 876781" d="M33.566,74.161c-2.2,0-9.8-.152-10.847-2.215a1.392,1.392,0,0,1,.24-1.538,2.625,2.625,0,0,1,1.82-1.031c3.4-.465,9.1,3.848,9.343,4.033a.419.419,0,0,1,.143.464c-.085.25-.335.287-.7.287m-8.22-3.987a3.041,3.041,0,0,0-.452.03,1.8,1.8,0,0,0-1.268.7c-.3.4-.2.59-.162.664.6,1.178,5.438,1.668,9.082,1.746-1.673-1.136-4.951-3.141-7.2-3.141" transform="translate(15.087 46.321)" fill="#8758e7"/>
        <path id="Trazado_876782" data-name="Trazado 876782" d="M28.522,100.057a.417.417,0,0,1-.148-.806c.172-.067,17.334-6.672,25.791-12.225a.42.42,0,0,1,.577.118.415.415,0,0,1-.12.577c-8.532,5.6-25.777,12.24-25.951,12.307a.385.385,0,0,1-.148.028" transform="translate(18.774 58.089)" fill="#8758e7"/>
        <path id="Trazado_876783" data-name="Trazado 876783" d="M36.011,61.588a1.651,1.651,0,0,1-.539-.082c-2.565-.872-2.917-9.244-2.949-10.2a.417.417,0,0,1,.724-.3,14.388,14.388,0,0,0,8,3.713,11.507,11.507,0,0,0,2.972.067.4.4,0,0,1,.213-.023c.342-.047.677-.107,1.007-.183a1.851,1.851,0,0,0,1.423-1.965l-.224-2.43a.418.418,0,0,1,.7-.345c.837.771,5,4.7,4.781,6.317a.891.891,0,0,1-.487.686c-1.556.8-5.936-.732-7.147-1.179-1.148,1.184-5.9,5.92-8.473,5.92m-2.605-9.306c.212,3.369.954,7.965,2.335,8.435s5.074-2.572,7.551-5.029a12.8,12.8,0,0,1-2.165-.138,15.808,15.808,0,0,1-7.721-3.268M45.961,55.3c2,.652,4.469,1.224,5.291.806.132-.749-1.666-2.924-3.68-4.886l.122,1.324A2.689,2.689,0,0,1,45.961,55.3" transform="translate(21.726 33.224)" fill="#8758e7"/>
        <path id="Trazado_876784" data-name="Trazado 876784" d="M151.972,24.737A24.737,24.737,0,1,1,127.236,0a24.737,24.737,0,0,1,24.737,24.737" transform="translate(68.47)" fill="#dcd7e0"/>
        <path id="Trazado_876785" data-name="Trazado 876785" d="M144.5,22.6A19.4,19.4,0,1,1,125.1,3.2a19.4,19.4,0,0,1,19.4,19.4" transform="translate(70.606 2.136)" fill="#bcb5c6"/>
        <path id="Trazado_876786" data-name="Trazado 876786" d="M117.981,20.02a.412.412,0,0,1-.153-.03.417.417,0,0,1-.252-.289l-2.342-9.649a.417.417,0,0,1,.811-.2l2.2,9.074,13.421-8.774a.417.417,0,1,1,.457.7l-13.916,9.1a.417.417,0,0,1-.229.068" transform="translate(76.969 6.372)" fill="#fff"/>
        <path id="Trazado_876787" data-name="Trazado 876787" d="M174.612,131.495a.416.416,0,0,1-.417-.405c-.015-.61-.087-6,2.327-7.034,1.967-.846,4.585,2.1,5.775,3.626.39-2.163,1.543-7.164,3.978-8.11,2.51-.974,6.127,2.49,7.516,3.967.382-1.786,1.409-5.688,3.2-6.192,1.8-.52,4.047,2.372,5.041,3.816.6-1.731,1.992-5.071,3.76-4.827,1.952.252,5.843,2.269,6.008,2.355a.417.417,0,0,1-.385.741c-.038-.02-3.925-2.035-5.73-2.268-1.091-.147-2.47,2.886-3.124,5.074a.416.416,0,0,1-.345.3.434.434,0,0,1-.409-.193c-1.114-1.8-3.344-4.517-4.589-4.192-1.281.362-2.375,4.093-2.766,6.36a.417.417,0,0,1-.729.2c-1.268-1.493-5.019-5.189-7.146-4.36-2.16.837-3.341,6.37-3.613,8.432a.416.416,0,0,1-.756.182c-1.333-1.917-3.96-4.73-5.356-4.142-1.613.692-1.863,4.744-1.823,6.245a.418.418,0,0,1-.407.429Z" transform="translate(116.362 77.705)" fill="#8758e7"/>
        <path id="Trazado_876788" data-name="Trazado 876788" d="M91.077,145.56a.414.414,0,0,1-.3-.128.42.42,0,0,1,.013-.59l32.249-30.927a.417.417,0,0,1,.575.6L91.365,145.445a.417.417,0,0,1-.289.115" transform="translate(60.562 76.018)" fill="#fff"/>
        <path id="Trazado_876789" data-name="Trazado 876789" d="M176.96,43.652a1.758,1.758,0,0,1-1.748-2.524,3.816,3.816,0,0,1,3.426-2.5,1.748,1.748,0,0,1,1.848,2.45,4.116,4.116,0,0,1-3.526,2.572m-4.108-7.012-9.861-13.1q-.283-.385.235-.764l1.793-1.308q.518-.378.8.008L175.242,34.9c.188.257.108.512-.237.764l-1.354.987c-.345.252-.61.249-.8-.008" transform="translate(108.812 14.217)" fill="#dcd7e0"/>
        <path id="Trazado_876790" data-name="Trazado 876790" d="M176.768,45.8a1.76,1.76,0,0,1-.509-3.027,3.817,3.817,0,0,1,4.163-.806,1.748,1.748,0,0,1,.632,3,4.126,4.126,0,0,1-4.287.829m-.736-8.095-3.354-16.05q-.093-.468.539-.59l2.178-.422c.419-.08.661.035.721.349l2.822,16.151q.09.47-.539.59l-1.646.319q-.631.123-.721-.347" transform="translate(115.342 13.775)" fill="#dcd7e0"/>
        <path id="Trazado_876791" data-name="Trazado 876791" d="M104.78,34.206c0,9.064-11.284,16.413-25.2,16.413s-25.2-7.349-25.2-16.413,11.282-16.413,25.2-16.413,25.2,7.349,25.2,16.413" transform="translate(36.322 11.886)" fill="#eae6ef"/>
        <path id="Trazado_876792" data-name="Trazado 876792" d="M64.27,32.523,52.936,42.972l21.085-4.852Z" transform="translate(35.362 21.726)" fill="#eae6ef"/>
        <path id="Trazado_876793" data-name="Trazado 876793" d="M177.606,66.987a1.421,1.421,0,0,1-1.136-.562c-1.333-1.7-.18-7.1-.043-7.718a.417.417,0,0,1,.37-.324.4.4,0,0,1,.422.257c.424,1.031,2.477,6.248,1.388,7.836a1.157,1.157,0,0,1-1,.51m-.636-6.655c-.309,1.927-.555,4.674.157,5.579a.564.564,0,0,0,.464.242.313.313,0,0,0,.329-.148c.527-.769-.177-3.488-.949-5.673" transform="translate(117.458 38.999)" fill="#fff"/>
        <path id="Trazado_876794" data-name="Trazado 876794" d="M38.747,43.451a.414.414,0,0,1,.3.123,2.115,2.115,0,0,0,2.612.54.417.417,0,0,1,.435.711,2.959,2.959,0,0,1-3.641-.664.418.418,0,0,1,.3-.711" transform="translate(25.605 29.026)"/>
      </g>
    </g>
    <g id="Grupo_1101459" data-name="Grupo 1101459" transform="translate(543.282 843.539)">
      <g id="Grupo_1099433" data-name="Grupo 1099433" clip-path="url(#clip-path-3)">
        <path id="Trazado_873461" data-name="Trazado 873461" d="M25,29.944,48.059,6.883,69.771,28.6,91.606,6.761l22.816,22.816,22.57-22.57L157.381,27.4l3.38-3.38L136.992.246l-22.57,22.569L91.606,0,69.771,21.833,48.059.122,25,23.184,3.382,1.568,0,4.947Z" transform="translate(-13.983 -15.18)" fill="#2436b1"/>
        <path id="Trazado_873462" data-name="Trazado 873462" d="M25,46.74l23.062-23.06,21.711,21.71L91.606,23.556l22.816,22.816,22.57-22.57,20.389,20.39,3.38-3.382L136.992,17.041l-22.57,22.57L91.606,16.8,69.771,38.63,48.059,16.919,25,39.979,3.382,18.363,0,21.742Z" transform="translate(-13.983 -8.669)" fill="#2436b1"/>
        <path id="Trazado_873463" data-name="Trazado 873463" d="M25,63.535l23.062-23.06L69.771,62.186,91.606,40.353l22.816,22.815,22.57-22.57,20.389,20.39,3.38-3.382L136.992,33.836l-22.57,22.57L91.606,33.59,69.771,55.425,48.059,33.714,25,56.774,3.382,35.158,0,38.539Z" transform="translate(-13.983 -2.158)" fill="#2436b1"/>
        <path id="Trazado_873464" data-name="Trazado 873464" d="M25,80.331,48.059,57.269,69.771,78.981,91.606,57.147l22.816,22.816,22.57-22.572,20.389,20.39,3.38-3.38L136.992,50.632,114.422,73.2,91.606,50.387,69.771,72.221,48.059,50.509,25,73.57,3.382,51.953,0,55.334Z" transform="translate(-13.983 4.353)" fill="#2436b1"/>
        <path id="Trazado_873465" data-name="Trazado 873465" d="M25,97.126,48.059,74.065,69.771,95.776,91.606,73.942l22.816,22.816,22.57-22.57,20.389,20.39,3.38-3.38L136.992,67.427,114.422,90,91.606,67.182,69.771,89.017,48.059,67.305,25,90.367,3.382,68.75,0,72.13Z" transform="translate(-13.983 10.864)" fill="#2436b1"/>
        <path id="Trazado_873466" data-name="Trazado 873466" d="M25,113.921l23.062-23.06,21.711,21.711L91.606,90.739l22.816,22.815,22.57-22.57,20.389,20.39,3.38-3.382L136.992,84.223l-22.57,22.57L91.606,83.977,69.771,105.812,48.059,84.1,25,107.161,3.382,85.545,0,88.925Z" transform="translate(-13.983 17.375)" fill="#2436b1"/>
      </g>
    </g>
  </g>
</svg>
