<svg xmlns="http://www.w3.org/2000/svg" width="80" height="80" viewBox="0 0 80 80">
  <g id="Grupo_1101432" data-name="Grupo 1101432" transform="translate(7971 11945)">
    <circle id="Elipse_11519" data-name="Elipse 11519" cx="40" cy="40" r="40" transform="translate(-7971 -11945)" fill="#fed7c3"/>
    <g id="Grupo_1101433" data-name="Grupo 1101433" transform="translate(-7971.898 -11945.898)">
      <path id="Trazado_876130" data-name="Trazado 876130" d="M18.733,203.145a.83.83,0,0,0,.587.243H30.109a.83.83,0,0,0,.587-.243l1.9-1.9v7.126a.83.83,0,0,0,.83.83H48.368a.83.83,0,0,0,.83-.83v-7.126l1.9,1.9a.83.83,0,0,0,.587.243H62.477a.83.83,0,0,0,.587-.243l2.49-2.49a.83.83,0,0,0,.243-.587v-2.49a.83.83,0,0,0-.83-.83h-3.32a.83.83,0,0,0-.83-.83h-1.66a.83.83,0,0,0-.691.37l-1.2,1.8-4.126-2.751-1.881-3.292a7.43,7.43,0,0,0-4.433-3.476l-1.884-.538a4.951,4.951,0,0,0,.936-2.9v-4.15a4.279,4.279,0,0,0-2.93-4.065l-2.178-.726a3.686,3.686,0,0,0-4.852,3.5v5.443a4.951,4.951,0,0,0,.936,2.9l-1.884.538a7.43,7.43,0,0,0-4.433,3.476l-1.881,3.292-4.126,2.751-1.2-1.8a.83.83,0,0,0-.691-.37H20.98a.83.83,0,0,0-.83.83H16.83a.83.83,0,0,0-.83.83v2.49a.83.83,0,0,0,.243.587Zm39.594-3.655,1.274-1.911h.386v2.49h1.66v-1.66h2.49v1.316l-2,2H58.327Zm-20.749-19.8a2.026,2.026,0,0,1,2.667-1.922l2.178.726a2.621,2.621,0,0,1,1.66,1.66h-6.5Zm0,2.123h6.64v3.32a3.32,3.32,0,0,1-6.64,0Zm3.17,11.619h.3l1.439,7.2L40.9,202.214l-1.589-1.589Zm-.821-3.415a4.971,4.971,0,0,0,1.941,0l-.7,1.755H40.63Zm-14.8,9.669,4.61-3.073a.83.83,0,0,0,.26-.279l1.979-3.462a5.778,5.778,0,0,1,3.448-2.7l2.49-.711,1.29,3.225-1.611,8.058a.83.83,0,0,0,.227.75l2.49,2.49a.83.83,0,0,0,1.174,0l2.49-2.49a.83.83,0,0,0,.227-.75l-1.611-8.058,1.29-3.225,2.49.711a5.778,5.778,0,0,1,3.448,2.7L51.8,196.33a.831.831,0,0,0,.26.279l4.61,3.073v2.046H52.031l-3.077-3.077a.83.83,0,0,0-1.417.587v8.3H34.259v-8.3a.83.83,0,0,0-1.417-.587l-3.077,3.077H25.129Zm-7.47-1.274h2.49v1.66h1.66v-2.49H22.2l1.274,1.911v2.239H19.664l-2-2Z" transform="translate(0 -143.401)" fill="#ff9b6a"/>
      <path id="Trazado_876131" data-name="Trazado 876131" d="M16.83,256.3h2.49v2.49a.83.83,0,0,0,.83.83h6.64a.83.83,0,0,0,.83-.83V256.3h2.49a.83.83,0,0,0,.83-.83v-3.32a4.154,4.154,0,0,0-4.15-4.15H20.15A4.154,4.154,0,0,0,16,252.15v3.32a.83.83,0,0,0,.83.83Zm9.129,1.66H20.98v-3.32a2.49,2.49,0,0,1,4.98,0Zm-8.3-5.81a2.493,2.493,0,0,1,2.49-2.49h6.64a2.493,2.493,0,0,1,2.49,2.49v2.49h-1.66a4.15,4.15,0,0,0-8.3,0H17.66Z" transform="translate(0 -207.932)" fill="#ff9b6a"/>
      <ellipse id="Elipse_11553" data-name="Elipse 11553" cx="1" cy="1.5" rx="1" ry="1.5" transform="translate(22.898 45.898)" fill="#ff9b6a"/>
      <path id="Trazado_876132" data-name="Trazado 876132" d="M394.49,208a2.493,2.493,0,0,0-2.49,2.49v9.959a2.493,2.493,0,0,0,2.49,2.49h4.98a2.493,2.493,0,0,0,2.49-2.49V210.49a2.493,2.493,0,0,0-2.49-2.49Zm5.81,2.49v9.959a.831.831,0,0,1-.83.83h-4.98a.831.831,0,0,1-.83-.83V210.49a.831.831,0,0,1,.83-.83h.486l.587.587a.83.83,0,0,0,.587.243h1.66a.83.83,0,0,0,.587-.243l.587-.587h.486A.831.831,0,0,1,400.3,210.49Z" transform="translate(-336.992 -172.082)" fill="#ff9b6a"/>
      <path id="Trazado_876133" data-name="Trazado 876133" d="M50.49,67.089h9.959a2.493,2.493,0,0,0,2.49-2.49V53.667a2.473,2.473,0,0,0-.729-1.761l-3.177-3.177A2.474,2.474,0,0,0,57.272,48H50.49A2.493,2.493,0,0,0,48,50.49V64.6A2.493,2.493,0,0,0,50.49,67.089Zm8.3-16.255,1.316,1.316H58.789ZM49.66,50.49a.831.831,0,0,1,.83-.83h6.64v3.32a.83.83,0,0,0,.83.83h3.32V64.6a.831.831,0,0,1-.83.83H50.49a.831.831,0,0,1-.83-.83Z" transform="translate(-28.68 -28.68)" fill="#ff9b6a"/>
      <rect id="Rectángulo_402244" data-name="Rectángulo 402244" width="8" height="3" transform="translate(22.898 32.898)" fill="#ff9b6a"/>
      <rect id="Rectángulo_402245" data-name="Rectángulo 402245" width="5" height="2" transform="translate(25.898 29.898)" fill="#ff9b6a"/>
      <rect id="Rectángulo_402246" data-name="Rectángulo 402246" width="2" height="2" transform="translate(22.898 29.898)" fill="#ff9b6a"/>
      <rect id="Rectángulo_402247" data-name="Rectángulo 402247" width="2" height="2" transform="translate(28.898 26.898)" fill="#ff9b6a"/>
      <rect id="Rectángulo_402248" data-name="Rectángulo 402248" width="4" height="2" transform="translate(22.898 26.898)" fill="#ff9b6a"/>
      <rect id="Rectángulo_402249" data-name="Rectángulo 402249" width="4" height="1" transform="translate(22.898 23.898)" fill="#ff9b6a"/>
      <path id="Trazado_876134" data-name="Trazado 876134" d="M285.283,18.248l-1.071-1.837a.83.83,0,0,0-1.3-.169l-8.2,8.2-3.2,1.6a.825.825,0,0,0-.3.256h0l-.007.01h0l-1.955,2.7a.83.83,0,0,0-.07.857L270.3,32.14a.83.83,0,0,0,.742.459h2.807l3.09,6.181a.829.829,0,0,0,1.114.371l1.66-.83a.83.83,0,0,0,.459-.742v-4.15a.83.83,0,0,0-.088-.371l-1.213-2.425,10.658-3.045a.83.83,0,0,0,.489-1.216l-1.465-2.512.121-.081a3.247,3.247,0,0,0-3.394-5.53ZM271.559,30.939l-.678-1.357.865-1.2,1.277,2.554Zm1.431-3.779,1.835-.918,1.748,3.5-1.835.918Zm5.526,9.905-.459.229-2.578-5.155,1.835-.918,1.2,2.4Zm-.4-7.944-1.914-3.829,7.115-7.115,4.729,8.107Zm10.117-8.861a1.585,1.585,0,0,1-.48,2.137l-.038.026-1.6-2.74a1.586,1.586,0,0,1,2.117.578Z" transform="translate(-226.828 0)" fill="#ff9b6a"/>
    </g>
  </g>
</svg>
