<svg xmlns="http://www.w3.org/2000/svg" width="82" height="82" viewBox="0 0 82 82">
  <g id="Grupo_1100732" data-name="Grupo 1100732" transform="translate(-948.333 -441.999)">
    <circle id="Elipse_11497" data-name="Elipse 11497" cx="41" cy="41" r="41" transform="translate(948.333 441.999)" fill="#ff9b6a"/>
    <g id="Grupo_1100726" data-name="Grupo 1100726" transform="translate(963.333 457.999)">
      <path id="Trazado_875349" data-name="Trazado 875349" d="M123.5,291.484a1.023,1.023,0,1,0-1.4-.375A1.024,1.024,0,0,0,123.5,291.484Zm0,0" transform="translate(-109.485 -259.947)" fill="#2436b1"/>
      <path id="Trazado_875350" data-name="Trazado 875350" d="M9.821,58.667l5.153,8.925A4.093,4.093,0,1,0,22.062,63.5l-3.069-5.317,2.658-1.535a1.023,1.023,0,0,0,.374-1.4l-1.331-2.3,19.6-3.844a3.069,3.069,0,0,0,2.488-4.6l-3.4-5.89,2.173-3.291a1.024,1.024,0,0,0,.032-1.076L39.539,30.7a1.025,1.025,0,0,0-.948-.51l-3.936.236L30.88,23.89a3.043,3.043,0,0,0-2.62-1.534h-.039a3.043,3.043,0,0,0-2.584,1.415L12.271,40.8,3.581,45.814A7.162,7.162,0,0,0,9.821,58.667ZM20.29,64.524a2.046,2.046,0,0,1-3.545,2.046L11.63,57.708l3.544-2.046,5.116,8.862ZM17.969,56.41l-1.023-1.772,1.772-1.023,1.023,1.772ZM38.083,32.273,39.5,34.722l-1.261,1.91L35.8,32.41Zm-10.735-7.38a1.023,1.023,0,0,1,1.759.02l11.9,20.613a1.023,1.023,0,0,1-.861,1.534,3.757,3.757,0,0,0-.561.1L27,25.351c.264-.34.3-.372.351-.458Zm-1.712,2.193L37.463,47.572l-17.85,3.5-5.428-9.4ZM2.732,54.575A5.112,5.112,0,0,1,4.6,47.586l7.975-4.6,5.116,8.861-7.975,4.6a5.122,5.122,0,0,1-6.988-1.873Zm0,0" transform="translate(0 -20.068)" fill="#2436b1"/>
      <path id="Trazado_875351" data-name="Trazado 875351" d="M49.159,310.084a1.023,1.023,0,0,0-1.4-.374l-1.772,1.023a1.024,1.024,0,0,1-1.4-.374,1.023,1.023,0,1,0-1.772,1.023,3.073,3.073,0,0,0,4.193,1.123l1.772-1.023a1.023,1.023,0,0,0,.374-1.4Zm0,0" transform="translate(-38.315 -277.898)" fill="#2436b1"/>
      <path id="Trazado_875352" data-name="Trazado 875352" d="M442.5,42.61l-5.7,3.173a1.023,1.023,0,1,0,1,1.788l5.7-3.173a1.023,1.023,0,0,0-.995-1.788Zm0,0" transform="translate(-391.637 -38.134)" fill="#2436b1"/>
      <path id="Trazado_875353" data-name="Trazado 875353" d="M445.3,137.715l-3.953-1.059a1.023,1.023,0,1,0-.53,1.976l3.954,1.059a1.023,1.023,0,1,0,.529-1.976Zm0,0" transform="translate(-395.038 -122.642)" fill="#2436b1"/>
      <path id="Trazado_875354" data-name="Trazado 875354" d="M384.588.759l-1.06,3.954a1.023,1.023,0,1,0,1.977.53l1.06-3.954a1.023,1.023,0,1,0-1.976-.53Zm0,0" transform="translate(-344.255 0)" fill="#2436b1"/>
    </g>
  </g>
</svg>
