<svg xmlns="http://www.w3.org/2000/svg" width="82" height="82" viewBox="0 0 82 82">
  <g id="Grupo_1100734" data-name="Grupo 1100734" transform="translate(-948.333 -441.999)">
    <circle id="Elipse_11497" data-name="Elipse 11497" cx="41" cy="41" r="41" transform="translate(948.333 441.999)" fill="#ff9b6a"/>
    <g id="Grupo_1100727" data-name="Grupo 1100727" transform="translate(968.384 460.146)">
      <path id="Trazado_875355" data-name="Trazado 875355" d="M203.234,20.949a.954.954,0,0,1-.673-.279l-3.53-3.53h-5.319a.952.952,0,1,1,0-1.9h5.713a.948.948,0,0,1,.673.279l2.183,2.183v-1.51a.952.952,0,0,1,.952-.952h.952a.953.953,0,0,0,.952-.952V2.857a.953.953,0,0,0-.952-.952h-20a.954.954,0,0,0-.952.952V14.283a.954.954,0,0,0,.952.952h1.9a.952.952,0,0,1,0,1.9h-1.9a2.86,2.86,0,0,1-2.857-2.857V2.857A2.86,2.86,0,0,1,184.189,0h20a2.86,2.86,0,0,1,2.857,2.857V14.283a2.86,2.86,0,0,1-2.857,2.857V20a.952.952,0,0,1-.952.952Zm0,0" transform="translate(-165.144)" fill="#2436b1"/>
      <path id="Trazado_875356" data-name="Trazado 875356" d="M3.809,63.617a.938.938,0,0,1-.365-.072.953.953,0,0,1-.588-.88V59.808A2.86,2.86,0,0,1,0,56.951V45.525a2.86,2.86,0,0,1,2.857-2.857H13.331a.952.952,0,1,1,0,1.9H2.857a.954.954,0,0,0-.952.952V56.951a.954.954,0,0,0,.952.952h.952a.953.953,0,0,1,.952.952v1.51l2.184-2.184a.95.95,0,0,1,.673-.279H22.854a.953.953,0,0,0,.952-.952V45.525a.953.953,0,0,0-.952-.952h-1.9a.952.952,0,1,1,0-1.9h1.9a2.86,2.86,0,0,1,2.857,2.857V56.951a2.86,2.86,0,0,1-2.857,2.857H8.012l-3.53,3.53a.951.951,0,0,1-.673.279Zm0,0" transform="translate(0 -38.859)" fill="#2436b1"/>
      <path id="Trazado_875357" data-name="Trazado 875357" d="M47.429,288.759A4.767,4.767,0,0,1,42.668,284v-1.9a4.761,4.761,0,1,1,9.522,0V284A4.767,4.767,0,0,1,47.429,288.759Zm0-9.522a2.86,2.86,0,0,0-2.857,2.857V284a2.857,2.857,0,1,0,5.713,0v-1.9A2.86,2.86,0,0,0,47.429,279.237Zm0,0" transform="translate(-38.859 -252.574)" fill="#2436b1"/>
      <path id="Trazado_875358" data-name="Trazado 875358" d="M11.429,395.427H5.712a8.23,8.23,0,0,1-5.433-2.183A.949.949,0,0,1,0,392.57v-3.3a1.9,1.9,0,0,1,.849-1.585l4.864-3.242V384h1.9v.952a.954.954,0,0,1-.424.792L1.9,389.271v2.864a6.344,6.344,0,0,0,3.808,1.388h5.716a6.282,6.282,0,0,0,3.807-1.384v-2.868l-5.29-3.526a.954.954,0,0,1-.424-.792V384h1.9v.443l4.866,3.243a1.9,1.9,0,0,1,.847,1.585v3.3a.949.949,0,0,1-.279.673,8.233,8.233,0,0,1-5.433,2.183Zm0,0" transform="translate(0 -349.72)" fill="#2436b1"/>
      <path id="Trazado_875359" data-name="Trazado 875359" d="M324.761,288.759A4.767,4.767,0,0,1,320,284v-1.9a4.761,4.761,0,1,1,9.522,0V284A4.767,4.767,0,0,1,324.761,288.759Zm0-9.522a2.86,2.86,0,0,0-2.857,2.857V284a2.857,2.857,0,1,0,5.713,0v-1.9A2.86,2.86,0,0,0,324.761,279.237Zm0,0" transform="translate(-291.433 -252.574)" fill="#2436b1"/>
      <path id="Trazado_875360" data-name="Trazado 875360" d="M288.76,395.427h-5.717a8.234,8.234,0,0,1-5.433-2.183.949.949,0,0,1-.279-.673v-3.3a1.9,1.9,0,0,1,.85-1.585l4.863-3.242V384h1.9v.952a.954.954,0,0,1-.424.792l-5.29,3.526v2.864a6.335,6.335,0,0,0,3.807,1.388h5.717a6.281,6.281,0,0,0,3.807-1.384v-2.868l-5.29-3.526a.954.954,0,0,1-.424-.792V384h1.9v.443l4.865,3.243a1.9,1.9,0,0,1,.848,1.585v3.3a.948.948,0,0,1-.279.673,8.231,8.231,0,0,1-5.432,2.183Zm0,0" transform="translate(-252.574 -349.72)" fill="#2436b1"/>
      <path id="Trazado_875361" data-name="Trazado 875361" d="M224,277.332h1.9v1.9H224Zm0,0" transform="translate(-204.003 -252.574)" fill="#2436b1"/>
      <path id="Trazado_875362" data-name="Trazado 875362" d="M181.332,277.332h1.9v1.9h-1.9Zm0,0" transform="translate(-165.144 -252.574)" fill="#2436b1"/>
      <path id="Trazado_875363" data-name="Trazado 875363" d="M266.668,277.332h1.9v1.9h-1.9Zm0,0" transform="translate(-242.862 -252.574)" fill="#2436b1"/>
    </g>
  </g>
</svg>
