<svg xmlns="http://www.w3.org/2000/svg" width="82" height="82" viewBox="0 0 82 82">
  <g id="Grupo_1100736" data-name="Grupo 1100736" transform="translate(-948.333 -441.999)">
    <circle id="Elipse_11497" data-name="Elipse 11497" cx="41" cy="41" r="41" transform="translate(948.333 441.999)" fill="#ff9b6a"/>
    <g id="Grupo_1100728" data-name="Grupo 1100728" transform="translate(963.409 457.075)">
      <path id="Trazado_875364" data-name="Trazado 875364" d="M135.834,134.009a10.921,10.921,0,0,0-.087-15.408,11.253,11.253,0,0,0-15.779-.14,10.979,10.979,0,0,0-.141,15.637,11.179,11.179,0,0,0,11.036,2.88,4.832,4.832,0,0,0,2.978.992,6.563,6.563,0,0,0,2.826-.693.648.648,0,0,0-.017-1.179c-.285-.127-1.13-.612-1.26-1.16-.019-.082-.076-.327.243-.727q.1-.1.2-.2Zm-1.7,1.232a2.578,2.578,0,0,0,.827,1.286,3.63,3.63,0,0,1-3.468-.716.647.647,0,0,0-.472-.2.659.659,0,0,0-.2.031,9.9,9.9,0,0,1-10.074-2.452,9.684,9.684,0,0,1,.125-13.8,9.953,9.953,0,0,1,13.955.123,9.635,9.635,0,0,1,.078,13.592c-.066.068-.133.135-.2.2a.623.623,0,0,0-.049.053,2.1,2.1,0,0,0-.525,1.88Zm0,0" transform="translate(-101.863 -100.707)" fill="#2436b1"/>
      <path id="Trazado_875365" data-name="Trazado 875365" d="M174.3,180.785h-8.822a.648.648,0,1,0,0,1.3H174.3a.648.648,0,1,0,0-1.3Zm0,0" transform="translate(-143.964 -157.901)" fill="#2436b1"/>
      <path id="Trazado_875366" data-name="Trazado 875366" d="M174.3,217.82h-8.822a.648.648,0,1,0,0,1.3H174.3a.648.648,0,1,0,0-1.3Zm0,0" transform="translate(-143.964 -190.249)" fill="#2436b1"/>
      <path id="Trazado_875367" data-name="Trazado 875367" d="M286.11,15.427a8.442,8.442,0,1,0-8.442,8.442A8.452,8.452,0,0,0,286.11,15.427Zm-12.7,5.722a4.243,4.243,0,0,1,3.018-3.9.648.648,0,0,0,.121-1.189,2.56,2.56,0,1,1,2.377.031.648.648,0,0,0,.091,1.193,4.262,4.262,0,0,1,2.918,3.87,7.091,7.091,0,0,1-8.525,0Zm-2.884-5.722a7.146,7.146,0,1,1,12.565,4.645,5.554,5.554,0,0,0-2.6-3.54,3.853,3.853,0,1,0-5.523-.074,5.516,5.516,0,0,0-2.719,3.613,7.11,7.11,0,0,1-1.726-4.644Zm0,0" transform="translate(-235.148 -6.1)" fill="#2436b1"/>
      <path id="Trazado_875368" data-name="Trazado 875368" d="M15.427,6.984a8.442,8.442,0,1,0,8.442,8.442,8.452,8.452,0,0,0-8.442-8.442ZM11.164,21.149a4.244,4.244,0,0,1,3.019-3.9.648.648,0,0,0,.121-1.189,2.561,2.561,0,1,1,2.377.031.648.648,0,0,0,.09,1.193,4.263,4.263,0,0,1,2.918,3.87,7.091,7.091,0,0,1-8.525,0Zm9.682-1.077a5.558,5.558,0,0,0-2.6-3.54,3.853,3.853,0,1,0-5.523-.074,5.518,5.518,0,0,0-2.719,3.613,7.146,7.146,0,1,1,10.84,0Zm0,0" transform="translate(-6.1 -6.1)" fill="#2436b1"/>
      <path id="Trazado_875369" data-name="Trazado 875369" d="M277.669,269.766a8.442,8.442,0,1,0,8.442,8.442A8.452,8.452,0,0,0,277.669,269.766Zm-4.263,14.164a4.243,4.243,0,0,1,3.018-3.9.648.648,0,0,0,.121-1.189,2.561,2.561,0,1,1,2.377.03.649.649,0,0,0,.091,1.193,4.262,4.262,0,0,1,2.918,3.87,7.092,7.092,0,0,1-8.525,0Zm9.682-1.077a5.554,5.554,0,0,0-2.6-3.54,3.853,3.853,0,1,0-5.523-.074,5.516,5.516,0,0,0-2.719,3.613,7.146,7.146,0,1,1,10.839,0Zm0,0" transform="translate(-235.148 -235.619)" fill="#2436b1"/>
      <path id="Trazado_875370" data-name="Trazado 875370" d="M15.427,269.766a8.442,8.442,0,1,0,8.442,8.442A8.452,8.452,0,0,0,15.427,269.766ZM11.164,283.93a4.244,4.244,0,0,1,3.019-3.9.648.648,0,0,0,.121-1.189,2.561,2.561,0,1,1,2.377.03.648.648,0,0,0,.09,1.193,4.262,4.262,0,0,1,2.918,3.87,7.092,7.092,0,0,1-8.525,0Zm9.682-1.077a5.558,5.558,0,0,0-2.6-3.54,3.853,3.853,0,1,0-5.523-.074,5.518,5.518,0,0,0-2.719,3.613,7.146,7.146,0,1,1,10.84,0Zm0,0" transform="translate(-6.1 -235.619)" fill="#2436b1"/>
      <path id="Trazado_875371" data-name="Trazado 875371" d="M133.527.045a.649.649,0,0,0-.837.373l-.832,2.173a.647.647,0,0,0,.373.837l2.173.833a.648.648,0,0,0,.463-1.21l-.675-.259A16.523,16.523,0,0,1,148.363,3a.648.648,0,1,0,.573-1.162,17.813,17.813,0,0,0-15.324-.2L133.9.881a.647.647,0,0,0-.373-.837Zm0,0" transform="translate(-115.13)" fill="#2436b1"/>
      <path id="Trazado_875372" data-name="Trazado 875372" d="M2.848,157.133a.647.647,0,0,0,.6-.416l.833-2.173a.648.648,0,1,0-1.21-.463l-.273.713A16.52,16.52,0,0,1,3,140.6a.648.648,0,1,0-1.162-.574,17.813,17.813,0,0,0-.217,15.294l-.713-.272a.648.648,0,1,0-.463,1.21l2.173.832a.648.648,0,0,0,.232.043Zm0,0" transform="translate(0 -121.987)" fill="#2436b1"/>
      <path id="Trazado_875373" data-name="Trazado 875373" d="M156.74,376.159l-2.174-.832a.648.648,0,0,0-.463,1.21l.718.275a16.525,16.525,0,0,1-14.223-.182.648.648,0,1,0-.574,1.162,17.812,17.812,0,0,0,15.317.206l-.271.708a.648.648,0,1,0,1.21.463l.832-2.174a.647.647,0,0,0-.373-.837Zm0,0" transform="translate(-121.985 -327.781)" fill="#2436b1"/>
      <path id="Trazado_875374" data-name="Trazado 875374" d="M378.9,133.707a.648.648,0,1,0,.463-1.21l-2.174-.832a.649.649,0,0,0-.837.373l-.832,2.173a.648.648,0,0,0,1.21.463l.26-.68a16.526,16.526,0,0,1-.192,14.2.648.648,0,1,0,1.162.573,17.811,17.811,0,0,0,.192-15.347Zm0,0" transform="translate(-327.955 -114.962)" fill="#2436b1"/>
    </g>
  </g>
</svg>
